<?xml version="1.0" encoding="UTF-8" standalone="no"?>
<!-- Created with Inkscape (http://www.inkscape.org/) -->

<svg
   width="108.09149mm"
   height="94.000587mm"
   viewBox="0 0 108.0915 94.000588"
   version="1.1"
   id="svg1"
   xml:space="preserve"
   inkscape:version="1.3.2 (091e20e, 2023-11-25, custom)"
   sodipodi:docname="adc_3bits.svg"
   xmlns:inkscape="http://www.inkscape.org/namespaces/inkscape"
   xmlns:sodipodi="http://sodipodi.sourceforge.net/DTD/sodipodi-0.dtd"
   xmlns="http://www.w3.org/2000/svg"
   xmlns:svg="http://www.w3.org/2000/svg"><sodipodi:namedview
     id="namedview1"
     pagecolor="#ffffff"
     bordercolor="#000000"
     borderopacity="0.25"
     inkscape:showpageshadow="2"
     inkscape:pageopacity="0.0"
     inkscape:pagecheckerboard="0"
     inkscape:deskcolor="#d1d1d1"
     inkscape:document-units="mm"
     inkscape:zoom="1.9578168"
     inkscape:cx="145.05954"
     inkscape:cy="179.53672"
     inkscape:window-width="1920"
     inkscape:window-height="991"
     inkscape:window-x="-9"
     inkscape:window-y="-9"
     inkscape:window-maximized="1"
     inkscape:current-layer="g1"><inkscape:page
       x="0"
       y="0"
       width="108.09151"
       height="94.000587"
       id="page1"
       margin="0"
       bleed="0" /></sodipodi:namedview><defs
     id="defs1"><marker
       style="overflow:visible"
       id="Triangle"
       refX="0"
       refY="0"
       orient="auto-start-reverse"
       inkscape:stockid="Triangle arrow"
       markerWidth="1"
       markerHeight="1"
       viewBox="0 0 1 1"
       inkscape:isstock="true"
       inkscape:collect="always"
       preserveAspectRatio="xMidYMid"><path
         transform="scale(0.5)"
         style="fill:context-stroke;fill-rule:evenodd;stroke:context-stroke;stroke-width:1pt"
         d="M 5.77,0 -2.88,5 V -5 Z"
         id="path135" /></marker><clipPath
       clipPathUnits="userSpaceOnUse"
       id="clipPath2"><path
         d="M 0,0 H 432 V 259 H 0 Z"
         transform="matrix(10,0,0,10,0,-2.4990504e-5)"
         id="path2" /></clipPath><clipPath
       clipPathUnits="userSpaceOnUse"
       id="clipPath3"><path
         d="M 0,0 H 432 V 259 H 0 Z"
         transform="matrix(10,0,0,10,0,-2.4990504e-5)"
         id="path3" /></clipPath><clipPath
       clipPathUnits="userSpaceOnUse"
       id="clipPath4"><path
         d="M 0,0 H 432 V 259 H 0 Z"
         transform="matrix(10,0,0,10,0,-2.4990504e-5)"
         id="path4" /></clipPath><clipPath
       clipPathUnits="userSpaceOnUse"
       id="clipPath5"><path
         d="M 0,0 H 432 V 259 H 0 Z"
         transform="matrix(10,0,0,10,0,-2.4990504e-5)"
         id="path5" /></clipPath><clipPath
       clipPathUnits="userSpaceOnUse"
       id="clipPath6"><path
         d="M 0,0 H 432 V 259 H 0 Z"
         transform="matrix(10,0,0,10,0,-2.4990504e-5)"
         id="path6" /></clipPath><clipPath
       clipPathUnits="userSpaceOnUse"
       id="clipPath7"><path
         d="M 0,0 H 432 V 259 H 0 Z"
         transform="matrix(10,0,0,10,0,-2.4990504e-5)"
         id="path7" /></clipPath><clipPath
       clipPathUnits="userSpaceOnUse"
       id="clipPath8"><path
         d="M 0,0 H 432 V 259 H 0 Z"
         transform="matrix(10,0,0,10,0,-2.4990504e-5)"
         id="path8" /></clipPath><clipPath
       clipPathUnits="userSpaceOnUse"
       id="clipPath9"><path
         d="M 0,0 H 432 V 259 H 0 Z"
         transform="matrix(10,0,0,10,0,-2.4990504e-5)"
         id="path9" /></clipPath><clipPath
       clipPathUnits="userSpaceOnUse"
       id="clipPath10"><path
         d="M 0,0 H 432 V 259 H 0 Z"
         transform="matrix(10,0,0,10,0,-2.4990504e-5)"
         id="path10" /></clipPath><clipPath
       clipPathUnits="userSpaceOnUse"
       id="clipPath11"><path
         d="M 0,0 H 432 V 259 H 0 Z"
         transform="matrix(10,0,0,10,0,-2.4990504e-5)"
         id="path11" /></clipPath><clipPath
       clipPathUnits="userSpaceOnUse"
       id="clipPath12"><path
         d="M 0,0 H 432 V 259 H 0 Z"
         transform="matrix(10,0,0,10,0,-2.4990504e-5)"
         id="path12" /></clipPath><clipPath
       clipPathUnits="userSpaceOnUse"
       id="clipPath13"><path
         d="M 0,0 H 432 V 259 H 0 Z"
         transform="matrix(10,0,0,10,0,-2.4990504e-5)"
         id="path13" /></clipPath><clipPath
       clipPathUnits="userSpaceOnUse"
       id="clipPath14"><path
         d="M 0,0 H 432 V 259 H 0 Z"
         transform="matrix(10,0,0,10,0,-2.4990504e-5)"
         id="path14" /></clipPath><clipPath
       clipPathUnits="userSpaceOnUse"
       id="clipPath15"><path
         d="M 0,0 H 432 V 259 H 0 Z"
         transform="matrix(10,0,0,10,0,-2.4990504e-5)"
         id="path15" /></clipPath><clipPath
       clipPathUnits="userSpaceOnUse"
       id="clipPath16"><path
         d="M 0,0 H 432 V 259 H 0 Z"
         transform="matrix(10,0,0,10,0,-2.4990504e-5)"
         id="path16" /></clipPath><clipPath
       clipPathUnits="userSpaceOnUse"
       id="clipPath17"><path
         d="M 0,0 H 432 V 259 H 0 Z"
         transform="matrix(10,0,0,10,0,-2.4990504e-5)"
         id="path17" /></clipPath><clipPath
       clipPathUnits="userSpaceOnUse"
       id="clipPath18"><path
         d="M 0,0 H 432 V 259 H 0 Z"
         transform="matrix(10,0,0,10,0,-2.4990504e-5)"
         id="path18" /></clipPath><clipPath
       clipPathUnits="userSpaceOnUse"
       id="clipPath19"><path
         d="M 0,0 H 432 V 259 H 0 Z"
         transform="matrix(10,0,0,10,0,-2.4990504e-5)"
         id="path19" /></clipPath><clipPath
       clipPathUnits="userSpaceOnUse"
       id="clipPath20"><path
         d="M 0,0 H 432 V 259 H 0 Z"
         transform="matrix(10,0,0,10,0,-2.4990504e-5)"
         id="path20" /></clipPath><clipPath
       clipPathUnits="userSpaceOnUse"
       id="clipPath21"><path
         d="M 0,0 H 432 V 259 H 0 Z"
         transform="matrix(10,0,0,10,0,-2.4990504e-5)"
         id="path21" /></clipPath><clipPath
       clipPathUnits="userSpaceOnUse"
       id="clipPath22"><path
         d="M 0,0 H 432 V 259 H 0 Z"
         transform="matrix(10,0,0,10,0,-2.4990504e-5)"
         id="path22" /></clipPath><clipPath
       clipPathUnits="userSpaceOnUse"
       id="clipPath23"><path
         d="M 0,0 H 432 V 259 H 0 Z"
         transform="matrix(10,0,0,10,0,-2.4990504e-5)"
         id="path23" /></clipPath><clipPath
       clipPathUnits="userSpaceOnUse"
       id="clipPath24"><path
         d="M 0,0 H 432 V 259 H 0 Z"
         transform="matrix(10,0,0,10,0,-2.4990504e-5)"
         id="path24" /></clipPath><clipPath
       clipPathUnits="userSpaceOnUse"
       id="clipPath25"><path
         d="M 0,0 H 432 V 259 H 0 Z"
         transform="matrix(10,0,0,10,0,-2.4990504e-5)"
         id="path25" /></clipPath><clipPath
       clipPathUnits="userSpaceOnUse"
       id="clipPath26"><path
         d="M 0,0 H 432 V 259 H 0 Z"
         transform="matrix(10,0,0,10,0,-2.4990504e-5)"
         id="path26" /></clipPath><clipPath
       clipPathUnits="userSpaceOnUse"
       id="clipPath27"><path
         d="M 0,0 H 432 V 259 H 0 Z"
         transform="matrix(10,0,0,10,0,-2.4990504e-5)"
         id="path27" /></clipPath><clipPath
       clipPathUnits="userSpaceOnUse"
       id="clipPath28"><path
         d="M 0,0 H 432 V 259 H 0 Z"
         transform="matrix(10,0,0,10,0,-2.4990504e-5)"
         id="path28" /></clipPath><clipPath
       clipPathUnits="userSpaceOnUse"
       id="clipPath29"><path
         d="M 0,0 H 432 V 259 H 0 Z"
         transform="matrix(10,0,0,10,0,-2.4990504e-5)"
         id="path29" /></clipPath><clipPath
       clipPathUnits="userSpaceOnUse"
       id="clipPath30"><path
         d="M 0,0 H 432 V 259 H 0 Z"
         transform="matrix(10,0,0,10,0,-2.4990504e-5)"
         id="path30" /></clipPath><clipPath
       clipPathUnits="userSpaceOnUse"
       id="clipPath31"><path
         d="M 0,0 H 432 V 259 H 0 Z"
         transform="matrix(10,0,0,10,0,-2.4990504e-5)"
         id="path31" /></clipPath><clipPath
       clipPathUnits="userSpaceOnUse"
       id="clipPath32"><path
         d="M 0,0 H 432 V 259 H 0 Z"
         transform="matrix(10,0,0,10,0,-2.4990504e-5)"
         id="path32" /></clipPath><clipPath
       clipPathUnits="userSpaceOnUse"
       id="clipPath33"><path
         d="M 0,0 H 432 V 259 H 0 Z"
         transform="matrix(10,0,0,10,0,-2.4990504e-5)"
         id="path33" /></clipPath><clipPath
       clipPathUnits="userSpaceOnUse"
       id="clipPath34"><path
         d="M 0,0 H 432 V 259 H 0 Z"
         transform="matrix(10,0,0,10,0,-2.4990504e-5)"
         id="path34" /></clipPath><clipPath
       clipPathUnits="userSpaceOnUse"
       id="clipPath35"><path
         d="M 0,0 H 432 V 259 H 0 Z"
         transform="matrix(10,0,0,10,0,-2.4990504e-5)"
         id="path35" /></clipPath><clipPath
       clipPathUnits="userSpaceOnUse"
       id="clipPath36"><path
         d="M 0,0 H 432 V 259 H 0 Z"
         transform="matrix(10,0,0,10,0,-2.4990504e-5)"
         id="path36" /></clipPath><clipPath
       clipPathUnits="userSpaceOnUse"
       id="clipPath37"><path
         d="M 0,0 H 432 V 259 H 0 Z"
         transform="matrix(10,0,0,10,0,-2.4990504e-5)"
         id="path37" /></clipPath><clipPath
       clipPathUnits="userSpaceOnUse"
       id="clipPath38"><path
         d="M 0,0 H 432 V 259 H 0 Z"
         transform="matrix(10,0,0,10,0,-2.4990504e-5)"
         id="path38" /></clipPath><clipPath
       clipPathUnits="userSpaceOnUse"
       id="clipPath39"><path
         d="M 0,0 H 432 V 259 H 0 Z"
         transform="matrix(10,0,0,10,0,-2.4990504e-5)"
         id="path39" /></clipPath><clipPath
       clipPathUnits="userSpaceOnUse"
       id="clipPath40"><path
         d="M 0,0 H 432 V 259 H 0 Z"
         transform="matrix(10,0,0,10,0,-2.4990504e-5)"
         id="path40" /></clipPath><clipPath
       clipPathUnits="userSpaceOnUse"
       id="clipPath41"><path
         d="M 0,0 H 432 V 259 H 0 Z"
         transform="matrix(10,0,0,10,0,-2.4990504e-5)"
         id="path41" /></clipPath><clipPath
       clipPathUnits="userSpaceOnUse"
       id="clipPath42"><path
         d="M 0,0 H 432 V 259 H 0 Z"
         transform="matrix(10,0,0,10,0,-2.4990504e-5)"
         id="path42" /></clipPath><clipPath
       clipPathUnits="userSpaceOnUse"
       id="clipPath43"><path
         d="M 0,0 H 432 V 259 H 0 Z"
         transform="matrix(10,0,0,10,0,-2.4990504e-5)"
         id="path43" /></clipPath><clipPath
       clipPathUnits="userSpaceOnUse"
       id="clipPath44"><path
         d="M 0,0 H 432 V 259 H 0 Z"
         transform="matrix(10,0,0,10,0,-2.4990504e-5)"
         id="path44" /></clipPath><clipPath
       clipPathUnits="userSpaceOnUse"
       id="clipPath45"><path
         d="M 0,0 H 432 V 259 H 0 Z"
         transform="matrix(10,0,0,10,0,-2.4990504e-5)"
         id="path45" /></clipPath><clipPath
       clipPathUnits="userSpaceOnUse"
       id="clipPath46"><path
         d="M 0,0 H 432 V 259 H 0 Z"
         transform="matrix(10,0,0,10,0,-2.4990504e-5)"
         id="path46" /></clipPath></defs><g
     inkscape:label="Layer 1"
     inkscape:groupmode="layer"
     id="layer1"
     transform="translate(-59.01255,-97.615365)" /><g
     id="g1"
     inkscape:groupmode="layer"
     inkscape:label="1"
     transform="matrix(0.26458333,0,0,0.26458334,160.98746,-97.615365)"><rect
       style="fill:#ffffff;fill-rule:evenodd;stroke:#ffffff;stroke-width:1.06583;stroke-dasharray:none;stroke-dashoffset:0"
       id="rect123"
       width="407.46893"
       height="354.21198"
       x="-607.92365"
       y="369.47287" /><path
       id="path1"
       d="m -534.37851,675.62074 c 0,-0.79687 -0.0312,-1.82812 -0.45312,-2.71875 -0.53125,-1.125 -1.4375,-1.40625 -2.125,-1.40625 -0.71875,0 -1.625,0.28125 -2.15625,1.42188 -0.39063,0.82812 -0.4375,1.79687 -0.4375,2.70312 0,0.78125 0.0156,1.9375 0.53125,2.89063 0.5625,1.01562 1.5,1.20312 2.04687,1.20312 0.78125,0 1.65625,-0.34375 2.15625,-1.4375 0.35938,-0.79687 0.4375,-1.70312 0.4375,-2.65625 z m -2.57812,3.79688 c -0.35938,0 -1.21875,-0.17188 -1.45313,-1.51563 -0.125,-0.71875 -0.125,-1.73437 -0.125,-2.42187 0,-0.8125 0,-1.75 0.15625,-2.42188 0.23438,-1.0625 1,-1.26562 1.40625,-1.26562 0.45313,0 1.20313,0.23437 1.4375,1.34375 0.125,0.65625 0.125,1.59375 0.125,2.34375 0,0.73437 0,1.75 -0.125,2.45312 -0.25,1.35938 -1.125,1.48438 -1.42187,1.48438 z m 8.72266,-3.79688 c 0,-0.79687 -0.0312,-1.82812 -0.45313,-2.71875 -0.53125,-1.125 -1.4375,-1.40625 -2.125,-1.40625 -0.71875,0 -1.625,0.28125 -2.15625,1.42188 -0.39062,0.82812 -0.4375,1.79687 -0.4375,2.70312 0,0.78125 0.0156,1.9375 0.53125,2.89063 0.5625,1.01562 1.5,1.20312 2.04688,1.20312 0.78125,0 1.65625,-0.34375 2.15625,-1.4375 0.35937,-0.79687 0.4375,-1.70312 0.4375,-2.65625 z m -2.57813,3.79688 c -0.35937,0 -1.21875,-0.17188 -1.45312,-1.51563 -0.125,-0.71875 -0.125,-1.73437 -0.125,-2.42187 0,-0.8125 0,-1.75 0.15625,-2.42188 0.23437,-1.0625 1,-1.26562 1.40625,-1.26562 0.45312,0 1.20312,0.23437 1.4375,1.34375 0.125,0.65625 0.125,1.59375 0.125,2.34375 0,0.73437 0,1.75 -0.125,2.45312 -0.25,1.35938 -1.125,1.48438 -1.42188,1.48438 z m 8.71875,-3.79688 c 0,-0.79687 -0.0312,-1.82812 -0.45312,-2.71875 -0.53125,-1.125 -1.4375,-1.40625 -2.125,-1.40625 -0.71875,0 -1.625,0.28125 -2.15625,1.42188 -0.39063,0.82812 -0.4375,1.79687 -0.4375,2.70312 0,0.78125 0.0156,1.9375 0.53125,2.89063 0.5625,1.01562 1.5,1.20312 2.04687,1.20312 0.78125,0 1.65625,-0.34375 2.15625,-1.4375 0.35938,-0.79687 0.4375,-1.70312 0.4375,-2.65625 z m -2.57812,3.79688 c -0.35938,0 -1.21875,-0.17188 -1.45313,-1.51563 -0.125,-0.71875 -0.125,-1.73437 -0.125,-2.42187 0,-0.8125 0,-1.75 0.15625,-2.42188 0.23438,-1.0625 1,-1.26562 1.40625,-1.26562 0.45313,0 1.20313,0.23437 1.4375,1.34375 0.125,0.65625 0.125,1.59375 0.125,2.34375 0,0.73437 0,1.75 -0.125,2.45312 -0.25,1.35938 -1.125,1.48438 -1.42187,1.48438 z m -9.70704,-40.66406 c 0,-0.79688 -0.0312,-1.82813 -0.45312,-2.71875 -0.53125,-1.125 -1.4375,-1.40625 -2.125,-1.40625 -0.71875,0 -1.625,0.28125 -2.15625,1.42187 -0.39063,0.82813 -0.4375,1.79688 -0.4375,2.70313 0,0.78125 0.0156,1.9375 0.53125,2.89062 0.5625,1.01563 1.5,1.20313 2.04687,1.20313 0.78125,0 1.65625,-0.34375 2.15625,-1.4375 0.35938,-0.79688 0.4375,-1.70313 0.4375,-2.65625 z m -2.57812,3.79687 c -0.35938,0 -1.21875,-0.17187 -1.45313,-1.51562 -0.125,-0.71875 -0.125,-1.73438 -0.125,-2.42188 0,-0.8125 0,-1.75 0.15625,-2.42187 0.23438,-1.0625 1,-1.26563 1.40625,-1.26563 0.45313,0 1.20313,0.23438 1.4375,1.34375 0.125,0.65625 0.125,1.59375 0.125,2.34375 0,0.73438 0,1.75 -0.125,2.45313 -0.25,1.35937 -1.125,1.48437 -1.42187,1.48437 z m 8.72266,-3.79687 c 0,-0.79688 -0.0312,-1.82813 -0.45313,-2.71875 -0.53125,-1.125 -1.4375,-1.40625 -2.125,-1.40625 -0.71875,0 -1.625,0.28125 -2.15625,1.42187 -0.39062,0.82813 -0.4375,1.79688 -0.4375,2.70313 0,0.78125 0.0156,1.9375 0.53125,2.89062 0.5625,1.01563 1.5,1.20313 2.04688,1.20313 0.78125,0 1.65625,-0.34375 2.15625,-1.4375 0.35937,-0.79688 0.4375,-1.70313 0.4375,-2.65625 z m -2.57813,3.79687 c -0.35937,0 -1.21875,-0.17187 -1.45312,-1.51562 -0.125,-0.71875 -0.125,-1.73438 -0.125,-2.42188 0,-0.8125 0,-1.75 0.15625,-2.42187 0.23437,-1.0625 1,-1.26563 1.40625,-1.26563 0.45312,0 1.20312,0.23438 1.4375,1.34375 0.125,0.65625 0.125,1.59375 0.125,2.34375 0,0.73438 0,1.75 -0.125,2.45313 -0.25,1.35937 -1.125,1.48437 -1.42188,1.48437 z m 6.70313,-7.60937 c 0,-0.29688 -0.0156,-0.3125 -0.3125,-0.3125 -0.75,0.75 -1.84375,0.75 -2.21875,0.75 v 0.375 c 0.23437,0 0.95312,0 1.60937,-0.3125 v 6.1875 c 0,0.4375 -0.0469,0.57812 -1.15625,0.57812 h -0.375 v 0.375 c 0.42188,-0.0312 1.48438,-0.0312 1.98438,-0.0312 0.48437,0 1.5625,0 1.98437,0.0312 v -0.375 h -0.375 c -1.10937,0 -1.14062,-0.14062 -1.14062,-0.57812 z m -10.26954,-33.05469 c 0,-0.79688 -0.0312,-1.82813 -0.45312,-2.71875 -0.53125,-1.125 -1.4375,-1.40625 -2.125,-1.40625 -0.71875,0 -1.625,0.28125 -2.15625,1.42187 -0.39063,0.82813 -0.4375,1.79688 -0.4375,2.70313 0,0.78125 0.0156,1.9375 0.53125,2.89062 0.5625,1.01563 1.5,1.20313 2.04687,1.20313 0.78125,0 1.65625,-0.34375 2.15625,-1.4375 0.35938,-0.79688 0.4375,-1.70313 0.4375,-2.65625 z m -2.57812,3.79687 c -0.35938,0 -1.21875,-0.17187 -1.45313,-1.51562 -0.125,-0.71875 -0.125,-1.73438 -0.125,-2.42188 0,-0.8125 0,-1.75 0.15625,-2.42187 0.23438,-1.0625 1,-1.26563 1.40625,-1.26563 0.45313,0 1.20313,0.23438 1.4375,1.34375 0.125,0.65625 0.125,1.59375 0.125,2.34375 0,0.73438 0,1.75 -0.125,2.45313 -0.25,1.35937 -1.125,1.48437 -1.42187,1.48437 z m 6.70703,-7.60937 c 0,-0.29688 -0.0156,-0.3125 -0.3125,-0.3125 -0.75,0.75 -1.84375,0.75 -2.21875,0.75 v 0.375 c 0.23438,0 0.95313,0 1.60938,-0.3125 v 6.1875 c 0,0.4375 -0.0469,0.57812 -1.15625,0.57812 h -0.375 v 0.375 c 0.42187,-0.0312 1.48437,-0.0312 1.98437,-0.0312 0.48438,0 1.5625,0 1.98438,0.0312 v -0.375 h -0.375 c -1.10938,0 -1.14063,-0.14062 -1.14063,-0.57812 z m 8.15625,3.8125 c 0,-0.79688 -0.0312,-1.82813 -0.45312,-2.71875 -0.53125,-1.125 -1.4375,-1.40625 -2.125,-1.40625 -0.71875,0 -1.625,0.28125 -2.15625,1.42187 -0.39063,0.82813 -0.4375,1.79688 -0.4375,2.70313 0,0.78125 0.0156,1.9375 0.53125,2.89062 0.5625,1.01563 1.5,1.20313 2.04687,1.20313 0.78125,0 1.65625,-0.34375 2.15625,-1.4375 0.35938,-0.79688 0.4375,-1.70313 0.4375,-2.65625 z m -2.57812,3.79687 c -0.35938,0 -1.21875,-0.17187 -1.45313,-1.51562 -0.125,-0.71875 -0.125,-1.73438 -0.125,-2.42188 0,-0.8125 0,-1.75 0.15625,-2.42187 0.23438,-1.0625 1,-1.26563 1.40625,-1.26563 0.45313,0 1.20313,0.23438 1.4375,1.34375 0.125,0.65625 0.125,1.59375 0.125,2.34375 0,0.73438 0,1.75 -0.125,2.45313 -0.25,1.35937 -1.125,1.48437 -1.42187,1.48437 z m -9.70704,-40.66015 c 0,-0.79688 -0.0312,-1.82813 -0.45312,-2.71875 -0.53125,-1.125 -1.4375,-1.40625 -2.125,-1.40625 -0.71875,0 -1.625,0.28125 -2.15625,1.42187 -0.39063,0.82813 -0.4375,1.79688 -0.4375,2.70313 0,0.78125 0.0156,1.9375 0.53125,2.89062 0.5625,1.01563 1.5,1.20313 2.04687,1.20313 0.78125,0 1.65625,-0.34375 2.15625,-1.4375 0.35938,-0.79688 0.4375,-1.70313 0.4375,-2.65625 z m -2.57812,3.79687 c -0.35938,0 -1.21875,-0.17187 -1.45313,-1.51562 -0.125,-0.71875 -0.125,-1.73438 -0.125,-2.42188 0,-0.8125 0,-1.75 0.15625,-2.42187 0.23438,-1.0625 1,-1.26563 1.40625,-1.26563 0.45313,0 1.20313,0.23438 1.4375,1.34375 0.125,0.65625 0.125,1.59375 0.125,2.34375 0,0.73438 0,1.75 -0.125,2.45313 -0.25,1.35937 -1.125,1.48437 -1.42187,1.48437 z m 6.70703,-7.60937 c 0,-0.29688 -0.0156,-0.3125 -0.3125,-0.3125 -0.75,0.75 -1.84375,0.75 -2.21875,0.75 v 0.375 c 0.23438,0 0.95313,0 1.60938,-0.3125 v 6.1875 c 0,0.4375 -0.0469,0.57812 -1.15625,0.57812 h -0.375 v 0.375 c 0.42187,-0.0312 1.48437,-0.0312 1.98437,-0.0312 0.48438,0 1.5625,0 1.98438,0.0312 v -0.375 h -0.375 c -1.10938,0 -1.14063,-0.14062 -1.14063,-0.57812 z m 6.14063,0 c 0,-0.29688 -0.0156,-0.3125 -0.3125,-0.3125 -0.75,0.75 -1.84375,0.75 -2.21875,0.75 v 0.375 c 0.23437,0 0.95312,0 1.60937,-0.3125 v 6.1875 c 0,0.4375 -0.0469,0.57812 -1.15625,0.57812 h -0.375 v 0.375 c 0.42188,-0.0312 1.48438,-0.0312 1.98438,-0.0312 0.48437,0 1.5625,0 1.98437,0.0312 v -0.375 h -0.375 c -1.10937,0 -1.14062,-0.14062 -1.14062,-0.57812 z M -536.39413,524.277 c 0,-0.29688 -0.0156,-0.31251 -0.3125,-0.31251 -0.75,0.75 -1.84375,0.75 -2.21875,0.75 v 0.375 c 0.23437,0 0.95312,0 1.60937,-0.31249 v 6.18749 c 0,0.43751 -0.0469,0.57812 -1.15625,0.57812 h -0.375 v 0.375 c 0.42188,-0.0312 1.48438,-0.0312 1.98438,-0.0312 0.48437,0 1.5625,0 1.98437,0.0312 v -0.375 h -0.375 c -1.10937,0 -1.14062,-0.14061 -1.14062,-0.57812 z m 8.16016,3.81249 c 0,-0.79688 -0.0312,-1.82812 -0.45313,-2.71874 -0.53125,-1.125 -1.4375,-1.40626 -2.125,-1.40626 -0.71875,0 -1.625,0.28126 -2.15625,1.42188 -0.39062,0.82812 -0.4375,1.79687 -0.4375,2.70312 0,0.78126 0.0156,1.93751 0.53125,2.89063 0.5625,1.01563 1.5,1.20312 2.04688,1.20312 0.78125,0 1.65625,-0.34375 2.15625,-1.43749 0.35937,-0.79688 0.4375,-1.70314 0.4375,-2.65626 z m -2.57813,3.79688 c -0.35937,0 -1.21875,-0.17188 -1.45312,-1.51562 -0.125,-0.71875 -0.125,-1.73438 -0.125,-2.42188 0,-0.8125 0,-1.75 0.15625,-2.42187 0.23437,-1.06251 1,-1.26563 1.40625,-1.26563 0.45312,0 1.20312,0.23438 1.4375,1.34375 0.125,0.65625 0.125,1.59375 0.125,2.34375 0,0.73437 0,1.75 -0.125,2.45313 -0.25,1.35937 -1.125,1.48437 -1.42188,1.48437 z m 8.71875,-3.79688 c 0,-0.79688 -0.0312,-1.82812 -0.45312,-2.71874 -0.53125,-1.125 -1.4375,-1.40626 -2.125,-1.40626 -0.71875,0 -1.625,0.28126 -2.15625,1.42188 -0.39063,0.82812 -0.4375,1.79687 -0.4375,2.70312 0,0.78126 0.0156,1.93751 0.53125,2.89063 0.5625,1.01563 1.5,1.20312 2.04687,1.20312 0.78125,0 1.65625,-0.34375 2.15625,-1.43749 0.35938,-0.79688 0.4375,-1.70314 0.4375,-2.65626 z m -2.57812,3.79688 c -0.35938,0 -1.21875,-0.17188 -1.45313,-1.51562 -0.125,-0.71875 -0.125,-1.73438 -0.125,-2.42188 0,-0.8125 0,-1.75 0.15625,-2.42187 0.23438,-1.06251 1,-1.26563 1.40625,-1.26563 0.45313,0 1.20313,0.23438 1.4375,1.34375 0.125,0.65625 0.125,1.59375 0.125,2.34375 0,0.73437 0,1.75 -0.125,2.45313 -0.25,1.35937 -1.125,1.48437 -1.42187,1.48437 z m -11.72266,-44.47655 c 0,-0.29688 -0.0156,-0.31251 -0.3125,-0.31251 -0.75,0.75 -1.84375,0.75 -2.21875,0.75 v 0.375 c 0.23437,0 0.95312,0 1.60937,-0.31249 v 6.18749 c 0,0.43751 -0.0469,0.57812 -1.15625,0.57812 h -0.375 v 0.375 c 0.42188,-0.0312 1.48438,-0.0312 1.98438,-0.0312 0.48437,0 1.5625,0 1.98437,0.0312 v -0.375 h -0.375 c -1.10937,0 -1.14062,-0.14061 -1.14062,-0.57812 z m 8.16016,3.81249 c 0,-0.79688 -0.0312,-1.82812 -0.45313,-2.71875 -0.53125,-1.125 -1.4375,-1.40625 -2.125,-1.40625 -0.71875,0 -1.625,0.28125 -2.15625,1.42188 -0.39062,0.82812 -0.4375,1.79687 -0.4375,2.70312 0,0.78125 0.0156,1.93751 0.53125,2.89063 0.5625,1.01562 1.5,1.20312 2.04688,1.20312 0.78125,0 1.65625,-0.34375 2.15625,-1.4375 0.35937,-0.79688 0.4375,-1.70313 0.4375,-2.65625 z m -2.57813,3.79688 c -0.35937,0 -1.21875,-0.17188 -1.45312,-1.51563 -0.125,-0.71874 -0.125,-1.73437 -0.125,-2.42188 0,-0.81249 0,-1.75 0.15625,-2.42186 0.23437,-1.06251 1,-1.26563 1.40625,-1.26563 0.45312,0 1.20312,0.23437 1.4375,1.34375 0.125,0.65625 0.125,1.59374 0.125,2.34374 0,0.73438 0,1.75 -0.125,2.45314 -0.25,1.35937 -1.125,1.48437 -1.42188,1.48437 z m 6.70313,-7.60937 c 0,-0.29688 -0.0156,-0.31251 -0.3125,-0.31251 -0.75,0.75 -1.84375,0.75 -2.21875,0.75 v 0.375 c 0.23437,0 0.95312,0 1.60937,-0.31249 v 6.18749 c 0,0.43751 -0.0469,0.57812 -1.15625,0.57812 h -0.375 v 0.375 c 0.42188,-0.0312 1.48438,-0.0312 1.98438,-0.0312 0.48437,0 1.5625,0 1.98437,0.0312 v -0.375 h -0.375 c -1.10937,0 -1.14062,-0.14061 -1.14062,-0.57812 z m -12.28516,-36.8633 c 0,-0.29686 -0.0156,-0.31249 -0.3125,-0.31249 -0.75,0.75 -1.84375,0.75 -2.21875,0.75 v 0.375 c 0.23437,0 0.95312,0 1.60937,-0.31251 v 6.18751 c 0,0.43749 -0.0469,0.57812 -1.15625,0.57812 h -0.375 v 0.375 c 0.42188,-0.0312 1.48438,-0.0312 1.98438,-0.0312 0.48437,0 1.5625,0 1.98437,0.0312 v -0.375 h -0.375 c -1.10937,0 -1.14062,-0.14063 -1.14062,-0.57812 z m 6.14453,0 c 0,-0.29686 -0.0156,-0.31249 -0.3125,-0.31249 -0.75,0.75 -1.84375,0.75 -2.21875,0.75 v 0.375 c 0.23438,0 0.95313,0 1.60938,-0.31251 v 6.18751 c 0,0.43749 -0.0469,0.57812 -1.15625,0.57812 h -0.375 v 0.375 c 0.42187,-0.0312 1.48437,-0.0312 1.98437,-0.0312 0.48438,0 1.5625,0 1.98438,0.0312 v -0.375 h -0.375 c -1.10938,0 -1.14063,-0.14063 -1.14063,-0.57812 z m 8.15625,3.81251 c 0,-0.79688 -0.0312,-1.82812 -0.45312,-2.71875 -0.53125,-1.125 -1.4375,-1.40625 -2.125,-1.40625 -0.71875,0 -1.625,0.28125 -2.15625,1.42188 -0.39063,0.82812 -0.4375,1.79687 -0.4375,2.70312 0,0.78125 0.0156,1.93749 0.53125,2.89063 0.5625,1.01562 1.5,1.20312 2.04687,1.20312 0.78125,0 1.65625,-0.34375 2.15625,-1.4375 0.35938,-0.79688 0.4375,-1.70313 0.4375,-2.65625 z m -2.57812,3.79688 c -0.35938,0 -1.21875,-0.17188 -1.45313,-1.51563 -0.125,-0.71876 -0.125,-1.73437 -0.125,-2.42188 0,-0.81249 0,-1.75 0.15625,-2.42188 0.23438,-1.06249 1,-1.26561 1.40625,-1.26561 0.45313,0 1.20313,0.23437 1.4375,1.34375 0.125,0.65625 0.125,1.59374 0.125,2.34374 0,0.73438 0,1.75 -0.125,2.45312 -0.25,1.35939 -1.125,1.48439 -1.42187,1.48439 z m -11.72266,-44.47657 c 0,-0.29687 -0.0156,-0.3125 -0.3125,-0.3125 -0.75,0.75 -1.84375,0.75 -2.21875,0.75 v 0.375 c 0.23437,0 0.95312,0 1.60937,-0.3125 v 6.1875 c 0,0.4375 -0.0469,0.57812 -1.15625,0.57812 h -0.375 v 0.375 c 0.42188,-0.0312 1.48438,-0.0312 1.98438,-0.0312 0.48437,0 1.5625,0 1.98437,0.0312 v -0.375 h -0.375 c -1.10937,0 -1.14062,-0.14062 -1.14062,-0.57812 z m 6.14453,0 c 0,-0.29687 -0.0156,-0.3125 -0.3125,-0.3125 -0.75,0.75 -1.84375,0.75 -2.21875,0.75 v 0.375 c 0.23438,0 0.95313,0 1.60938,-0.3125 v 6.1875 c 0,0.4375 -0.0469,0.57812 -1.15625,0.57812 h -0.375 v 0.375 c 0.42187,-0.0312 1.48437,-0.0312 1.98437,-0.0312 0.48438,0 1.5625,0 1.98438,0.0312 v -0.375 h -0.375 c -1.10938,0 -1.14063,-0.14062 -1.14063,-0.57812 z m 6.14063,0 c 0,-0.29687 -0.0156,-0.3125 -0.3125,-0.3125 -0.75,0.75 -1.84375,0.75 -2.21875,0.75 v 0.375 c 0.23437,0 0.95312,0 1.60937,-0.3125 v 6.1875 c 0,0.4375 -0.0469,0.57812 -1.15625,0.57812 h -0.375 v 0.375 c 0.42188,-0.0312 1.48438,-0.0312 1.98438,-0.0312 0.48437,0 1.5625,0 1.98437,0.0312 v -0.375 h -0.375 c -1.10937,0 -1.14062,-0.14062 -1.14062,-0.57812 z m 12.28906,273.9375 c 0,-0.79688 -0.0313,-1.82813 -0.45313,-2.71875 -0.53125,-1.125 -1.4375,-1.40625 -2.125,-1.40625 -0.71875,0 -1.625,0.28125 -2.15625,1.42187 -0.39062,0.82813 -0.4375,1.79688 -0.4375,2.70313 0,0.78125 0.0156,1.9375 0.53125,2.89062 0.5625,1.01563 1.5,1.20313 2.04688,1.20313 0.78125,0 1.65625,-0.34375 2.15625,-1.4375 0.35937,-0.79688 0.4375,-1.70313 0.4375,-2.65625 z m -2.57813,3.79687 c -0.35937,0 -1.21875,-0.17187 -1.45312,-1.51562 -0.125,-0.71875 -0.125,-1.73438 -0.125,-2.42188 0,-0.8125 0,-1.75 0.15625,-2.42187 0.23437,-1.0625 1,-1.26563 1.40625,-1.26563 0.45312,0 1.20312,0.23438 1.4375,1.34375 0.125,0.65625 0.125,1.59375 0.125,2.34375 0,0.73438 0,1.75 -0.125,2.45313 -0.25,1.35937 -1.125,1.48437 -1.42188,1.48437 z m 31.28516,-7.60937 c 0,-0.29688 -0.0156,-0.3125 -0.3125,-0.3125 -0.75,0.75 -1.84375,0.75 -2.21875,0.75 v 0.375 c 0.23437,0 0.95312,0 1.60937,-0.3125 v 6.1875 c 0,0.4375 -0.0469,0.57812 -1.15625,0.57812 h -0.375 v 0.375 c 0.42188,-0.0312 1.48438,-0.0312 1.98438,-0.0312 0.48437,0 1.5625,0 1.98437,0.0312 v -0.375 h -0.375 c -1.10937,0 -1.14062,-0.14062 -1.14062,-0.57812 z m 7.89453,-0.85938 c 0.0312,-0.10937 0.0625,-0.15625 0.0625,-0.20312 0,-0.17188 -0.14062,-0.26563 -0.25,-0.26563 -0.1875,0 -0.25,0.14063 -0.29687,0.28125 l -4.17188,11.20313 c -0.0312,0.10937 -0.0469,0.15625 -0.0469,0.20312 0,0.1875 0.14063,0.26563 0.25,0.26563 0.1875,0 0.23438,-0.125 0.28125,-0.26563 z m 2.81641,3.07813 c -0.35938,-0.23438 -0.64063,-0.54688 -0.64063,-1 0,-0.78125 0.84375,-1.23438 1.625,-1.23438 0.92188,0 1.65625,0.64063 1.65625,1.46875 0,0.84375 -0.70312,1.39063 -1.1875,1.67188 z m 1.75,1.09375 c 0.59375,-0.28125 1.46875,-0.89063 1.46875,-1.85938 0,-1.10937 -1.125,-1.76562 -2.20313,-1.76562 -1.25,0 -2.23437,0.89062 -2.23437,1.98437 0,0.45313 0.17187,0.89063 0.45312,1.23438 0.20313,0.23437 0.28125,0.28125 0.96875,0.71875 -1.04687,0.5 -1.75,1.23437 -1.75,2.20312 0,1.28125 1.25,2.07813 2.54688,2.07813 1.39062,0 2.5625,-0.98438 2.5625,-2.28125 0,-1.15625 -0.89063,-1.71875 -1.1875,-1.92188 -0.14063,-0.0937 -0.48438,-0.3125 -0.625,-0.39062 z m -1.21875,0.51562 1.5,0.9375 c 0.28125,0.17188 0.875,0.5625 0.875,1.28125 0,0.95313 -0.95313,1.51563 -1.89063,1.51563 -1.04687,0 -1.92187,-0.73438 -1.92187,-1.73438 0,-0.85937 0.59375,-1.5625 1.4375,-2 z m 25.62499,-3.82812 c 0,-0.29688 -0.0156,-0.3125 -0.3125,-0.3125 -0.75,0.75 -1.84374,0.75 -2.21874,0.75 v 0.375 c 0.23437,0 0.95312,0 1.60937,-0.3125 v 6.1875 c 0,0.4375 -0.0469,0.57812 -1.15625,0.57812 h -0.375 v 0.375 c 0.42188,-0.0312 1.48438,-0.0312 1.98438,-0.0312 0.48437,0 1.5625,0 1.98437,0.0312 v -0.375 h -0.375 c -1.10937,0 -1.14063,-0.14062 -1.14063,-0.57812 z m 7.89454,-0.85938 c 0.0312,-0.10937 0.0625,-0.15625 0.0625,-0.20312 0,-0.17188 -0.14063,-0.26563 -0.25,-0.26563 -0.1875,0 -0.25,0.14063 -0.29688,0.28125 l -4.17187,11.20313 c -0.0312,0.10937 -0.0469,0.15625 -0.0469,0.20312 0,0.1875 0.14062,0.26563 0.25,0.26563 0.1875,0 0.23437,-0.125 0.28125,-0.26563 z m 1.09375,6.15625 v 0.375 h 3.26562 v 1.03125 c 0,0.4375 -0.0312,0.5625 -0.9375,0.5625 h -0.25 v 0.375 c 0.75,-0.0312 1.57813,-0.0312 1.67188,-0.0312 0.0469,0 0.92187,0 1.67187,0.0312 v -0.375 h -0.26562 c -0.89063,0 -0.9375,-0.125 -0.9375,-0.5625 v -1.03125 h 1.21875 v -0.375 h -1.21875 v -5.42187 c 0,-0.25 0,-0.32813 -0.21875,-0.32813 -0.14063,0 -0.15625,0.0156 -0.26563,0.1875 z m 0.39062,0 2.95313,-4.42187 v 4.42187 z m 27.48828,-1.85937 c 1.10938,-0.42188 1.64063,-1.29688 1.64063,-2.125 0,-0.92188 -1.01563,-1.625 -2.25,-1.625 -1.25,0 -2.1875,0.70312 -2.1875,1.60937 0,0.39063 0.26562,0.625 0.60937,0.625 0.35938,0 0.60938,-0.25 0.60938,-0.60937 0,-0.40625 -0.29688,-0.59375 -0.70313,-0.59375 0.3125,-0.5 1.04688,-0.73438 1.625,-0.73438 1,0 1.1875,0.78125 1.1875,1.34375 0,0.35938 -0.0781,0.9375 -0.375,1.39063 -0.35937,0.53125 -0.78125,0.5625 -1.125,0.57812 -0.3125,0.0312 -0.32812,0.0312 -0.42187,0.0312 -0.10938,0.0156 -0.20313,0.0156 -0.20313,0.15625 0,0.15625 0.0937,0.15625 0.29688,0.15625 h 0.5625 c 1.03125,0 1.5,0.82813 1.5,1.96875 0,1.53125 -0.82813,1.95313 -1.4375,1.95313 -0.21875,0 -1.375,-0.0469 -1.92188,-0.9375 0.4375,0.0625 0.76563,-0.23438 0.76563,-0.64063 0,-0.40625 -0.29688,-0.65625 -0.64063,-0.65625 -0.29687,0 -0.65625,0.1875 -0.65625,0.6875 0,1.0625 1.10938,1.89063 2.5,1.89063 1.48438,0 2.60938,-1.07813 2.60938,-2.29688 0,-1.04687 -0.82813,-1.92187 -1.98438,-2.17187 z m 7.89063,-4.29688 c 0.0312,-0.10937 0.0625,-0.15625 0.0625,-0.20312 0,-0.17188 -0.14063,-0.26563 -0.25,-0.26563 -0.1875,0 -0.25,0.14063 -0.29688,0.28125 l -4.17187,11.20313 c -0.0312,0.10937 -0.0469,0.15625 -0.0469,0.20312 0,0.1875 0.14062,0.26563 0.25,0.26563 0.1875,0 0.23437,-0.125 0.28125,-0.26563 z m 2.8164,3.07813 c -0.35937,-0.23438 -0.64062,-0.54688 -0.64062,-1 0,-0.78125 0.84374,-1.23438 1.625,-1.23438 0.92188,0 1.65625,0.64063 1.65625,1.46875 0,0.84375 -0.70312,1.39063 -1.18751,1.67188 z m 1.75,1.09375 c 0.59375,-0.28125 1.46875,-0.89063 1.46875,-1.85938 0,-1.10937 -1.125,-1.76562 -2.20312,-1.76562 -1.25,0 -2.23437,0.89062 -2.23437,1.98437 0,0.45313 0.17186,0.89063 0.45312,1.23438 0.20313,0.23437 0.28125,0.28125 0.96874,0.71875 -1.04686,0.5 -1.75,1.23437 -1.75,2.20312 0,1.28125 1.25,2.07813 2.54688,2.07813 1.39063,0 2.56251,-0.98438 2.56251,-2.28125 0,-1.15625 -0.89063,-1.71875 -1.18751,-1.92188 -0.14062,-0.0937 -0.48437,-0.3125 -0.625,-0.39062 z m -1.21874,0.51562 1.5,0.9375 c 0.28125,0.17188 0.875,0.5625 0.875,1.28125 0,0.95313 -0.95314,1.51563 -1.89063,1.51563 -1.04688,0 -1.92188,-0.73438 -1.92188,-1.73438 0,-0.85937 0.59376,-1.5625 1.43751,-2 z m 25.68749,-3.82812 c 0,-0.29688 -0.0156,-0.3125 -0.3125,-0.3125 -0.75,0.75 -1.84374,0.75 -2.21874,0.75 v 0.375 c 0.23437,0 0.95312,0 1.60937,-0.3125 v 6.1875 c 0,0.4375 -0.0469,0.57812 -1.15625,0.57812 h -0.375 v 0.375 c 0.42188,-0.0312 1.48437,-0.0312 1.98437,-0.0312 0.48437,0 1.56251,0 1.98437,0.0312 v -0.375 h -0.375 c -1.10937,0 -1.14062,-0.14062 -1.14062,-0.57812 z m 7.89063,-0.85938 c 0.0312,-0.10937 0.0625,-0.15625 0.0625,-0.20312 0,-0.17188 -0.14063,-0.26563 -0.25,-0.26563 -0.18751,0 -0.25,0.14063 -0.29688,0.28125 l -4.17188,11.20313 c -0.0312,0.10937 -0.0468,0.15625 -0.0468,0.20312 0,0.1875 0.14062,0.26563 0.25,0.26563 0.18749,0 0.23437,-0.125 0.28125,-0.26563 z m 6.26953,6.39063 h -0.32812 c -0.0312,0.15625 -0.12493,0.85937 -0.28125,1.04687 -0.0625,0.10938 -0.89063,0.10938 -1.125,0.10938 h -2.125 l 1.17186,-1.125 c 1.96876,-1.70313 2.68751,-2.32813 2.68751,-3.54688 0,-1.375 -1.125,-2.32812 -2.59375,-2.32812 -1.375,0 -2.3125,1.07812 -2.3125,2.17187 0,0.59375 0.51562,0.65625 0.625,0.65625 0.26562,0 0.625,-0.1875 0.625,-0.625 0,-0.35937 -0.25,-0.625 -0.625,-0.625 -0.0625,0 -0.0937,0 -0.14063,0.0156 0.28125,-0.84375 1.04688,-1.23438 1.68751,-1.23438 1.21874,0 1.64062,1.14063 1.64062,1.96875 0,1.21875 -0.92188,2.20313 -1.5,2.82813 l -2.1875,2.35937 c -0.12494,0.14063 -0.12494,0.15625 -0.12494,0.4375 h 4.57814 z m 20.31249,-2.01563 c 0,0.21875 0,0.34375 0.15625,0.34375 0.0937,0 0.14063,-0.0469 0.20314,-0.15625 0.35937,-0.5 0.93749,-0.78125 1.56249,-0.78125 1.28125,0 1.28125,1.84375 1.28125,2.26563 0,0.375 0,1.10937 -0.34374,1.65625 -0.31251,0.5 -0.82814,0.71875 -1.28126,0.71875 -0.71874,0 -1.51562,-0.4375 -1.79688,-1.32813 0.0156,0 0.0781,0.0312 0.15626,0.0312 0.25,0 0.59374,-0.15625 0.59374,-0.57812 0,-0.375 -0.26562,-0.59375 -0.59374,-0.59375 -0.25,0 -0.57812,0.14062 -0.57812,0.625 0,1.07812 0.90624,2.1875 2.23437,2.1875 1.45312,0 2.67187,-1.17188 2.67187,-2.65625 0,-1.45313 -1.01563,-2.625 -2.32812,-2.625 -0.56251,0 -1.15626,0.1875 -1.57812,0.60937 v -2.34375 c 0.35937,0.10938 0.73437,0.15625 1.10937,0.15625 1.46875,0 2.32812,-1.0625 2.32812,-1.21875 0,-0.0937 -0.0781,-0.14062 -0.14063,-0.14062 -0.0156,0 -0.0468,0 -0.15625,0.0469 -0.54687,0.23438 -1.10937,0.32813 -1.60937,0.32813 -0.51563,0 -1.04687,-0.0937 -1.59375,-0.32813 -0.12493,-0.0469 -0.14063,-0.0469 -0.15625,-0.0469 -0.14063,0 -0.14063,0.10937 -0.14063,0.3125 z m 10.28516,-4.375 c 0.0312,-0.10937 0.0625,-0.15625 0.0625,-0.20312 0,-0.17188 -0.14063,-0.26563 -0.25,-0.26563 -0.18751,0 -0.25,0.14063 -0.29688,0.28125 l -4.17188,11.20313 c -0.0312,0.10937 -0.0468,0.15625 -0.0468,0.20312 0,0.1875 0.14063,0.26563 0.25,0.26563 0.18749,0 0.23437,-0.125 0.28125,-0.26563 z m 2.81641,3.07813 c -0.35937,-0.23438 -0.64062,-0.54688 -0.64062,-1 0,-0.78125 0.84374,-1.23438 1.625,-1.23438 0.92186,0 1.65625,0.64063 1.65625,1.46875 0,0.84375 -0.70313,1.39063 -1.18751,1.67188 z m 1.75,1.09375 c 0.59375,-0.28125 1.46875,-0.89063 1.46875,-1.85938 0,-1.10937 -1.125,-1.76562 -2.20312,-1.76562 -1.25,0 -2.23439,0.89062 -2.23439,1.98437 0,0.45313 0.17188,0.89063 0.45314,1.23438 0.20312,0.23437 0.28125,0.28125 0.96874,0.71875 -1.04688,0.5 -1.75,1.23437 -1.75,2.20312 0,1.28125 1.25,2.07813 2.54688,2.07813 1.39063,0 2.5625,-0.98438 2.5625,-2.28125 0,-1.15625 -0.89063,-1.71875 -1.1875,-1.92188 -0.14062,-0.0937 -0.48437,-0.3125 -0.625,-0.39062 z m -1.21876,0.51562 1.5,0.9375 c 0.28126,0.17188 0.875,0.5625 0.875,1.28125 0,0.95313 -0.95312,1.51563 -1.89061,1.51563 -1.04688,0 -1.92188,-0.73438 -1.92188,-1.73438 0,-0.85937 0.59375,-1.5625 1.43749,-2 z m 25.625,-0.39062 c 1.10939,-0.42188 1.64063,-1.29688 1.64063,-2.125 0,-0.92188 -1.01563,-1.625 -2.25,-1.625 -1.25,0 -2.18749,0.70312 -2.18749,1.60937 0,0.39063 0.26562,0.625 0.60937,0.625 0.35937,0 0.60937,-0.25 0.60937,-0.60937 0,-0.40625 -0.29688,-0.59375 -0.70312,-0.59375 0.3125,-0.5 1.04687,-0.73438 1.625,-0.73438 1,0 1.1875,0.78125 1.1875,1.34375 0,0.35938 -0.0781,0.9375 -0.375,1.39063 -0.35938,0.53125 -0.78126,0.5625 -1.125,0.57812 -0.3125,0.0312 -0.32812,0.0312 -0.42187,0.0312 -0.10933,0.0156 -0.20313,0.0156 -0.20313,0.15625 0,0.15625 0.0937,0.15625 0.29688,0.15625 h 0.56249 c 1.03125,0 1.5,0.82813 1.5,1.96875 0,1.53125 -0.82812,1.95313 -1.43749,1.95313 -0.21875,0 -1.375,-0.0469 -1.92188,-0.9375 0.4375,0.0625 0.76562,-0.23438 0.76562,-0.64063 0,-0.40625 -0.29688,-0.65625 -0.64062,-0.65625 -0.29687,0 -0.65626,0.1875 -0.65626,0.6875 0,1.0625 1.10939,1.89063 2.5,1.89063 1.48439,0 2.60939,-1.07813 2.60939,-2.29688 0,-1.04687 -0.82813,-1.92187 -1.98439,-2.17187 z m 7.89454,-4.29688 c 0.0312,-0.10937 0.0625,-0.15625 0.0625,-0.20312 0,-0.17188 -0.14063,-0.26563 -0.25,-0.26563 -0.18751,0 -0.25,0.14063 -0.29688,0.28125 l -4.17187,11.20313 c -0.0312,0.10937 -0.0469,0.15625 -0.0469,0.20312 0,0.1875 0.14063,0.26563 0.25,0.26563 0.18749,0 0.23437,-0.125 0.28125,-0.26563 z m 1.09765,6.15625 v 0.375 h 3.26563 v 1.03125 c 0,0.4375 -0.0312,0.5625 -0.9375,0.5625 h -0.25 v 0.375 c 0.75,-0.0312 1.57812,-0.0312 1.67187,-0.0312 0.0469,0 0.92188,0 1.67188,0.0312 v -0.375 h -0.26563 c -0.89062,0 -0.93749,-0.125 -0.93749,-0.5625 v -1.03125 h 1.21875 v -0.375 h -1.21875 v -5.42187 c 0,-0.25 0,-0.32813 -0.21876,-0.32813 -0.14061,0 -0.15624,0.0156 -0.26561,0.1875 z m 0.39063,0 2.95313,-4.42187 v 4.42187 z m 29.70313,-4.95312 c 0.10933,-0.125 0.10933,-0.15625 0.10933,-0.40625 h -2.98437 c -1.5,0 -1.53125,-0.15625 -1.57813,-0.375 h -0.32812 l -0.39063,2.5 h 0.32812 c 0.0469,-0.28125 0.14063,-0.95313 0.29688,-1.09375 0.0937,-0.0625 1.03125,-0.0625 1.20312,-0.0625 h 2.5 l -1.14061,1.5625 c -1.56251,2.14062 -1.70314,4.07812 -1.70314,4.76562 0,0.125 0,0.67188 0.54688,0.67188 0.5625,0 0.5625,-0.53125 0.5625,-0.6875 v -0.57813 c 0,-1.76562 0.26562,-3.14062 0.90625,-4.01562 z m 5.67577,-1.20313 c 0.0312,-0.10937 0.0625,-0.15625 0.0625,-0.20312 0,-0.17188 -0.14062,-0.26563 -0.25,-0.26563 -0.1875,0 -0.25,0.14063 -0.29688,0.28125 l -4.17186,11.20313 c -0.0312,0.10937 -0.0469,0.15625 -0.0469,0.20312 0,0.1875 0.14062,0.26563 0.25,0.26563 0.18749,0 0.23437,-0.125 0.28125,-0.26563 z m 2.81642,3.07813 c -0.35938,-0.23438 -0.64063,-0.54688 -0.64063,-1 0,-0.78125 0.84375,-1.23438 1.625,-1.23438 0.92188,0 1.65625,0.64063 1.65625,1.46875 0,0.84375 -0.70313,1.39063 -1.1875,1.67188 z m 1.75,1.09375 c 0.59374,-0.28125 1.46874,-0.89063 1.46874,-1.85938 0,-1.10937 -1.125,-1.76562 -2.20312,-1.76562 -1.25,0 -2.23437,0.89062 -2.23437,1.98437 0,0.45313 0.17187,0.89063 0.45312,1.23438 0.20312,0.23437 0.28125,0.28125 0.96875,0.71875 -1.04687,0.5 -1.75,1.23437 -1.75,2.20312 0,1.28125 1.25,2.07813 2.54688,2.07813 1.39062,0 2.56249,-0.98438 2.56249,-2.28125 0,-1.15625 -0.89063,-1.71875 -1.18749,-1.92188 -0.14063,-0.0937 -0.48438,-0.3125 -0.625,-0.39062 z m -1.21875,0.51562 1.5,0.9375 c 0.28124,0.17188 0.875,0.5625 0.875,1.28125 0,0.95313 -0.95313,1.51563 -1.89063,1.51563 -1.04688,0 -1.92188,-0.73438 -1.92188,-1.73438 0,-0.85937 0.59375,-1.5625 1.43751,-2 z m 30.93358,-4.3125 h -6.70311 v 0.375 h 0.28124 c 0.92188,0 0.9375,0.125 0.9375,0.5625 v 6.25 c 0,0.4375 -0.0156,0.5625 -0.9375,0.5625 h -0.28124 v 0.375 c 0.53124,-0.0312 1.28124,-0.0312 1.82812,-0.0312 0.48437,0 1.5625,0 1.98437,0.0312 v -0.375 h -0.375 c -1.09375,0 -1.14063,-0.14062 -1.14063,-0.57812 v -2.9375 h 1.07813 c 1.15624,0 1.28124,0.39062 1.28124,1.40625 h 0.34376 v -3.17188 h -0.34376 c 0,1.01563 -0.12493,1.40625 -1.28124,1.40625 h -1.07813 v -3.01562 c 0,-0.40625 0.0156,-0.48438 0.57813,-0.48438 h 1.51563 c 1.82812,0 2.125,0.65625 2.31249,2.3125 h 0.34375 z m 3.58203,3.125 c -0.96875,-0.23437 -1.26561,-1 -1.26561,-1.53125 0,-0.79687 0.64061,-1.5625 1.64061,-1.5625 1.54688,0 2.17188,1.15625 2.32813,2.35938 0.0469,0.21875 0.0469,0.28125 0.20312,0.28125 0.15626,0 0.15626,-0.0781 0.15626,-0.32813 v -2.3125 c 0,-0.23437 0,-0.32812 -0.14063,-0.32812 -0.0781,0 -0.0937,0 -0.17188,0.15625 -0.15624,0.20312 -0.0469,0.0469 -0.43749,0.67187 -0.20312,-0.23437 -0.82812,-0.82812 -1.95312,-0.82812 -1.39063,0 -2.39063,1.07812 -2.39063,2.29687 0,0.9375 0.56249,1.51563 0.60937,1.57813 0.54687,0.51562 0.76563,0.57812 2.1875,0.90625 0.96876,0.23437 1.0625,0.26562 1.46876,0.67187 0,0 0.40624,0.45313 0.40624,1.15625 0,0.8125 -0.57812,1.70313 -1.67187,1.70313 -0.92188,0 -2.57813,-0.375 -2.67188,-2.35938 -0.0156,-0.17187 -0.0156,-0.25 -0.17188,-0.25 -0.15624,0 -0.15624,0.0937 -0.15624,0.34375 v 2.29688 c 0,0.25 0,0.34375 0.14063,0.34375 0.0781,0 0.0937,-0.0156 0.17186,-0.15625 0.15626,-0.21875 0.0469,-0.0625 0.43751,-0.6875 0.73437,0.71875 1.68749,0.84375 2.26563,0.84375 1.45312,0 2.42186,-1.20313 2.42186,-2.48438 0,-0.67187 -0.25,-1.20312 -0.53125,-1.5625 -0.51561,-0.65625 -1.04687,-0.78125 -1.82812,-0.96875 z m 0,0"
       style="fill:#000000;fill-opacity:1;fill-rule:nonzero;stroke:none;stroke-width:1.33333"
       aria-label="000&#10;001&#10;010&#10;011&#10;100&#10;101&#10;110&#10;111&#10;01/81/43/81/25/83/47/8FS" /><g
       id="g91"
       transform="translate(-674.66757,369.48012)"><path
         d="M 1202,288 H 3414.5"
         style="fill:none;stroke:#e1e1e1;stroke-width:2.5;stroke-linecap:butt;stroke-linejoin:miter;stroke-miterlimit:3.8;stroke-dasharray:none;stroke-opacity:1"
         transform="matrix(0.13334,0,0,-0.133384,0,345.45733)"
         clip-path="url(#clipPath2)"
         id="path47" /><path
         d="m 1202,288 h 31.5 m 2181,0 H 3383"
         style="fill:none;stroke:#000000;stroke-width:2.5;stroke-linecap:butt;stroke-linejoin:miter;stroke-miterlimit:3.8;stroke-dasharray:none;stroke-opacity:1"
         transform="matrix(0.13334,0,0,-0.133384,0,345.45733)"
         clip-path="url(#clipPath3)"
         id="path48" /><path
         d="M 1202,564.5 H 3414.5"
         style="fill:none;stroke:#e1e1e1;stroke-width:2.5;stroke-linecap:butt;stroke-linejoin:miter;stroke-miterlimit:3.8;stroke-dasharray:none;stroke-opacity:1"
         transform="matrix(0.13334,0,0,-0.133384,0,345.45733)"
         clip-path="url(#clipPath4)"
         id="path49" /><path
         d="m 1202,564.5 h 31.5 m 2181,0 H 3383"
         style="fill:none;stroke:#000000;stroke-width:2.5;stroke-linecap:butt;stroke-linejoin:miter;stroke-miterlimit:3.8;stroke-dasharray:none;stroke-opacity:1"
         transform="matrix(0.13334,0,0,-0.133384,0,345.45733)"
         clip-path="url(#clipPath5)"
         id="path50" /><path
         d="M 1202,841 H 3414.5"
         style="fill:none;stroke:#e1e1e1;stroke-width:2.5;stroke-linecap:butt;stroke-linejoin:miter;stroke-miterlimit:3.8;stroke-dasharray:none;stroke-opacity:1"
         transform="matrix(0.13334,0,0,-0.133384,0,345.45733)"
         clip-path="url(#clipPath6)"
         id="path51" /><path
         d="m 1202,841 h 31.5 m 2181,0 H 3383"
         style="fill:none;stroke:#000000;stroke-width:2.5;stroke-linecap:butt;stroke-linejoin:miter;stroke-miterlimit:3.8;stroke-dasharray:none;stroke-opacity:1"
         transform="matrix(0.13334,0,0,-0.133384,0,345.45733)"
         clip-path="url(#clipPath7)"
         id="path52" /><path
         d="M 1202,1117.5 H 3414.5"
         style="fill:none;stroke:#e1e1e1;stroke-width:2.5;stroke-linecap:butt;stroke-linejoin:miter;stroke-miterlimit:3.8;stroke-dasharray:none;stroke-opacity:1"
         transform="matrix(0.13334,0,0,-0.133384,0,345.45733)"
         clip-path="url(#clipPath8)"
         id="path53" /><path
         d="m 1202,1117.5 h 31.5 m 2181,0 H 3383"
         style="fill:none;stroke:#000000;stroke-width:2.5;stroke-linecap:butt;stroke-linejoin:miter;stroke-miterlimit:3.8;stroke-dasharray:none;stroke-opacity:1"
         transform="matrix(0.13334,0,0,-0.133384,0,345.45733)"
         clip-path="url(#clipPath9)"
         id="path54" /><path
         d="M 1202,1394.5 H 3414.5"
         style="fill:none;stroke:#e1e1e1;stroke-width:2.5;stroke-linecap:butt;stroke-linejoin:miter;stroke-miterlimit:3.8;stroke-dasharray:none;stroke-opacity:1"
         transform="matrix(0.13334,0,0,-0.133384,0,345.45733)"
         clip-path="url(#clipPath10)"
         id="path55" /><path
         d="m 1202,1394.5 h 31.5 m 2181,0 H 3383"
         style="fill:none;stroke:#000000;stroke-width:2.5;stroke-linecap:butt;stroke-linejoin:miter;stroke-miterlimit:3.8;stroke-dasharray:none;stroke-opacity:1"
         transform="matrix(0.13334,0,0,-0.133384,0,345.45733)"
         clip-path="url(#clipPath11)"
         id="path56" /><path
         d="M 1202,1671 H 3414.5"
         style="fill:none;stroke:#e1e1e1;stroke-width:2.5;stroke-linecap:butt;stroke-linejoin:miter;stroke-miterlimit:3.8;stroke-dasharray:none;stroke-opacity:1"
         transform="matrix(0.13334,0,0,-0.133384,0,345.45733)"
         clip-path="url(#clipPath12)"
         id="path57" /><path
         d="m 1202,1671 h 31.5 m 2181,0 H 3383"
         style="fill:none;stroke:#000000;stroke-width:2.5;stroke-linecap:butt;stroke-linejoin:miter;stroke-miterlimit:3.8;stroke-dasharray:none;stroke-opacity:1"
         transform="matrix(0.13334,0,0,-0.133384,0,345.45733)"
         clip-path="url(#clipPath13)"
         id="path58" /><path
         d="M 1202,1947.5 H 3414.5"
         style="fill:none;stroke:#e1e1e1;stroke-width:2.5;stroke-linecap:butt;stroke-linejoin:miter;stroke-miterlimit:3.8;stroke-dasharray:none;stroke-opacity:1"
         transform="matrix(0.13334,0,0,-0.133384,0,345.45733)"
         clip-path="url(#clipPath14)"
         id="path59" /><path
         d="m 1202,1947.5 h 31.5 m 2181,0 H 3383"
         style="fill:none;stroke:#000000;stroke-width:2.5;stroke-linecap:butt;stroke-linejoin:miter;stroke-miterlimit:3.8;stroke-dasharray:none;stroke-opacity:1"
         transform="matrix(0.13334,0,0,-0.133384,0,345.45733)"
         clip-path="url(#clipPath15)"
         id="path60" /><path
         d="M 1202,2224 H 3414.5"
         style="fill:none;stroke:#e1e1e1;stroke-width:2.5;stroke-linecap:butt;stroke-linejoin:miter;stroke-miterlimit:3.8;stroke-dasharray:none;stroke-opacity:1"
         transform="matrix(0.13334,0,0,-0.133384,0,345.45733)"
         clip-path="url(#clipPath16)"
         id="path61" /><path
         d="m 1202,2224 h 31.5 m 2181,0 H 3383"
         style="fill:none;stroke:#000000;stroke-width:2.5;stroke-linecap:butt;stroke-linejoin:miter;stroke-miterlimit:3.8;stroke-dasharray:none;stroke-opacity:1"
         transform="matrix(0.13334,0,0,-0.133384,0,345.45733)"
         clip-path="url(#clipPath17)"
         id="path62" /><path
         d="M 1202,288 V 2500.5"
         style="fill:none;stroke:#e1e1e1;stroke-width:2.5;stroke-linecap:butt;stroke-linejoin:miter;stroke-miterlimit:3.8;stroke-dasharray:none;stroke-opacity:1"
         transform="matrix(0.13334,0,0,-0.133384,0,345.45733)"
         clip-path="url(#clipPath18)"
         id="path63" /><path
         d="m 1202,288 v 31.5 m 0,2181 V 2469"
         style="fill:none;stroke:#000000;stroke-width:2.5;stroke-linecap:butt;stroke-linejoin:miter;stroke-miterlimit:3.8;stroke-dasharray:none;stroke-opacity:1"
         transform="matrix(0.13334,0,0,-0.133384,0,345.45733)"
         clip-path="url(#clipPath19)"
         id="path64" /><path
         d="M 1478.5,288 V 2500.5"
         style="fill:none;stroke:#e1e1e1;stroke-width:2.5;stroke-linecap:butt;stroke-linejoin:miter;stroke-miterlimit:3.8;stroke-dasharray:none;stroke-opacity:1"
         transform="matrix(0.13334,0,0,-0.133384,0,345.45733)"
         clip-path="url(#clipPath20)"
         id="path65" /><path
         d="m 1478.5,288 v 31.5 m 0,2181 V 2469"
         style="fill:none;stroke:#000000;stroke-width:2.5;stroke-linecap:butt;stroke-linejoin:miter;stroke-miterlimit:3.8;stroke-dasharray:none;stroke-opacity:1"
         transform="matrix(0.13334,0,0,-0.133384,0,345.45733)"
         clip-path="url(#clipPath21)"
         id="path66" /><path
         d="M 1755,288 V 2500.5"
         style="fill:none;stroke:#e1e1e1;stroke-width:2.5;stroke-linecap:butt;stroke-linejoin:miter;stroke-miterlimit:3.8;stroke-dasharray:none;stroke-opacity:1"
         transform="matrix(0.13334,0,0,-0.133384,0,345.45733)"
         clip-path="url(#clipPath22)"
         id="path67" /><path
         d="m 1755,288 v 31.5 m 0,2181 V 2469"
         style="fill:none;stroke:#000000;stroke-width:2.5;stroke-linecap:butt;stroke-linejoin:miter;stroke-miterlimit:3.8;stroke-dasharray:none;stroke-opacity:1"
         transform="matrix(0.13334,0,0,-0.133384,0,345.45733)"
         clip-path="url(#clipPath23)"
         id="path68" /><path
         d="M 2031.5,288 V 2500.5"
         style="fill:none;stroke:#e1e1e1;stroke-width:2.5;stroke-linecap:butt;stroke-linejoin:miter;stroke-miterlimit:3.8;stroke-dasharray:none;stroke-opacity:1"
         transform="matrix(0.13334,0,0,-0.133384,0,345.45733)"
         clip-path="url(#clipPath24)"
         id="path69" /><path
         d="m 2031.5,288 v 31.5 m 0,2181 V 2469"
         style="fill:none;stroke:#000000;stroke-width:2.5;stroke-linecap:butt;stroke-linejoin:miter;stroke-miterlimit:3.8;stroke-dasharray:none;stroke-opacity:1"
         transform="matrix(0.13334,0,0,-0.133384,0,345.45733)"
         clip-path="url(#clipPath25)"
         id="path70" /><path
         d="M 2308.5,288 V 2500.5"
         style="fill:none;stroke:#e1e1e1;stroke-width:2.5;stroke-linecap:butt;stroke-linejoin:miter;stroke-miterlimit:3.8;stroke-dasharray:none;stroke-opacity:1"
         transform="matrix(0.13334,0,0,-0.133384,0,345.45733)"
         clip-path="url(#clipPath26)"
         id="path71" /><path
         d="m 2308.5,288 v 31.5 m 0,2181 V 2469"
         style="fill:none;stroke:#000000;stroke-width:2.5;stroke-linecap:butt;stroke-linejoin:miter;stroke-miterlimit:3.8;stroke-dasharray:none;stroke-opacity:1"
         transform="matrix(0.13334,0,0,-0.133384,0,345.45733)"
         clip-path="url(#clipPath27)"
         id="path72" /><path
         d="M 2585,288 V 2500.5"
         style="fill:none;stroke:#e1e1e1;stroke-width:2.5;stroke-linecap:butt;stroke-linejoin:miter;stroke-miterlimit:3.8;stroke-dasharray:none;stroke-opacity:1"
         transform="matrix(0.13334,0,0,-0.133384,0,345.45733)"
         clip-path="url(#clipPath28)"
         id="path73" /><path
         d="m 2585,288 v 31.5 m 0,2181 V 2469"
         style="fill:none;stroke:#000000;stroke-width:2.5;stroke-linecap:butt;stroke-linejoin:miter;stroke-miterlimit:3.8;stroke-dasharray:none;stroke-opacity:1"
         transform="matrix(0.13334,0,0,-0.133384,0,345.45733)"
         clip-path="url(#clipPath29)"
         id="path74" /><path
         d="M 2861.5,288 V 2500.5"
         style="fill:none;stroke:#e1e1e1;stroke-width:2.5;stroke-linecap:butt;stroke-linejoin:miter;stroke-miterlimit:3.8;stroke-dasharray:none;stroke-opacity:1"
         transform="matrix(0.13334,0,0,-0.133384,0,345.45733)"
         clip-path="url(#clipPath30)"
         id="path75" /><path
         d="m 2861.5,288 v 31.5 m 0,2181 V 2469"
         style="fill:none;stroke:#000000;stroke-width:2.5;stroke-linecap:butt;stroke-linejoin:miter;stroke-miterlimit:3.8;stroke-dasharray:none;stroke-opacity:1"
         transform="matrix(0.13334,0,0,-0.133384,0,345.45733)"
         clip-path="url(#clipPath31)"
         id="path76" /><path
         d="M 3138,288 V 2500.5"
         style="fill:none;stroke:#e1e1e1;stroke-width:2.5;stroke-linecap:butt;stroke-linejoin:miter;stroke-miterlimit:3.8;stroke-dasharray:none;stroke-opacity:1"
         transform="matrix(0.13334,0,0,-0.133384,0,345.45733)"
         clip-path="url(#clipPath32)"
         id="path77" /><path
         d="m 3138,288 v 31.5 m 0,2181 V 2469"
         style="fill:none;stroke:#000000;stroke-width:2.5;stroke-linecap:butt;stroke-linejoin:miter;stroke-miterlimit:3.8;stroke-dasharray:none;stroke-opacity:1"
         transform="matrix(0.13334,0,0,-0.133384,0,345.45733)"
         clip-path="url(#clipPath33)"
         id="path78" /><path
         d="M 3414.5,288 V 2500.5"
         style="fill:none;stroke:#e1e1e1;stroke-width:2.5;stroke-linecap:butt;stroke-linejoin:miter;stroke-miterlimit:3.8;stroke-dasharray:none;stroke-opacity:1"
         transform="matrix(0.13334,0,0,-0.133384,0,345.45733)"
         clip-path="url(#clipPath34)"
         id="path79" /><path
         d="m 3414.5,288 v 31.5 m 0,2181 V 2469"
         style="fill:none;stroke:#000000;stroke-width:2.5;stroke-linecap:butt;stroke-linejoin:miter;stroke-miterlimit:3.8;stroke-dasharray:none;stroke-opacity:1"
         transform="matrix(0.13334,0,0,-0.133384,0,345.45733)"
         clip-path="url(#clipPath35)"
         id="path80" /><path
         d="M 1202,2500.5 V 288 h 2212.5 v 2212.5 z"
         style="fill:none;stroke:#000000;stroke-width:2.5;stroke-linecap:butt;stroke-linejoin:miter;stroke-miterlimit:3.8;stroke-dasharray:none;stroke-opacity:1"
         transform="matrix(0.13334,0,0,-0.133384,0,345.45733)"
         clip-path="url(#clipPath36)"
         id="path81" /><path
         d="m 1202,288 276.5,276.5 276.5,276.5 276.5,276.5 277,277 276.5,276.5 276.5,276.5 276.5,276.5"
         style="fill:none;stroke:#000000;stroke-width:5;stroke-linecap:butt;stroke-linejoin:miter;stroke-miterlimit:3.8;stroke-dasharray:none;stroke-opacity:1"
         transform="matrix(0.13334,0,0,-0.133384,0,345.45733)"
         clip-path="url(#clipPath37)"
         id="path82" /><path
         d="m 1233.5,288 c 0,17.395 -14.11,31.5 -31.5,31.5 -17.39,0 -31.5,-14.105 -31.5,-31.5 0,-17.395 14.11,-31.5 31.5,-31.5 17.39,0 31.5,14.105 31.5,31.5"
         style="fill:#000000;fill-opacity:1;fill-rule:nonzero;stroke:none"
         transform="matrix(0.13334,0,0,-0.133384,0,345.45733)"
         clip-path="url(#clipPath38)"
         id="path83" /><path
         d="m 1510,564.5 c 0,17.395 -14.11,31.5 -31.5,31.5 -17.39,0 -31.5,-14.105 -31.5,-31.5 0,-17.395 14.11,-31.5 31.5,-31.5 17.39,0 31.5,14.105 31.5,31.5"
         style="fill:#000000;fill-opacity:1;fill-rule:nonzero;stroke:none"
         transform="matrix(0.13334,0,0,-0.133384,0,345.45733)"
         clip-path="url(#clipPath39)"
         id="path84" /><path
         d="m 1786.5,841 c 0,17.395 -14.11,31.5 -31.5,31.5 -17.39,0 -31.5,-14.105 -31.5,-31.5 0,-17.395 14.11,-31.5 31.5,-31.5 17.39,0 31.5,14.105 31.5,31.5"
         style="fill:#000000;fill-opacity:1;fill-rule:nonzero;stroke:none"
         transform="matrix(0.13334,0,0,-0.133384,0,345.45733)"
         clip-path="url(#clipPath40)"
         id="path85" /><path
         d="m 2063,1117.5 c 0,17.39 -14.11,31.5 -31.5,31.5 -17.39,0 -31.5,-14.11 -31.5,-31.5 0,-17.39 14.11,-31.5 31.5,-31.5 17.39,0 31.5,14.11 31.5,31.5"
         style="fill:#000000;fill-opacity:1;fill-rule:nonzero;stroke:none"
         transform="matrix(0.13334,0,0,-0.133384,0,345.45733)"
         clip-path="url(#clipPath41)"
         id="path86" /><path
         d="m 2340,1394.5 c 0,17.39 -14.11,31.5 -31.5,31.5 -17.39,0 -31.5,-14.11 -31.5,-31.5 0,-17.39 14.11,-31.5 31.5,-31.5 17.39,0 31.5,14.11 31.5,31.5"
         style="fill:#000000;fill-opacity:1;fill-rule:nonzero;stroke:none"
         transform="matrix(0.13334,0,0,-0.133384,0,345.45733)"
         clip-path="url(#clipPath42)"
         id="path87" /><path
         d="m 2616.5,1671 c 0,17.39 -14.11,31.5 -31.5,31.5 -17.39,0 -31.5,-14.11 -31.5,-31.5 0,-17.39 14.11,-31.5 31.5,-31.5 17.39,0 31.5,14.11 31.5,31.5"
         style="fill:#000000;fill-opacity:1;fill-rule:nonzero;stroke:none"
         transform="matrix(0.13334,0,0,-0.133384,0,345.45733)"
         clip-path="url(#clipPath43)"
         id="path88" /><path
         d="m 2893,1947.5 c 0,17.39 -14.11,31.5 -31.5,31.5 -17.39,0 -31.5,-14.11 -31.5,-31.5 0,-17.39 14.11,-31.5 31.5,-31.5 17.39,0 31.5,14.11 31.5,31.5"
         style="fill:#000000;fill-opacity:1;fill-rule:nonzero;stroke:none"
         transform="matrix(0.13334,0,0,-0.133384,0,345.45733)"
         clip-path="url(#clipPath44)"
         id="path89" /><path
         d="m 3169.5,2224 c 0,17.39 -14.11,31.5 -31.5,31.5 -17.39,0 -31.5,-14.11 -31.5,-31.5 0,-17.39 14.11,-31.5 31.5,-31.5 17.39,0 31.5,14.11 31.5,31.5"
         style="fill:#000000;fill-opacity:1;fill-rule:nonzero;stroke:none"
         transform="matrix(0.13334,0,0,-0.133384,0,345.45733)"
         clip-path="url(#clipPath45)"
         id="path90" /><path
         d="M 1202,2500.5 V 288 h 2212.5 v 2212.5 z"
         style="fill:none;stroke:#000000;stroke-width:2.5;stroke-linecap:butt;stroke-linejoin:miter;stroke-miterlimit:3.8;stroke-dasharray:none;stroke-opacity:1"
         transform="matrix(0.13334,0,0,-0.133384,0,345.45733)"
         clip-path="url(#clipPath46)"
         id="path91" /></g><path
       id="path92"
       d="m -593.44882,524.18715 c 0.92188,0 0.95313,0.14062 0.95313,0.57812 v 6.28125 c 0,0.4375 -0.0312,0.5625 -0.95313,0.5625 h -0.26562 v 0.375 h 4.4375 c 2.07812,0 3.76562,-1.76562 3.76562,-4.01562 0,-2.26563 -1.65625,-4.14063 -3.76562,-4.14063 h -4.4375 v 0.35938 z m 2.57813,7.42187 c -0.5625,0 -0.59375,-0.0781 -0.59375,-0.48437 v -6.4375 c 0,-0.40625 0.0312,-0.5 0.59375,-0.5 h 1.28125 c 1.15625,0 1.875,0.60937 2.1875,1.04687 0.53125,0.6875 0.70312,1.54688 0.70312,2.73438 0,0.48437 0,1.75 -0.65625,2.57812 -0.60937,0.8125 -1.48437,1.0625 -2.23437,1.0625 z m 8.26172,-4.90625 -1.71875,0.125 v 0.375 c 0.76562,0 0.85937,0.0781 0.85937,0.65625 v 3.20313 c 0,0.54687 -0.125,0.54687 -0.90625,0.54687 v 0.375 c 0.53125,-0.0312 0.78125,-0.0312 1.3125,-0.0312 0.1875,0 0.6875,0 1.28125,0.0312 v -0.375 c -0.78125,0 -0.82812,-0.0625 -0.82812,-0.51562 z m 0.0312,-2.07812 c 0,-0.35938 -0.28125,-0.65625 -0.64063,-0.65625 -0.375,0 -0.65625,0.3125 -0.65625,0.65625 0,0.34375 0.28125,0.64062 0.65625,0.64062 0.35938,0 0.64063,-0.28125 0.64063,-0.64062 z m 2.67968,5.21875 c 0.29688,0.1875 0.65625,0.375 1.21875,0.375 1.125,0 1.98438,-0.8125 1.98438,-1.76563 0,-0.57812 -0.32813,-0.98437 -0.48438,-1.15625 0.48438,-0.42187 1.04688,-0.42187 1.1875,-0.42187 -0.0625,0.0312 -0.15625,0.0937 -0.15625,0.29687 0,0.14063 0.0781,0.35938 0.35938,0.35938 0.15625,0 0.35937,-0.10938 0.35937,-0.35938 0,-0.23437 -0.17187,-0.60937 -0.65625,-0.60937 -0.34375,0 -0.875,0.14062 -1.29687,0.5625 -0.32813,-0.25 -0.78125,-0.42188 -1.29688,-0.42188 -1.125,0 -1.98437,0.8125 -1.98437,1.75 0,0.60938 0.35937,1.04688 0.54687,1.21875 -0.0312,0.0312 -0.35937,0.45313 -0.35937,1 0,0.40625 0.1875,0.82813 0.51562,1.04688 -0.60937,0.1875 -1.09375,0.64062 -1.09375,1.20312 0,0.84375 1.1875,1.53125 2.71875,1.53125 1.46875,0 2.71875,-0.64062 2.71875,-1.5625 0,-0.48437 -0.21875,-1.01562 -0.67187,-1.29687 -0.65625,-0.42188 -1.35938,-0.42188 -2.48438,-0.42188 -0.25,0 -0.625,0 -0.71875,-0.0312 -0.35937,-0.0625 -0.57812,-0.39062 -0.57812,-0.76562 0,-0.20313 0.0625,-0.375 0.17187,-0.53125 z m 1.21875,0.0469 c -1.0625,0 -1.0625,-1.17187 -1.0625,-1.4375 0,-0.3125 0.0156,-0.71875 0.21875,-1.01562 0.1875,-0.23438 0.5,-0.40625 0.84375,-0.40625 1.07813,0 1.07813,1.15625 1.07813,1.42187 0,0.28125 0,1.4375 -1.07813,1.4375 z m 0.54688,2.03125 c 0.375,0 1.84375,0.0156 1.84375,0.98438 0,0.68749 -0.90625,1.21874 -2.03125,1.21874 -1.17188,0 -2.0625,-0.5625 -2.0625,-1.21874 0,-0.1875 0.125,-0.98438 1.14062,-0.98438 z m 5.08203,-5.21875 -1.71875,0.125 v 0.375 c 0.76562,0 0.85937,0.0781 0.85937,0.65625 v 3.20313 c 0,0.54687 -0.125,0.54687 -0.90625,0.54687 v 0.375 c 0.53125,-0.0312 0.78125,-0.0312 1.3125,-0.0312 0.1875,0 0.6875,0 1.28125,0.0312 v -0.375 c -0.78125,0 -0.82812,-0.0625 -0.82812,-0.51562 z m 0.0312,-2.07812 c 0,-0.35938 -0.28125,-0.65625 -0.64062,-0.65625 -0.375,0 -0.65625,0.3125 -0.65625,0.65625 0,0.34375 0.28125,0.64062 0.65625,0.64062 0.35937,0 0.64062,-0.28125 0.64062,-0.64062 z m 5.06641,2.57812 v -0.375 h -1.73437 v -2.1875 h -0.34376 c 0,1 -0.42187,2.23438 -1.57812,2.26563 v 0.29687 h 1.03125 v 3.29688 c 0,1.34375 0.96875,1.60937 1.60937,1.60937 0.79688,0 1.21876,-0.76562 1.21876,-1.60937 v -0.67188 h -0.34376 v 0.64063 c 0,0.875 -0.375,1.3125 -0.79687,1.3125 -0.79687,0 -0.79687,-1.04688 -0.79687,-1.26563 v -3.3125 z m 4.98437,3.92188 c 0.0469,0.5 0.40626,0.9375 0.92188,0.9375 0.29688,0 1.04688,-0.1875 1.04688,-1.14063 v -0.67187 h -0.34376 v 0.65625 c 0,0.14062 0,0.73437 -0.42187,0.73437 -0.4375,0 -0.4375,-0.57812 -0.4375,-0.76562 v -2.09375 c 0,-0.6875 0,-1.09375 -0.53125,-1.57813 -0.4375,-0.39062 -1.01562,-0.57812 -1.60938,-0.57812 -1.01562,0 -1.84374,0.5 -1.84374,1.26562 0,0.375 0.25,0.57813 0.5625,0.57813 0.3125,0 0.54687,-0.23438 0.54687,-0.54688 0,-0.51562 -0.53125,-0.57812 -0.53125,-0.57812 0.3125,-0.3125 0.89062,-0.42188 1.23438,-0.42188 0.60937,0 1.29687,0.45313 1.29687,1.51563 v 0.39062 c -0.65625,0.0312 -1.54687,0.0781 -2.34375,0.46875 -0.85938,0.42188 -1.125,1.03125 -1.125,1.51563 0,0.98437 1.15625,1.29687 1.95312,1.29687 1,0 1.45313,-0.65625 1.625,-0.98437 z m -0.10937,-0.82813 c 0,1.15625 -0.90625,1.51563 -1.42187,1.51563 -0.5625,0 -1.09375,-0.40625 -1.09375,-1 0,-0.78125 0.6875,-1.625 2.51562,-1.70313 z m 4.35938,-6.60937 -1.76563,0.14062 v 0.35938 c 0.8125,0 0.90625,0.0937 0.90625,0.67187 v 6.20313 c 0,0.54687 -0.125,0.54687 -0.90625,0.54687 v 0.375 c 0.54688,-0.0312 0.78125,-0.0312 1.32813,-0.0312 0.5625,0 0.76562,0 1.35937,0.0312 v -0.375 c -0.79687,0 -0.92187,0 -0.92187,-0.54687 z m -28.07032,16.24999 c 0,-2.4375 -1.85937,-4.375 -4.09375,-4.375 -2.23437,0 -4.07812,1.9375 -4.07812,4.375 0,2.42188 1.85937,4.3125 4.07812,4.3125 2.23438,0 4.09375,-1.89062 4.09375,-4.3125 z m -4.09375,3.95313 c -1.20313,0 -2.85938,-1.04687 -2.85938,-4.14062 0,-2.90625 1.70313,-3.85938 2.85938,-3.85938 1.15625,0 2.875,0.95313 2.875,3.85938 0,3.09375 -1.67188,4.14062 -2.875,4.14062 z m 9.52734,-1.90625 c 0,1.0625 -0.59375,1.82813 -1.45312,1.82813 -1,0 -1.0625,-0.51563 -1.0625,-1.15625 v -3.95313 l -1.79688,0.125 v 0.375 c 0.92188,0 0.92188,0.0312 0.92188,1.09375 v 1.79688 c 0,0.78125 0,1.28125 0.54687,1.70312 0.34375,0.23438 0.82813,0.3125 1.3125,0.3125 0.625,0 1.20313,-0.26562 1.54688,-0.98437 h 0.0156 v 0.98437 l 1.76563,-0.125 v -0.375 c -0.8125,0 -0.90625,-0.0781 -0.90625,-0.67187 v -4.23438 l -1.8125,0.125 v 0.375 c 0.8125,0 0.92187,0.0781 0.92187,0.67188 z m 5.98047,-2.78125 v -0.375 h -1.73437 v -2.1875 h -0.34375 c 0,1 -0.42188,2.23438 -1.57813,2.26563 v 0.29687 h 1.03125 v 3.29688 c 0,1.34375 0.96875,1.60937 1.60938,1.60937 0.79687,0 1.21875,-0.76562 1.21875,-1.60937 v -0.67188 h -0.34375 v 0.64063 c 0,0.875 -0.375,1.3125 -0.79688,1.3125 -0.79687,0 -0.79687,-1.04688 -0.79687,-1.26563 v -3.3125 z m 3.04688,0.76563 c 0.40625,-0.6875 1.07812,-0.9375 1.57812,-0.9375 0.92188,0 1.64063,1.07812 1.64063,2.375 0,1.35937 -0.8125,2.40625 -1.78125,2.40625 -0.53125,0 -0.98438,-0.3125 -1.28125,-0.71875 -0.15625,-0.25 -0.15625,-0.26563 -0.15625,-0.5 z m 0,3.4375 c 0.3125,0.3125 0.71875,0.70312 1.51562,0.70312 1.42188,0 2.73438,-1.14062 2.73438,-2.70312 0,-1.51563 -1.17188,-2.70313 -2.57813,-2.70313 -0.65625,0 -1.25,0.26563 -1.70312,0.75 v -0.75 l -1.76563,0.125 v 0.375 c 0.84375,0 0.92188,0.0781 0.92188,0.57813 v 5.60937 c 0,0.54687 -0.14063,0.54687 -0.92188,0.54687 v 0.35938 c 0.5625,-0.0156 0.78125,-0.0312 1.35938,-0.0312 0.57812,0 0.73437,0.0156 1.35937,0.0312 v -0.35938 c -0.78125,0 -0.92187,0 -0.92187,-0.54687 z m 9.40234,-1.42188 c 0,1.0625 -0.59375,1.82813 -1.45313,1.82813 -1,0 -1.0625,-0.51563 -1.0625,-1.15625 v -3.95313 l -1.79687,0.125 v 0.375 c 0.92187,0 0.92187,0.0312 0.92187,1.09375 v 1.79688 c 0,0.78125 0,1.28125 0.54688,1.70312 0.34375,0.23438 0.82812,0.3125 1.3125,0.3125 0.625,0 1.20312,-0.26562 1.54687,-0.98437 h 0.0156 v 0.98437 l 1.76563,-0.125 v -0.375 c -0.8125,0 -0.90625,-0.0781 -0.90625,-0.67187 v -4.23438 l -1.8125,0.125 v 0.375 c 0.8125,0 0.92187,0.0781 0.92187,0.67188 z m 5.98437,-2.78125 v -0.375 h -1.73437 v -2.1875 h -0.34375 c 0,1 -0.42188,2.23438 -1.57813,2.26563 v 0.29687 h 1.03125 v 3.29688 c 0,1.34375 0.96875,1.60937 1.60938,1.60937 0.79687,0 1.21875,-0.76562 1.21875,-1.60937 v -0.67188 h -0.34375 v 0.64063 c 0,0.875 -0.375,1.3125 -0.79688,1.3125 -0.79687,0 -0.79687,-1.04688 -0.79687,-1.26563 v -3.3125 z m -35.87109,19.625 c 0,-0.0625 -0.0312,-0.0937 -0.10937,-0.17188 -1.54688,-1.42187 -2.01563,-3.5625 -2.01563,-5.65625 0,-1.85937 0.35938,-4.10937 2.04688,-5.70312 0.0469,-0.0469 0.0781,-0.0937 0.0781,-0.14062 0,-0.0937 -0.0625,-0.14063 -0.14062,-0.14063 -0.14063,0 -1.21875,0.85937 -1.875,2.17187 -0.5625,1.14063 -0.85938,2.375 -0.85938,3.79688 0,0.85938 0.10938,2.21875 0.76563,3.64062 0.70312,1.46875 1.82812,2.32813 1.96875,2.32813 0.0781,0 0.14062,-0.0469 0.14062,-0.125 z m 4.8086,-7.89063 c 0,-0.20312 0,-0.3125 -0.14063,-0.3125 -0.0625,0 -0.0781,0 -0.23437,0.14063 -0.0312,0.0312 -0.14063,0.14063 -0.20313,0.20313 -0.375,-0.26563 -0.75,-0.34376 -1.15625,-0.34376 -1.57812,0 -1.96875,0.875 -1.96875,1.48438 0,0.39062 0.17188,0.70312 0.4375,0.95312 0.40625,0.375 0.85938,0.45313 1.46875,0.5625 0.60938,0.125 0.8125,0.15626 1.07813,0.35938 0.125,0.0937 0.42187,0.32812 0.42187,0.78125 0,1.04687 -1.20312,1.04687 -1.375,1.04687 -1.21875,0 -1.53125,-1.01562 -1.67187,-1.65624 -0.0312,-0.125 -0.0469,-0.1875 -0.1875,-0.1875 -0.17188,0 -0.17188,0.0937 -0.17188,0.3125 v 1.53124 c 0,0.20313 0,0.29688 0.14063,0.29688 0.0781,0 0.0937,0 0.29687,-0.23438 0.0469,-0.0625 0.1875,-0.21875 0.25,-0.28125 0.5,0.48438 1.04688,0.51563 1.34375,0.51563 1.46875,0 1.98438,-0.85938 1.98438,-1.65625 0,-0.53125 -0.23438,-0.85937 -0.5,-1.14063 -0.40625,-0.39062 -0.84375,-0.46874 -1.71875,-0.64062 -0.3125,-0.0625 -1.1875,-0.21875 -1.1875,-0.89062 0,-0.39063 0.28125,-0.89063 1.35937,-0.89063 1.29688,0 1.375,1 1.40625,1.29687 0.0156,0.14063 0.0156,0.21876 0.15625,0.21876 0.17188,0 0.17188,-0.0937 0.17188,-0.3125 z m 4.6289,0.26563 v -0.375 h -1.73437 v -2.1875 h -0.34375 c 0,1 -0.42188,2.23437 -1.57813,2.26563 v 0.29687 h 1.03125 v 3.29687 c 0,1.34375 0.96875,1.60938 1.60938,1.60938 0.79687,0 1.21875,-0.76563 1.21875,-1.60938 v -0.67187 h -0.34375 v 0.64062 c 0,0.875 -0.375,1.3125 -0.79688,1.3125 -0.79687,0 -0.79687,-1.04687 -0.79687,-1.26562 v -3.3125 z m 3.01172,2.04687 c 0,-0.5 0.14062,-2.25 1.5,-2.25 v 0.0156 c -0.0312,0.0156 -0.21875,0.15625 -0.21875,0.4375 0,0.32813 0.25,0.53125 0.53125,0.53125 0.25,0 0.51562,-0.1875 0.51562,-0.54687 0,-0.375 -0.35937,-0.73438 -0.89062,-0.73438 -0.71875,0 -1.21875,0.5 -1.5,1.23438 v -1.23438 l -1.70313,0.125 v 0.375 c 0.8125,0 0.92188,0.0781 0.92188,0.67188 v 3.1875 c 0,0.54687 -0.14063,0.54687 -0.92188,0.54687 v 0.375 c 0.625,-0.0312 0.78125,-0.0312 1.39063,-0.0312 0.48438,0 0.76562,0 1.53125,0.0312 v -0.375 h -0.25 c -0.875,0 -0.90625,-0.125 -0.90625,-0.5625 z m 6.77734,1.875 c 0.0469,0.5 0.40625,0.9375 0.92188,0.9375 0.29687,0 1.04687,-0.1875 1.04687,-1.14062 v -0.67188 h -0.34375 v 0.65625 c 0,0.14063 0,0.73438 -0.42187,0.73438 -0.4375,0 -0.4375,-0.57813 -0.4375,-0.76563 v -2.09374 c 0,-0.6875 0,-1.09376 -0.53125,-1.57813 -0.4375,-0.39063 -1.01563,-0.57813 -1.60938,-0.57813 -1.01562,0 -1.84375,0.5 -1.84375,1.26563 0,0.375 0.25,0.57813 0.5625,0.57813 0.3125,0 0.54688,-0.23438 0.54688,-0.54688 0,-0.51562 -0.53125,-0.57812 -0.53125,-0.57812 0.3125,-0.3125 0.89062,-0.42188 1.23437,-0.42188 0.60938,0 1.29688,0.45312 1.29688,1.51562 v 0.39063 c -0.65625,0.0312 -1.54688,0.0781 -2.34375,0.46875 -0.85938,0.42188 -1.125,1.03125 -1.125,1.51562 0,0.98438 1.15625,1.29688 1.95312,1.29688 1,0 1.45313,-0.65625 1.625,-0.98438 z m -0.10937,-0.82812 c 0,1.15625 -0.90625,1.51562 -1.42188,1.51562 -0.5625,0 -1.09375,-0.40625 -1.09375,-1 0,-0.78124 0.6875,-1.625 2.51563,-1.70312 z m 4.35937,-3.59375 -1.71875,0.125 v 0.375 c 0.76563,0 0.85938,0.0781 0.85938,0.65625 v 3.20312 c 0,0.54688 -0.125,0.54688 -0.90625,0.54688 v 0.375 c 0.53125,-0.0312 0.78125,-0.0312 1.3125,-0.0312 0.1875,0 0.6875,0 1.28125,0.0312 v -0.375 c -0.78125,0 -0.82813,-0.0625 -0.82813,-0.51563 z m 0.0313,-2.07813 c 0,-0.35937 -0.28125,-0.65624 -0.64063,-0.65624 -0.375,0 -0.65625,0.3125 -0.65625,0.65624 0,0.34376 0.28125,0.64063 0.65625,0.64063 0.35938,0 0.64063,-0.28125 0.64063,-0.64063 z m 2.67969,5.21876 c 0.29687,0.1875 0.65624,0.375 1.21874,0.375 1.125,0 1.98438,-0.8125 1.98438,-1.76563 0,-0.57813 -0.32812,-0.98437 -0.48438,-1.15625 0.48438,-0.42188 1.04688,-0.42188 1.1875,-0.42188 -0.0625,0.0313 -0.15624,0.0937 -0.15624,0.29688 0,0.14062 0.0781,0.35938 0.35937,0.35938 0.15625,0 0.35937,-0.10938 0.35937,-0.35938 0,-0.23438 -0.17187,-0.60938 -0.65624,-0.60938 -0.34376,0 -0.875,0.14063 -1.29688,0.5625 -0.32812,-0.25 -0.78125,-0.42187 -1.29688,-0.42187 -1.125,0 -1.98437,0.8125 -1.98437,1.75 0,0.60937 0.35937,1.04687 0.54687,1.21875 -0.0312,0.0312 -0.35937,0.45312 -0.35937,1 0,0.40625 0.1875,0.82812 0.51563,1.04687 -0.60938,0.1875 -1.09376,0.64063 -1.09376,1.20313 0,0.84375 1.1875,1.53125 2.71876,1.53125 1.46874,0 2.71874,-0.64063 2.71874,-1.5625 0,-0.48438 -0.21874,-1.01563 -0.67187,-1.29688 -0.65625,-0.42187 -1.35937,-0.42187 -2.48437,-0.42187 -0.25,0 -0.625,0 -0.71876,-0.0312 -0.35937,-0.0625 -0.57812,-0.39063 -0.57812,-0.76563 0,-0.20312 0.0625,-0.375 0.17188,-0.53125 z m 1.21874,0.0469 c -1.0625,0 -1.0625,-1.17188 -1.0625,-1.4375 0,-0.3125 0.0156,-0.71875 0.21876,-1.01563 0.1875,-0.23437 0.5,-0.40625 0.84374,-0.40625 1.07813,0 1.07813,1.15625 1.07813,1.42188 0,0.28125 0,1.4375 -1.07813,1.4375 z m 0.54688,2.03125 c 0.375,0 1.84375,0.0156 1.84375,0.98437 0,0.6875 -0.90625,1.21875 -2.03125,1.21875 -1.17188,0 -2.0625,-0.5625 -2.0625,-1.21875 0,-0.1875 0.125,-0.98437 1.14062,-0.98437 z m 5.06641,-8.23438 -1.76563,0.14063 v 0.35937 c 0.8125,0 0.92188,0.0937 0.92188,0.67188 v 6.20312 c 0,0.54688 -0.14063,0.54688 -0.92188,0.54688 v 0.375 c 0.5625,-0.0313 0.78125,-0.0313 1.35938,-0.0313 0.57812,0 0.73437,0 1.35937,0.0313 v -0.375 c -0.78125,0 -0.92187,0 -0.92187,-0.54688 v -2.17187 c 0,-1.26563 0.90625,-1.89063 1.65625,-1.89063 0.70312,0 0.85937,0.57813 0.85937,1.29688 v 2.76562 c 0,0.54688 -0.125,0.54688 -0.92187,0.54688 v 0.375 c 0.5625,-0.0313 0.79687,-0.0313 1.35937,-0.0313 0.57813,0 0.73438,0 1.35938,0.0313 v -0.375 c -0.60938,0 -0.90625,0 -0.90625,-0.35938 v -2.29687 c 0,-1 0,-1.34375 -0.34375,-1.76563 -0.26563,-0.32812 -0.73438,-0.48437 -1.32813,-0.48437 -0.79687,0 -1.39062,0.42187 -1.75,1.07812 h -0.0156 z m 8.18359,3.51563 v -0.375 h -1.73438 v -2.1875 h -0.34374 c 0,1 -0.42188,2.23437 -1.57813,2.26562 v 0.29688 h 1.03125 v 3.29687 c 0,1.34375 0.96875,1.60938 1.60938,1.60938 0.79687,0 1.21874,-0.76563 1.21874,-1.60938 v -0.67187 h -0.34375 v 0.64062 c 0,0.875 -0.37499,1.3125 -0.79687,1.3125 -0.79688,0 -0.79688,-1.04687 -0.79688,-1.26563 v -3.3125 z m -37.62891,12.96874 c 0,-0.23438 0,-0.23438 0.14063,-0.4375 0.40625,-0.54688 0.98437,-0.73438 1.4375,-0.73438 0.51562,0 1,0.28125 1.3125,0.78125 0.3125,0.51563 0.32812,1.23438 0.32812,1.60938 0,0.5625 -0.0625,1.1875 -0.375,1.67187 -0.26562,0.39063 -0.75,0.75 -1.39062,0.75 -0.53125,0 -0.98438,-0.28125 -1.28125,-0.71875 -0.17188,-0.25 -0.17188,-0.26562 -0.17188,-0.5 z m -0.0937,3.07812 c 0.35938,0.53125 0.96875,0.85938 1.60938,0.85938 1.42187,0 2.73437,-1.14063 2.73437,-2.70313 0,-1.5 -1.1875,-2.70312 -2.60937,-2.70312 -0.82813,0 -1.375,0.42187 -1.67188,0.73437 v -3.75 l -1.76562,0.14063 v 0.35937 c 0.8125,0 0.92187,0.0937 0.92187,0.67188 v 7.125 h 0.32813 z m 6.96484,-4.54687 -1.71875,0.125 v 0.375 c 0.76563,0 0.85938,0.0781 0.85938,0.65625 v 3.20312 c 0,0.54688 -0.125,0.54688 -0.90625,0.54688 v 0.375 c 0.53125,-0.0312 0.78125,-0.0312 1.3125,-0.0312 0.1875,0 0.6875,0 1.28125,0.0312 v -0.375 c -0.78125,0 -0.82813,-0.0625 -0.82813,-0.51563 z m 0.0312,-2.07813 c 0,-0.35937 -0.28125,-0.65625 -0.64062,-0.65625 -0.375,0 -0.65625,0.3125 -0.65625,0.65625 0,0.34375 0.28125,0.64063 0.65625,0.64063 0.35937,0 0.64062,-0.28125 0.64062,-0.64063 z m 3.39844,4.26563 c 0,-1.26563 0.90625,-1.89063 1.65625,-1.89063 0.70313,0 0.85938,0.57813 0.85938,1.29688 v 2.76562 c 0,0.54688 -0.125,0.54688 -0.92188,0.54688 v 0.375 c 0.5625,-0.0312 0.79688,-0.0312 1.35938,-0.0312 0.57812,0 0.73437,0 1.35937,0.0312 v -0.375 c -0.60937,0 -0.90625,0 -0.90625,-0.35938 v -2.29687 c 0,-1 0,-1.34375 -0.34375,-1.76563 -0.26562,-0.32812 -0.73437,-0.48437 -1.32812,-0.48437 -1.10938,0 -1.625,0.82812 -1.79688,1.15625 v -1.15625 l -1.73437,0.125 v 0.375 c 0.8125,0 0.92187,0.0781 0.92187,0.67187 v 3.1875 c 0,0.54688 -0.14062,0.54688 -0.92187,0.54688 v 0.375 c 0.5625,-0.0312 0.78125,-0.0312 1.35937,-0.0312 0.57813,0 0.73438,0 1.35938,0.0312 v -0.375 c -0.78125,0 -0.92188,0 -0.92188,-0.54688 z m 8.70313,2.23437 c 0.0469,0.5 0.40625,0.9375 0.92187,0.9375 0.29688,0 1.04688,-0.1875 1.04688,-1.14062 v -0.67188 h -0.34375 v 0.65625 c 0,0.14063 0,0.73438 -0.42188,0.73438 -0.4375,0 -0.4375,-0.57813 -0.4375,-0.76563 v -2.09375 c 0,-0.6875 0,-1.09375 -0.53125,-1.57812 -0.4375,-0.39063 -1.01562,-0.57813 -1.60937,-0.57813 -1.01563,0 -1.84375,0.5 -1.84375,1.26563 0,0.375 0.25,0.57812 0.5625,0.57812 0.3125,0 0.54687,-0.23437 0.54687,-0.54687 0,-0.51563 -0.53125,-0.57813 -0.53125,-0.57813 0.3125,-0.3125 0.89063,-0.42187 1.23438,-0.42187 0.60937,0 1.29687,0.45312 1.29687,1.51562 v 0.39063 c -0.65625,0.0312 -1.54687,0.0781 -2.34375,0.46875 -0.85937,0.42187 -1.125,1.03125 -1.125,1.51562 0,0.98438 1.15625,1.29688 1.95313,1.29688 1,0 1.45312,-0.65625 1.625,-0.98438 z m -0.10938,-0.82812 c 0,1.15625 -0.90625,1.51562 -1.42187,1.51562 -0.5625,0 -1.09375,-0.40625 -1.09375,-1 0,-0.78125 0.6875,-1.625 2.51562,-1.70312 z m 4.28125,-1.04688 c 0,-0.5 0.14063,-2.25 1.5,-2.25 v 0.0156 c -0.0312,0.0156 -0.21875,0.15625 -0.21875,0.4375 0,0.32813 0.25,0.53125 0.53125,0.53125 0.25,0 0.51563,-0.1875 0.51563,-0.54687 0,-0.375 -0.35938,-0.73438 -0.89063,-0.73438 -0.71875,0 -1.21875,0.5 -1.5,1.23438 v -1.23438 l -1.70312,0.125 v 0.375 c 0.8125,0 0.92187,0.0781 0.92187,0.67188 v 3.1875 c 0,0.54687 -0.14062,0.54687 -0.92187,0.54687 v 0.375 c 0.625,-0.0312 0.78125,-0.0312 1.39062,-0.0312 0.48438,0 0.76563,0 1.53125,0.0312 v -0.375 h -0.25 c -0.875,0 -0.90625,-0.125 -0.90625,-0.5625 z m 4.85547,-1.48437 c -0.0625,-0.17188 -0.0625,-0.23438 -0.0625,-0.25 0,-0.3125 0.40625,-0.3125 0.65625,-0.3125 v -0.375 c -0.59375,0.0312 -0.82813,0.0469 -1.32813,0.0469 -0.0312,0 -0.71875,0 -1.1875,-0.0469 v 0.375 c 0.53125,0 0.76563,0.0312 0.90625,0.34375 l 1.89063,4.4375 -0.29688,0.70312 c -0.26562,0.64063 -0.60937,1.45313 -1.39062,1.45313 -0.29688,0 -0.5,-0.15625 -0.53125,-0.1875 0.0937,-0.0156 0.42187,-0.10937 0.42187,-0.51563 0,-0.3125 -0.21875,-0.5 -0.5,-0.5 -0.29687,0 -0.51562,0.1875 -0.51562,0.51563 0,0.54687 0.5,0.98437 1.125,0.98437 0.78125,0 1.29687,-0.70312 1.57812,-1.35937 l 2.17188,-5.04688 c 0.125,-0.3125 0.34375,-0.79687 1.10937,-0.82812 v -0.375 c -0.39062,0.0469 -0.75,0.0469 -0.90625,0.0469 -0.34375,0 -0.70312,-0.0156 -1.04687,-0.0469 v 0.375 c 0.54687,0.0312 0.54687,0.45312 0.54687,0.5 0,0.14062 -0.0469,0.25 -0.0937,0.34375 l -1.20313,2.84375 z m 7.875,1.21875 c 0,-0.98438 -0.14062,-2.29688 -0.76562,-3.625 -0.70313,-1.46875 -1.8125,-2.34375 -1.95313,-2.34375 -0.125,0 -0.15625,0.0937 -0.15625,0.14062 0,0.0469 0.0312,0.0937 0.10937,0.17188 0.70313,0.625 2.01563,2.25 2.01563,5.65625 0,1.70312 -0.3125,4.09375 -2.04688,5.70312 -0.0312,0.0313 -0.0781,0.0781 -0.0781,0.14063 0,0.0312 0.0313,0.125 0.15626,0.125 0.14062,0 1.21874,-0.85938 1.85937,-2.15625 0.57813,-1.14063 0.85937,-2.375 0.85937,-3.8125 z m 155.44531,136.14844 c -0.0625,-0.15626 -0.0937,-0.25 -0.28125,-0.25 -0.20312,0 -0.21875,0.0781 -0.29688,0.26562 l -2.5625,7.10938 c -0.14062,0.39062 -0.42188,0.81249 -1.34374,0.81249 v 0.375 c 0.45312,-0.0312 0.78124,-0.0312 1.21874,-0.0312 0.42187,0 0.6875,0 1.34375,0.0312 v -0.375 c -0.67188,0 -0.875,-0.375 -0.875,-0.60937 0,-0.10934 0.0156,-0.15626 0.0469,-0.21875 l 0.5625,-1.54688 h 3.09374 l 0.64063,1.81251 c 0.0469,0.10933 0.0625,0.15625 0.0625,0.20312 0,0.35937 -0.67188,0.35937 -0.98437,0.35937 v 0.375 c 0.54687,-0.0312 1.17187,-0.0312 1.71875,-0.0312 0.53125,0 0.57812,0 1.56249,0.0312 v -0.375 h -0.20312 c -0.73437,0 -0.875,-0.10933 -0.98437,-0.43749 z m 0.76563,5.18749 h -2.82814 l 1.42188,-3.90624 z m 5.77342,0.0312 c 0,-1.26563 0.90626,-1.89063 1.65626,-1.89063 0.70313,0 0.85937,0.57814 0.85937,1.29688 v 2.76563 c 0,0.54687 -0.12493,0.54687 -0.92187,0.54687 v 0.375 c 0.5625,-0.0312 0.79687,-0.0312 1.35938,-0.0312 0.57812,0 0.73437,0 1.35937,0.0312 v -0.375 c -0.60937,0 -0.90625,0 -0.90625,-0.35938 v -2.29686 c 0,-1 0,-1.34376 -0.34375,-1.76563 -0.26563,-0.32813 -0.73437,-0.48437 -1.32812,-0.48437 -1.10939,0 -1.625,0.82812 -1.79688,1.15624 v -1.15624 l -1.73437,0.12493 v 0.375 c 0.81249,0 0.92186,0.0781 0.92186,0.67187 v 3.1875 c 0,0.54687 -0.14061,0.54687 -0.92186,0.54687 v 0.375 c 0.56249,-0.0312 0.78125,-0.0312 1.35937,-0.0312 0.57812,0 0.73437,0 1.35937,0.0312 v -0.375 c -0.78125,0 -0.92188,0 -0.92188,-0.54687 z m 8.70314,2.23437 c 0.0468,0.5 0.40625,0.93751 0.92186,0.93751 0.29688,0 1.04688,-0.18751 1.04688,-1.14063 v -0.67188 h -0.34374 v 0.65626 c 0,0.14062 0,0.73437 -0.42188,0.73437 -0.4375,0 -0.4375,-0.57812 -0.4375,-0.76563 v -2.09374 c 0,-0.68751 0,-1.09375 -0.53125,-1.57812 -0.43751,-0.39063 -1.01563,-0.57814 -1.60937,-0.57814 -1.01563,0 -1.84375,0.5 -1.84375,1.26563 0,0.375 0.25,0.57812 0.56249,0.57812 0.31251,0 0.54688,-0.23437 0.54688,-0.54687 0,-0.51562 -0.53125,-0.57813 -0.53125,-0.57813 0.31249,-0.31249 0.89063,-0.42187 1.23437,-0.42187 0.60938,0 1.29688,0.45312 1.29688,1.51563 v 0.39063 c -0.65625,0.0312 -1.54688,0.0781 -2.34376,0.46874 -0.85937,0.42187 -1.125,1.03126 -1.125,1.51563 0,0.98437 1.15626,1.29687 1.95314,1.29687 1,0 1.45312,-0.65624 1.625,-0.98438 z m -0.10934,-0.82812 c 0,1.15626 -0.90625,1.51563 -1.42188,1.51563 -0.56249,0 -1.09374,-0.40625 -1.09374,-1 0,-0.78125 0.68749,-1.625 2.51562,-1.70313 z m 4.36328,-6.60937 -1.76562,0.14063 v 0.35937 c 0.81249,0 0.90625,0.0937 0.90625,0.67187 v 6.20313 c 0,0.54687 -0.12493,0.54687 -0.90625,0.54687 v 0.375 c 0.54688,-0.0312 0.78125,-0.0312 1.32812,-0.0312 0.5625,0 0.76562,0 1.35937,0.0312 v -0.375 c -0.79687,0 -0.92187,0 -0.92187,-0.54687 z m 6.99219,5.75 c 0,-1.56251 -1.23437,-2.81251 -2.70313,-2.81251 -1.53124,0 -2.73438,1.28126 -2.73438,2.81251 0,1.5 1.25,2.67187 2.71876,2.67187 1.51562,0 2.71875,-1.20312 2.71875,-2.67187 z m -2.70313,2.34375 c -0.60938,0 -1.10938,-0.29688 -1.375,-0.76563 -0.3125,-0.5 -0.32812,-1.14063 -0.32812,-1.68749 0,-0.43751 0,-1.125 0.29688,-1.60939 0.35937,-0.60937 0.95312,-0.79687 1.39062,-0.79687 0.67187,0 1.17187,0.39063 1.40624,0.79687 0.28126,0.5 0.28126,1.10939 0.28126,1.60939 0,0.43749 0,1.14061 -0.29688,1.67186 -0.32812,0.54688 -0.875,0.78126 -1.375,0.78126 z m 4.5625,-1.93751 c 0.29688,0.18751 0.65626,0.375 1.21875,0.375 1.125,0 1.98437,-0.81249 1.98437,-1.76561 0,-0.57814 -0.32812,-0.98439 -0.48437,-1.15626 0.48437,-0.42188 1.04688,-0.42188 1.18751,-0.42188 -0.0625,0.0312 -0.15626,0.0937 -0.15626,0.29688 0,0.14063 0.0781,0.35938 0.35938,0.35938 0.15625,0 0.35937,-0.10934 0.35937,-0.35938 0,-0.23437 -0.17187,-0.60937 -0.65625,-0.60937 -0.34375,0 -0.875,0.14063 -1.29687,0.56249 -0.32813,-0.25 -0.78125,-0.42186 -1.29688,-0.42186 -1.125,0 -1.98437,0.81249 -1.98437,1.75 0,0.60937 0.35937,1.04686 0.54688,1.21874 -0.0312,0.0312 -0.35938,0.45312 -0.35938,1 0,0.40626 0.1875,0.82812 0.51562,1.04687 -0.60938,0.18751 -1.09375,0.64063 -1.09375,1.20313 0,0.84375 1.18751,1.53126 2.71875,1.53126 1.46876,0 2.71876,-0.64063 2.71876,-1.56251 0,-0.48437 -0.21876,-1.01563 -0.67188,-1.29688 -0.65626,-0.42187 -1.35938,-0.42187 -2.48438,-0.42187 -0.25,0 -0.625,0 -0.71874,-0.0312 -0.35938,-0.0625 -0.57814,-0.39062 -0.57814,-0.76562 0,-0.20312 0.0625,-0.375 0.17188,-0.53126 z m 1.21875,0.0469 c -1.06249,0 -1.06249,-1.17188 -1.06249,-1.43749 0,-0.31251 0.0156,-0.71876 0.21874,-1.01563 0.1875,-0.23437 0.5,-0.40625 0.84375,-0.40625 1.07813,0 1.07813,1.15625 1.07813,1.42188 0,0.28124 0,1.43749 -1.07813,1.43749 z m 0.54688,2.03126 c 0.375,0 1.84375,0.0156 1.84375,0.98437 0,0.68749 -0.90626,1.21875 -2.03126,1.21875 -1.17186,0 -2.06249,-0.5625 -2.06249,-1.21875 0,-0.18751 0.12493,-0.98437 1.14063,-0.98437 z m 9.71875,-7.15626 c 0,-0.43749 0.0156,-0.57812 0.98437,-0.57812 h 0.29688 v -0.35937 c -0.5,0.0312 -1.31251,0.0312 -1.81251,0.0312 -0.51562,0 -1.32812,0 -1.82812,-0.0312 v 0.35937 h 0.29688 c 0.96875,0 0.98438,0.14063 0.98438,0.57812 v 6.28126 c 0,0.42186 -0.0156,0.56249 -0.98438,0.56249 h -0.29688 v 0.375 c 0.5,-0.0312 1.3125,-0.0312 1.82812,-0.0312 0.5,0 1.31251,0 1.81251,0.0312 v -0.375 h -0.29688 c -0.96875,0 -0.98437,-0.14063 -0.98437,-0.56249 z m 3.90234,4.125 c 0,-1.26562 0.90626,-1.89062 1.65626,-1.89062 0.70312,0 0.85937,0.57813 0.85937,1.29688 v 2.76562 c 0,0.54687 -0.12493,0.54687 -0.92188,0.54687 v 0.375 c 0.56251,-0.0312 0.79688,-0.0312 1.35937,-0.0312 0.57814,0 0.73438,0 1.35938,0.0312 v -0.375 c -0.60938,0 -0.90624,0 -0.90624,-0.35937 v -2.29687 c 0,-1 0,-1.34376 -0.34376,-1.76563 -0.26563,-0.32813 -0.73438,-0.48437 -1.32812,-0.48437 -1.10938,0 -1.625,0.82812 -1.79688,1.15624 v -1.15624 l -1.73438,0.12493 v 0.375 c 0.81251,0 0.92188,0.0781 0.92188,0.67187 v 3.18751 c 0,0.54686 -0.14062,0.54686 -0.92188,0.54686 v 0.375 c 0.56251,-0.0312 0.78126,-0.0312 1.35938,-0.0312 0.57813,0 0.73437,0 1.35937,0.0312 v -0.375 c -0.78124,0 -0.92187,0 -0.92187,-0.54686 z m 6.76563,-0.92188 c 0.40624,-0.68749 1.07812,-0.93749 1.57812,-0.93749 0.92188,0 1.64063,1.07812 1.64063,2.375 0,1.35937 -0.81251,2.40625 -1.78126,2.40625 -0.53125,0 -0.98437,-0.3125 -1.28125,-0.71876 -0.15624,-0.25 -0.15624,-0.26561 -0.15624,-0.5 z m 0,3.43751 c 0.31249,0.31249 0.71875,0.70312 1.51563,0.70312 1.42186,0 2.73437,-1.14063 2.73437,-2.70312 0,-1.51563 -1.17188,-2.70312 -2.57813,-2.70312 -0.65624,0 -1.25,0.26561 -1.70312,0.75 v -0.75 l -1.76563,0.12493 v 0.375 c 0.84375,0 0.92188,0.0781 0.92188,0.57812 v 5.60938 c 0,0.54688 -0.14063,0.54688 -0.92188,0.54688 v 0.35937 c 0.56251,-0.0156 0.78125,-0.0312 1.35937,-0.0312 0.57814,0 0.73438,0.0156 1.35938,0.0312 v -0.35937 c -0.78124,0 -0.92187,0 -0.92187,-0.54688 z m 9.40235,-1.42188 c 0,1.06251 -0.59376,1.82813 -1.45314,1.82813 -1,0 -1.06249,-0.51562 -1.06249,-1.15625 v -3.95312 l -1.79688,0.12493 v 0.375 c 0.92188,0 0.92188,0.0312 0.92188,1.09375 v 1.79687 c 0,0.78125 0,1.28125 0.54687,1.70313 0.34376,0.23437 0.82813,0.31249 1.3125,0.31249 0.625,0 1.20312,-0.26562 1.54687,-0.98437 h 0.0156 v 0.98437 l 1.76563,-0.12493 v -0.375 c -0.8125,0 -0.90626,-0.0781 -0.90626,-0.67187 v -4.23437 l -1.81249,0.12493 v 0.375 c 0.81249,0 0.92188,0.0781 0.92188,0.67187 z m 5.98437,-2.78124 v -0.375 h -1.73437 v -2.18751 h -0.34376 c 0,1 -0.42187,2.23438 -1.57812,2.26563 v 0.29688 h 1.03125 v 3.29687 c 0,1.34374 0.96875,1.60937 1.60937,1.60937 0.79687,0 1.21875,-0.76563 1.21875,-1.60937 v -0.67187 h -0.34375 v 0.64061 c 0,0.875 -0.375,1.31251 -0.79688,1.31251 -0.79686,0 -0.79686,-1.04688 -0.79686,-1.26563 v -3.31249 z m 0,0"
       style="fill:#000000;fill-opacity:1;fill-rule:nonzero;stroke:none;stroke-width:1.33333"
       aria-label="Digital&#10;Output&#10;(straight&#10;binary)&#10;AnalogInput" /><path
       style="fill:#000000;fill-rule:evenodd;stroke:#000000;stroke-width:1.06583;stroke-dasharray:3.19749, 3.19749"
       d="M -459.09012,638.72758 V 601.8469"
       id="path95" /><path
       style="fill:#000000;fill-rule:evenodd;stroke:#000000;stroke-width:1.06583;stroke-dasharray:none"
       d="m -495.96472,639.18492 h 36.88068"
       id="path96" /><path
       style="fill:#000000;fill-rule:evenodd;stroke:#000000;stroke-width:1.06583;stroke-dasharray:3.1975, 3.1975"
       d="M -497.36331,676.52284 V 565.71409"
       id="path98" /><path
       style="fill:#000000;fill-rule:evenodd;stroke:#000000;stroke-width:1.06583;stroke-dasharray:none"
       d="m -459.09621,602.84749 h 36.88068"
       id="path101" /><path
       style="fill:#000000;fill-rule:evenodd;stroke:#000000;stroke-width:1.06583;stroke-dasharray:3.19749, 3.19749"
       d="M -385.3531,565.42349 V 528.54281"
       id="path102" /><path
       style="fill:#000000;fill-rule:evenodd;stroke:#000000;stroke-width:1.06583;stroke-dasharray:none"
       d="m -422.2277,565.88083 h 36.88068"
       id="path103" /><path
       style="fill:#000000;fill-rule:evenodd;stroke:#000000;stroke-width:1.06583;stroke-dasharray:3.19749, 3.19749"
       d="M -422.22161,603.21877 V 566.33809"
       id="path104" /><path
       style="fill:#000000;fill-rule:evenodd;stroke:#000000;stroke-width:1.06583;stroke-dasharray:none"
       d="m -385.32585,528.93346 h 36.88068"
       id="path105" /><path
       style="fill:#000000;fill-rule:evenodd;stroke:#000000;stroke-width:1.06583;stroke-dasharray:3.19749, 3.19749"
       d="M -311.54941,491.59545 V 454.71477"
       id="path107" /><path
       style="fill:#000000;fill-rule:evenodd;stroke:#000000;stroke-width:1.06583;stroke-dasharray:none"
       d="m -348.42401,492.05279 h 36.88068"
       id="path108" /><path
       style="fill:#000000;fill-rule:evenodd;stroke:#000000;stroke-width:1.06583;stroke-dasharray:3.19749, 3.19749"
       d="M -348.41792,529.39073 V 492.51005"
       id="path109" /><path
       style="fill:#000000;fill-rule:evenodd;stroke:#000000;stroke-width:1.06583;stroke-dasharray:none"
       d="m -311.5555,455.71536 h 36.88068"
       id="path110" /><path
       style="fill:#000000;fill-rule:evenodd;stroke:#000000;stroke-width:1.06583;stroke-dasharray:none"
       d="m -274.68699,418.29143 h 36.88068"
       id="path112" /><path
       style="fill:#000000;fill-rule:evenodd;stroke:#000000;stroke-width:1.06583;stroke-dasharray:3.19749, 3.19749"
       d="M -274.6809,456.08664 V 419.20596"
       id="path113" /><path
       style="fill:#000000;fill-rule:evenodd;stroke:#000000;stroke-width:1.06583;stroke-dasharray:3.19749, 3.19749;stroke-dashoffset:0"
       d="M -512.29279,528.93348 H -367.6999"
       id="path114" /><path
       style="fill:#000000;fill-rule:evenodd;stroke:#000000;stroke-width:1.06583;stroke-dasharray:3.19749, 3.19749;stroke-dashoffset:0"
       d="M -367.21843,530.92235 V 676.68961"
       id="path115" /><path
       style="fill:#000000;fill-rule:evenodd;stroke:#000000;stroke-width:1.06583;stroke-dasharray:3.19749, 3.19749"
       d="M -348.41792,567.186 V 530.30532"
       id="path116" /><path
       style="fill:#000000;fill-rule:evenodd;stroke:#000000;stroke-width:1.06583;stroke-dasharray:3.19749, 3.19749"
       d="M -311.5494,567.18598 V 489.61507"
       id="path117" /><text
       xml:space="preserve"
       style="font-size:10.6667px;line-height:1.15;font-family:'CMU Serif';-inkscape-font-specification:'CMU Serif';text-align:center;letter-spacing:0px;word-spacing:0px;text-anchor:middle;fill:#000000;fill-rule:evenodd;stroke:none;stroke-width:1.06583;stroke-dasharray:8.52664, 1.06583;stroke-dashoffset:0"
       x="-329.98767"
       y="569.35675"
       id="text117"><tspan
         sodipodi:role="line"
         id="tspan117"
         x="-329.98767"
         y="569.35675"
         style="font-size:10.6667px">1 LSB</tspan></text><path
       style="fill:#000000;fill-rule:evenodd;stroke:#000000;stroke-width:1.06583;stroke-dasharray:none;stroke-dashoffset:0;marker-end:url(#Triangle)"
       d="m -299.58954,565.7141 h -7.6918"
       id="path118" /><path
       style="fill:#000000;fill-rule:evenodd;stroke:#000000;stroke-width:1.06583;stroke-dasharray:none;stroke-dashoffset:0;marker-end:url(#Triangle)"
       d="m -360.04447,565.7141 h 7.6918"
       id="path119" /><text
       xml:space="preserve"
       style="font-size:10.6667px;line-height:1.15;font-family:'CMU Serif';-inkscape-font-specification:'CMU Serif';text-align:center;letter-spacing:0px;word-spacing:0px;text-anchor:middle;fill:#000000;fill-rule:evenodd;stroke:none;stroke-width:1.06583;stroke-dasharray:8.52664, 1.06583;stroke-dashoffset:0"
       x="-463.1467"
       y="590.63617"
       id="text119"><tspan
         sodipodi:role="line"
         id="tspan119"
         x="-463.1467"
         y="590.63617"
         style="font-size:10.6667px">1/2 LSB</tspan></text><path
       style="fill:#000000;fill-rule:evenodd;stroke:#000000;stroke-width:1.06583;stroke-dasharray:none;stroke-dashoffset:0;marker-end:url(#Triangle)"
       d="m -485.12949,587.15085 h -7.6918"
       id="path120" /><path
       style="fill:#000000;fill-rule:evenodd;stroke:#000000;stroke-width:1.06583;stroke-dasharray:none;stroke-dashoffset:0;marker-end:url(#Triangle)"
       d="m -526.68677,587.15085 h 7.6918"
       id="path121" /><path
       style="fill:#000000;fill-rule:evenodd;stroke:#000000;stroke-width:1.06583;stroke-dasharray:3.19749, 3.19749;stroke-dashoffset:0"
       d="m -512.29278,418.29143 h 253.94602"
       id="path122" /><path
       style="fill:#000000;fill-rule:evenodd;stroke:#000000;stroke-width:1.06583;stroke-dasharray:3.19749, 3.19749;stroke-dashoffset:0"
       d="M -256.24666,401.77366 V 676.52288"
       id="path123" /></g></svg>
