<?xml version="1.0" encoding="UTF-8" standalone="no"?>
<!-- Created with Inkscape (http://www.inkscape.org/) -->

<svg
   width="111.01419mm"
   height="101.13168mm"
   viewBox="0 0 111.01419 101.13168"
   version="1.1"
   id="svg1"
   xml:space="preserve"
   inkscape:version="1.3.2 (091e20e, 2023-11-25, custom)"
   sodipodi:docname="dac_3bits.svg"
   xmlns:inkscape="http://www.inkscape.org/namespaces/inkscape"
   xmlns:sodipodi="http://sodipodi.sourceforge.net/DTD/sodipodi-0.dtd"
   xmlns="http://www.w3.org/2000/svg"
   xmlns:svg="http://www.w3.org/2000/svg"><sodipodi:namedview
     id="namedview1"
     pagecolor="#ffffff"
     bordercolor="#000000"
     borderopacity="0.25"
     inkscape:showpageshadow="2"
     inkscape:pageopacity="0.0"
     inkscape:pagecheckerboard="0"
     inkscape:deskcolor="#d1d1d1"
     inkscape:document-units="mm"
     inkscape:zoom="2.768771"
     inkscape:cx="54.898003"
     inkscape:cy="147.17721"
     inkscape:window-width="1920"
     inkscape:window-height="991"
     inkscape:window-x="-9"
     inkscape:window-y="-9"
     inkscape:window-maximized="1"
     inkscape:current-layer="g1"><inkscape:page
       x="0"
       y="0"
       width="111.01418"
       height="101.13168"
       id="page2"
       margin="0"
       bleed="0" /></sodipodi:namedview><defs
     id="defs1"><clipPath
       clipPathUnits="userSpaceOnUse"
       id="clipPath2"><path
         d="M 0,0 H 432 V 259 H 0 Z"
         transform="matrix(10,0,0,10,0,-2.4990504e-5)"
         id="path2" /></clipPath><clipPath
       clipPathUnits="userSpaceOnUse"
       id="clipPath3"><path
         d="M 0,0 H 432 V 259 H 0 Z"
         transform="matrix(10,0,0,10,0,-2.4990504e-5)"
         id="path3" /></clipPath><clipPath
       clipPathUnits="userSpaceOnUse"
       id="clipPath4"><path
         d="M 0,0 H 432 V 259 H 0 Z"
         transform="matrix(10,0,0,10,0,-2.4990504e-5)"
         id="path4" /></clipPath><clipPath
       clipPathUnits="userSpaceOnUse"
       id="clipPath5"><path
         d="M 0,0 H 432 V 259 H 0 Z"
         transform="matrix(10,0,0,10,0,-2.4990504e-5)"
         id="path5" /></clipPath><clipPath
       clipPathUnits="userSpaceOnUse"
       id="clipPath6"><path
         d="M 0,0 H 432 V 259 H 0 Z"
         transform="matrix(10,0,0,10,0,-2.4990504e-5)"
         id="path6" /></clipPath><clipPath
       clipPathUnits="userSpaceOnUse"
       id="clipPath7"><path
         d="M 0,0 H 432 V 259 H 0 Z"
         transform="matrix(10,0,0,10,0,-2.4990504e-5)"
         id="path7" /></clipPath><clipPath
       clipPathUnits="userSpaceOnUse"
       id="clipPath8"><path
         d="M 0,0 H 432 V 259 H 0 Z"
         transform="matrix(10,0,0,10,0,-2.4990504e-5)"
         id="path8" /></clipPath><clipPath
       clipPathUnits="userSpaceOnUse"
       id="clipPath9"><path
         d="M 0,0 H 432 V 259 H 0 Z"
         transform="matrix(10,0,0,10,0,-2.4990504e-5)"
         id="path9" /></clipPath><clipPath
       clipPathUnits="userSpaceOnUse"
       id="clipPath10"><path
         d="M 0,0 H 432 V 259 H 0 Z"
         transform="matrix(10,0,0,10,0,-2.4990504e-5)"
         id="path10" /></clipPath><clipPath
       clipPathUnits="userSpaceOnUse"
       id="clipPath11"><path
         d="M 0,0 H 432 V 259 H 0 Z"
         transform="matrix(10,0,0,10,0,-2.4990504e-5)"
         id="path11" /></clipPath><clipPath
       clipPathUnits="userSpaceOnUse"
       id="clipPath12"><path
         d="M 0,0 H 432 V 259 H 0 Z"
         transform="matrix(10,0,0,10,0,-2.4990504e-5)"
         id="path12" /></clipPath><clipPath
       clipPathUnits="userSpaceOnUse"
       id="clipPath13"><path
         d="M 0,0 H 432 V 259 H 0 Z"
         transform="matrix(10,0,0,10,0,-2.4990504e-5)"
         id="path13" /></clipPath><clipPath
       clipPathUnits="userSpaceOnUse"
       id="clipPath14"><path
         d="M 0,0 H 432 V 259 H 0 Z"
         transform="matrix(10,0,0,10,0,-2.4990504e-5)"
         id="path14" /></clipPath><clipPath
       clipPathUnits="userSpaceOnUse"
       id="clipPath15"><path
         d="M 0,0 H 432 V 259 H 0 Z"
         transform="matrix(10,0,0,10,0,-2.4990504e-5)"
         id="path15" /></clipPath><clipPath
       clipPathUnits="userSpaceOnUse"
       id="clipPath16"><path
         d="M 0,0 H 432 V 259 H 0 Z"
         transform="matrix(10,0,0,10,0,-2.4990504e-5)"
         id="path16" /></clipPath><clipPath
       clipPathUnits="userSpaceOnUse"
       id="clipPath17"><path
         d="M 0,0 H 432 V 259 H 0 Z"
         transform="matrix(10,0,0,10,0,-2.4990504e-5)"
         id="path17" /></clipPath><clipPath
       clipPathUnits="userSpaceOnUse"
       id="clipPath18"><path
         d="M 0,0 H 432 V 259 H 0 Z"
         transform="matrix(10,0,0,10,0,-2.4990504e-5)"
         id="path18" /></clipPath><clipPath
       clipPathUnits="userSpaceOnUse"
       id="clipPath19"><path
         d="M 0,0 H 432 V 259 H 0 Z"
         transform="matrix(10,0,0,10,0,-2.4990504e-5)"
         id="path19" /></clipPath><clipPath
       clipPathUnits="userSpaceOnUse"
       id="clipPath20"><path
         d="M 0,0 H 432 V 259 H 0 Z"
         transform="matrix(10,0,0,10,0,-2.4990504e-5)"
         id="path20" /></clipPath><clipPath
       clipPathUnits="userSpaceOnUse"
       id="clipPath21"><path
         d="M 0,0 H 432 V 259 H 0 Z"
         transform="matrix(10,0,0,10,0,-2.4990504e-5)"
         id="path21" /></clipPath><clipPath
       clipPathUnits="userSpaceOnUse"
       id="clipPath22"><path
         d="M 0,0 H 432 V 259 H 0 Z"
         transform="matrix(10,0,0,10,0,-2.4990504e-5)"
         id="path22" /></clipPath><clipPath
       clipPathUnits="userSpaceOnUse"
       id="clipPath23"><path
         d="M 0,0 H 432 V 259 H 0 Z"
         transform="matrix(10,0,0,10,0,-2.4990504e-5)"
         id="path23" /></clipPath><clipPath
       clipPathUnits="userSpaceOnUse"
       id="clipPath24"><path
         d="M 0,0 H 432 V 259 H 0 Z"
         transform="matrix(10,0,0,10,0,-2.4990504e-5)"
         id="path24" /></clipPath><clipPath
       clipPathUnits="userSpaceOnUse"
       id="clipPath25"><path
         d="M 0,0 H 432 V 259 H 0 Z"
         transform="matrix(10,0,0,10,0,-2.4990504e-5)"
         id="path25" /></clipPath><clipPath
       clipPathUnits="userSpaceOnUse"
       id="clipPath26"><path
         d="M 0,0 H 432 V 259 H 0 Z"
         transform="matrix(10,0,0,10,0,-2.4990504e-5)"
         id="path26" /></clipPath><clipPath
       clipPathUnits="userSpaceOnUse"
       id="clipPath27"><path
         d="M 0,0 H 432 V 259 H 0 Z"
         transform="matrix(10,0,0,10,0,-2.4990504e-5)"
         id="path27" /></clipPath><clipPath
       clipPathUnits="userSpaceOnUse"
       id="clipPath28"><path
         d="M 0,0 H 432 V 259 H 0 Z"
         transform="matrix(10,0,0,10,0,-2.4990504e-5)"
         id="path28" /></clipPath><clipPath
       clipPathUnits="userSpaceOnUse"
       id="clipPath29"><path
         d="M 0,0 H 432 V 259 H 0 Z"
         transform="matrix(10,0,0,10,0,-2.4990504e-5)"
         id="path29" /></clipPath><clipPath
       clipPathUnits="userSpaceOnUse"
       id="clipPath30"><path
         d="M 0,0 H 432 V 259 H 0 Z"
         transform="matrix(10,0,0,10,0,-2.4990504e-5)"
         id="path30" /></clipPath><clipPath
       clipPathUnits="userSpaceOnUse"
       id="clipPath31"><path
         d="M 0,0 H 432 V 259 H 0 Z"
         transform="matrix(10,0,0,10,0,-2.4990504e-5)"
         id="path31" /></clipPath><clipPath
       clipPathUnits="userSpaceOnUse"
       id="clipPath32"><path
         d="M 0,0 H 432 V 259 H 0 Z"
         transform="matrix(10,0,0,10,0,-2.4990504e-5)"
         id="path32" /></clipPath><clipPath
       clipPathUnits="userSpaceOnUse"
       id="clipPath33"><path
         d="M 0,0 H 432 V 259 H 0 Z"
         transform="matrix(10,0,0,10,0,-2.4990504e-5)"
         id="path33" /></clipPath><clipPath
       clipPathUnits="userSpaceOnUse"
       id="clipPath34"><path
         d="M 0,0 H 432 V 259 H 0 Z"
         transform="matrix(10,0,0,10,0,-2.4990504e-5)"
         id="path34" /></clipPath><clipPath
       clipPathUnits="userSpaceOnUse"
       id="clipPath35"><path
         d="M 0,0 H 432 V 259 H 0 Z"
         transform="matrix(10,0,0,10,0,-2.4990504e-5)"
         id="path35" /></clipPath><clipPath
       clipPathUnits="userSpaceOnUse"
       id="clipPath36"><path
         d="M 0,0 H 432 V 259 H 0 Z"
         transform="matrix(10,0,0,10,0,-2.4990504e-5)"
         id="path36" /></clipPath><clipPath
       clipPathUnits="userSpaceOnUse"
       id="clipPath37"><path
         d="M 0,0 H 432 V 259 H 0 Z"
         transform="matrix(10,0,0,10,0,-2.4990504e-5)"
         id="path37" /></clipPath><clipPath
       clipPathUnits="userSpaceOnUse"
       id="clipPath38"><path
         d="M 0,0 H 432 V 259 H 0 Z"
         transform="matrix(10,0,0,10,0,-2.4990504e-5)"
         id="path38" /></clipPath><clipPath
       clipPathUnits="userSpaceOnUse"
       id="clipPath39"><path
         d="M 0,0 H 432 V 259 H 0 Z"
         transform="matrix(10,0,0,10,0,-2.4990504e-5)"
         id="path39" /></clipPath><clipPath
       clipPathUnits="userSpaceOnUse"
       id="clipPath40"><path
         d="M 0,0 H 432 V 259 H 0 Z"
         transform="matrix(10,0,0,10,0,-2.4990504e-5)"
         id="path40" /></clipPath><clipPath
       clipPathUnits="userSpaceOnUse"
       id="clipPath41"><path
         d="M 0,0 H 432 V 259 H 0 Z"
         transform="matrix(10,0,0,10,0,-2.4990504e-5)"
         id="path41" /></clipPath><clipPath
       clipPathUnits="userSpaceOnUse"
       id="clipPath42"><path
         d="M 0,0 H 432 V 259 H 0 Z"
         transform="matrix(10,0,0,10,0,-2.4990504e-5)"
         id="path42" /></clipPath><clipPath
       clipPathUnits="userSpaceOnUse"
       id="clipPath43"><path
         d="M 0,0 H 432 V 259 H 0 Z"
         transform="matrix(10,0,0,10,0,-2.4990504e-5)"
         id="path43" /></clipPath><clipPath
       clipPathUnits="userSpaceOnUse"
       id="clipPath44"><path
         d="M 0,0 H 432 V 259 H 0 Z"
         transform="matrix(10,0,0,10,0,-2.4990504e-5)"
         id="path44" /></clipPath><clipPath
       clipPathUnits="userSpaceOnUse"
       id="clipPath45"><path
         d="M 0,0 H 432 V 259 H 0 Z"
         transform="matrix(10,0,0,10,0,-2.4990504e-5)"
         id="path45" /></clipPath><clipPath
       clipPathUnits="userSpaceOnUse"
       id="clipPath46"><path
         d="M 0,0 H 432 V 259 H 0 Z"
         transform="matrix(10,0,0,10,0,-2.4990504e-5)"
         id="path46" /></clipPath></defs><g
     inkscape:label="Layer 1"
     inkscape:groupmode="layer"
     id="layer1"
     transform="translate(-55.627597,-58.37445)" /><g
     id="g1"
     inkscape:groupmode="layer"
     inkscape:label="1"
     transform="matrix(0.26458333,0,0,0.26458334,164.37241,-58.37445)"><rect
       style="fill:#ffffff;fill-rule:evenodd;stroke:#ffffff;stroke-width:1.06583"
       id="rect3"
       width="418.51538"
       height="381.16412"
       x="-620.71716"
       y="221.16075" /><path
       id="path1"
       d="m -526.75391,543.1393 c 0,-0.79687 -0.0312,-1.82812 -0.45312,-2.71875 -0.53125,-1.125 -1.4375,-1.40625 -2.125,-1.40625 -0.71875,0 -1.625,0.28125 -2.15625,1.42188 -0.39063,0.82812 -0.4375,1.79687 -0.4375,2.70312 0,0.78125 0.0156,1.9375 0.53125,2.89063 0.5625,1.01562 1.5,1.20312 2.04687,1.20312 0.78125,0 1.65625,-0.34375 2.15625,-1.4375 0.35938,-0.79687 0.4375,-1.70312 0.4375,-2.65625 z m -2.57812,3.79688 c -0.35938,0 -1.21875,-0.17188 -1.45313,-1.51563 -0.125,-0.71875 -0.125,-1.73437 -0.125,-2.42187 0,-0.8125 0,-1.75 0.15625,-2.42188 0.23438,-1.0625 1,-1.26562 1.40625,-1.26562 0.45313,0 1.20313,0.23437 1.4375,1.34375 0.125,0.65625 0.125,1.59375 0.125,2.34375 0,0.73437 0,1.75 -0.125,2.45312 -0.25,1.35938 -1.125,1.48438 -1.42187,1.48438 z m -11.72266,-44.47656 c 0,-0.29688 -0.0156,-0.3125 -0.3125,-0.3125 -0.75,0.75 -1.84375,0.75 -2.21875,0.75 v 0.375 c 0.23438,0 0.95313,0 1.60938,-0.3125 v 6.1875 c 0,0.4375 -0.0469,0.57812 -1.15625,0.57812 h -0.375 v 0.375 c 0.42187,-0.0312 1.48437,-0.0312 1.98437,-0.0312 0.48438,0 1.5625,0 1.98438,0.0312 v -0.375 h -0.375 c -1.10938,0 -1.14063,-0.14062 -1.14063,-0.57812 z m 7.89453,-0.85938 c 0.0312,-0.10937 0.0625,-0.15625 0.0625,-0.20312 0,-0.17188 -0.14062,-0.26563 -0.25,-0.26563 -0.1875,0 -0.25,0.14063 -0.29687,0.28125 l -4.17188,11.20313 c -0.0312,0.10937 -0.0469,0.15625 -0.0469,0.20312 0,0.1875 0.14062,0.26563 0.25,0.26563 0.1875,0 0.23437,-0.125 0.28125,-0.26563 z m 2.8125,3.07813 c -0.35937,-0.23438 -0.64062,-0.54688 -0.64062,-1 0,-0.78125 0.84375,-1.23438 1.625,-1.23438 0.92187,0 1.65625,0.64063 1.65625,1.46875 0,0.84375 -0.70313,1.39063 -1.1875,1.67188 z m 1.75,1.09375 c 0.59375,-0.28125 1.46875,-0.89063 1.46875,-1.85938 0,-1.10937 -1.125,-1.76562 -2.20312,-1.76562 -1.25,0 -2.23438,0.89062 -2.23438,1.98437 0,0.45313 0.17188,0.89063 0.45313,1.23438 0.20312,0.23437 0.28125,0.28125 0.96875,0.71875 -1.04688,0.5 -1.75,1.23437 -1.75,2.20312 0,1.28125 1.25,2.07813 2.54687,2.07813 1.39063,0 2.5625,-0.98438 2.5625,-2.28125 0,-1.15625 -0.89062,-1.71875 -1.1875,-1.92188 -0.14062,-0.0937 -0.48437,-0.3125 -0.625,-0.39062 z m -1.21875,0.51562 1.5,0.9375 c 0.28125,0.17188 0.875,0.5625 0.875,1.28125 0,0.95313 -0.95312,1.51563 -1.89062,1.51563 -1.04688,0 -1.92188,-0.73438 -1.92188,-1.73438 0,-0.85937 0.59375,-1.5625 1.4375,-2 z m -11.23828,-40.69531 c 0,-0.29687 -0.0156,-0.3125 -0.3125,-0.3125 -0.75,0.75 -1.84375,0.75 -2.21875,0.75 v 0.375 c 0.23438,0 0.95313,0 1.60938,-0.3125 v 6.1875 c 0,0.4375 -0.0469,0.57813 -1.15625,0.57813 h -0.375 v 0.375 c 0.42187,-0.0313 1.48437,-0.0313 1.98437,-0.0313 0.48438,0 1.5625,0 1.98438,0.0313 v -0.375 h -0.375 c -1.10938,0 -1.14063,-0.14063 -1.14063,-0.57813 z m 7.89453,-0.85937 c 0.0312,-0.10938 0.0625,-0.15625 0.0625,-0.20313 0,-0.17187 -0.14062,-0.26562 -0.25,-0.26562 -0.1875,0 -0.25,0.14062 -0.29687,0.28125 l -4.17188,11.20312 c -0.0312,0.10937 -0.0469,0.15625 -0.0469,0.20313 0,0.1875 0.14062,0.26562 0.25,0.26562 0.1875,0 0.23437,-0.125 0.28125,-0.26562 z m 1.09375,6.15625 v 0.375 h 3.26563 v 1.03125 c 0,0.4375 -0.0312,0.5625 -0.9375,0.5625 h -0.25 v 0.375 c 0.75,-0.0313 1.57812,-0.0313 1.67187,-0.0313 0.0469,0 0.92188,0 1.67188,0.0313 v -0.375 h -0.26563 c -0.89062,0 -0.9375,-0.125 -0.9375,-0.5625 v -1.03125 h 1.21875 v -0.375 h -1.21875 v -5.42188 c 0,-0.25 0,-0.32812 -0.21875,-0.32812 -0.14062,0 -0.15625,0.0156 -0.26562,0.1875 z m 0.39063,0 2.95312,-4.42188 v 4.42188 z m -9.37891,-38.72266 c 1.10938,-0.42188 1.64063,-1.29688 1.64063,-2.125 0,-0.92187 -1.01563,-1.625 -2.25,-1.625 -1.25,0 -2.1875,0.70313 -2.1875,1.60938 0,0.39062 0.26562,0.625 0.60937,0.625 0.35938,0 0.60938,-0.25 0.60938,-0.60938 0,-0.40625 -0.29688,-0.59375 -0.70313,-0.59375 0.3125,-0.5 1.04688,-0.73437 1.625,-0.73437 1,0 1.1875,0.78125 1.1875,1.34375 0,0.35937 -0.0781,0.93749 -0.375,1.39062 -0.35937,0.53125 -0.78125,0.5625 -1.125,0.57813 -0.3125,0.0312 -0.32812,0.0312 -0.42187,0.0312 -0.10938,0.0156 -0.20313,0.0156 -0.20313,0.15625 0,0.15625 0.0937,0.15625 0.29688,0.15625 h 0.5625 c 1.03125,0 1.5,0.82812 1.5,1.96875 0,1.53125 -0.82813,1.95312 -1.4375,1.95312 -0.21875,0 -1.375,-0.0469 -1.92188,-0.9375 0.4375,0.0625 0.76563,-0.23437 0.76563,-0.64062 0,-0.40625 -0.29688,-0.65625 -0.64063,-0.65625 -0.29687,0 -0.65625,0.1875 -0.65625,0.6875 0,1.0625 1.10938,1.89062 2.5,1.89062 1.48438,0 2.60938,-1.07812 2.60938,-2.29687 0,-1.04688 -0.82813,-1.92188 -1.98438,-2.17188 z m 7.89453,-4.29687 c 0.0312,-0.10938 0.0625,-0.15625 0.0625,-0.20313 0,-0.17187 -0.14062,-0.26562 -0.25,-0.26562 -0.1875,0 -0.25,0.14062 -0.29687,0.28125 l -4.17188,11.20312 c -0.0312,0.10937 -0.0469,0.15625 -0.0469,0.20313 0,0.1875 0.14062,0.26562 0.25,0.26562 0.1875,0 0.23437,-0.125 0.28125,-0.26562 z m 2.8125,3.07812 c -0.35937,-0.23437 -0.64062,-0.54687 -0.64062,-1 0,-0.78125 0.84375,-1.23437 1.625,-1.23437 0.92187,0 1.65625,0.64062 1.65625,1.46875 0,0.84375 -0.70313,1.39062 -1.1875,1.67187 z m 1.75,1.09375 c 0.59375,-0.28125 1.46875,-0.89062 1.46875,-1.85937 0,-1.10938 -1.125,-1.76563 -2.20312,-1.76563 -1.25,0 -2.23438,0.89063 -2.23438,1.98438 0,0.45312 0.17188,0.89062 0.45313,1.23437 0.20312,0.23437 0.28125,0.28125 0.96875,0.71875 -1.04688,0.5 -1.75,1.23438 -1.75,2.20312 0,1.28126 1.25,2.07813 2.54687,2.07813 1.39063,0 2.5625,-0.98437 2.5625,-2.28125 0,-1.15625 -0.89062,-1.71875 -1.1875,-1.92188 -0.14062,-0.0937 -0.48437,-0.3125 -0.625,-0.39062 z m -1.21875,0.51562 1.5,0.9375 c 0.28125,0.17188 0.875,0.5625 0.875,1.28126 0,0.95312 -0.95312,1.51562 -1.89062,1.51562 -1.04688,0 -1.92188,-0.73438 -1.92188,-1.73438 0,-0.85937 0.59375,-1.5625 1.4375,-2 z m -11.23828,-40.76171 c 0,-0.29688 -0.0156,-0.3125 -0.3125,-0.3125 -0.75,0.75 -1.84375,0.75 -2.21875,0.75 v 0.375 c 0.23438,0 0.95313,0 1.60938,-0.3125 v 6.1875 c 0,0.4375 -0.0469,0.57812 -1.15625,0.57812 h -0.375 v 0.375 c 0.42187,-0.0312 1.48437,-0.0312 1.98437,-0.0312 0.48438,0 1.5625,0 1.98438,0.0312 v -0.375 h -0.375 c -1.10938,0 -1.14063,-0.14062 -1.14063,-0.57812 z m 7.89453,-0.85938 c 0.0312,-0.10934 0.0625,-0.15624 0.0625,-0.20312 0,-0.17188 -0.14062,-0.26563 -0.25,-0.26563 -0.1875,0 -0.25,0.14063 -0.29687,0.28125 l -4.17188,11.20312 c -0.0312,0.10934 -0.0469,0.15626 -0.0469,0.20314 0,0.18749 0.14062,0.26562 0.25,0.26562 0.1875,0 0.23437,-0.12493 0.28125,-0.26562 z m 6.26563,6.39062 h -0.32813 c -0.0312,0.15626 -0.125,0.85938 -0.28125,1.04688 -0.0625,0.10934 -0.89062,0.10934 -1.125,0.10934 h -2.125 l 1.17188,-1.125 c 1.96875,-1.70312 2.6875,-2.32812 2.6875,-3.54688 0,-1.375 -1.125,-2.32812 -2.59375,-2.32812 -1.375,0 -2.3125,1.07812 -2.3125,2.17188 0,0.59374 0.51562,0.65624 0.625,0.65624 0.26562,0 0.625,-0.1875 0.625,-0.625 0,-0.35938 -0.25,-0.625 -0.625,-0.625 -0.0625,0 -0.0937,0 -0.14063,0.0156 0.28125,-0.84375 1.04688,-1.23438 1.6875,-1.23438 1.21875,0 1.64063,1.14063 1.64063,1.96875 0,1.21876 -0.92188,2.20313 -1.5,2.82813 l -2.1875,2.35938 c -0.125,0.14062 -0.125,0.15625 -0.125,0.43749 h 4.57812 z m -16.55078,-38.88281 c 0,0.21876 0,0.34376 0.15625,0.34376 0.0937,0 0.14062,-0.0469 0.20312,-0.15625 0.35938,-0.5 0.9375,-0.78126 1.5625,-0.78126 1.28125,0 1.28125,1.84375 1.28125,2.26563 0,0.375 0,1.10937 -0.34375,1.65625 -0.3125,0.5 -0.82812,0.71875 -1.28125,0.71875 -0.71875,0 -1.51562,-0.43749 -1.79687,-1.32812 0.0156,0 0.0781,0.0312 0.15625,0.0312 0.25,0 0.59375,-0.15624 0.59375,-0.57812 0,-0.375 -0.26563,-0.59375 -0.59375,-0.59375 -0.25,0 -0.57813,0.14063 -0.57813,0.625 0,1.07812 0.90625,2.1875 2.23438,2.1875 1.45312,0 2.67187,-1.17187 2.67187,-2.65624 0,-1.45314 -1.01562,-2.625 -2.32812,-2.625 -0.5625,0 -1.15625,0.18749 -1.57813,0.60937 v -2.34376 c 0.35938,0.10933 0.73438,0.15625 1.10938,0.15625 1.46875,0 2.32812,-1.06249 2.32812,-1.21874 0,-0.0937 -0.0781,-0.14063 -0.14062,-0.14063 -0.0156,0 -0.0469,0 -0.15625,0.0469 -0.54688,0.23438 -1.10938,0.32812 -1.60938,0.32812 -0.51562,0 -1.04687,-0.0937 -1.59375,-0.32812 -0.125,-0.0469 -0.14062,-0.0469 -0.15625,-0.0469 -0.14062,0 -0.14062,0.10933 -0.14062,0.31251 z m 10.28515,-4.375 c 0.0312,-0.10933 0.0625,-0.15624 0.0625,-0.20312 0,-0.17188 -0.14062,-0.26563 -0.25,-0.26563 -0.1875,0 -0.25,0.14063 -0.29687,0.28126 l -4.17188,11.20312 c -0.0312,0.10933 -0.0469,0.15625 -0.0469,0.20313 0,0.18749 0.14062,0.26563 0.25,0.26563 0.1875,0 0.23437,-0.12494 0.28125,-0.26563 z m 2.8125,3.07813 c -0.35937,-0.23437 -0.64062,-0.54688 -0.64062,-1 0,-0.78125 0.84375,-1.23437 1.625,-1.23437 0.92187,0 1.65625,0.64063 1.65625,1.46875 0,0.84374 -0.70313,1.39062 -1.1875,1.67188 z m 1.75,1.09375 c 0.59375,-0.28125 1.46875,-0.89063 1.46875,-1.85937 0,-1.10938 -1.125,-1.76563 -2.20312,-1.76563 -1.25,0 -2.23438,0.89063 -2.23438,1.98437 0,0.45314 0.17188,0.89063 0.45313,1.23438 0.20312,0.23437 0.28125,0.28125 0.96875,0.71876 -1.04688,0.5 -1.75,1.23437 -1.75,2.20312 0,1.28125 1.25,2.07812 2.54687,2.07812 1.39063,0 2.5625,-0.98438 2.5625,-2.28124 0,-1.15626 -0.89062,-1.71876 -1.1875,-1.92188 -0.14062,-0.0937 -0.48437,-0.31251 -0.625,-0.39063 z m -1.21875,0.51563 1.5,0.93749 c 0.28125,0.17188 0.875,0.56251 0.875,1.28125 0,0.95314 -0.95312,1.51563 -1.89062,1.51563 -1.04688,0 -1.92188,-0.73437 -1.92188,-1.73437 0,-0.85938 0.59375,-1.56251 1.4375,-2 z m -11.23828,-37.25391 c 1.10938,-0.42188 1.64063,-1.29688 1.64063,-2.125 0,-0.92188 -1.01563,-1.625 -2.25,-1.625 -1.25,0 -2.1875,0.70312 -2.1875,1.60937 0,0.39063 0.26562,0.625 0.60937,0.625 0.35938,0 0.60938,-0.25 0.60938,-0.60937 0,-0.40625 -0.29688,-0.59375 -0.70313,-0.59375 0.3125,-0.5 1.04688,-0.73437 1.625,-0.73437 1,0 1.1875,0.78124 1.1875,1.34375 0,0.35937 -0.0781,0.93749 -0.375,1.39062 -0.35937,0.53124 -0.78125,0.5625 -1.125,0.57812 -0.3125,0.0312 -0.32812,0.0312 -0.42187,0.0312 -0.10938,0.0156 -0.20313,0.0156 -0.20313,0.15626 0,0.15624 0.0937,0.15624 0.29688,0.15624 h 0.5625 c 1.03125,0 1.5,0.82813 1.5,1.96876 0,1.53124 -0.82813,1.95312 -1.4375,1.95312 -0.21875,0 -1.375,-0.0469 -1.92188,-0.93751 0.4375,0.0625 0.76563,-0.23437 0.76563,-0.64061 0,-0.40626 -0.29688,-0.65626 -0.64063,-0.65626 -0.29687,0 -0.65625,0.1875 -0.65625,0.6875 0,1.0625 1.10938,1.89062 2.5,1.89062 1.48438,0 2.60938,-1.07812 2.60938,-2.29686 0,-1.04688 -0.82813,-1.92188 -1.98438,-2.17188 z m 7.89453,-4.29688 c 0.0312,-0.10933 0.0625,-0.15624 0.0625,-0.20312 0,-0.17188 -0.14062,-0.26563 -0.25,-0.26563 -0.1875,0 -0.25,0.14063 -0.29687,0.28126 l -4.17188,11.20312 c -0.0312,0.10933 -0.0469,0.15625 -0.0469,0.20313 0,0.18749 0.14062,0.26561 0.25,0.26561 0.1875,0 0.23437,-0.12493 0.28125,-0.26561 z m 1.09375,6.15625 v 0.375 h 3.26563 v 1.03126 c 0,0.43749 -0.0312,0.56249 -0.9375,0.56249 h -0.25 v 0.375 c 0.75,-0.0312 1.57812,-0.0312 1.67187,-0.0312 0.0469,0 0.92188,0 1.67188,0.0312 v -0.375 h -0.26563 c -0.89062,0 -0.9375,-0.12493 -0.9375,-0.56249 v -1.03126 h 1.21875 v -0.375 h -1.21875 v -5.42188 c 0,-0.25 0,-0.32812 -0.21875,-0.32812 -0.14062,0 -0.15625,0.0156 -0.26562,0.18751 z m 0.39063,0 2.95312,-4.42188 v 4.42188 z m -7.16016,-41.8203 c 0.10938,-0.12493 0.10938,-0.15625 0.10938,-0.40625 h -2.98438 c -1.5,0 -1.53125,-0.15626 -1.57812,-0.375 h -0.32813 l -0.39062,2.5 h 0.32812 c 0.0469,-0.28126 0.14063,-0.95312 0.29688,-1.09375 0.0937,-0.0625 1.03125,-0.0625 1.20312,-0.0625 h 2.5 l -1.14062,1.5625 c -1.5625,2.14063 -1.70313,4.07812 -1.70313,4.76563 0,0.12493 0,0.67187 0.54688,0.67187 0.5625,0 0.5625,-0.53126 0.5625,-0.6875 v -0.57813 c 0,-1.76563 0.26562,-3.14063 0.90625,-4.01563 z m 5.67578,-1.20313 c 0.0312,-0.10934 0.0625,-0.15624 0.0625,-0.20312 0,-0.17188 -0.14062,-0.26563 -0.25,-0.26563 -0.1875,0 -0.25,0.14063 -0.29687,0.28125 l -4.17188,11.20312 c -0.0312,0.10934 -0.0469,0.15626 -0.0469,0.20314 0,0.18749 0.14062,0.26561 0.25,0.26561 0.1875,0 0.23437,-0.12493 0.28125,-0.26561 z m 2.8125,3.07813 c -0.35937,-0.23437 -0.64062,-0.54688 -0.64062,-1 0,-0.78125 0.84375,-1.23437 1.625,-1.23437 0.92187,0 1.65625,0.64061 1.65625,1.46874 0,0.84375 -0.70313,1.39063 -1.1875,1.67187 z m 1.75,1.09375 c 0.59375,-0.28126 1.46875,-0.89063 1.46875,-1.85938 0,-1.10937 -1.125,-1.76562 -2.20312,-1.76562 -1.25,0 -2.23438,0.89062 -2.23438,1.98437 0,0.45312 0.17188,0.89063 0.45313,1.23437 0.20312,0.23438 0.28125,0.28126 0.96875,0.71875 -1.04688,0.5 -1.75,1.23439 -1.75,2.20313 0,1.28126 1.25,2.07812 2.54687,2.07812 1.39063,0 2.5625,-0.98437 2.5625,-2.28125 0,-1.15624 -0.89062,-1.71875 -1.1875,-1.92187 -0.14062,-0.0937 -0.48437,-0.3125 -0.625,-0.39062 z m -1.21875,0.51562 1.5,0.9375 c 0.28125,0.17188 0.875,0.5625 0.875,1.28125 0,0.95312 -0.95312,1.51563 -1.89062,1.51563 -1.04688,0 -1.92188,-0.73438 -1.92188,-1.73438 0,-0.85937 0.59375,-1.5625 1.4375,-2 z m -4.14062,-41.17578 h -6.70313 v 0.375 h 0.28125 c 0.92188,0 0.9375,0.12493 0.9375,0.5625 v 6.25 c 0,0.4375 -0.0156,0.5625 -0.9375,0.5625 h -0.28125 v 0.375 c 0.53125,-0.0312 1.28125,-0.0312 1.82813,-0.0312 0.48437,0 1.5625,0 1.98437,0.0312 v -0.375 h -0.375 c -1.09375,0 -1.14062,-0.14063 -1.14062,-0.57812 v -2.93751 h 1.07812 c 1.15625,0 1.28125,0.39063 1.28125,1.40625 h 0.34375 v -3.17188 h -0.34375 c 0,1.01563 -0.125,1.40626 -1.28125,1.40626 h -1.07812 v -3.01563 c 0,-0.40624 0.0156,-0.48437 0.57812,-0.48437 h 1.51563 c 1.82812,0 2.125,0.65625 2.3125,2.3125 h 0.34375 z m 3.58203,3.125 c -0.96875,-0.23438 -1.26562,-1 -1.26562,-1.53126 0,-0.79686 0.64062,-1.56249 1.64062,-1.56249 1.54688,0 2.17188,1.15625 2.32813,2.35937 0.0469,0.21875 0.0469,0.28126 0.20312,0.28126 0.15625,0 0.15625,-0.0781 0.15625,-0.32814 v -2.31249 c 0,-0.23437 0,-0.32812 -0.14062,-0.32812 -0.0781,0 -0.0937,0 -0.17188,0.15624 -0.15625,0.20313 -0.0469,0.0469 -0.4375,0.67188 -0.20312,-0.23437 -0.82812,-0.82812 -1.95312,-0.82812 -1.39063,0 -2.39063,1.07812 -2.39063,2.29687 0,0.9375 0.5625,1.51562 0.60938,1.57813 0.54687,0.51561 0.76562,0.57812 2.1875,0.90624 0.96875,0.23437 1.0625,0.26563 1.46875,0.67188 0,0 0.40625,0.45312 0.40625,1.15625 0,0.8125 -0.57813,1.70312 -1.67188,1.70312 -0.92187,0 -2.57812,-0.375 -2.67187,-2.35937 -0.0156,-0.17188 -0.0156,-0.25 -0.17188,-0.25 -0.15625,0 -0.15625,0.0937 -0.15625,0.34375 v 2.29688 c 0,0.25 0,0.34374 0.14063,0.34374 0.0781,0 0.0937,-0.0156 0.17187,-0.15625 0.15625,-0.21875 0.0469,-0.0625 0.4375,-0.68749 0.73438,0.71874 1.6875,0.84374 2.26563,0.84374 1.45312,0 2.42187,-1.20312 2.42187,-2.48437 0,-0.67188 -0.25,-1.20312 -0.53125,-1.56251 -0.51562,-0.65624 -1.04687,-0.78124 -1.82812,-0.96874 z m 7.75,308.16015 c 0,-0.79688 -0.0312,-1.82813 -0.45313,-2.71875 -0.53125,-1.125 -1.4375,-1.40625 -2.12499,-1.40625 -0.71875,0 -1.625,0.28125 -2.15625,1.42187 -0.39063,0.82813 -0.4375,1.79688 -0.4375,2.70313 0,0.78125 0.0156,1.9375 0.53125,2.89062 0.5625,1.01563 1.5,1.20313 2.04687,1.20313 0.78125,0 1.65625,-0.34375 2.15625,-1.4375 0.35937,-0.79688 0.4375,-1.70313 0.4375,-2.65625 z m -2.57812,3.79687 c -0.35938,0 -1.21875,-0.17187 -1.45313,-1.51562 -0.125,-0.71875 -0.125,-1.73438 -0.125,-2.42188 0,-0.8125 0,-1.75 0.15625,-2.42187 0.23438,-1.0625 1,-1.26563 1.40625,-1.26563 0.45312,0 1.20312,0.23438 1.4375,1.34375 0.125,0.65625 0.125,1.59375 0.125,2.34375 0,0.73438 0,1.75 -0.125,2.45313 -0.25,1.35937 -1.125,1.48437 -1.42187,1.48437 z m 8.72265,-3.79687 c 0,-0.79688 -0.0312,-1.82813 -0.45312,-2.71875 -0.53125,-1.125 -1.4375,-1.40625 -2.125,-1.40625 -0.71875,0 -1.625,0.28125 -2.15625,1.42187 -0.39063,0.82813 -0.4375,1.79688 -0.4375,2.70313 0,0.78125 0.0156,1.9375 0.53125,2.89062 0.5625,1.01563 1.5,1.20313 2.04687,1.20313 0.78125,0 1.65625,-0.34375 2.15625,-1.4375 0.35938,-0.79688 0.4375,-1.70313 0.4375,-2.65625 z m -2.57812,3.79687 c -0.35938,0 -1.21875,-0.17187 -1.45313,-1.51562 -0.125,-0.71875 -0.125,-1.73438 -0.125,-2.42188 0,-0.8125 0,-1.75 0.15625,-2.42187 0.23438,-1.0625 1,-1.26563 1.40625,-1.26563 0.45313,0 1.20313,0.23438 1.4375,1.34375 0.125,0.65625 0.125,1.59375 0.125,2.34375 0,0.73438 0,1.75 -0.125,2.45313 -0.25,1.35937 -1.125,1.48437 -1.42187,1.48437 z m 8.72265,-3.79687 c 0,-0.79688 -0.0312,-1.82813 -0.45312,-2.71875 -0.53125,-1.125 -1.4375,-1.40625 -2.125,-1.40625 -0.71875,0 -1.625,0.28125 -2.15625,1.42187 -0.39063,0.82813 -0.4375,1.79688 -0.4375,2.70313 0,0.78125 0.0156,1.9375 0.53125,2.89062 0.5625,1.01563 1.5,1.20313 2.04687,1.20313 0.78125,0 1.65625,-0.34375 2.15625,-1.4375 0.35938,-0.79688 0.4375,-1.70313 0.4375,-2.65625 z m -2.57812,3.79687 c -0.35938,0 -1.21875,-0.17187 -1.45313,-1.51562 -0.125,-0.71875 -0.125,-1.73438 -0.125,-2.42188 0,-0.8125 0,-1.75 0.15625,-2.42187 0.23438,-1.0625 1,-1.26563 1.40625,-1.26563 0.45313,0 1.20313,0.23438 1.4375,1.34375 0.125,0.65625 0.125,1.59375 0.125,2.34375 0,0.73438 0,1.75 -0.125,2.45313 -0.25,1.35937 -1.125,1.48437 -1.42187,1.48437 z m 27.15625,-3.79687 c 0,-0.79688 -0.0313,-1.82813 -0.45313,-2.71875 -0.53125,-1.125 -1.4375,-1.40625 -2.125,-1.40625 -0.71875,0 -1.625,0.28125 -2.15625,1.42187 -0.39062,0.82813 -0.4375,1.79688 -0.4375,2.70313 0,0.78125 0.0156,1.9375 0.53125,2.89062 0.5625,1.01563 1.5,1.20313 2.04688,1.20313 0.78125,0 1.65625,-0.34375 2.15625,-1.4375 0.35937,-0.79688 0.4375,-1.70313 0.4375,-2.65625 z m -2.57813,3.79687 c -0.35937,0 -1.21875,-0.17187 -1.45312,-1.51562 -0.125,-0.71875 -0.125,-1.73438 -0.125,-2.42188 0,-0.8125 0,-1.75 0.15625,-2.42187 0.23437,-1.0625 1,-1.26563 1.40625,-1.26563 0.45312,0 1.20312,0.23438 1.4375,1.34375 0.125,0.65625 0.125,1.59375 0.125,2.34375 0,0.73438 0,1.75 -0.125,2.45313 -0.25,1.35937 -1.125,1.48437 -1.42188,1.48437 z m 8.72266,-3.79687 c 0,-0.79688 -0.0313,-1.82813 -0.45313,-2.71875 -0.53125,-1.125 -1.4375,-1.40625 -2.125,-1.40625 -0.71875,0 -1.625,0.28125 -2.15625,1.42187 -0.39062,0.82813 -0.4375,1.79688 -0.4375,2.70313 0,0.78125 0.0156,1.9375 0.53125,2.89062 0.5625,1.01563 1.5,1.20313 2.04688,1.20313 0.78125,0 1.65625,-0.34375 2.15625,-1.4375 0.35937,-0.79688 0.4375,-1.70313 0.4375,-2.65625 z m -2.57813,3.79687 c -0.35937,0 -1.21875,-0.17187 -1.45312,-1.51562 -0.125,-0.71875 -0.125,-1.73438 -0.125,-2.42188 0,-0.8125 0,-1.75 0.15625,-2.42187 0.23437,-1.0625 1,-1.26563 1.40625,-1.26563 0.45312,0 1.20312,0.23438 1.4375,1.34375 0.125,0.65625 0.125,1.59375 0.125,2.34375 0,0.73438 0,1.75 -0.125,2.45313 -0.25,1.35937 -1.125,1.48437 -1.42188,1.48437 z m 6.70313,-7.60937 c 0,-0.29688 -0.0156,-0.3125 -0.3125,-0.3125 -0.75,0.75 -1.84375,0.75 -2.21875,0.75 v 0.375 c 0.23437,0 0.95312,0 1.60937,-0.3125 v 6.1875 c 0,0.4375 -0.0469,0.57812 -1.15625,0.57812 h -0.375 v 0.375 c 0.42188,-0.0312 1.48438,-0.0312 1.98438,-0.0312 0.48437,0 1.5625,0 1.98437,0.0312 v -0.375 h -0.375 c -1.10937,0 -1.14062,-0.14062 -1.14062,-0.57812 z m 26.59375,3.8125 c 0,-0.79688 -0.0313,-1.82813 -0.45313,-2.71875 -0.53125,-1.125 -1.4375,-1.40625 -2.125,-1.40625 -0.71875,0 -1.625,0.28125 -2.15625,1.42187 -0.39062,0.82813 -0.4375,1.79688 -0.4375,2.70313 0,0.78125 0.0156,1.9375 0.53125,2.89062 0.5625,1.01563 1.5,1.20313 2.04688,1.20313 0.78125,0 1.65625,-0.34375 2.15625,-1.4375 0.35937,-0.79688 0.4375,-1.70313 0.4375,-2.65625 z m -2.57813,3.79687 c -0.35937,0 -1.21875,-0.17187 -1.45312,-1.51562 -0.125,-0.71875 -0.125,-1.73438 -0.125,-2.42188 0,-0.8125 0,-1.75 0.15625,-2.42187 0.23437,-1.0625 1,-1.26563 1.40625,-1.26563 0.45312,0 1.20312,0.23438 1.4375,1.34375 0.125,0.65625 0.125,1.59375 0.125,2.34375 0,0.73438 0,1.75 -0.125,2.45313 -0.25,1.35937 -1.125,1.48437 -1.42188,1.48437 z m 6.70703,-7.60937 c 0,-0.29688 -0.0156,-0.3125 -0.3125,-0.3125 -0.75,0.75 -1.84375,0.75 -2.21875,0.75 v 0.375 c 0.23438,0 0.95313,0 1.60938,-0.3125 v 6.1875 c 0,0.4375 -0.0469,0.57812 -1.15625,0.57812 h -0.375 v 0.375 c 0.42187,-0.0312 1.48437,-0.0312 1.98437,-0.0312 0.48438,0 1.5625,0 1.98438,0.0312 v -0.375 h -0.375 c -1.10938,0 -1.14063,-0.14062 -1.14063,-0.57812 z m 8.16016,3.8125 c 0,-0.79688 -0.0312,-1.82813 -0.45313,-2.71875 -0.53125,-1.125 -1.4375,-1.40625 -2.125,-1.40625 -0.71875,0 -1.625,0.28125 -2.15625,1.42187 -0.39062,0.82813 -0.4375,1.79688 -0.4375,2.70313 0,0.78125 0.0156,1.9375 0.53125,2.89062 0.5625,1.01563 1.5,1.20313 2.04688,1.20313 0.78125,0 1.65625,-0.34375 2.15625,-1.4375 0.35937,-0.79688 0.4375,-1.70313 0.4375,-2.65625 z m -2.57813,3.79687 c -0.35937,0 -1.21875,-0.17187 -1.45312,-1.51562 -0.125,-0.71875 -0.125,-1.73438 -0.125,-2.42188 0,-0.8125 0,-1.75 0.15625,-2.42187 0.23437,-1.0625 1,-1.26563 1.40625,-1.26563 0.45312,0 1.20312,0.23438 1.4375,1.34375 0.125,0.65625 0.125,1.59375 0.125,2.34375 0,0.73438 0,1.75 -0.125,2.45313 -0.25,1.35937 -1.125,1.48437 -1.42188,1.48437 z m 27.15625,-3.79687 c 0,-0.79688 -0.0312,-1.82813 -0.45312,-2.71875 -0.53125,-1.125 -1.4375,-1.40625 -2.125,-1.40625 -0.71875,0 -1.625,0.28125 -2.15625,1.42187 -0.39063,0.82813 -0.4375,1.79688 -0.4375,2.70313 0,0.78125 0.0156,1.9375 0.53125,2.89062 0.5625,1.01563 1.5,1.20313 2.04687,1.20313 0.78125,0 1.65625,-0.34375 2.15625,-1.4375 0.35938,-0.79688 0.4375,-1.70313 0.4375,-2.65625 z m -2.57812,3.79687 c -0.35938,0 -1.21875,-0.17187 -1.45313,-1.51562 -0.125,-0.71875 -0.125,-1.73438 -0.125,-2.42188 0,-0.8125 0,-1.75 0.15625,-2.42187 0.23438,-1.0625 1,-1.26563 1.40625,-1.26563 0.45313,0 1.20313,0.23438 1.4375,1.34375 0.125,0.65625 0.125,1.59375 0.125,2.34375 0,0.73438 0,1.75 -0.125,2.45313 -0.25,1.35937 -1.125,1.48437 -1.42187,1.48437 z m 6.70703,-7.60937 c 0,-0.29688 -0.0156,-0.3125 -0.3125,-0.3125 -0.75,0.75 -1.84375,0.75 -2.21875,0.75 v 0.375 c 0.23437,0 0.95312,0 1.60937,-0.3125 v 6.1875 c 0,0.4375 -0.0469,0.57812 -1.15625,0.57812 h -0.375 v 0.375 c 0.42188,-0.0312 1.48438,-0.0312 1.98438,-0.0312 0.48437,0 1.5625,0 1.98437,0.0312 v -0.375 h -0.375 c -1.10937,0 -1.14062,-0.14062 -1.14062,-0.57812 z m 6.14453,0 c 0,-0.29688 -0.0156,-0.3125 -0.3125,-0.3125 -0.75,0.75 -1.84375,0.75 -2.21875,0.75 v 0.375 c 0.23438,0 0.95313,0 1.60938,-0.3125 v 6.1875 c 0,0.4375 -0.0469,0.57812 -1.15625,0.57812 h -0.375 v 0.375 c 0.42187,-0.0312 1.48437,-0.0312 1.98437,-0.0312 0.48438,0 1.5625,0 1.98438,0.0312 v -0.375 h -0.375 c -1.10938,0 -1.14063,-0.14062 -1.14063,-0.57812 z m 24.63671,0 c 0,-0.29688 -0.0156,-0.3125 -0.31249,-0.3125 -0.75,0.75 -1.84375,0.75 -2.21875,0.75 v 0.375 c 0.23437,0 0.95312,0 1.60937,-0.3125 v 6.1875 c 0,0.4375 -0.0469,0.57812 -1.15625,0.57812 h -0.375 v 0.375 c 0.42188,-0.0312 1.48437,-0.0312 1.98437,-0.0312 0.48438,0 1.56251,0 1.98438,0.0312 v -0.375 h -0.375 c -1.10938,0 -1.14063,-0.14062 -1.14063,-0.57812 z m 8.16016,3.8125 c 0,-0.79688 -0.0312,-1.82813 -0.45312,-2.71875 -0.53125,-1.125 -1.43751,-1.40625 -2.125,-1.40625 -0.71876,0 -1.625,0.28125 -2.15625,1.42187 -0.39063,0.82813 -0.43751,1.79688 -0.43751,2.70313 0,0.78125 0.0156,1.9375 0.53125,2.89062 0.56251,1.01563 1.5,1.20313 2.04688,1.20313 0.78126,0 1.65626,-0.34375 2.15626,-1.4375 0.35937,-0.79688 0.43749,-1.70313 0.43749,-2.65625 z m -2.57812,3.79687 c -0.35937,0 -1.21876,-0.17187 -1.45313,-1.51562 -0.12494,-0.71875 -0.12494,-1.73438 -0.12494,-2.42188 0,-0.8125 0,-1.75 0.15626,-2.42187 0.23437,-1.0625 1,-1.26563 1.40625,-1.26563 0.45312,0 1.20312,0.23438 1.43749,1.34375 0.12494,0.65625 0.12494,1.59375 0.12494,2.34375 0,0.73438 0,1.75 -0.12494,2.45313 -0.25,1.35937 -1.125,1.48437 -1.42186,1.48437 z m 8.72265,-3.79687 c 0,-0.79688 -0.0312,-1.82813 -0.45312,-2.71875 -0.53125,-1.125 -1.4375,-1.40625 -2.125,-1.40625 -0.71876,0 -1.625,0.28125 -2.15625,1.42187 -0.39063,0.82813 -0.43751,1.79688 -0.43751,2.70313 0,0.78125 0.0156,1.9375 0.53126,2.89062 0.5625,1.01563 1.5,1.20313 2.04688,1.20313 0.78124,0 1.65624,-0.34375 2.15624,-1.4375 0.35938,-0.79688 0.4375,-1.70313 0.4375,-2.65625 z m -2.57812,3.79687 c -0.35938,0 -1.21876,-0.17187 -1.45313,-1.51562 -0.12493,-0.71875 -0.12493,-1.73438 -0.12493,-2.42188 0,-0.8125 0,-1.75 0.15625,-2.42187 0.23437,-1.0625 1,-1.26563 1.40625,-1.26563 0.45312,0 1.20312,0.23438 1.4375,1.34375 0.12493,0.65625 0.12493,1.59375 0.12493,2.34375 0,0.73438 0,1.75 -0.12493,2.45313 -0.25,1.35937 -1.125,1.48437 -1.42187,1.48437 z m 25.14062,-7.60937 c 0,-0.29688 -0.0156,-0.3125 -0.3125,-0.3125 -0.75,0.75 -1.84374,0.75 -2.21874,0.75 v 0.375 c 0.23437,0 0.95312,0 1.60937,-0.3125 v 6.1875 c 0,0.4375 -0.0469,0.57812 -1.15625,0.57812 h -0.375 v 0.375 c 0.42188,-0.0312 1.48437,-0.0312 1.98437,-0.0312 0.48437,0 1.56251,0 1.98437,0.0312 v -0.375 h -0.375 c -1.10937,0 -1.14062,-0.14062 -1.14062,-0.57812 z m 8.16016,3.8125 c 0,-0.79688 -0.0312,-1.82813 -0.45312,-2.71875 -0.53126,-1.125 -1.43751,-1.40625 -2.125,-1.40625 -0.71876,0 -1.625,0.28125 -2.15626,1.42187 -0.39062,0.82813 -0.4375,1.79688 -0.4375,2.70313 0,0.78125 0.0156,1.9375 0.53125,2.89062 0.56251,1.01563 1.5,1.20313 2.04688,1.20313 0.78125,0 1.65625,-0.34375 2.15625,-1.4375 0.35938,-0.79688 0.4375,-1.70313 0.4375,-2.65625 z m -2.57812,3.79687 c -0.35938,0 -1.21876,-0.17187 -1.45314,-1.51562 -0.12493,-0.71875 -0.12493,-1.73438 -0.12493,-2.42188 0,-0.8125 0,-1.75 0.15625,-2.42187 0.23438,-1.0625 1,-1.26563 1.40626,-1.26563 0.45312,0 1.20312,0.23438 1.43749,1.34375 0.12493,0.65625 0.12493,1.59375 0.12493,2.34375 0,0.73438 0,1.75 -0.12493,2.45313 -0.25,1.35937 -1.125,1.48437 -1.42187,1.48437 z m 6.70702,-7.60937 c 0,-0.29688 -0.0156,-0.3125 -0.31249,-0.3125 -0.75,0.75 -1.84376,0.75 -2.21876,0.75 v 0.375 c 0.23437,0 0.95313,0 1.60937,-0.3125 v 6.1875 c 0,0.4375 -0.0469,0.57812 -1.15624,0.57812 h -0.375 v 0.375 c 0.42187,-0.0312 1.48438,-0.0312 1.98438,-0.0312 0.48437,0 1.56249,0 1.98437,0.0312 v -0.375 h -0.375 c -1.10937,0 -1.14063,-0.14062 -1.14063,-0.57812 z m 24.57812,0 c 0,-0.29688 -0.0156,-0.3125 -0.31249,-0.3125 -0.75,0.75 -1.84375,0.75 -2.21875,0.75 v 0.375 c 0.23438,0 0.95312,0 1.60937,-0.3125 v 6.1875 c 0,0.4375 -0.0469,0.57812 -1.15625,0.57812 h -0.375 v 0.375 c 0.42188,-0.0312 1.48437,-0.0312 1.98437,-0.0312 0.48438,0 1.56251,0 1.98438,0.0312 v -0.375 h -0.375 c -1.10938,0 -1.14063,-0.14062 -1.14063,-0.57812 z m 6.14454,0 c 0,-0.29688 -0.0156,-0.3125 -0.3125,-0.3125 -0.75,0.75 -1.84374,0.75 -2.21874,0.75 v 0.375 c 0.23437,0 0.95312,0 1.60937,-0.3125 v 6.1875 c 0,0.4375 -0.0469,0.57812 -1.15625,0.57812 h -0.375 v 0.375 c 0.42188,-0.0312 1.48437,-0.0312 1.98437,-0.0312 0.48437,0 1.56251,0 1.98437,0.0312 v -0.375 h -0.375 c -1.10937,0 -1.14062,-0.14062 -1.14062,-0.57812 z m 8.15625,3.8125 c 0,-0.79688 -0.0312,-1.82813 -0.45312,-2.71875 -0.53126,-1.125 -1.43751,-1.40625 -2.125,-1.40625 -0.71876,0 -1.625,0.28125 -2.15626,1.42187 -0.39062,0.82813 -0.4375,1.79688 -0.4375,2.70313 0,0.78125 0.0156,1.9375 0.53125,2.89062 0.56251,1.01563 1.5,1.20313 2.04688,1.20313 0.78125,0 1.65625,-0.34375 2.15625,-1.4375 0.35938,-0.79688 0.4375,-1.70313 0.4375,-2.65625 z m -2.57812,3.79687 c -0.35938,0 -1.21876,-0.17187 -1.45314,-1.51562 -0.12493,-0.71875 -0.12493,-1.73438 -0.12493,-2.42188 0,-0.8125 0,-1.75 0.15625,-2.42187 0.23438,-1.0625 1,-1.26563 1.40626,-1.26563 0.45312,0 1.20312,0.23438 1.43749,1.34375 0.12493,0.65625 0.12493,1.59375 0.12493,2.34375 0,0.73438 0,1.75 -0.12493,2.45313 -0.25,1.35937 -1.125,1.48437 -1.42187,1.48437 z m 25.14453,-7.60937 c 0,-0.29688 -0.0156,-0.3125 -0.31251,-0.3125 -0.75,0.75 -1.84374,0.75 -2.21874,0.75 v 0.375 c 0.23437,0 0.95312,0 1.60937,-0.3125 v 6.1875 c 0,0.4375 -0.0469,0.57812 -1.15625,0.57812 h -0.375 v 0.375 c 0.42188,-0.0312 1.48437,-0.0312 1.98437,-0.0312 0.48437,0 1.56251,0 1.98437,0.0312 v -0.375 h -0.375 c -1.10937,0 -1.14061,-0.14062 -1.14061,-0.57812 z m 6.14061,0 c 0,-0.29688 -0.0156,-0.3125 -0.31249,-0.3125 -0.75,0.75 -1.84375,0.75 -2.21875,0.75 v 0.375 c 0.23438,0 0.95312,0 1.60938,-0.3125 v 6.1875 c 0,0.4375 -0.0469,0.57812 -1.15626,0.57812 h -0.375 v 0.375 c 0.42188,-0.0312 1.48438,-0.0312 1.98438,-0.0312 0.48437,0 1.5625,0 1.98437,0.0312 v -0.375 h -0.375 c -1.10937,0 -1.14063,-0.14062 -1.14063,-0.57812 z m 6.14454,0 c 0,-0.29688 -0.0156,-0.3125 -0.3125,-0.3125 -0.75,0.75 -1.84376,0.75 -2.21876,0.75 v 0.375 c 0.23439,0 0.95314,0 1.60939,-0.3125 v 6.1875 c 0,0.4375 -0.0469,0.57812 -1.15625,0.57812 h -0.375 v 0.375 c 0.42186,-0.0312 1.48437,-0.0312 1.98437,-0.0312 0.48437,0 1.56249,0 1.98437,0.0312 v -0.375 h -0.375 c -1.10937,0 -1.14062,-0.14062 -1.14062,-0.57812 z m 0,0"
       style="fill:#000000;fill-opacity:1;fill-rule:nonzero;stroke:none;stroke-width:1.33333"
       aria-label="0&#10;1/8&#10;1/4&#10;3/8&#10;1/2&#10;5/8&#10;3/4&#10;7/8&#10;FS&#10;000001010011100101110111" /><g
       id="g91"
       transform="translate(-679.32813,236.99868)"><path
         d="M 1202,288 H 3414.5"
         style="fill:none;stroke:#e1e1e1;stroke-width:2.5;stroke-linecap:butt;stroke-linejoin:miter;stroke-miterlimit:3.8;stroke-dasharray:none;stroke-opacity:1"
         transform="matrix(0.13334,0,0,-0.133384,0,345.45733)"
         clip-path="url(#clipPath2)"
         id="path47" /><path
         d="m 1202,288 h 31.5 m 2181,0 H 3383"
         style="fill:none;stroke:#000000;stroke-width:2.5;stroke-linecap:butt;stroke-linejoin:miter;stroke-miterlimit:3.8;stroke-dasharray:none;stroke-opacity:1"
         transform="matrix(0.13334,0,0,-0.133384,0,345.45733)"
         clip-path="url(#clipPath3)"
         id="path48" /><path
         d="M 1202,564.5 H 3414.5"
         style="fill:none;stroke:#e1e1e1;stroke-width:2.5;stroke-linecap:butt;stroke-linejoin:miter;stroke-miterlimit:3.8;stroke-dasharray:none;stroke-opacity:1"
         transform="matrix(0.13334,0,0,-0.133384,0,345.45733)"
         clip-path="url(#clipPath4)"
         id="path49" /><path
         d="m 1202,564.5 h 31.5 m 2181,0 H 3383"
         style="fill:none;stroke:#000000;stroke-width:2.5;stroke-linecap:butt;stroke-linejoin:miter;stroke-miterlimit:3.8;stroke-dasharray:none;stroke-opacity:1"
         transform="matrix(0.13334,0,0,-0.133384,0,345.45733)"
         clip-path="url(#clipPath5)"
         id="path50" /><path
         d="M 1202,841 H 3414.5"
         style="fill:none;stroke:#e1e1e1;stroke-width:2.5;stroke-linecap:butt;stroke-linejoin:miter;stroke-miterlimit:3.8;stroke-dasharray:none;stroke-opacity:1"
         transform="matrix(0.13334,0,0,-0.133384,0,345.45733)"
         clip-path="url(#clipPath6)"
         id="path51" /><path
         d="m 1202,841 h 31.5 m 2181,0 H 3383"
         style="fill:none;stroke:#000000;stroke-width:2.5;stroke-linecap:butt;stroke-linejoin:miter;stroke-miterlimit:3.8;stroke-dasharray:none;stroke-opacity:1"
         transform="matrix(0.13334,0,0,-0.133384,0,345.45733)"
         clip-path="url(#clipPath7)"
         id="path52" /><path
         d="M 1202,1117.5 H 3414.5"
         style="fill:none;stroke:#e1e1e1;stroke-width:2.5;stroke-linecap:butt;stroke-linejoin:miter;stroke-miterlimit:3.8;stroke-dasharray:none;stroke-opacity:1"
         transform="matrix(0.13334,0,0,-0.133384,0,345.45733)"
         clip-path="url(#clipPath8)"
         id="path53" /><path
         d="m 1202,1117.5 h 31.5 m 2181,0 H 3383"
         style="fill:none;stroke:#000000;stroke-width:2.5;stroke-linecap:butt;stroke-linejoin:miter;stroke-miterlimit:3.8;stroke-dasharray:none;stroke-opacity:1"
         transform="matrix(0.13334,0,0,-0.133384,0,345.45733)"
         clip-path="url(#clipPath9)"
         id="path54" /><path
         d="M 1202,1394.5 H 3414.5"
         style="fill:none;stroke:#e1e1e1;stroke-width:2.5;stroke-linecap:butt;stroke-linejoin:miter;stroke-miterlimit:3.8;stroke-dasharray:none;stroke-opacity:1"
         transform="matrix(0.13334,0,0,-0.133384,0,345.45733)"
         clip-path="url(#clipPath10)"
         id="path55" /><path
         d="m 1202,1394.5 h 31.5 m 2181,0 H 3383"
         style="fill:none;stroke:#000000;stroke-width:2.5;stroke-linecap:butt;stroke-linejoin:miter;stroke-miterlimit:3.8;stroke-dasharray:none;stroke-opacity:1"
         transform="matrix(0.13334,0,0,-0.133384,0,345.45733)"
         clip-path="url(#clipPath11)"
         id="path56" /><path
         d="M 1202,1671 H 3414.5"
         style="fill:none;stroke:#e1e1e1;stroke-width:2.5;stroke-linecap:butt;stroke-linejoin:miter;stroke-miterlimit:3.8;stroke-dasharray:none;stroke-opacity:1"
         transform="matrix(0.13334,0,0,-0.133384,0,345.45733)"
         clip-path="url(#clipPath12)"
         id="path57" /><path
         d="m 1202,1671 h 31.5 m 2181,0 H 3383"
         style="fill:none;stroke:#000000;stroke-width:2.5;stroke-linecap:butt;stroke-linejoin:miter;stroke-miterlimit:3.8;stroke-dasharray:none;stroke-opacity:1"
         transform="matrix(0.13334,0,0,-0.133384,0,345.45733)"
         clip-path="url(#clipPath13)"
         id="path58" /><path
         d="M 1202,1947.5 H 3414.5"
         style="fill:none;stroke:#e1e1e1;stroke-width:2.5;stroke-linecap:butt;stroke-linejoin:miter;stroke-miterlimit:3.8;stroke-dasharray:none;stroke-opacity:1"
         transform="matrix(0.13334,0,0,-0.133384,0,345.45733)"
         clip-path="url(#clipPath14)"
         id="path59" /><path
         d="m 1202,1947.5 h 31.5 m 2181,0 H 3383"
         style="fill:none;stroke:#000000;stroke-width:2.5;stroke-linecap:butt;stroke-linejoin:miter;stroke-miterlimit:3.8;stroke-dasharray:none;stroke-opacity:1"
         transform="matrix(0.13334,0,0,-0.133384,0,345.45733)"
         clip-path="url(#clipPath15)"
         id="path60" /><path
         d="M 1202,2224 H 3414.5"
         style="fill:none;stroke:#e1e1e1;stroke-width:2.5;stroke-linecap:butt;stroke-linejoin:miter;stroke-miterlimit:3.8;stroke-dasharray:none;stroke-opacity:1"
         transform="matrix(0.13334,0,0,-0.133384,0,345.45733)"
         clip-path="url(#clipPath16)"
         id="path61" /><path
         d="m 1202,2224 h 31.5 m 2181,0 H 3383"
         style="fill:none;stroke:#000000;stroke-width:2.5;stroke-linecap:butt;stroke-linejoin:miter;stroke-miterlimit:3.8;stroke-dasharray:none;stroke-opacity:1"
         transform="matrix(0.13334,0,0,-0.133384,0,345.45733)"
         clip-path="url(#clipPath17)"
         id="path62" /><path
         d="M 1202,2500.5 H 3414.5"
         style="fill:none;stroke:#e1e1e1;stroke-width:2.5;stroke-linecap:butt;stroke-linejoin:miter;stroke-miterlimit:3.8;stroke-dasharray:none;stroke-opacity:1"
         transform="matrix(0.13334,0,0,-0.133384,0,345.45733)"
         clip-path="url(#clipPath18)"
         id="path63" /><path
         d="m 1202,2500.5 h 31.5 m 2181,0 H 3383"
         style="fill:none;stroke:#000000;stroke-width:2.5;stroke-linecap:butt;stroke-linejoin:miter;stroke-miterlimit:3.8;stroke-dasharray:none;stroke-opacity:1"
         transform="matrix(0.13334,0,0,-0.133384,0,345.45733)"
         clip-path="url(#clipPath19)"
         id="path64" /><path
         d="M 1202,288 V 2500.5"
         style="fill:none;stroke:#e1e1e1;stroke-width:2.5;stroke-linecap:butt;stroke-linejoin:miter;stroke-miterlimit:3.8;stroke-dasharray:none;stroke-opacity:1"
         transform="matrix(0.13334,0,0,-0.133384,0,345.45733)"
         clip-path="url(#clipPath20)"
         id="path65" /><path
         d="m 1202,288 v 31.5 m 0,2181 V 2469"
         style="fill:none;stroke:#000000;stroke-width:2.5;stroke-linecap:butt;stroke-linejoin:miter;stroke-miterlimit:3.8;stroke-dasharray:none;stroke-opacity:1"
         transform="matrix(0.13334,0,0,-0.133384,0,345.45733)"
         clip-path="url(#clipPath21)"
         id="path66" /><path
         d="M 1478.5,288 V 2500.5"
         style="fill:none;stroke:#e1e1e1;stroke-width:2.5;stroke-linecap:butt;stroke-linejoin:miter;stroke-miterlimit:3.8;stroke-dasharray:none;stroke-opacity:1"
         transform="matrix(0.13334,0,0,-0.133384,0,345.45733)"
         clip-path="url(#clipPath22)"
         id="path67" /><path
         d="m 1478.5,288 v 31.5 m 0,2181 V 2469"
         style="fill:none;stroke:#000000;stroke-width:2.5;stroke-linecap:butt;stroke-linejoin:miter;stroke-miterlimit:3.8;stroke-dasharray:none;stroke-opacity:1"
         transform="matrix(0.13334,0,0,-0.133384,0,345.45733)"
         clip-path="url(#clipPath23)"
         id="path68" /><path
         d="M 1755,288 V 2500.5"
         style="fill:none;stroke:#e1e1e1;stroke-width:2.5;stroke-linecap:butt;stroke-linejoin:miter;stroke-miterlimit:3.8;stroke-dasharray:none;stroke-opacity:1"
         transform="matrix(0.13334,0,0,-0.133384,0,345.45733)"
         clip-path="url(#clipPath24)"
         id="path69" /><path
         d="m 1755,288 v 31.5 m 0,2181 V 2469"
         style="fill:none;stroke:#000000;stroke-width:2.5;stroke-linecap:butt;stroke-linejoin:miter;stroke-miterlimit:3.8;stroke-dasharray:none;stroke-opacity:1"
         transform="matrix(0.13334,0,0,-0.133384,0,345.45733)"
         clip-path="url(#clipPath25)"
         id="path70" /><path
         d="M 2031.5,288 V 2500.5"
         style="fill:none;stroke:#e1e1e1;stroke-width:2.5;stroke-linecap:butt;stroke-linejoin:miter;stroke-miterlimit:3.8;stroke-dasharray:none;stroke-opacity:1"
         transform="matrix(0.13334,0,0,-0.133384,0,345.45733)"
         clip-path="url(#clipPath26)"
         id="path71" /><path
         d="m 2031.5,288 v 31.5 m 0,2181 V 2469"
         style="fill:none;stroke:#000000;stroke-width:2.5;stroke-linecap:butt;stroke-linejoin:miter;stroke-miterlimit:3.8;stroke-dasharray:none;stroke-opacity:1"
         transform="matrix(0.13334,0,0,-0.133384,0,345.45733)"
         clip-path="url(#clipPath27)"
         id="path72" /><path
         d="M 2308.5,288 V 2500.5"
         style="fill:none;stroke:#e1e1e1;stroke-width:2.5;stroke-linecap:butt;stroke-linejoin:miter;stroke-miterlimit:3.8;stroke-dasharray:none;stroke-opacity:1"
         transform="matrix(0.13334,0,0,-0.133384,0,345.45733)"
         clip-path="url(#clipPath28)"
         id="path73" /><path
         d="m 2308.5,288 v 31.5 m 0,2181 V 2469"
         style="fill:none;stroke:#000000;stroke-width:2.5;stroke-linecap:butt;stroke-linejoin:miter;stroke-miterlimit:3.8;stroke-dasharray:none;stroke-opacity:1"
         transform="matrix(0.13334,0,0,-0.133384,0,345.45733)"
         clip-path="url(#clipPath29)"
         id="path74" /><path
         d="M 2585,288 V 2500.5"
         style="fill:none;stroke:#e1e1e1;stroke-width:2.5;stroke-linecap:butt;stroke-linejoin:miter;stroke-miterlimit:3.8;stroke-dasharray:none;stroke-opacity:1"
         transform="matrix(0.13334,0,0,-0.133384,0,345.45733)"
         clip-path="url(#clipPath30)"
         id="path75" /><path
         d="m 2585,288 v 31.5 m 0,2181 V 2469"
         style="fill:none;stroke:#000000;stroke-width:2.5;stroke-linecap:butt;stroke-linejoin:miter;stroke-miterlimit:3.8;stroke-dasharray:none;stroke-opacity:1"
         transform="matrix(0.13334,0,0,-0.133384,0,345.45733)"
         clip-path="url(#clipPath31)"
         id="path76" /><path
         d="M 2861.5,288 V 2500.5"
         style="fill:none;stroke:#e1e1e1;stroke-width:2.5;stroke-linecap:butt;stroke-linejoin:miter;stroke-miterlimit:3.8;stroke-dasharray:none;stroke-opacity:1"
         transform="matrix(0.13334,0,0,-0.133384,0,345.45733)"
         clip-path="url(#clipPath32)"
         id="path77" /><path
         d="m 2861.5,288 v 31.5 m 0,2181 V 2469"
         style="fill:none;stroke:#000000;stroke-width:2.5;stroke-linecap:butt;stroke-linejoin:miter;stroke-miterlimit:3.8;stroke-dasharray:none;stroke-opacity:1"
         transform="matrix(0.13334,0,0,-0.133384,0,345.45733)"
         clip-path="url(#clipPath33)"
         id="path78" /><path
         d="M 3138,288 V 2500.5"
         style="fill:none;stroke:#e1e1e1;stroke-width:2.5;stroke-linecap:butt;stroke-linejoin:miter;stroke-miterlimit:3.8;stroke-dasharray:none;stroke-opacity:1"
         transform="matrix(0.13334,0,0,-0.133384,0,345.45733)"
         clip-path="url(#clipPath34)"
         id="path79" /><path
         d="m 3138,288 v 31.5 m 0,2181 V 2469"
         style="fill:none;stroke:#000000;stroke-width:2.5;stroke-linecap:butt;stroke-linejoin:miter;stroke-miterlimit:3.8;stroke-dasharray:none;stroke-opacity:1"
         transform="matrix(0.13334,0,0,-0.133384,0,345.45733)"
         clip-path="url(#clipPath35)"
         id="path80" /><path
         d="M 1202,2500.5 V 288 h 2212.5 v 2212.5 z"
         style="fill:none;stroke:#000000;stroke-width:2.5;stroke-linecap:butt;stroke-linejoin:miter;stroke-miterlimit:3.8;stroke-dasharray:none;stroke-opacity:1"
         transform="matrix(0.13334,0,0,-0.133384,0,345.45733)"
         clip-path="url(#clipPath36)"
         id="path81" /><path
         d="m 1202,288 276.5,276.5 276.5,276.5 276.5,276.5 277,277 276.5,276.5 276.5,276.5 276.5,276.5"
         style="fill:none;stroke:#000000;stroke-width:5;stroke-linecap:butt;stroke-linejoin:miter;stroke-miterlimit:3.8;stroke-dasharray:none;stroke-opacity:1"
         transform="matrix(0.13334,0,0,-0.133384,0,345.45733)"
         clip-path="url(#clipPath37)"
         id="path82" /><path
         d="m 1233.5,288 c 0,17.395 -14.11,31.5 -31.5,31.5 -17.39,0 -31.5,-14.105 -31.5,-31.5 0,-17.395 14.11,-31.5 31.5,-31.5 17.39,0 31.5,14.105 31.5,31.5"
         style="fill:#000000;fill-opacity:1;fill-rule:nonzero;stroke:none"
         transform="matrix(0.13334,0,0,-0.133384,0,345.45733)"
         clip-path="url(#clipPath38)"
         id="path83" /><path
         d="m 1510,564.5 c 0,17.395 -14.11,31.5 -31.5,31.5 -17.39,0 -31.5,-14.105 -31.5,-31.5 0,-17.395 14.11,-31.5 31.5,-31.5 17.39,0 31.5,14.105 31.5,31.5"
         style="fill:#000000;fill-opacity:1;fill-rule:nonzero;stroke:none"
         transform="matrix(0.13334,0,0,-0.133384,0,345.45733)"
         clip-path="url(#clipPath39)"
         id="path84" /><path
         d="m 1786.5,841 c 0,17.395 -14.11,31.5 -31.5,31.5 -17.39,0 -31.5,-14.105 -31.5,-31.5 0,-17.395 14.11,-31.5 31.5,-31.5 17.39,0 31.5,14.105 31.5,31.5"
         style="fill:#000000;fill-opacity:1;fill-rule:nonzero;stroke:none"
         transform="matrix(0.13334,0,0,-0.133384,0,345.45733)"
         clip-path="url(#clipPath40)"
         id="path85" /><path
         d="m 2063,1117.5 c 0,17.39 -14.11,31.5 -31.5,31.5 -17.39,0 -31.5,-14.11 -31.5,-31.5 0,-17.39 14.11,-31.5 31.5,-31.5 17.39,0 31.5,14.11 31.5,31.5"
         style="fill:#000000;fill-opacity:1;fill-rule:nonzero;stroke:none"
         transform="matrix(0.13334,0,0,-0.133384,0,345.45733)"
         clip-path="url(#clipPath41)"
         id="path86" /><path
         d="m 2340,1394.5 c 0,17.39 -14.11,31.5 -31.5,31.5 -17.39,0 -31.5,-14.11 -31.5,-31.5 0,-17.39 14.11,-31.5 31.5,-31.5 17.39,0 31.5,14.11 31.5,31.5"
         style="fill:#000000;fill-opacity:1;fill-rule:nonzero;stroke:none"
         transform="matrix(0.13334,0,0,-0.133384,0,345.45733)"
         clip-path="url(#clipPath42)"
         id="path87" /><path
         d="m 2616.5,1671 c 0,17.39 -14.11,31.5 -31.5,31.5 -17.39,0 -31.5,-14.11 -31.5,-31.5 0,-17.39 14.11,-31.5 31.5,-31.5 17.39,0 31.5,14.11 31.5,31.5"
         style="fill:#000000;fill-opacity:1;fill-rule:nonzero;stroke:none"
         transform="matrix(0.13334,0,0,-0.133384,0,345.45733)"
         clip-path="url(#clipPath43)"
         id="path88" /><path
         d="m 2893,1947.5 c 0,17.39 -14.11,31.5 -31.5,31.5 -17.39,0 -31.5,-14.11 -31.5,-31.5 0,-17.39 14.11,-31.5 31.5,-31.5 17.39,0 31.5,14.11 31.5,31.5"
         style="fill:#000000;fill-opacity:1;fill-rule:nonzero;stroke:none"
         transform="matrix(0.13334,0,0,-0.133384,0,345.45733)"
         clip-path="url(#clipPath44)"
         id="path89" /><path
         d="m 3169.5,2224 c 0,17.39 -14.11,31.5 -31.5,31.5 -17.39,0 -31.5,-14.11 -31.5,-31.5 0,-17.39 14.11,-31.5 31.5,-31.5 17.39,0 31.5,14.11 31.5,31.5"
         style="fill:#000000;fill-opacity:1;fill-rule:nonzero;stroke:none"
         transform="matrix(0.13334,0,0,-0.133384,0,345.45733)"
         clip-path="url(#clipPath45)"
         id="path90" /><path
         d="M 1202,2500.5 V 288 h 2212.5 v 2212.5 z"
         style="fill:none;stroke:#000000;stroke-width:2.5;stroke-linecap:butt;stroke-linejoin:miter;stroke-miterlimit:3.8;stroke-dasharray:none;stroke-opacity:1"
         transform="matrix(0.13334,0,0,-0.133384,0,345.45733)"
         clip-path="url(#clipPath46)"
         id="path91" /></g><path
       id="path92"
       d="m -594.5625,391.19008 c -0.0625,-0.15625 -0.0937,-0.25 -0.28125,-0.25 -0.20313,0 -0.21875,0.0781 -0.29688,0.26563 l -2.5625,7.10937 c -0.14062,0.39063 -0.42187,0.8125 -1.34375,0.8125 v 0.375 c 0.45313,-0.0312 0.78125,-0.0312 1.21875,-0.0312 0.42188,0 0.6875,0 1.34375,0.0312 v -0.375 c -0.67187,0 -0.875,-0.375 -0.875,-0.60937 0,-0.10938 0.0156,-0.15625 0.0469,-0.21875 l 0.5625,-1.54688 h 3.09375 l 0.64062,1.8125 c 0.0469,0.10938 0.0625,0.15625 0.0625,0.20313 0,0.35937 -0.67187,0.35937 -0.98437,0.35937 v 0.375 c 0.54687,-0.0312 1.17187,-0.0312 1.71875,-0.0312 0.53125,0 0.57812,0 1.5625,0.0312 v -0.375 h -0.20313 c -0.73437,0 -0.875,-0.10937 -0.98437,-0.4375 z m 0.76562,5.1875 h -2.82812 l 1.42187,-3.90625 z m 5.77735,0.0312 c 0,-1.26562 0.90625,-1.89062 1.65625,-1.89062 0.70312,0 0.85937,0.57812 0.85937,1.29687 v 2.76563 c 0,0.54687 -0.125,0.54687 -0.92187,0.54687 v 0.375 c 0.5625,-0.0312 0.79687,-0.0312 1.35937,-0.0312 0.57813,0 0.73438,0 1.35938,0.0312 v -0.375 c -0.60938,0 -0.90625,0 -0.90625,-0.35937 v -2.29688 c 0,-1 0,-1.34375 -0.34375,-1.76562 -0.26563,-0.32813 -0.73438,-0.48438 -1.32813,-0.48438 -1.10937,0 -1.625,0.82813 -1.79687,1.15625 v -1.15625 l -1.73438,0.125 v 0.375 c 0.8125,0 0.92188,0.0781 0.92188,0.67188 v 3.1875 c 0,0.54687 -0.14063,0.54687 -0.92188,0.54687 v 0.375 c 0.5625,-0.0312 0.78125,-0.0312 1.35938,-0.0312 0.57812,0 0.73437,0 1.35937,0.0312 v -0.375 c -0.78125,0 -0.92187,0 -0.92187,-0.54687 z m 8.69921,2.23438 c 0.0469,0.5 0.40625,0.9375 0.92188,0.9375 0.29687,0 1.04687,-0.1875 1.04687,-1.14063 v -0.67187 h -0.34375 v 0.65625 c 0,0.14062 0,0.73437 -0.42187,0.73437 -0.4375,0 -0.4375,-0.57812 -0.4375,-0.76562 v -2.09375 c 0,-0.6875 0,-1.09375 -0.53125,-1.57813 -0.4375,-0.39062 -1.01563,-0.57812 -1.60938,-0.57812 -1.01562,0 -1.84375,0.5 -1.84375,1.26562 0,0.375 0.25,0.57813 0.5625,0.57813 0.3125,0 0.54688,-0.23438 0.54688,-0.54688 0,-0.51562 -0.53125,-0.57812 -0.53125,-0.57812 0.3125,-0.3125 0.89062,-0.42188 1.23437,-0.42188 0.60938,0 1.29688,0.45313 1.29688,1.51563 v 0.39062 c -0.65625,0.0312 -1.54688,0.0781 -2.34375,0.46875 -0.85938,0.42188 -1.125,1.03125 -1.125,1.51563 0,0.98437 1.15625,1.29687 1.95312,1.29687 1,0 1.45313,-0.65625 1.625,-0.98437 z m -0.10937,-0.82813 c 0,1.15625 -0.90625,1.51563 -1.42187,1.51563 -0.5625,0 -1.09375,-0.40625 -1.09375,-1 0,-0.78125 0.6875,-1.625 2.51562,-1.70313 z m 4.36328,-6.60937 -1.76562,0.14062 v 0.35938 c 0.8125,0 0.90625,0.0937 0.90625,0.67187 v 6.20313 c 0,0.54687 -0.125,0.54687 -0.90625,0.54687 v 0.375 c 0.54687,-0.0312 0.78125,-0.0312 1.32812,-0.0312 0.5625,0 0.76563,0 1.35938,0.0312 v -0.375 c -0.79688,0 -0.92188,0 -0.92188,-0.54687 z m 6.99219,5.75 c 0,-1.5625 -1.23438,-2.8125 -2.70313,-2.8125 -1.53125,0 -2.73437,1.28125 -2.73437,2.8125 0,1.5 1.25,2.67187 2.71875,2.67187 1.51562,0 2.71875,-1.20312 2.71875,-2.67187 z m -2.70313,2.34375 c -0.60937,0 -1.10937,-0.29688 -1.375,-0.76563 -0.3125,-0.5 -0.32812,-1.14062 -0.32812,-1.6875 0,-0.4375 0,-1.125 0.29687,-1.60937 0.35938,-0.60938 0.95313,-0.79688 1.39063,-0.79688 0.67187,0 1.17187,0.39063 1.40625,0.79688 0.28125,0.5 0.28125,1.10937 0.28125,1.60937 0,0.4375 0,1.14063 -0.29688,1.67188 -0.32812,0.54687 -0.875,0.78125 -1.375,0.78125 z m 4.56641,-1.9375 c 0.29688,0.1875 0.65625,0.375 1.21875,0.375 1.125,0 1.98437,-0.8125 1.98437,-1.76563 0,-0.57812 -0.32812,-0.98437 -0.48437,-1.15625 0.48437,-0.42187 1.04687,-0.42187 1.1875,-0.42187 -0.0625,0.0312 -0.15625,0.0937 -0.15625,0.29687 0,0.14063 0.0781,0.35938 0.35938,0.35938 0.15624,0 0.35937,-0.10938 0.35937,-0.35938 0,-0.23437 -0.17187,-0.60937 -0.65625,-0.60937 -0.34375,0 -0.875,0.14062 -1.29688,0.5625 -0.32812,-0.25 -0.78124,-0.42188 -1.29687,-0.42188 -1.125,0 -1.98437,0.8125 -1.98437,1.75 0,0.60938 0.35937,1.04688 0.54687,1.21875 -0.0312,0.0312 -0.35937,0.45313 -0.35937,1 0,0.40625 0.1875,0.82813 0.51562,1.04688 -0.60938,0.1875 -1.09375,0.64062 -1.09375,1.20312 0,0.84375 1.1875,1.53125 2.71875,1.53125 1.46875,0 2.71875,-0.64062 2.71875,-1.5625 0,-0.48437 -0.21875,-1.01562 -0.67187,-1.29687 -0.65626,-0.42188 -1.35938,-0.42188 -2.48438,-0.42188 -0.25,0 -0.625,0 -0.71875,-0.0312 -0.35937,-0.0625 -0.57813,-0.39062 -0.57813,-0.76562 0,-0.20313 0.0625,-0.375 0.17188,-0.53125 z m 1.21875,0.0469 c -1.0625,0 -1.0625,-1.17187 -1.0625,-1.4375 0,-0.3125 0.0156,-0.71875 0.21875,-1.01562 0.1875,-0.23438 0.5,-0.40625 0.84375,-0.40625 1.07813,0 1.07813,1.15625 1.07813,1.42187 0,0.28125 0,1.4375 -1.07813,1.4375 z m 0.54687,2.03125 c 0.375,0 1.84376,0.0156 1.84376,0.98438 0,0.6875 -0.90626,1.21875 -2.03126,1.21875 -1.17187,0 -2.0625,-0.5625 -2.0625,-1.21875 0,-0.1875 0.125,-0.98438 1.14063,-0.98438 z m -22.90625,8.01563 c 0,-2.4375 -1.85937,-4.375 -4.09375,-4.375 -2.23437,0 -4.07812,1.9375 -4.07812,4.375 0,2.42187 1.85937,4.3125 4.07812,4.3125 2.23438,0 4.09375,-1.89063 4.09375,-4.3125 z m -4.09375,3.95312 c -1.20312,0 -2.85937,-1.04687 -2.85937,-4.14062 0,-2.90625 1.70312,-3.85938 2.85937,-3.85938 1.15625,0 2.875,0.95313 2.875,3.85938 0,3.09375 -1.67187,4.14062 -2.875,4.14062 z m 9.52344,-1.90625 c 0,1.0625 -0.59375,1.82813 -1.45312,1.82813 -1,0 -1.0625,-0.51563 -1.0625,-1.15625 v -3.95313 l -1.79688,0.125 v 0.375 c 0.92188,0 0.92188,0.0312 0.92188,1.09375 v 1.79688 c 0,0.78125 0,1.28125 0.54687,1.70312 0.34375,0.23438 0.82813,0.3125 1.3125,0.3125 0.625,0 1.20313,-0.26562 1.54688,-0.98437 h 0.0156 v 0.98437 l 1.76563,-0.125 v -0.375 c -0.8125,0 -0.90625,-0.0781 -0.90625,-0.67187 v -4.23438 l -1.8125,0.125 v 0.375 c 0.8125,0 0.92187,0.0781 0.92187,0.67188 z m 5.98438,-2.78125 v -0.375 h -1.73438 v -2.1875 h -0.34375 c 0,1 -0.42187,2.23438 -1.57812,2.26563 v 0.29687 h 1.03125 v 3.29688 c 0,1.34375 0.96875,1.60937 1.60937,1.60937 0.79688,0 1.21875,-0.76562 1.21875,-1.60937 v -0.67188 h -0.34375 v 0.64063 c 0,0.875 -0.375,1.3125 -0.79687,1.3125 -0.79688,0 -0.79688,-1.04688 -0.79688,-1.26563 v -3.3125 z m 3.04296,0.76563 c 0.40626,-0.6875 1.07813,-0.9375 1.57813,-0.9375 0.92187,0 1.64063,1.07812 1.64063,2.375 0,1.35937 -0.8125,2.40625 -1.78126,2.40625 -0.53124,0 -0.98437,-0.3125 -1.28124,-0.71875 -0.15626,-0.25 -0.15626,-0.26563 -0.15626,-0.5 z m 0,3.4375 c 0.3125,0.3125 0.71876,0.70312 1.51563,0.70312 1.42187,0 2.73437,-1.14062 2.73437,-2.70312 0,-1.51563 -1.17187,-2.70313 -2.57812,-2.70313 -0.65625,0 -1.25,0.26563 -1.70312,0.75 v -0.75 l -1.76563,0.125 v 0.375 c 0.84375,0 0.92187,0.0781 0.92187,0.57813 v 5.60937 c 0,0.54688 -0.14062,0.54688 -0.92187,0.54688 v 0.35937 c 0.5625,-0.0156 0.78125,-0.0312 1.35937,-0.0312 0.57813,0 0.73438,0.0156 1.35938,0.0312 v -0.35937 c -0.78125,0 -0.92188,0 -0.92188,-0.54688 z m 9.40626,-1.42188 c 0,1.0625 -0.59376,1.82813 -1.45313,1.82813 -1,0 -1.0625,-0.51563 -1.0625,-1.15625 v -3.95313 l -1.79687,0.125 v 0.375 c 0.92187,0 0.92187,0.0312 0.92187,1.09375 v 1.79688 c 0,0.78125 0,1.28125 0.54687,1.70312 0.34376,0.23438 0.82813,0.3125 1.3125,0.3125 0.625,0 1.20313,-0.26562 1.54688,-0.98437 h 0.0156 v 0.98437 l 1.76562,-0.125 v -0.375 c -0.8125,0 -0.90625,-0.0781 -0.90625,-0.67187 v -4.23438 l -1.8125,0.125 v 0.375 c 0.8125,0 0.92188,0.0781 0.92188,0.67188 z m 5.98046,-2.78125 v -0.375 h -1.73437 v -2.1875 h -0.34375 c 0,1 -0.42188,2.23438 -1.57813,2.26563 v 0.29687 h 1.03125 v 3.29688 c 0,1.34375 0.96875,1.60937 1.60938,1.60937 0.79687,0 1.21875,-0.76562 1.21875,-1.60937 v -0.67188 h -0.34375 v 0.64063 c 0,0.875 -0.375,1.3125 -0.79688,1.3125 -0.79687,0 -0.79687,-1.04688 -0.79687,-1.26563 v -3.3125 z m 104.59376,162.44531 c 0.92186,0 0.95312,0.14063 0.95312,0.57812 v 6.28126 c 0,0.43749 -0.0312,0.56249 -0.95312,0.56249 h -0.26563 v 0.375 h 4.43749 c 2.07814,0 3.76563,-1.76563 3.76563,-4.01563 0,-2.26561 -1.65625,-4.14061 -3.76563,-4.14061 h -4.43749 v 0.35937 z m 2.57812,7.42187 c -0.5625,0 -0.59375,-0.0781 -0.59375,-0.48437 v -6.4375 c 0,-0.40625 0.0312,-0.5 0.59375,-0.5 h 1.28125 c 1.15625,0 1.875,0.60938 2.18749,1.04687 0.53126,0.68751 0.70314,1.54688 0.70314,2.73437 0,0.48439 0,1.75 -0.65626,2.57814 -0.60937,0.81249 -1.48437,1.06249 -2.23437,1.06249 z m 8.26171,-4.90624 -1.71874,0.12493 v 0.375 c 0.76562,0 0.85937,0.0781 0.85937,0.65624 v 3.20314 c 0,0.54686 -0.12493,0.54686 -0.90625,0.54686 v 0.375 c 0.53125,-0.0312 0.78125,-0.0312 1.3125,-0.0312 0.1875,0 0.6875,0 1.28124,0.0312 v -0.375 c -0.78124,0 -0.82812,-0.0625 -0.82812,-0.51562 z m 0.0312,-2.07813 c 0,-0.35938 -0.28125,-0.65626 -0.64062,-0.65626 -0.375,0 -0.65626,0.31251 -0.65626,0.65626 0,0.34374 0.28126,0.64062 0.65626,0.64062 0.35937,0 0.64062,-0.28125 0.64062,-0.64062 z m 2.67968,5.21874 c 0.29688,0.18751 0.65626,0.375 1.21876,0.375 1.125,0 1.98438,-0.81249 1.98438,-1.76561 0,-0.57813 -0.32814,-0.98439 -0.48438,-1.15625 0.48438,-0.42188 1.04687,-0.42188 1.1875,-0.42188 -0.0625,0.0312 -0.15626,0.0937 -0.15626,0.29688 0,0.14062 0.0781,0.35937 0.35938,0.35937 0.15625,0 0.35938,-0.10933 0.35938,-0.35937 0,-0.23438 -0.17188,-0.60938 -0.65625,-0.60938 -0.34375,0 -0.875,0.14063 -1.29688,0.5625 -0.32812,-0.25 -0.78125,-0.42187 -1.29687,-0.42187 -1.125,0 -1.98438,0.81249 -1.98438,1.75 0,0.60937 0.35938,1.04687 0.54688,1.21875 -0.0312,0.0312 -0.35938,0.45312 -0.35938,1 0,0.40625 0.1875,0.82812 0.51563,1.04686 -0.60937,0.18751 -1.09375,0.64063 -1.09375,1.20314 0,0.84374 1.1875,1.53125 2.71875,1.53125 1.46875,0 2.71875,-0.64063 2.71875,-1.56251 0,-0.48437 -0.21875,-1.01562 -0.67188,-1.29688 -0.65624,-0.42186 -1.35938,-0.42186 -2.48438,-0.42186 -0.25,0 -0.625,0 -0.71874,-0.0312 -0.35938,-0.0625 -0.57812,-0.39063 -0.57812,-0.76563 0,-0.20312 0.0625,-0.375 0.17186,-0.53125 z m 1.21876,0.0469 c -1.0625,0 -1.0625,-1.17188 -1.0625,-1.4375 0,-0.3125 0.0156,-0.71876 0.21874,-1.01562 0.18751,-0.23438 0.5,-0.40626 0.84376,-0.40626 1.07812,0 1.07812,1.15626 1.07812,1.42188 0,0.28124 0,1.4375 -1.07812,1.4375 z m 0.54687,2.03125 c 0.375,0 1.84375,0.0156 1.84375,0.98437 0,0.6875 -0.90624,1.21875 -2.03124,1.21875 -1.17188,0 -2.06251,-0.56249 -2.06251,-1.21875 0,-0.1875 0.12493,-0.98437 1.14063,-0.98437 z m 5.07813,-5.21875 -1.71876,0.12494 v 0.375 c 0.76563,0 0.85938,0.0781 0.85938,0.65624 v 3.20313 c 0,0.54687 -0.12494,0.54687 -0.90624,0.54687 v 0.375 c 0.53124,-0.0312 0.78124,-0.0312 1.31249,-0.0312 0.18751,0 0.68751,0 1.28125,0.0312 v -0.375 c -0.78125,0 -0.82812,-0.0625 -0.82812,-0.51563 z m 0.0312,-2.07813 c 0,-0.35937 -0.28124,-0.65625 -0.64062,-0.65625 -0.375,0 -0.65624,0.3125 -0.65624,0.65625 0,0.34375 0.28124,0.64063 0.65624,0.64063 0.35938,0 0.64062,-0.28126 0.64062,-0.64063 z m 5.07032,2.57813 v -0.375 h -1.73437 v -2.1875 h -0.34376 c 0,1 -0.42187,2.23437 -1.57812,2.26562 v 0.29688 h 1.03125 v 3.29687 c 0,1.34375 0.96875,1.60937 1.60938,1.60937 0.79686,0 1.21874,-0.76562 1.21874,-1.60937 v -0.67187 h -0.34374 v 0.64062 c 0,0.875 -0.375,1.3125 -0.79688,1.3125 -0.79687,0 -0.79687,-1.04688 -0.79687,-1.26562 v -3.3125 z m 4.98438,3.92187 c 0.0468,0.5 0.40625,0.93751 0.92186,0.93751 0.29688,0 1.04688,-0.18751 1.04688,-1.14063 v -0.67188 h -0.34374 v 0.65625 c 0,0.14063 0,0.73438 -0.42188,0.73438 -0.4375,0 -0.4375,-0.57812 -0.4375,-0.76563 v -2.09375 c 0,-0.6875 0,-1.09374 -0.53125,-1.57812 -0.43751,-0.39062 -1.01563,-0.57813 -1.60937,-0.57813 -1.01563,0 -1.84375,0.5 -1.84375,1.26563 0,0.375 0.25,0.57812 0.56249,0.57812 0.31251,0 0.54688,-0.23438 0.54688,-0.54687 0,-0.51563 -0.53125,-0.57813 -0.53125,-0.57813 0.31249,-0.3125 0.89063,-0.42187 1.23437,-0.42187 0.60938,0 1.29688,0.45312 1.29688,1.51563 v 0.39062 c -0.65625,0.0312 -1.54688,0.0781 -2.34376,0.46875 -0.85937,0.42187 -1.125,1.03125 -1.125,1.51563 0,0.98437 1.15626,1.29686 1.95314,1.29686 1,0 1.45312,-0.65624 1.625,-0.98437 z m -0.10934,-0.82812 c 0,1.15625 -0.90625,1.51563 -1.42188,1.51563 -0.56249,0 -1.09374,-0.40626 -1.09374,-1 0,-0.78126 0.68749,-1.625 2.51562,-1.70314 z m 4.35938,-6.60937 -1.76563,0.14062 v 0.35938 c 0.81249,0 0.90625,0.0937 0.90625,0.67186 v 6.20314 c 0,0.54686 -0.12493,0.54686 -0.90625,0.54686 v 0.375 c 0.54688,-0.0312 0.78125,-0.0312 1.32812,-0.0312 0.56251,0 0.76563,0 1.35937,0.0312 v -0.375 c -0.79686,0 -0.92186,0 -0.92186,-0.54686 z m 8.06249,1.07812 c 0,-0.4375 0.0156,-0.57812 0.98437,-0.57812 h 0.29688 v -0.35938 c -0.5,0.0312 -1.31249,0.0312 -1.81249,0.0312 -0.51563,0 -1.32813,0 -1.82813,-0.0312 v 0.35938 h 0.29688 c 0.96874,0 0.98437,0.14062 0.98437,0.57812 v 6.28125 c 0,0.42187 -0.0156,0.56249 -0.98437,0.56249 h -0.29688 v 0.375 c 0.5,-0.0312 1.3125,-0.0312 1.82813,-0.0312 0.5,0 1.31249,0 1.81249,0.0312 v -0.375 h -0.29688 c -0.96874,0 -0.98437,-0.14062 -0.98437,-0.56249 z m 3.89063,4.125 c 0,-1.26563 0.90625,-1.89063 1.65625,-1.89063 0.70312,0 0.85937,0.57813 0.85937,1.29688 v 2.76563 c 0,0.54686 -0.12493,0.54686 -0.92188,0.54686 v 0.375 c 0.56251,-0.0312 0.79688,-0.0312 1.35939,-0.0312 0.57812,0 0.73437,0 1.35937,0.0312 v -0.375 c -0.60937,0 -0.90625,0 -0.90625,-0.35937 v -2.29687 c 0,-1 0,-1.34376 -0.34375,-1.76562 -0.26562,-0.32814 -0.73437,-0.48438 -1.32813,-0.48438 -1.10937,0 -1.625,0.82812 -1.79687,1.15624 v -1.15624 l -1.73437,0.12494 v 0.375 c 0.81249,0 0.92187,0.0781 0.92187,0.67186 v 3.18751 c 0,0.54687 -0.14063,0.54687 -0.92187,0.54687 v 0.375 c 0.56249,-0.0312 0.78124,-0.0312 1.35937,-0.0312 0.57812,0 0.73438,0 1.35938,0.0312 v -0.375 c -0.78126,0 -0.92188,0 -0.92188,-0.54687 z m 6.76562,-0.92188 c 0.40626,-0.6875 1.07812,-0.9375 1.57812,-0.9375 0.92188,0 1.64063,1.07812 1.64063,2.375 0,1.35938 -0.81249,2.40626 -1.78124,2.40626 -0.53125,0 -0.98439,-0.31251 -1.28125,-0.71876 -0.15626,-0.25 -0.15626,-0.26562 -0.15626,-0.5 z m 0,3.4375 c 0.31251,0.3125 0.71875,0.70312 1.51563,0.70312 1.42188,0 2.73437,-1.14062 2.73437,-2.70312 0,-1.51562 -1.17188,-2.70312 -2.57812,-2.70312 -0.65625,0 -1.25,0.26562 -1.70313,0.75 v -0.75 l -1.76563,0.12494 v 0.375 c 0.84376,0 0.92188,0.0781 0.92188,0.57812 v 5.60937 c 0,0.54688 -0.14062,0.54688 -0.92188,0.54688 v 0.35937 c 0.56251,-0.0156 0.78126,-0.0312 1.35939,-0.0312 0.57812,0 0.73437,0.0156 1.35937,0.0312 v -0.35937 c -0.78125,0 -0.92188,0 -0.92188,-0.54688 z m 9.40235,-1.42188 c 0,1.06251 -0.59375,1.82814 -1.45314,1.82814 -0.99999,0 -1.06249,-0.51563 -1.06249,-1.15626 v -3.95312 l -1.79688,0.12494 v 0.375 c 0.92188,0 0.92188,0.0312 0.92188,1.09374 v 1.79687 c 0,0.78125 0,1.28125 0.54688,1.70313 0.34375,0.23438 0.82812,0.3125 1.31249,0.3125 0.625,0 1.20312,-0.26563 1.54688,-0.98438 h 0.0156 v 0.98438 l 1.76562,-0.12494 v -0.375 c -0.8125,0 -0.90624,-0.0781 -0.90624,-0.67186 v -4.23438 l -1.81251,0.12494 v 0.375 c 0.81251,0 0.92188,0.0781 0.92188,0.67186 z m 5.98437,-2.78124 v -0.375 h -1.73437 v -2.1875 h -0.34375 c 0,1 -0.42188,2.23437 -1.57813,2.26562 v 0.29688 h 1.03125 v 3.29687 c 0,1.34375 0.96875,1.60937 1.60937,1.60937 0.79688,0 1.21875,-0.76562 1.21875,-1.60937 v -0.67187 h -0.34375 v 0.64062 c 0,0.875 -0.375,1.3125 -0.79688,1.3125 -0.79686,0 -0.79686,-1.04688 -0.79686,-1.26562 v -3.3125 z m 9.0664,7.625 c 0,-0.0625 -0.0312,-0.0937 -0.10933,-0.17188 -1.54687,-1.42188 -2.01563,-3.5625 -2.01563,-5.65625 0,-1.85937 0.35939,-4.10937 2.04688,-5.70312 0.0469,-0.0469 0.0781,-0.0937 0.0781,-0.14063 0,-0.0937 -0.0625,-0.14062 -0.14062,-0.14062 -0.14062,0 -1.21876,0.85937 -1.875,2.17188 -0.5625,1.14062 -0.85938,2.375 -0.85938,3.79686 0,0.85938 0.10933,2.21876 0.76562,3.64063 0.70314,1.46875 1.82814,2.32813 1.96876,2.32813 0.0781,0 0.14062,-0.0469 0.14062,-0.12493 z m 4.8086,-7.89062 c 0,-0.20314 0,-0.31251 -0.14063,-0.31251 -0.0625,0 -0.0781,0 -0.23437,0.14063 -0.0312,0.0312 -0.14063,0.14062 -0.20312,0.20312 -0.375,-0.26562 -0.75,-0.34375 -1.15625,-0.34375 -1.57814,0 -1.96875,0.875 -1.96875,1.48437 0,0.39063 0.17187,0.70314 0.43749,0.95314 0.40626,0.375 0.85938,0.45312 1.46875,0.56249 0.60937,0.12493 0.81251,0.15625 1.07813,0.35937 0.12494,0.0937 0.42187,0.32814 0.42187,0.78126 0,1.04688 -1.20312,1.04688 -1.375,1.04688 -1.21875,0 -1.53124,-1.01563 -1.67187,-1.65626 -0.0312,-0.12493 -0.0469,-0.1875 -0.1875,-0.1875 -0.17187,0 -0.17187,0.0937 -0.17187,0.3125 v 1.53126 c 0,0.20312 0,0.29686 0.14061,0.29686 0.0781,0 0.0937,0 0.29688,-0.23437 0.0469,-0.0625 0.18751,-0.21875 0.25,-0.28125 0.5,0.48438 1.04688,0.51562 1.34375,0.51562 1.46876,0 1.98437,-0.85937 1.98437,-1.65624 0,-0.53125 -0.23437,-0.85938 -0.5,-1.14062 -0.40624,-0.39063 -0.84374,-0.46876 -1.71874,-0.64063 -0.3125,-0.0625 -1.1875,-0.21875 -1.1875,-0.89063 0,-0.39062 0.28124,-0.89062 1.35938,-0.89062 1.29686,0 1.375,1 1.40625,1.29688 0.0156,0.14062 0.0156,0.21874 0.15624,0.21874 0.17188,0 0.17188,-0.0937 0.17188,-0.3125 z m 4.62891,0.26562 v -0.375 h -1.73438 v -2.1875 h -0.34374 c 0,1 -0.42188,2.23437 -1.57814,2.26562 v 0.29688 h 1.03126 v 3.29687 c 0,1.34375 0.96874,1.60937 1.60937,1.60937 0.79688,0 1.21875,-0.76562 1.21875,-1.60937 v -0.67187 h -0.34375 v 0.64062 c 0,0.875 -0.375,1.3125 -0.79688,1.3125 -0.79687,0 -0.79687,-1.04688 -0.79687,-1.26562 v -3.3125 z m 3.01172,2.04687 c 0,-0.5 0.14062,-2.25 1.5,-2.25 v 0.0156 c -0.0312,0.0156 -0.21875,0.15625 -0.21875,0.43751 0,0.32812 0.25,0.53124 0.53124,0.53124 0.25,0 0.51563,-0.1875 0.51563,-0.54687 0,-0.375 -0.35938,-0.73437 -0.89063,-0.73437 -0.71875,0 -1.21875,0.5 -1.5,1.23437 v -1.23437 l -1.70312,0.12493 v 0.375 c 0.81249,0 0.92188,0.0781 0.92188,0.67187 v 3.1875 c 0,0.54687 -0.14063,0.54687 -0.92188,0.54687 v 0.375 c 0.625,-0.0312 0.78125,-0.0312 1.39063,-0.0312 0.48437,0 0.76562,0 1.53125,0.0312 v -0.375 h -0.25 c -0.875,0 -0.90625,-0.12493 -0.90625,-0.56249 z m 6.77734,1.875 c 0.0469,0.5 0.40624,0.93751 0.92187,0.93751 0.29688,0 1.04688,-0.18751 1.04688,-1.14063 v -0.67188 h -0.34375 v 0.65625 c 0,0.14063 0,0.73438 -0.42188,0.73438 -0.43749,0 -0.43749,-0.57812 -0.43749,-0.76563 v -2.09375 c 0,-0.6875 0,-1.09374 -0.53126,-1.57812 -0.4375,-0.39062 -1.01562,-0.57813 -1.60937,-0.57813 -1.01563,0 -1.84376,0.5 -1.84376,1.26563 0,0.375 0.25,0.57812 0.56251,0.57812 0.31249,0 0.54688,-0.23438 0.54688,-0.54687 0,-0.51563 -0.53126,-0.57813 -0.53126,-0.57813 0.3125,-0.3125 0.89063,-0.42187 1.23438,-0.42187 0.60937,0 1.29688,0.45312 1.29688,1.51563 v 0.39062 c -0.65626,0.0312 -1.54688,0.0781 -2.34376,0.46875 -0.85937,0.42187 -1.125,1.03125 -1.125,1.51563 0,0.98437 1.15625,1.29686 1.95313,1.29686 1,0 1.45312,-0.65624 1.625,-0.98437 z m -0.10933,-0.82812 c 0,1.15625 -0.90626,1.51563 -1.42188,1.51563 -0.56251,0 -1.09375,-0.40626 -1.09375,-1 0,-0.78126 0.68749,-1.625 2.51563,-1.70314 z m 4.35937,-3.59375 -1.71876,0.12494 v 0.375 c 0.76563,0 0.85939,0.0781 0.85939,0.65624 v 3.20313 c 0,0.54687 -0.12494,0.54687 -0.90626,0.54687 v 0.375 c 0.53126,-0.0312 0.78126,-0.0312 1.3125,-0.0312 0.1875,0 0.6875,0 1.28125,0.0312 v -0.375 c -0.78125,0 -0.82812,-0.0625 -0.82812,-0.51563 z m 0.0312,-2.07813 c 0,-0.35937 -0.28124,-0.65625 -0.64061,-0.65625 -0.375,0 -0.65626,0.3125 -0.65626,0.65625 0,0.34375 0.28126,0.64063 0.65626,0.64063 0.35937,0 0.64061,-0.28126 0.64061,-0.64063 z m 2.67969,5.21875 c 0.29688,0.1875 0.65626,0.375 1.21875,0.375 1.125,0 1.98437,-0.8125 1.98437,-1.76562 0,-0.57813 -0.32812,-0.98438 -0.48437,-1.15625 0.48437,-0.42188 1.04688,-0.42188 1.18751,-0.42188 -0.0625,0.0312 -0.15626,0.0937 -0.15626,0.29688 0,0.14063 0.0781,0.35937 0.35938,0.35937 0.15625,0 0.35937,-0.10933 0.35937,-0.35937 0,-0.23437 -0.17187,-0.60937 -0.65625,-0.60937 -0.34375,0 -0.875,0.14062 -1.29687,0.56249 -0.32813,-0.25 -0.78125,-0.42187 -1.29688,-0.42187 -1.125,0 -1.98437,0.8125 -1.98437,1.75 0,0.60938 0.35937,1.04687 0.54688,1.21875 -0.0312,0.0312 -0.35938,0.45312 -0.35938,1 0,0.40625 0.1875,0.82812 0.51562,1.04687 -0.60938,0.1875 -1.09375,0.64062 -1.09375,1.20313 0,0.84375 1.18751,1.53125 2.71875,1.53125 1.46876,0 2.71876,-0.64062 2.71876,-1.5625 0,-0.48438 -0.21876,-1.01563 -0.67188,-1.29688 -0.65626,-0.42187 -1.35938,-0.42187 -2.48438,-0.42187 -0.25,0 -0.625,0 -0.71874,-0.0312 -0.35938,-0.0625 -0.57814,-0.39063 -0.57814,-0.76563 0,-0.20312 0.0625,-0.375 0.17188,-0.53125 z m 1.21875,0.0469 c -1.06249,0 -1.06249,-1.17188 -1.06249,-1.43749 0,-0.31251 0.0156,-0.71876 0.21874,-1.01563 0.1875,-0.23437 0.5,-0.40625 0.84375,-0.40625 1.07813,0 1.07813,1.15625 1.07813,1.42188 0,0.28124 0,1.43749 -1.07813,1.43749 z m 0.54688,2.03125 c 0.375,0 1.84375,0.0156 1.84375,0.98438 0,0.68749 -0.90626,1.21874 -2.03126,1.21874 -1.17186,0 -2.06249,-0.56249 -2.06249,-1.21874 0,-0.18751 0.12493,-0.98438 1.14063,-0.98438 z m 5.0664,-8.23437 -1.76563,0.14063 v 0.35937 c 0.81251,0 0.92188,0.0937 0.92188,0.67187 v 6.20313 c 0,0.54687 -0.14062,0.54687 -0.92188,0.54687 v 0.375 c 0.56251,-0.0312 0.78126,-0.0312 1.35939,-0.0312 0.57812,0 0.73437,0 1.35937,0.0312 v -0.375 c -0.78125,0 -0.92188,0 -0.92188,-0.54687 v -2.17188 c 0,-1.26563 0.90626,-1.89063 1.65626,-1.89063 0.70312,0 0.85937,0.57814 0.85937,1.29688 v 2.76563 c 0,0.54687 -0.12493,0.54687 -0.92188,0.54687 v 0.375 c 0.56251,-0.0312 0.79688,-0.0312 1.35937,-0.0312 0.57814,0 0.73439,0 1.35939,0.0312 v -0.375 c -0.60939,0 -0.90625,0 -0.90625,-0.35938 v -2.29686 c 0,-1 0,-1.34376 -0.34375,-1.76563 -0.26563,-0.32813 -0.73439,-0.48437 -1.32813,-0.48437 -0.79687,0 -1.39063,0.42186 -1.75,1.07812 h -0.0156 z m 8.1836,3.51563 v -0.375 h -1.73437 v -2.18751 h -0.34376 c 0,1 -0.42187,2.23437 -1.57812,2.26563 v 0.29688 h 1.03125 v 3.29686 c 0,1.34375 0.96875,1.60938 1.60937,1.60938 0.79688,0 1.21875,-0.76563 1.21875,-1.60938 v -0.67186 h -0.34375 v 0.64061 c 0,0.875 -0.375,1.31251 -0.79688,1.31251 -0.79686,0 -0.79686,-1.04688 -0.79686,-1.26563 v -3.31249 z m 7.14453,0.96874 c 0,-0.23437 0,-0.23437 0.14063,-0.4375 0.40624,-0.54687 0.98437,-0.73438 1.43749,-0.73438 0.51563,0 1,0.28126 1.31251,0.78126 0.31249,0.51562 0.32812,1.23437 0.32812,1.60937 0,0.56251 -0.0625,1.18751 -0.375,1.67188 -0.26563,0.39063 -0.75,0.75 -1.39063,0.75 -0.53125,0 -0.98437,-0.28125 -1.28125,-0.71876 -0.17187,-0.25 -0.17187,-0.26561 -0.17187,-0.5 z m -0.0937,3.07812 c 0.35939,0.53126 0.96876,0.85938 1.60939,0.85938 1.42187,0 2.73437,-1.14063 2.73437,-2.70312 0,-1.5 -1.1875,-2.70312 -2.60937,-2.70312 -0.82813,0 -1.375,0.42186 -1.67188,0.73437 v -3.75 l -1.76563,0.14063 v 0.35937 c 0.81251,0 0.92188,0.0937 0.92188,0.67187 v 7.125 h 0.32812 z m 6.96486,-4.54686 -1.71876,0.12493 v 0.375 c 0.76562,0 0.85938,0.0781 0.85938,0.65624 v 3.20313 c 0,0.54687 -0.12493,0.54687 -0.90625,0.54687 v 0.375 c 0.53125,-0.0312 0.78125,-0.0312 1.31249,-0.0312 0.18751,0 0.68751,0 1.28126,0.0312 v -0.375 c -0.78126,0 -0.82812,-0.0625 -0.82812,-0.51563 z m 0.0312,-2.07814 c 0,-0.35937 -0.28124,-0.65625 -0.64062,-0.65625 -0.375,0 -0.65625,0.31251 -0.65625,0.65625 0,0.34375 0.28125,0.64063 0.65625,0.64063 0.35938,0 0.64062,-0.28125 0.64062,-0.64063 z m 3.39844,4.26563 c 0,-1.26563 0.90625,-1.89063 1.65625,-1.89063 0.70312,0 0.85937,0.57814 0.85937,1.29688 v 2.76563 c 0,0.54687 -0.12493,0.54687 -0.92186,0.54687 v 0.375 c 0.56249,-0.0312 0.79686,-0.0312 1.35937,-0.0312 0.57812,0 0.73437,0 1.35937,0.0312 v -0.375 c -0.60937,0 -0.90625,0 -0.90625,-0.35938 v -2.29686 c 0,-1 0,-1.34376 -0.34375,-1.76563 -0.26562,-0.32813 -0.73437,-0.48437 -1.32813,-0.48437 -1.10937,0 -1.625,0.82812 -1.79687,1.15624 v -1.15624 l -1.73437,0.12493 v 0.375 c 0.81249,0 0.92187,0.0781 0.92187,0.67187 v 3.1875 c 0,0.54687 -0.14063,0.54687 -0.92187,0.54687 v 0.375 c 0.56249,-0.0312 0.78124,-0.0312 1.35937,-0.0312 0.57812,0 0.73438,0 1.35938,0.0312 v -0.375 c -0.78126,0 -0.92188,0 -0.92188,-0.54687 z m 8.70313,2.23437 c 0.0469,0.5 0.40624,0.93751 0.92187,0.93751 0.29688,0 1.04688,-0.18751 1.04688,-1.14063 v -0.67188 h -0.34375 v 0.65626 c 0,0.14062 0,0.73437 -0.42188,0.73437 -0.43749,0 -0.43749,-0.57812 -0.43749,-0.76563 v -2.09374 c 0,-0.68751 0,-1.09375 -0.53126,-1.57812 -0.4375,-0.39063 -1.01562,-0.57814 -1.60937,-0.57814 -1.01563,0 -1.84376,0.5 -1.84376,1.26563 0,0.375 0.25,0.57812 0.56251,0.57812 0.31249,0 0.54688,-0.23437 0.54688,-0.54687 0,-0.51562 -0.53126,-0.57813 -0.53126,-0.57813 0.3125,-0.31249 0.89063,-0.42187 1.23438,-0.42187 0.60937,0 1.29688,0.45312 1.29688,1.51563 v 0.39063 c -0.65626,0.0312 -1.54688,0.0781 -2.34376,0.46874 -0.85938,0.42187 -1.125,1.03126 -1.125,1.51563 0,0.98437 1.15625,1.29687 1.95313,1.29687 1,0 1.45312,-0.65624 1.625,-0.98438 z m -0.10933,-0.82812 c 0,1.15626 -0.90626,1.51563 -1.42188,1.51563 -0.56251,0 -1.09375,-0.40625 -1.09375,-1 0,-0.78125 0.68749,-1.625 2.51563,-1.70313 z m 4.28514,-1.04688 c 0,-0.5 0.14063,-2.25 1.5,-2.25 v 0.0156 c -0.0312,0.0156 -0.21874,0.15626 -0.21874,0.43751 0,0.32812 0.25,0.53124 0.53125,0.53124 0.25,0 0.51563,-0.18749 0.51563,-0.54687 0,-0.375 -0.35939,-0.73437 -0.89063,-0.73437 -0.71876,0 -1.21876,0.5 -1.5,1.23437 v -1.23437 l -1.70313,0.12493 v 0.375 c 0.8125,0 0.92188,0.0781 0.92188,0.67187 v 3.18751 c 0,0.54686 -0.14063,0.54686 -0.92188,0.54686 v 0.375 c 0.625,-0.0312 0.78125,-0.0312 1.39062,-0.0312 0.48438,0 0.76563,0 1.53126,0.0312 v -0.375 h -0.25 c -0.875,0 -0.90626,-0.12493 -0.90626,-0.56249 z m 4.85156,-1.48437 c -0.0625,-0.17188 -0.0625,-0.23437 -0.0625,-0.25 0,-0.31249 0.40625,-0.31249 0.65625,-0.31249 v -0.375 c -0.59376,0.0312 -0.82813,0.0468 -1.32813,0.0468 -0.0312,0 -0.71875,0 -1.18749,-0.0468 v 0.375 c 0.53125,0 0.76562,0.0312 0.90625,0.34374 l 1.89061,4.4375 -0.29686,0.70313 c -0.26563,0.64063 -0.60938,1.45312 -1.39063,1.45312 -0.29688,0 -0.5,-0.15625 -0.53125,-0.18749 0.0937,-0.0156 0.42188,-0.10934 0.42188,-0.51563 0,-0.31251 -0.21875,-0.5 -0.5,-0.5 -0.29688,0 -0.51563,0.18749 -0.51563,0.51563 0,0.54686 0.5,0.98437 1.125,0.98437 0.78125,0 1.29688,-0.70313 1.57812,-1.35937 l 2.17188,-5.04688 c 0.12493,-0.31251 0.34375,-0.79688 1.10937,-0.82812 v -0.375 c -0.39062,0.0468 -0.75,0.0468 -0.90625,0.0468 -0.34375,0 -0.70312,-0.0156 -1.04687,-0.0468 v 0.375 c 0.54687,0.0312 0.54687,0.45312 0.54687,0.5 0,0.14061 -0.0468,0.25 -0.0937,0.34374 l -1.20312,2.84375 z m 7.875,1.21875 c 0,-0.98438 -0.14061,-2.29687 -0.76561,-3.625 -0.70313,-1.46875 -1.81251,-2.34375 -1.95313,-2.34375 -0.12494,0 -0.15626,0.0937 -0.15626,0.14063 0,0.0469 0.0312,0.0937 0.10934,0.17188 0.70312,0.625 2.01561,2.25 2.01561,5.65624 0,1.70313 -0.31249,4.09376 -2.04687,5.70313 -0.0312,0.0312 -0.0781,0.0781 -0.0781,0.14063 0,0.0312 0.0312,0.12493 0.15625,0.12493 0.14063,0 1.21875,-0.85939 1.85938,-2.15625 0.57813,-1.14063 0.85937,-2.375 0.85937,-3.81251 z m 0,0"
       style="fill:#000000;fill-opacity:1;fill-rule:nonzero;stroke:none;stroke-width:1.33333"
       aria-label="Analog&#10;Output&#10;DigitalInput(straightbinary)" /><path
       style="fill:#000000;fill-rule:evenodd;stroke:#000000;stroke-width:1.06583;stroke-dasharray:3.19748998,3.19748998;stroke-dashoffset:0"
       d="m -519.05345,285.81 h 275.26466"
       id="path93" /><path
       style="fill:#000000;fill-rule:evenodd;stroke:#000000;stroke-width:1.06583;stroke-dasharray:3.19749, 3.19749;stroke-dashoffset:0"
       d="M -260.90721,268.77678 V 544.04142"
       id="path94" /><path
       style="fill:#000000;fill-rule:evenodd;stroke:#000000;stroke-width:1.06583;stroke-dasharray:3.19749, 3.19749;stroke-dashoffset:0"
       d="m -371.54607,376.40522 v 167.6362"
       id="path95" /><path
       style="fill:#000000;fill-rule:evenodd;stroke:#000000;stroke-width:1.06583;stroke-dasharray:3.19749, 3.19749;stroke-dashoffset:0"
       d="m -351.41725,396.45202 h -167.6362"
       id="path96" /></g></svg>
