<?xml version="1.0" encoding="UTF-8" standalone="no"?>
<!-- Created with Inkscape (http://www.inkscape.org/) -->

<svg
   width="209.80525mm"
   height="99.939301mm"
   viewBox="0 0 209.80525 99.939313"
   version="1.1"
   id="svg1"
   xml:space="preserve"
   inkscape:version="1.3.2 (091e20e, 2023-11-25, custom)"
   sodipodi:docname="funcion_de_transferencia_no_ideal.svg"
   xmlns:inkscape="http://www.inkscape.org/namespaces/inkscape"
   xmlns:sodipodi="http://sodipodi.sourceforge.net/DTD/sodipodi-0.dtd"
   xmlns="http://www.w3.org/2000/svg"
   xmlns:svg="http://www.w3.org/2000/svg"><sodipodi:namedview
     id="namedview1"
     pagecolor="#ffffff"
     bordercolor="#000000"
     borderopacity="0.25"
     inkscape:showpageshadow="2"
     inkscape:pageopacity="0.0"
     inkscape:pagecheckerboard="0"
     inkscape:deskcolor="#d1d1d1"
     inkscape:document-units="mm"
     inkscape:zoom="0.97890838"
     inkscape:cx="401.4676"
     inkscape:cy="40.35107"
     inkscape:window-width="1920"
     inkscape:window-height="991"
     inkscape:window-x="-9"
     inkscape:window-y="-9"
     inkscape:window-maximized="1"
     inkscape:current-layer="layer1" /><defs
     id="defs1"><clipPath
       clipPathUnits="userSpaceOnUse"
       id="clipPath2"><path
         d="M 0,0 H 432 V 259 H 0 Z"
         transform="matrix(10,0,0,10,0,-2.4990504e-5)"
         id="path2" /></clipPath><clipPath
       clipPathUnits="userSpaceOnUse"
       id="clipPath3"><path
         d="M 0,0 H 432 V 259 H 0 Z"
         transform="matrix(10,0,0,10,0,-2.4990504e-5)"
         id="path3" /></clipPath><clipPath
       clipPathUnits="userSpaceOnUse"
       id="clipPath4"><path
         d="M 0,0 H 432 V 259 H 0 Z"
         transform="matrix(10,0,0,10,0,-2.4990504e-5)"
         id="path4" /></clipPath><clipPath
       clipPathUnits="userSpaceOnUse"
       id="clipPath5"><path
         d="M 0,0 H 432 V 259 H 0 Z"
         transform="matrix(10,0,0,10,0,-2.4990504e-5)"
         id="path5" /></clipPath><clipPath
       clipPathUnits="userSpaceOnUse"
       id="clipPath6"><path
         d="M 0,0 H 432 V 259 H 0 Z"
         transform="matrix(10,0,0,10,0,-2.4990504e-5)"
         id="path6" /></clipPath><clipPath
       clipPathUnits="userSpaceOnUse"
       id="clipPath7"><path
         d="M 0,0 H 432 V 259 H 0 Z"
         transform="matrix(10,0,0,10,0,-2.4990504e-5)"
         id="path7" /></clipPath><clipPath
       clipPathUnits="userSpaceOnUse"
       id="clipPath8"><path
         d="M 0,0 H 432 V 259 H 0 Z"
         transform="matrix(10,0,0,10,0,-2.4990504e-5)"
         id="path8" /></clipPath><clipPath
       clipPathUnits="userSpaceOnUse"
       id="clipPath9"><path
         d="M 0,0 H 432 V 259 H 0 Z"
         transform="matrix(10,0,0,10,0,-2.4990504e-5)"
         id="path9" /></clipPath><clipPath
       clipPathUnits="userSpaceOnUse"
       id="clipPath10"><path
         d="M 0,0 H 432 V 259 H 0 Z"
         transform="matrix(10,0,0,10,0,-2.4990504e-5)"
         id="path10" /></clipPath><clipPath
       clipPathUnits="userSpaceOnUse"
       id="clipPath11"><path
         d="M 0,0 H 432 V 259 H 0 Z"
         transform="matrix(10,0,0,10,0,-2.4990504e-5)"
         id="path11" /></clipPath><clipPath
       clipPathUnits="userSpaceOnUse"
       id="clipPath12"><path
         d="M 0,0 H 432 V 259 H 0 Z"
         transform="matrix(10,0,0,10,0,-2.4990504e-5)"
         id="path12" /></clipPath><clipPath
       clipPathUnits="userSpaceOnUse"
       id="clipPath13"><path
         d="M 0,0 H 432 V 259 H 0 Z"
         transform="matrix(10,0,0,10,0,-2.4990504e-5)"
         id="path13" /></clipPath><clipPath
       clipPathUnits="userSpaceOnUse"
       id="clipPath14"><path
         d="M 0,0 H 432 V 259 H 0 Z"
         transform="matrix(10,0,0,10,0,-2.4990504e-5)"
         id="path14" /></clipPath><clipPath
       clipPathUnits="userSpaceOnUse"
       id="clipPath15"><path
         d="M 0,0 H 432 V 259 H 0 Z"
         transform="matrix(10,0,0,10,0,-2.4990504e-5)"
         id="path15" /></clipPath><clipPath
       clipPathUnits="userSpaceOnUse"
       id="clipPath16"><path
         d="M 0,0 H 432 V 259 H 0 Z"
         transform="matrix(10,0,0,10,0,-2.4990504e-5)"
         id="path16" /></clipPath><clipPath
       clipPathUnits="userSpaceOnUse"
       id="clipPath17"><path
         d="M 0,0 H 432 V 259 H 0 Z"
         transform="matrix(10,0,0,10,0,-2.4990504e-5)"
         id="path17" /></clipPath><clipPath
       clipPathUnits="userSpaceOnUse"
       id="clipPath18"><path
         d="M 0,0 H 432 V 259 H 0 Z"
         transform="matrix(10,0,0,10,0,-2.4990504e-5)"
         id="path18" /></clipPath><clipPath
       clipPathUnits="userSpaceOnUse"
       id="clipPath19"><path
         d="M 0,0 H 432 V 259 H 0 Z"
         transform="matrix(10,0,0,10,0,-2.4990504e-5)"
         id="path19" /></clipPath><clipPath
       clipPathUnits="userSpaceOnUse"
       id="clipPath20"><path
         d="M 0,0 H 432 V 259 H 0 Z"
         transform="matrix(10,0,0,10,0,-2.4990504e-5)"
         id="path20" /></clipPath><clipPath
       clipPathUnits="userSpaceOnUse"
       id="clipPath21"><path
         d="M 0,0 H 432 V 259 H 0 Z"
         transform="matrix(10,0,0,10,0,-2.4990504e-5)"
         id="path21" /></clipPath><clipPath
       clipPathUnits="userSpaceOnUse"
       id="clipPath22"><path
         d="M 0,0 H 432 V 259 H 0 Z"
         transform="matrix(10,0,0,10,0,-2.4990504e-5)"
         id="path22" /></clipPath><clipPath
       clipPathUnits="userSpaceOnUse"
       id="clipPath23"><path
         d="M 0,0 H 432 V 259 H 0 Z"
         transform="matrix(10,0,0,10,0,-2.4990504e-5)"
         id="path23" /></clipPath><clipPath
       clipPathUnits="userSpaceOnUse"
       id="clipPath24"><path
         d="M 0,0 H 432 V 259 H 0 Z"
         transform="matrix(10,0,0,10,0,-2.4990504e-5)"
         id="path24" /></clipPath><clipPath
       clipPathUnits="userSpaceOnUse"
       id="clipPath25"><path
         d="M 0,0 H 432 V 259 H 0 Z"
         transform="matrix(10,0,0,10,0,-2.4990504e-5)"
         id="path25" /></clipPath><clipPath
       clipPathUnits="userSpaceOnUse"
       id="clipPath26"><path
         d="M 0,0 H 432 V 259 H 0 Z"
         transform="matrix(10,0,0,10,0,-2.4990504e-5)"
         id="path26" /></clipPath><clipPath
       clipPathUnits="userSpaceOnUse"
       id="clipPath27"><path
         d="M 0,0 H 432 V 259 H 0 Z"
         transform="matrix(10,0,0,10,0,-2.4990504e-5)"
         id="path27" /></clipPath><clipPath
       clipPathUnits="userSpaceOnUse"
       id="clipPath28"><path
         d="M 0,0 H 432 V 259 H 0 Z"
         transform="matrix(10,0,0,10,0,-2.4990504e-5)"
         id="path28" /></clipPath><clipPath
       clipPathUnits="userSpaceOnUse"
       id="clipPath29"><path
         d="M 0,0 H 432 V 259 H 0 Z"
         transform="matrix(10,0,0,10,0,-2.4990504e-5)"
         id="path29" /></clipPath><clipPath
       clipPathUnits="userSpaceOnUse"
       id="clipPath30"><path
         d="M 0,0 H 432 V 259 H 0 Z"
         transform="matrix(10,0,0,10,0,-2.4990504e-5)"
         id="path30" /></clipPath><clipPath
       clipPathUnits="userSpaceOnUse"
       id="clipPath31"><path
         d="M 0,0 H 432 V 259 H 0 Z"
         transform="matrix(10,0,0,10,0,-2.4990504e-5)"
         id="path31" /></clipPath><clipPath
       clipPathUnits="userSpaceOnUse"
       id="clipPath32"><path
         d="M 0,0 H 432 V 259 H 0 Z"
         transform="matrix(10,0,0,10,0,-2.4990504e-5)"
         id="path32" /></clipPath><clipPath
       clipPathUnits="userSpaceOnUse"
       id="clipPath33"><path
         d="M 0,0 H 432 V 259 H 0 Z"
         transform="matrix(10,0,0,10,0,-2.4990504e-5)"
         id="path33" /></clipPath><clipPath
       clipPathUnits="userSpaceOnUse"
       id="clipPath34"><path
         d="M 0,0 H 432 V 259 H 0 Z"
         transform="matrix(10,0,0,10,0,-2.4990504e-5)"
         id="path34" /></clipPath><clipPath
       clipPathUnits="userSpaceOnUse"
       id="clipPath35"><path
         d="M 0,0 H 432 V 259 H 0 Z"
         transform="matrix(10,0,0,10,0,-2.4990504e-5)"
         id="path35" /></clipPath><clipPath
       clipPathUnits="userSpaceOnUse"
       id="clipPath36"><path
         d="M 0,0 H 432 V 259 H 0 Z"
         transform="matrix(10,0,0,10,0,-2.4990504e-5)"
         id="path36" /></clipPath><clipPath
       clipPathUnits="userSpaceOnUse"
       id="clipPath37"><path
         d="M 0,0 H 432 V 259 H 0 Z"
         transform="matrix(10,0,0,10,0,-2.4990504e-5)"
         id="path37" /></clipPath><clipPath
       clipPathUnits="userSpaceOnUse"
       id="clipPath38"><path
         d="M 0,0 H 432 V 259 H 0 Z"
         transform="matrix(10,0,0,10,0,-2.4990504e-5)"
         id="path38" /></clipPath><clipPath
       clipPathUnits="userSpaceOnUse"
       id="clipPath39"><path
         d="M 0,0 H 432 V 259 H 0 Z"
         transform="matrix(10,0,0,10,0,-2.4990504e-5)"
         id="path39" /></clipPath><clipPath
       clipPathUnits="userSpaceOnUse"
       id="clipPath40"><path
         d="M 0,0 H 432 V 259 H 0 Z"
         transform="matrix(10,0,0,10,0,-2.4990504e-5)"
         id="path40" /></clipPath><clipPath
       clipPathUnits="userSpaceOnUse"
       id="clipPath41"><path
         d="M 0,0 H 432 V 259 H 0 Z"
         transform="matrix(10,0,0,10,0,-2.4990504e-5)"
         id="path41" /></clipPath><clipPath
       clipPathUnits="userSpaceOnUse"
       id="clipPath42"><path
         d="M 0,0 H 432 V 259 H 0 Z"
         transform="matrix(10,0,0,10,0,-2.4990504e-5)"
         id="path42" /></clipPath><clipPath
       clipPathUnits="userSpaceOnUse"
       id="clipPath43"><path
         d="M 0,0 H 432 V 259 H 0 Z"
         transform="matrix(10,0,0,10,0,-2.4990504e-5)"
         id="path43" /></clipPath><clipPath
       clipPathUnits="userSpaceOnUse"
       id="clipPath44"><path
         d="M 0,0 H 432 V 259 H 0 Z"
         transform="matrix(10,0,0,10,0,-2.4990504e-5)"
         id="path44" /></clipPath><clipPath
       clipPathUnits="userSpaceOnUse"
       id="clipPath45"><path
         d="M 0,0 H 432 V 259 H 0 Z"
         transform="matrix(10,0,0,10,0,-2.4990504e-5)"
         id="path45" /></clipPath><clipPath
       clipPathUnits="userSpaceOnUse"
       id="clipPath46"><path
         d="M 0,0 H 432 V 259 H 0 Z"
         transform="matrix(10,0,0,10,0,-2.4990504e-5)"
         id="path46" /></clipPath><clipPath
       clipPathUnits="userSpaceOnUse"
       id="clipPath2-3"><path
         d="M 0,0 H 432 V 259 H 0 Z"
         transform="matrix(10,0,0,10,0,-2.4990504e-5)"
         id="path2-8" /></clipPath><clipPath
       clipPathUnits="userSpaceOnUse"
       id="clipPath3-6"><path
         d="M 0,0 H 432 V 259 H 0 Z"
         transform="matrix(10,0,0,10,0,-2.4990504e-5)"
         id="path3-2" /></clipPath><clipPath
       clipPathUnits="userSpaceOnUse"
       id="clipPath4-7"><path
         d="M 0,0 H 432 V 259 H 0 Z"
         transform="matrix(10,0,0,10,0,-2.4990504e-5)"
         id="path4-9" /></clipPath><clipPath
       clipPathUnits="userSpaceOnUse"
       id="clipPath5-0"><path
         d="M 0,0 H 432 V 259 H 0 Z"
         transform="matrix(10,0,0,10,0,-2.4990504e-5)"
         id="path5-3" /></clipPath><clipPath
       clipPathUnits="userSpaceOnUse"
       id="clipPath6-5"><path
         d="M 0,0 H 432 V 259 H 0 Z"
         transform="matrix(10,0,0,10,0,-2.4990504e-5)"
         id="path6-6" /></clipPath><clipPath
       clipPathUnits="userSpaceOnUse"
       id="clipPath7-7"><path
         d="M 0,0 H 432 V 259 H 0 Z"
         transform="matrix(10,0,0,10,0,-2.4990504e-5)"
         id="path7-1" /></clipPath><clipPath
       clipPathUnits="userSpaceOnUse"
       id="clipPath8-8"><path
         d="M 0,0 H 432 V 259 H 0 Z"
         transform="matrix(10,0,0,10,0,-2.4990504e-5)"
         id="path8-2" /></clipPath><clipPath
       clipPathUnits="userSpaceOnUse"
       id="clipPath9-7"><path
         d="M 0,0 H 432 V 259 H 0 Z"
         transform="matrix(10,0,0,10,0,-2.4990504e-5)"
         id="path9-6" /></clipPath><clipPath
       clipPathUnits="userSpaceOnUse"
       id="clipPath10-5"><path
         d="M 0,0 H 432 V 259 H 0 Z"
         transform="matrix(10,0,0,10,0,-2.4990504e-5)"
         id="path10-5" /></clipPath><clipPath
       clipPathUnits="userSpaceOnUse"
       id="clipPath11-7"><path
         d="M 0,0 H 432 V 259 H 0 Z"
         transform="matrix(10,0,0,10,0,-2.4990504e-5)"
         id="path11-9" /></clipPath><clipPath
       clipPathUnits="userSpaceOnUse"
       id="clipPath12-3"><path
         d="M 0,0 H 432 V 259 H 0 Z"
         transform="matrix(10,0,0,10,0,-2.4990504e-5)"
         id="path12-8" /></clipPath><clipPath
       clipPathUnits="userSpaceOnUse"
       id="clipPath13-5"><path
         d="M 0,0 H 432 V 259 H 0 Z"
         transform="matrix(10,0,0,10,0,-2.4990504e-5)"
         id="path13-9" /></clipPath><clipPath
       clipPathUnits="userSpaceOnUse"
       id="clipPath14-7"><path
         d="M 0,0 H 432 V 259 H 0 Z"
         transform="matrix(10,0,0,10,0,-2.4990504e-5)"
         id="path14-4" /></clipPath><clipPath
       clipPathUnits="userSpaceOnUse"
       id="clipPath15-7"><path
         d="M 0,0 H 432 V 259 H 0 Z"
         transform="matrix(10,0,0,10,0,-2.4990504e-5)"
         id="path15-3" /></clipPath><clipPath
       clipPathUnits="userSpaceOnUse"
       id="clipPath16-6"><path
         d="M 0,0 H 432 V 259 H 0 Z"
         transform="matrix(10,0,0,10,0,-2.4990504e-5)"
         id="path16-9" /></clipPath><clipPath
       clipPathUnits="userSpaceOnUse"
       id="clipPath17-5"><path
         d="M 0,0 H 432 V 259 H 0 Z"
         transform="matrix(10,0,0,10,0,-2.4990504e-5)"
         id="path17-8" /></clipPath><clipPath
       clipPathUnits="userSpaceOnUse"
       id="clipPath18-8"><path
         d="M 0,0 H 432 V 259 H 0 Z"
         transform="matrix(10,0,0,10,0,-2.4990504e-5)"
         id="path18-8" /></clipPath><clipPath
       clipPathUnits="userSpaceOnUse"
       id="clipPath19-0"><path
         d="M 0,0 H 432 V 259 H 0 Z"
         transform="matrix(10,0,0,10,0,-2.4990504e-5)"
         id="path19-1" /></clipPath><clipPath
       clipPathUnits="userSpaceOnUse"
       id="clipPath20-6"><path
         d="M 0,0 H 432 V 259 H 0 Z"
         transform="matrix(10,0,0,10,0,-2.4990504e-5)"
         id="path20-5" /></clipPath><clipPath
       clipPathUnits="userSpaceOnUse"
       id="clipPath21-4"><path
         d="M 0,0 H 432 V 259 H 0 Z"
         transform="matrix(10,0,0,10,0,-2.4990504e-5)"
         id="path21-0" /></clipPath><clipPath
       clipPathUnits="userSpaceOnUse"
       id="clipPath22-9"><path
         d="M 0,0 H 432 V 259 H 0 Z"
         transform="matrix(10,0,0,10,0,-2.4990504e-5)"
         id="path22-1" /></clipPath><clipPath
       clipPathUnits="userSpaceOnUse"
       id="clipPath23-3"><path
         d="M 0,0 H 432 V 259 H 0 Z"
         transform="matrix(10,0,0,10,0,-2.4990504e-5)"
         id="path23-8" /></clipPath><clipPath
       clipPathUnits="userSpaceOnUse"
       id="clipPath24-5"><path
         d="M 0,0 H 432 V 259 H 0 Z"
         transform="matrix(10,0,0,10,0,-2.4990504e-5)"
         id="path24-4" /></clipPath><clipPath
       clipPathUnits="userSpaceOnUse"
       id="clipPath25-7"><path
         d="M 0,0 H 432 V 259 H 0 Z"
         transform="matrix(10,0,0,10,0,-2.4990504e-5)"
         id="path25-9" /></clipPath><clipPath
       clipPathUnits="userSpaceOnUse"
       id="clipPath26-1"><path
         d="M 0,0 H 432 V 259 H 0 Z"
         transform="matrix(10,0,0,10,0,-2.4990504e-5)"
         id="path26-3" /></clipPath><clipPath
       clipPathUnits="userSpaceOnUse"
       id="clipPath27-4"><path
         d="M 0,0 H 432 V 259 H 0 Z"
         transform="matrix(10,0,0,10,0,-2.4990504e-5)"
         id="path27-4" /></clipPath><clipPath
       clipPathUnits="userSpaceOnUse"
       id="clipPath28-0"><path
         d="M 0,0 H 432 V 259 H 0 Z"
         transform="matrix(10,0,0,10,0,-2.4990504e-5)"
         id="path28-9" /></clipPath><clipPath
       clipPathUnits="userSpaceOnUse"
       id="clipPath29-7"><path
         d="M 0,0 H 432 V 259 H 0 Z"
         transform="matrix(10,0,0,10,0,-2.4990504e-5)"
         id="path29-0" /></clipPath><clipPath
       clipPathUnits="userSpaceOnUse"
       id="clipPath30-2"><path
         d="M 0,0 H 432 V 259 H 0 Z"
         transform="matrix(10,0,0,10,0,-2.4990504e-5)"
         id="path30-0" /></clipPath><clipPath
       clipPathUnits="userSpaceOnUse"
       id="clipPath31-7"><path
         d="M 0,0 H 432 V 259 H 0 Z"
         transform="matrix(10,0,0,10,0,-2.4990504e-5)"
         id="path31-8" /></clipPath><clipPath
       clipPathUnits="userSpaceOnUse"
       id="clipPath32-1"><path
         d="M 0,0 H 432 V 259 H 0 Z"
         transform="matrix(10,0,0,10,0,-2.4990504e-5)"
         id="path32-1" /></clipPath><clipPath
       clipPathUnits="userSpaceOnUse"
       id="clipPath33-2"><path
         d="M 0,0 H 432 V 259 H 0 Z"
         transform="matrix(10,0,0,10,0,-2.4990504e-5)"
         id="path33-2" /></clipPath><clipPath
       clipPathUnits="userSpaceOnUse"
       id="clipPath34-3"><path
         d="M 0,0 H 432 V 259 H 0 Z"
         transform="matrix(10,0,0,10,0,-2.4990504e-5)"
         id="path34-8" /></clipPath><clipPath
       clipPathUnits="userSpaceOnUse"
       id="clipPath35-7"><path
         d="M 0,0 H 432 V 259 H 0 Z"
         transform="matrix(10,0,0,10,0,-2.4990504e-5)"
         id="path35-9" /></clipPath><clipPath
       clipPathUnits="userSpaceOnUse"
       id="clipPath36-7"><path
         d="M 0,0 H 432 V 259 H 0 Z"
         transform="matrix(10,0,0,10,0,-2.4990504e-5)"
         id="path36-2" /></clipPath><clipPath
       clipPathUnits="userSpaceOnUse"
       id="clipPath37-3"><path
         d="M 0,0 H 432 V 259 H 0 Z"
         transform="matrix(10,0,0,10,0,-2.4990504e-5)"
         id="path37-6" /></clipPath><clipPath
       clipPathUnits="userSpaceOnUse"
       id="clipPath38-3"><path
         d="M 0,0 H 432 V 259 H 0 Z"
         transform="matrix(10,0,0,10,0,-2.4990504e-5)"
         id="path38-5" /></clipPath><clipPath
       clipPathUnits="userSpaceOnUse"
       id="clipPath39-5"><path
         d="M 0,0 H 432 V 259 H 0 Z"
         transform="matrix(10,0,0,10,0,-2.4990504e-5)"
         id="path39-9" /></clipPath><clipPath
       clipPathUnits="userSpaceOnUse"
       id="clipPath40-3"><path
         d="M 0,0 H 432 V 259 H 0 Z"
         transform="matrix(10,0,0,10,0,-2.4990504e-5)"
         id="path40-7" /></clipPath><clipPath
       clipPathUnits="userSpaceOnUse"
       id="clipPath41-2"><path
         d="M 0,0 H 432 V 259 H 0 Z"
         transform="matrix(10,0,0,10,0,-2.4990504e-5)"
         id="path41-8" /></clipPath><clipPath
       clipPathUnits="userSpaceOnUse"
       id="clipPath42-7"><path
         d="M 0,0 H 432 V 259 H 0 Z"
         transform="matrix(10,0,0,10,0,-2.4990504e-5)"
         id="path42-7" /></clipPath><clipPath
       clipPathUnits="userSpaceOnUse"
       id="clipPath43-7"><path
         d="M 0,0 H 432 V 259 H 0 Z"
         transform="matrix(10,0,0,10,0,-2.4990504e-5)"
         id="path43-1" /></clipPath><clipPath
       clipPathUnits="userSpaceOnUse"
       id="clipPath44-2"><path
         d="M 0,0 H 432 V 259 H 0 Z"
         transform="matrix(10,0,0,10,0,-2.4990504e-5)"
         id="path44-2" /></clipPath><clipPath
       clipPathUnits="userSpaceOnUse"
       id="clipPath45-5"><path
         d="M 0,0 H 432 V 259 H 0 Z"
         transform="matrix(10,0,0,10,0,-2.4990504e-5)"
         id="path45-3" /></clipPath><clipPath
       clipPathUnits="userSpaceOnUse"
       id="clipPath46-8"><path
         d="M 0,0 H 432 V 259 H 0 Z"
         transform="matrix(10,0,0,10,0,-2.4990504e-5)"
         id="path46-9" /></clipPath></defs><g
     inkscape:label="Layer 1"
     inkscape:groupmode="layer"
     id="layer1"
     transform="translate(-7.4990375,-66.832824)"><rect
       style="fill:#ffffff;fill-rule:evenodd;stroke:#ffffff;stroke-width:0.282"
       id="rect95"
       width="209.52325"
       height="99.657303"
       x="7.6400375"
       y="66.973824" /><text
       xml:space="preserve"
       style="font-size:4.93889px;line-height:1.15;font-family:'CMU Serif';-inkscape-font-specification:'CMU Serif';text-align:center;letter-spacing:0px;word-spacing:0px;text-anchor:middle;fill:#ffffff;fill-rule:evenodd;stroke:#ffffff;stroke-width:0.282001"
       x="62.685505"
       y="74.694542"
       id="text3-8-7"><tspan
         sodipodi:role="line"
         style="font-size:4.93889px;fill:#000000;stroke:none;stroke-width:0.282"
         x="62.685505"
         y="74.694542"
         id="tspan4-4">DAC</tspan></text><g
       inkscape:label="Layer 1"
       id="layer1-3"
       transform="translate(-53.237828,-24.01913)" /><path
       id="path1"
       d="m 127.37453,154.73886 c 0,-0.21084 -0.008,-0.48369 -0.11988,-0.71933 -0.14056,-0.29766 -0.38034,-0.37207 -0.56224,-0.37207 -0.19017,0 -0.42995,0.0744 -0.57051,0.3762 -0.10336,0.21911 -0.11576,0.47542 -0.11576,0.7152 0,0.20671 0.004,0.51263 0.14056,0.76481 0.14883,0.26872 0.39688,0.31833 0.54157,0.31833 0.20671,0 0.43822,-0.0909 0.57051,-0.38034 0.0951,-0.21084 0.11575,-0.45062 0.11575,-0.7028 z m -0.68212,1.00459 c -0.0951,0 -0.32246,-0.0455 -0.38448,-0.40101 -0.0331,-0.19017 -0.0331,-0.45888 -0.0331,-0.64078 0,-0.21498 0,-0.46302 0.0413,-0.64079 0.062,-0.28112 0.26459,-0.33486 0.37207,-0.33486 0.11989,0 0.31833,0.062 0.38034,0.35553 0.0331,0.17363 0.0331,0.42168 0.0331,0.62012 0,0.1943 0,0.46302 -0.0331,0.64905 -0.0662,0.35967 -0.29765,0.39274 -0.3762,0.39274 z m 2.30787,-1.00459 c 0,-0.21084 -0.008,-0.48369 -0.11989,-0.71933 -0.14056,-0.29766 -0.38034,-0.37207 -0.56224,-0.37207 -0.19017,0 -0.42995,0.0744 -0.57051,0.3762 -0.10335,0.21911 -0.11576,0.47542 -0.11576,0.7152 0,0.20671 0.004,0.51263 0.14056,0.76481 0.14883,0.26872 0.39688,0.31833 0.54157,0.31833 0.20671,0 0.43822,-0.0909 0.57051,-0.38034 0.0951,-0.21084 0.11576,-0.45062 0.11576,-0.7028 z m -0.68213,1.00459 c -0.0951,0 -0.32246,-0.0455 -0.38447,-0.40101 -0.0331,-0.19017 -0.0331,-0.45888 -0.0331,-0.64078 0,-0.21498 0,-0.46302 0.0413,-0.64079 0.062,-0.28112 0.26458,-0.33486 0.37207,-0.33486 0.11988,0 0.31832,0.062 0.38034,0.35553 0.0331,0.17363 0.0331,0.42168 0.0331,0.62012 0,0.1943 0,0.46302 -0.0331,0.64905 -0.0662,0.35967 -0.29766,0.39274 -0.37621,0.39274 z m 2.30683,-1.00459 c 0,-0.21084 -0.008,-0.48369 -0.11989,-0.71933 -0.14055,-0.29766 -0.38033,-0.37207 -0.56224,-0.37207 -0.19016,0 -0.42994,0.0744 -0.5705,0.3762 -0.10336,0.21911 -0.11576,0.47542 -0.11576,0.7152 0,0.20671 0.004,0.51263 0.14056,0.76481 0.14883,0.26872 0.39688,0.31833 0.54157,0.31833 0.20671,0 0.43822,-0.0909 0.57051,-0.38034 0.0951,-0.21084 0.11575,-0.45062 0.11575,-0.7028 z m -0.68213,1.00459 c -0.0951,0 -0.32246,-0.0455 -0.38447,-0.40101 -0.0331,-0.19017 -0.0331,-0.45888 -0.0331,-0.64078 0,-0.21498 0,-0.46302 0.0413,-0.64079 0.062,-0.28112 0.26458,-0.33486 0.37207,-0.33486 0.11989,0 0.31833,0.062 0.38034,0.35553 0.0331,0.17363 0.0331,0.42168 0.0331,0.62012 0,0.1943 0,0.46302 -0.0331,0.64905 -0.0661,0.35967 -0.29766,0.39274 -0.37621,0.39274 z m -2.56832,-10.75903 c 0,-0.21084 -0.008,-0.48369 -0.11988,-0.71934 -0.14056,-0.29765 -0.38034,-0.37207 -0.56224,-0.37207 -0.19017,0 -0.42995,0.0744 -0.57051,0.37621 -0.10336,0.21911 -0.11576,0.47542 -0.11576,0.7152 0,0.20671 0.004,0.51263 0.14056,0.76481 0.14883,0.26872 0.39688,0.31833 0.54157,0.31833 0.20671,0 0.43822,-0.0909 0.57051,-0.38034 0.0951,-0.21084 0.11575,-0.45062 0.11575,-0.7028 z m -0.68212,1.00459 c -0.0951,0 -0.32246,-0.0455 -0.38448,-0.40101 -0.0331,-0.19017 -0.0331,-0.45889 -0.0331,-0.64079 0,-0.21497 0,-0.46302 0.0413,-0.64078 0.062,-0.28112 0.26459,-0.33487 0.37207,-0.33487 0.11989,0 0.31833,0.062 0.38034,0.35553 0.0331,0.17364 0.0331,0.42168 0.0331,0.62012 0,0.19431 0,0.46302 -0.0331,0.64906 -0.0662,0.35967 -0.29765,0.39274 -0.3762,0.39274 z m 2.30787,-1.00459 c 0,-0.21084 -0.008,-0.48369 -0.11989,-0.71934 -0.14056,-0.29765 -0.38034,-0.37207 -0.56224,-0.37207 -0.19017,0 -0.42995,0.0744 -0.57051,0.37621 -0.10335,0.21911 -0.11576,0.47542 -0.11576,0.7152 0,0.20671 0.004,0.51263 0.14056,0.76481 0.14883,0.26872 0.39688,0.31833 0.54157,0.31833 0.20671,0 0.43822,-0.0909 0.57051,-0.38034 0.0951,-0.21084 0.11576,-0.45062 0.11576,-0.7028 z m -0.68213,1.00459 c -0.0951,0 -0.32246,-0.0455 -0.38447,-0.40101 -0.0331,-0.19017 -0.0331,-0.45889 -0.0331,-0.64079 0,-0.21497 0,-0.46302 0.0413,-0.64078 0.062,-0.28112 0.26458,-0.33487 0.37207,-0.33487 0.11988,0 0.31832,0.062 0.38034,0.35553 0.0331,0.17364 0.0331,0.42168 0.0331,0.62012 0,0.19431 0,0.46302 -0.0331,0.64906 -0.0662,0.35967 -0.29766,0.39274 -0.37621,0.39274 z m 1.77353,-2.01331 c 0,-0.0785 -0.004,-0.0827 -0.0827,-0.0827 -0.19843,0.19844 -0.48782,0.19844 -0.58704,0.19844 v 0.0992 c 0.062,0 0.25218,0 0.42581,-0.0827 v 1.63711 c 0,0.11575 -0.0124,0.15296 -0.30592,0.15296 h -0.0992 v 0.0992 c 0.11162,-0.008 0.39274,-0.008 0.52503,-0.008 0.12816,0 0.41341,0 0.52503,0.008 v -0.0992 h -0.0992 c -0.29352,0 -0.30179,-0.0372 -0.30179,-0.15296 z m -2.71715,-8.74572 c 0,-0.21085 -0.008,-0.4837 -0.11988,-0.71934 -0.14056,-0.29766 -0.38034,-0.37207 -0.56224,-0.37207 -0.19017,0 -0.42995,0.0744 -0.57051,0.3762 -0.10336,0.21911 -0.11576,0.47543 -0.11576,0.71521 0,0.2067 0.004,0.51263 0.14056,0.76481 0.14883,0.26871 0.39688,0.31832 0.54157,0.31832 0.20671,0 0.43822,-0.0909 0.57051,-0.38033 0.0951,-0.21085 0.11575,-0.45062 0.11575,-0.7028 z m -0.68212,1.00458 c -0.0951,0 -0.32246,-0.0455 -0.38448,-0.401 -0.0331,-0.19017 -0.0331,-0.45889 -0.0331,-0.64079 0,-0.21498 0,-0.46302 0.0413,-0.64079 0.062,-0.28112 0.26459,-0.33486 0.37207,-0.33486 0.11989,0 0.31833,0.062 0.38034,0.35553 0.0331,0.17363 0.0331,0.42168 0.0331,0.62012 0,0.1943 0,0.46302 -0.0331,0.64906 -0.0662,0.35966 -0.29765,0.39273 -0.3762,0.39273 z m 1.77456,-2.01331 c 0,-0.0786 -0.004,-0.0827 -0.0827,-0.0827 -0.19843,0.19844 -0.48782,0.19844 -0.58704,0.19844 v 0.0992 c 0.062,0 0.25218,0 0.42582,-0.0827 v 1.63711 c 0,0.11576 -0.0124,0.15296 -0.30593,0.15296 h -0.0992 v 0.0992 c 0.11162,-0.008 0.39274,-0.008 0.52503,-0.008 0.12816,0 0.41341,0 0.52504,0.008 v -0.0992 h -0.0992 c -0.29353,0 -0.3018,-0.0372 -0.3018,-0.15296 z m 2.15801,1.00873 c 0,-0.21085 -0.008,-0.4837 -0.11989,-0.71934 -0.14056,-0.29766 -0.38033,-0.37207 -0.56224,-0.37207 -0.19016,0 -0.42994,0.0744 -0.5705,0.3762 -0.10336,0.21911 -0.11576,0.47543 -0.11576,0.71521 0,0.2067 0.004,0.51263 0.14056,0.76481 0.14883,0.26871 0.39688,0.31832 0.54157,0.31832 0.20671,0 0.43822,-0.0909 0.57051,-0.38033 0.0951,-0.21085 0.11575,-0.45062 0.11575,-0.7028 z m -0.68213,1.00458 c -0.0951,0 -0.32246,-0.0455 -0.38447,-0.401 -0.0331,-0.19017 -0.0331,-0.45889 -0.0331,-0.64079 0,-0.21498 0,-0.46302 0.0413,-0.64079 0.062,-0.28112 0.26458,-0.33486 0.37207,-0.33486 0.11989,0 0.31833,0.062 0.38034,0.35553 0.0331,0.17363 0.0331,0.42168 0.0331,0.62012 0,0.1943 0,0.46302 -0.0331,0.64906 -0.0661,0.35966 -0.29766,0.39273 -0.37621,0.39273 z m -2.56832,-10.75799 c 0,-0.21084 -0.008,-0.4837 -0.11988,-0.71934 -0.14056,-0.29766 -0.38034,-0.37207 -0.56224,-0.37207 -0.19017,0 -0.42995,0.0744 -0.57051,0.3762 -0.10336,0.21911 -0.11576,0.47543 -0.11576,0.71521 0,0.2067 0.004,0.51263 0.14056,0.76481 0.14883,0.26872 0.39688,0.31832 0.54157,0.31832 0.20671,0 0.43822,-0.091 0.57051,-0.38033 0.0951,-0.21085 0.11575,-0.45062 0.11575,-0.7028 z m -0.68212,1.00458 c -0.0951,0 -0.32246,-0.0455 -0.38448,-0.401 -0.0331,-0.19017 -0.0331,-0.45889 -0.0331,-0.64079 0,-0.21498 0,-0.46302 0.0413,-0.64079 0.062,-0.28112 0.26459,-0.33486 0.37207,-0.33486 0.11989,0 0.31833,0.062 0.38034,0.35553 0.0331,0.17363 0.0331,0.42168 0.0331,0.62012 0,0.1943 0,0.46302 -0.0331,0.64906 -0.0662,0.35966 -0.29765,0.39273 -0.3762,0.39273 z m 1.77456,-2.01331 c 0,-0.0785 -0.004,-0.0827 -0.0827,-0.0827 -0.19843,0.19844 -0.48782,0.19844 -0.58704,0.19844 v 0.0992 c 0.062,0 0.25218,0 0.42582,-0.0827 v 1.63711 c 0,0.11576 -0.0124,0.15296 -0.30593,0.15296 h -0.0992 v 0.0992 c 0.11162,-0.008 0.39274,-0.008 0.52503,-0.008 0.12816,0 0.41341,0 0.52504,0.008 v -0.0992 h -0.0992 c -0.29353,0 -0.3018,-0.0372 -0.3018,-0.15296 z m 1.62471,0 c 0,-0.0785 -0.004,-0.0827 -0.0827,-0.0827 -0.19843,0.19844 -0.48782,0.19844 -0.58704,0.19844 v 0.0992 c 0.062,0 0.25218,0 0.42581,-0.0827 v 1.63711 c 0,0.11576 -0.0124,0.15296 -0.30592,0.15296 h -0.0992 v 0.0992 c 0.11162,-0.008 0.39274,-0.008 0.52503,-0.008 0.12816,0 0.41341,0 0.52503,0.008 v -0.0992 h -0.0992 c -0.29352,0 -0.30179,-0.0372 -0.30179,-0.15296 z m -3.25045,-9.77201 c 0,-0.0786 -0.004,-0.0827 -0.0827,-0.0827 -0.19843,0.19844 -0.48782,0.19844 -0.58704,0.19844 v 0.0992 c 0.062,0 0.25218,0 0.42581,-0.0827 v 1.63711 c 0,0.11576 -0.0124,0.15296 -0.30592,0.15296 h -0.0992 v 0.0992 c 0.11162,-0.008 0.39274,-0.008 0.52503,-0.008 0.12816,0 0.41341,0 0.52503,0.008 v -0.0992 h -0.0992 c -0.29352,0 -0.30179,-0.0372 -0.30179,-0.15296 z m 2.15905,1.00872 c 0,-0.21084 -0.008,-0.48369 -0.11989,-0.71933 -0.14056,-0.29766 -0.38034,-0.37208 -0.56224,-0.37208 -0.19017,0 -0.42995,0.0744 -0.57051,0.37621 -0.10335,0.21911 -0.11576,0.47542 -0.11576,0.7152 0,0.20671 0.004,0.51263 0.14056,0.76481 0.14883,0.26872 0.39688,0.31833 0.54157,0.31833 0.20671,0 0.43822,-0.0909 0.57051,-0.38034 0.0951,-0.21084 0.11576,-0.45062 0.11576,-0.7028 z m -0.68213,1.00459 c -0.0951,0 -0.32246,-0.0455 -0.38447,-0.40101 -0.0331,-0.19016 -0.0331,-0.45888 -0.0331,-0.64078 0,-0.21498 0,-0.46303 0.0413,-0.64079 0.062,-0.28112 0.26458,-0.33487 0.37207,-0.33487 0.11988,0 0.31832,0.062 0.38033,0.35554 0.0331,0.17363 0.0331,0.42168 0.0331,0.62012 0,0.1943 0,0.46302 -0.0331,0.64905 -0.0661,0.35967 -0.29765,0.39274 -0.3762,0.39274 z m 2.30683,-1.00459 c 0,-0.21084 -0.008,-0.48369 -0.11989,-0.71933 -0.14056,-0.29766 -0.38033,-0.37208 -0.56224,-0.37208 -0.19016,0 -0.42994,0.0744 -0.5705,0.37621 -0.10336,0.21911 -0.11576,0.47542 -0.11576,0.7152 0,0.20671 0.004,0.51263 0.14056,0.76481 0.14883,0.26872 0.39688,0.31833 0.54157,0.31833 0.20671,0 0.43822,-0.0909 0.57051,-0.38034 0.0951,-0.21084 0.11575,-0.45062 0.11575,-0.7028 z m -0.68213,1.00459 c -0.0951,0 -0.32246,-0.0455 -0.38447,-0.40101 -0.0331,-0.19016 -0.0331,-0.45888 -0.0331,-0.64078 0,-0.21498 0,-0.46303 0.0413,-0.64079 0.062,-0.28112 0.26458,-0.33487 0.37207,-0.33487 0.11989,0 0.31833,0.062 0.38034,0.35554 0.0331,0.17363 0.0331,0.42168 0.0331,0.62012 0,0.1943 0,0.46302 -0.0331,0.64905 -0.0661,0.35967 -0.29766,0.39274 -0.37621,0.39274 z m -3.10162,-11.76775 c 0,-0.0785 -0.004,-0.0827 -0.0827,-0.0827 -0.19843,0.19844 -0.48782,0.19844 -0.58704,0.19844 v 0.0992 c 0.062,0 0.25218,0 0.42581,-0.0827 v 1.63711 c 0,0.11575 -0.0124,0.15296 -0.30592,0.15296 h -0.0992 v 0.0992 c 0.11162,-0.008 0.39274,-0.008 0.52503,-0.008 0.12816,0 0.41341,0 0.52503,0.008 v -0.0992 h -0.0992 c -0.29352,0 -0.30179,-0.0372 -0.30179,-0.15296 z m 2.15905,1.00872 c 0,-0.21084 -0.008,-0.48369 -0.11989,-0.71934 -0.14056,-0.29765 -0.38034,-0.37207 -0.56224,-0.37207 -0.19017,0 -0.42995,0.0744 -0.57051,0.37621 -0.10335,0.21911 -0.11576,0.47542 -0.11576,0.7152 0,0.20671 0.004,0.51263 0.14056,0.76481 0.14883,0.26872 0.39688,0.31833 0.54157,0.31833 0.20671,0 0.43822,-0.0909 0.57051,-0.38034 0.0951,-0.21084 0.11576,-0.45062 0.11576,-0.7028 z m -0.68213,1.00459 c -0.0951,0 -0.32246,-0.0455 -0.38447,-0.40101 -0.0331,-0.19017 -0.0331,-0.45889 -0.0331,-0.64079 0,-0.21497 0,-0.46302 0.0413,-0.64078 0.062,-0.28113 0.26458,-0.33487 0.37207,-0.33487 0.11988,0 0.31832,0.062 0.38033,0.35554 0.0331,0.17363 0.0331,0.42167 0.0331,0.62011 0,0.19431 0,0.46302 -0.0331,0.64906 -0.0661,0.35967 -0.29765,0.39274 -0.3762,0.39274 z m 1.77353,-2.01331 c 0,-0.0785 -0.004,-0.0827 -0.0827,-0.0827 -0.19843,0.19844 -0.48782,0.19844 -0.58704,0.19844 v 0.0992 c 0.062,0 0.25218,0 0.42581,-0.0827 v 1.63711 c 0,0.11575 -0.0124,0.15296 -0.30592,0.15296 h -0.0992 v 0.0992 c 0.11162,-0.008 0.39274,-0.008 0.52503,-0.008 0.12816,0 0.41341,0 0.52503,0.008 v -0.0992 h -0.0992 c -0.29352,0 -0.30179,-0.0372 -0.30179,-0.15296 z m -3.25045,-9.753417 c 0,-0.07854 -0.004,-0.08268 -0.0827,-0.08268 -0.19843,0.198438 -0.48782,0.198438 -0.58704,0.198438 v 0.09922 c 0.062,0 0.25218,0 0.42581,-0.08268 v 1.637112 c 0,0.115752 -0.0124,0.152961 -0.30592,0.152961 h -0.0992 v 0.09922 c 0.11162,-0.0083 0.39274,-0.0083 0.52503,-0.0083 0.12816,0 0.41341,0 0.52503,0.0083 v -0.09922 h -0.0992 c -0.29352,0 -0.30179,-0.03721 -0.30179,-0.152961 z m 1.62574,0 c 0,-0.07854 -0.004,-0.08268 -0.0827,-0.08268 -0.19843,0.198438 -0.48782,0.198438 -0.58704,0.198438 v 0.09922 c 0.062,0 0.25218,0 0.42582,-0.08268 v 1.637112 c 0,0.115752 -0.0124,0.152961 -0.30593,0.152961 h -0.0992 v 0.09922 c 0.11162,-0.0083 0.39274,-0.0083 0.52503,-0.0083 0.12816,0 0.41341,0 0.52504,0.0083 v -0.09922 h -0.0992 c -0.29353,0 -0.3018,-0.03721 -0.3018,-0.152961 z m 2.15801,1.008727 c 0,-0.210841 -0.008,-0.48369 -0.11989,-0.719336 -0.14056,-0.297656 -0.38033,-0.372071 -0.56224,-0.372071 -0.19016,0 -0.42994,0.07442 -0.5705,0.376206 -0.10336,0.219107 -0.11576,0.475422 -0.11576,0.715201 0,0.206705 0.004,0.512627 0.14056,0.764812 0.14883,0.268716 0.39688,0.318326 0.54157,0.318326 0.20671,0 0.43822,-0.09095 0.57051,-0.380339 0.0951,-0.210841 0.11575,-0.45062 0.11575,-0.702799 z m -0.68213,1.004591 c -0.0951,0 -0.32246,-0.04548 -0.38447,-0.401011 -0.0331,-0.190171 -0.0331,-0.458885 -0.0331,-0.640789 0,-0.214971 0,-0.46302 0.0413,-0.640789 0.062,-0.281117 0.26458,-0.334859 0.37207,-0.334859 0.11989,0 0.31833,0.06201 0.38034,0.355534 0.0331,0.173633 0.0331,0.421677 0.0331,0.620114 0,0.194305 0,0.463021 -0.0331,0.649055 -0.0661,0.359672 -0.29766,0.392745 -0.37621,0.392745 z m -3.10162,-11.76776 c 0,-0.07855 -0.004,-0.08268 -0.0827,-0.08268 -0.19843,0.198438 -0.48782,0.198438 -0.58704,0.198438 v 0.09922 c 0.062,0 0.25218,0 0.42581,-0.08268 v 1.63711 c 0,0.115755 -0.0124,0.15296 -0.30592,0.15296 h -0.0992 v 0.09922 c 0.11162,-0.0083 0.39274,-0.0083 0.52503,-0.0083 0.12816,0 0.41341,0 0.52503,0.0083 v -0.09922 h -0.0992 c -0.29352,0 -0.30179,-0.03721 -0.30179,-0.15296 z m 1.62574,0 c 0,-0.07855 -0.004,-0.08268 -0.0827,-0.08268 -0.19843,0.198438 -0.48782,0.198438 -0.58704,0.198438 v 0.09922 c 0.062,0 0.25218,0 0.42582,-0.08268 v 1.63711 c 0,0.115755 -0.0124,0.15296 -0.30593,0.15296 h -0.0992 v 0.09922 c 0.11162,-0.0083 0.39274,-0.0083 0.52503,-0.0083 0.12816,0 0.41341,0 0.52504,0.0083 v -0.09922 h -0.0992 c -0.29353,0 -0.3018,-0.03721 -0.3018,-0.15296 z m 1.62471,0 c 0,-0.07855 -0.004,-0.08268 -0.0827,-0.08268 -0.19843,0.198438 -0.48782,0.198438 -0.58704,0.198438 v 0.09922 c 0.062,0 0.25218,0 0.42581,-0.08268 v 1.63711 c 0,0.115755 -0.0124,0.15296 -0.30592,0.15296 h -0.0992 v 0.09922 c 0.11162,-0.0083 0.39274,-0.0083 0.52503,-0.0083 0.12816,0 0.41341,0 0.52503,0.0083 v -0.09922 h -0.0992 c -0.29352,0 -0.30179,-0.03721 -0.30179,-0.15296 z m 80.54702,71.342419 h -1.77353 v 0.0992 h 0.0744 c 0.24391,0 0.24805,0.0331 0.24805,0.14882 v 1.65365 c 0,0.11576 -0.004,0.14883 -0.24805,0.14883 h -0.0744 v 0.0992 c 0.14056,-0.008 0.33899,-0.008 0.48369,-0.008 0.12815,0 0.41341,0 0.52503,0.008 v -0.0992 h -0.0992 c -0.28939,0 -0.30179,-0.0372 -0.30179,-0.15296 v -0.77722 h 0.28525 c 0.30593,0 0.339,0.10336 0.339,0.37207 h 0.0909 v -0.83922 h -0.0909 c 0,0.26872 -0.0331,0.37207 -0.339,0.37207 h -0.28525 v -0.79789 c 0,-0.10748 0.004,-0.12815 0.15296,-0.12815 h 0.40101 c 0.48369,0 0.56224,0.17363 0.61185,0.61185 h 0.091 z m 0.94774,0.82682 c -0.25631,-0.062 -0.33485,-0.26458 -0.33485,-0.40514 0,-0.21084 0.16949,-0.41341 0.43407,-0.41341 0.40928,0 0.57465,0.30592 0.61599,0.62425 0.0124,0.0579 0.0124,0.0744 0.0537,0.0744 0.0413,0 0.0413,-0.0207 0.0413,-0.0868 v -0.61184 c 0,-0.062 0,-0.0868 -0.0372,-0.0868 -0.0207,0 -0.0248,0 -0.0455,0.0413 -0.0413,0.0537 -0.0124,0.0124 -0.11575,0.17777 -0.0538,-0.062 -0.21911,-0.21911 -0.51677,-0.21911 -0.36793,0 -0.63252,0.28525 -0.63252,0.60771 0,0.24805 0.14883,0.40101 0.16123,0.41755 0.14469,0.13643 0.20257,0.15296 0.57878,0.23978 0.25632,0.062 0.28112,0.0703 0.38861,0.17777 0,0 0.10748,0.11989 0.10748,0.30592 0,0.21497 -0.15296,0.45062 -0.44235,0.45062 -0.24391,0 -0.68213,-0.0992 -0.70693,-0.62425 -0.004,-0.0455 -0.004,-0.0662 -0.0455,-0.0662 -0.0413,0 -0.0413,0.0248 -0.0413,0.091 v 0.60772 c 0,0.0661 0,0.0909 0.0372,0.0909 0.0207,0 0.0248,-0.004 0.0455,-0.0413 0.0413,-0.0579 0.0124,-0.0165 0.11576,-0.1819 0.1943,0.19017 0.44648,0.22324 0.59945,0.22324 0.38447,0 0.64078,-0.31833 0.64078,-0.65733 0,-0.17776 -0.0661,-0.31832 -0.14056,-0.41341 -0.13642,-0.17363 -0.27698,-0.2067 -0.48369,-0.25631 z"
       style="fill:#000000;fill-opacity:1;fill-rule:nonzero;stroke:none;stroke-width:0.352777"
       aria-label="000&#10;001&#10;010&#10;011&#10;100&#10;101&#10;110&#10;111&#10;01/81/43/81/25/83/47/8FS"
       sodipodi:nodetypes="scscscscsccscscscccscscscscsccscscscccscscscscsccscscscccscscscscsccscscscccscscscscsccscscscccsccccssccsccsssscscscscsccscscscccsccccssccsccsssscscscscsccscscscccscscscscsccscscscccsccccssccsccssssccccssccsccssssccccssccsccsssscscscscsccscscscccscscscscsccscscscccsccccssccsccsssscscscscsccscscscccsccccssccsccssssccccssccsccssssccccssccsccsssscscscscsccscscscccsccccssccsccssssccccssccsccssssccccssccsccssscccssssccsccsscsccccscsssccccsscssssccsscccsscssssccssccc" /><g
       id="g91"
       transform="matrix(0.26458333,0,0,0.26458334,90.25639,73.739154)"><path
         d="M 1202,288 H 3414.5"
         style="fill:none;stroke:#e1e1e1;stroke-width:2.5;stroke-linecap:butt;stroke-linejoin:miter;stroke-miterlimit:3.8;stroke-dasharray:none;stroke-opacity:1"
         transform="matrix(0.13334,0,0,-0.133384,0,345.45733)"
         clip-path="url(#clipPath2)"
         id="path47" /><path
         d="m 1202,288 h 31.5 m 2181,0 H 3383"
         style="fill:none;stroke:#000000;stroke-width:2.5;stroke-linecap:butt;stroke-linejoin:miter;stroke-miterlimit:3.8;stroke-dasharray:none;stroke-opacity:1"
         transform="matrix(0.13334,0,0,-0.133384,0,345.45733)"
         clip-path="url(#clipPath3)"
         id="path48" /><path
         d="M 1202,564.5 H 3414.5"
         style="fill:none;stroke:#e1e1e1;stroke-width:2.5;stroke-linecap:butt;stroke-linejoin:miter;stroke-miterlimit:3.8;stroke-dasharray:none;stroke-opacity:1"
         transform="matrix(0.13334,0,0,-0.133384,0,345.45733)"
         clip-path="url(#clipPath4)"
         id="path49" /><path
         d="m 1202,564.5 h 31.5 m 2181,0 H 3383"
         style="fill:none;stroke:#000000;stroke-width:2.5;stroke-linecap:butt;stroke-linejoin:miter;stroke-miterlimit:3.8;stroke-dasharray:none;stroke-opacity:1"
         transform="matrix(0.13334,0,0,-0.133384,0,345.45733)"
         clip-path="url(#clipPath5)"
         id="path50" /><path
         d="M 1202,841 H 3414.5"
         style="fill:none;stroke:#e1e1e1;stroke-width:2.5;stroke-linecap:butt;stroke-linejoin:miter;stroke-miterlimit:3.8;stroke-dasharray:none;stroke-opacity:1"
         transform="matrix(0.13334,0,0,-0.133384,0,345.45733)"
         clip-path="url(#clipPath6)"
         id="path51" /><path
         d="m 1202,841 h 31.5 m 2181,0 H 3383"
         style="fill:none;stroke:#000000;stroke-width:2.5;stroke-linecap:butt;stroke-linejoin:miter;stroke-miterlimit:3.8;stroke-dasharray:none;stroke-opacity:1"
         transform="matrix(0.13334,0,0,-0.133384,0,345.45733)"
         clip-path="url(#clipPath7)"
         id="path52" /><path
         d="M 1202,1117.5 H 3414.5"
         style="fill:none;stroke:#e1e1e1;stroke-width:2.5;stroke-linecap:butt;stroke-linejoin:miter;stroke-miterlimit:3.8;stroke-dasharray:none;stroke-opacity:1"
         transform="matrix(0.13334,0,0,-0.133384,0,345.45733)"
         clip-path="url(#clipPath8)"
         id="path53" /><path
         d="m 1202,1117.5 h 31.5 m 2181,0 H 3383"
         style="fill:none;stroke:#000000;stroke-width:2.5;stroke-linecap:butt;stroke-linejoin:miter;stroke-miterlimit:3.8;stroke-dasharray:none;stroke-opacity:1"
         transform="matrix(0.13334,0,0,-0.133384,0,345.45733)"
         clip-path="url(#clipPath9)"
         id="path54" /><path
         d="M 1202,1394.5 H 3414.5"
         style="fill:none;stroke:#e1e1e1;stroke-width:2.5;stroke-linecap:butt;stroke-linejoin:miter;stroke-miterlimit:3.8;stroke-dasharray:none;stroke-opacity:1"
         transform="matrix(0.13334,0,0,-0.133384,0,345.45733)"
         clip-path="url(#clipPath10)"
         id="path55" /><path
         d="m 1202,1394.5 h 31.5 m 2181,0 H 3383"
         style="fill:none;stroke:#000000;stroke-width:2.5;stroke-linecap:butt;stroke-linejoin:miter;stroke-miterlimit:3.8;stroke-dasharray:none;stroke-opacity:1"
         transform="matrix(0.13334,0,0,-0.133384,0,345.45733)"
         clip-path="url(#clipPath11)"
         id="path56" /><path
         d="M 1202,1671 H 3414.5"
         style="fill:none;stroke:#e1e1e1;stroke-width:2.5;stroke-linecap:butt;stroke-linejoin:miter;stroke-miterlimit:3.8;stroke-dasharray:none;stroke-opacity:1"
         transform="matrix(0.13334,0,0,-0.133384,0,345.45733)"
         clip-path="url(#clipPath12)"
         id="path57" /><path
         d="m 1202,1671 h 31.5 m 2181,0 H 3383"
         style="fill:none;stroke:#000000;stroke-width:2.5;stroke-linecap:butt;stroke-linejoin:miter;stroke-miterlimit:3.8;stroke-dasharray:none;stroke-opacity:1"
         transform="matrix(0.13334,0,0,-0.133384,0,345.45733)"
         clip-path="url(#clipPath13)"
         id="path58" /><path
         d="M 1202,1947.5 H 3414.5"
         style="fill:none;stroke:#e1e1e1;stroke-width:2.5;stroke-linecap:butt;stroke-linejoin:miter;stroke-miterlimit:3.8;stroke-dasharray:none;stroke-opacity:1"
         transform="matrix(0.13334,0,0,-0.133384,0,345.45733)"
         clip-path="url(#clipPath14)"
         id="path59" /><path
         d="m 1202,1947.5 h 31.5 m 2181,0 H 3383"
         style="fill:none;stroke:#000000;stroke-width:2.5;stroke-linecap:butt;stroke-linejoin:miter;stroke-miterlimit:3.8;stroke-dasharray:none;stroke-opacity:1"
         transform="matrix(0.13334,0,0,-0.133384,0,345.45733)"
         clip-path="url(#clipPath15)"
         id="path60" /><path
         d="M 1202,2224 H 3414.5"
         style="fill:none;stroke:#e1e1e1;stroke-width:2.5;stroke-linecap:butt;stroke-linejoin:miter;stroke-miterlimit:3.8;stroke-dasharray:none;stroke-opacity:1"
         transform="matrix(0.13334,0,0,-0.133384,0,345.45733)"
         clip-path="url(#clipPath16)"
         id="path61" /><path
         d="m 1202,2224 h 31.5 m 2181,0 H 3383"
         style="fill:none;stroke:#000000;stroke-width:2.5;stroke-linecap:butt;stroke-linejoin:miter;stroke-miterlimit:3.8;stroke-dasharray:none;stroke-opacity:1"
         transform="matrix(0.13334,0,0,-0.133384,0,345.45733)"
         clip-path="url(#clipPath17)"
         id="path62" /><path
         d="M 1202,288 V 2500.5"
         style="fill:none;stroke:#e1e1e1;stroke-width:2.5;stroke-linecap:butt;stroke-linejoin:miter;stroke-miterlimit:3.8;stroke-dasharray:none;stroke-opacity:1"
         transform="matrix(0.13334,0,0,-0.133384,0,345.45733)"
         clip-path="url(#clipPath18)"
         id="path63" /><path
         d="m 1202,288 v 31.5 m 0,2181 V 2469"
         style="fill:none;stroke:#000000;stroke-width:2.5;stroke-linecap:butt;stroke-linejoin:miter;stroke-miterlimit:3.8;stroke-dasharray:none;stroke-opacity:1"
         transform="matrix(0.13334,0,0,-0.133384,0,345.45733)"
         clip-path="url(#clipPath19)"
         id="path64" /><path
         d="M 1478.5,288 V 2500.5"
         style="fill:none;stroke:#e1e1e1;stroke-width:2.5;stroke-linecap:butt;stroke-linejoin:miter;stroke-miterlimit:3.8;stroke-dasharray:none;stroke-opacity:1"
         transform="matrix(0.13334,0,0,-0.133384,0,345.45733)"
         clip-path="url(#clipPath20)"
         id="path65" /><path
         d="m 1478.5,288 v 31.5 m 0,2181 V 2469"
         style="fill:none;stroke:#000000;stroke-width:2.5;stroke-linecap:butt;stroke-linejoin:miter;stroke-miterlimit:3.8;stroke-dasharray:none;stroke-opacity:1"
         transform="matrix(0.13334,0,0,-0.133384,0,345.45733)"
         clip-path="url(#clipPath21)"
         id="path66" /><path
         d="M 1755,288 V 2500.5"
         style="fill:none;stroke:#e1e1e1;stroke-width:2.5;stroke-linecap:butt;stroke-linejoin:miter;stroke-miterlimit:3.8;stroke-dasharray:none;stroke-opacity:1"
         transform="matrix(0.13334,0,0,-0.133384,0,345.45733)"
         clip-path="url(#clipPath22)"
         id="path67" /><path
         d="m 1755,288 v 31.5 m 0,2181 V 2469"
         style="fill:none;stroke:#000000;stroke-width:2.5;stroke-linecap:butt;stroke-linejoin:miter;stroke-miterlimit:3.8;stroke-dasharray:none;stroke-opacity:1"
         transform="matrix(0.13334,0,0,-0.133384,0,345.45733)"
         clip-path="url(#clipPath23)"
         id="path68" /><path
         d="M 2031.5,288 V 2500.5"
         style="fill:none;stroke:#e1e1e1;stroke-width:2.5;stroke-linecap:butt;stroke-linejoin:miter;stroke-miterlimit:3.8;stroke-dasharray:none;stroke-opacity:1"
         transform="matrix(0.13334,0,0,-0.133384,0,345.45733)"
         clip-path="url(#clipPath24)"
         id="path69" /><path
         d="m 2031.5,288 v 31.5 m 0,2181 V 2469"
         style="fill:none;stroke:#000000;stroke-width:2.5;stroke-linecap:butt;stroke-linejoin:miter;stroke-miterlimit:3.8;stroke-dasharray:none;stroke-opacity:1"
         transform="matrix(0.13334,0,0,-0.133384,0,345.45733)"
         clip-path="url(#clipPath25)"
         id="path70" /><path
         d="M 2308.5,288 V 2500.5"
         style="fill:none;stroke:#e1e1e1;stroke-width:2.5;stroke-linecap:butt;stroke-linejoin:miter;stroke-miterlimit:3.8;stroke-dasharray:none;stroke-opacity:1"
         transform="matrix(0.13334,0,0,-0.133384,0,345.45733)"
         clip-path="url(#clipPath26)"
         id="path71" /><path
         d="m 2308.5,288 v 31.5 m 0,2181 V 2469"
         style="fill:none;stroke:#000000;stroke-width:2.5;stroke-linecap:butt;stroke-linejoin:miter;stroke-miterlimit:3.8;stroke-dasharray:none;stroke-opacity:1"
         transform="matrix(0.13334,0,0,-0.133384,0,345.45733)"
         clip-path="url(#clipPath27)"
         id="path72" /><path
         d="M 2585,288 V 2500.5"
         style="fill:none;stroke:#e1e1e1;stroke-width:2.5;stroke-linecap:butt;stroke-linejoin:miter;stroke-miterlimit:3.8;stroke-dasharray:none;stroke-opacity:1"
         transform="matrix(0.13334,0,0,-0.133384,0,345.45733)"
         clip-path="url(#clipPath28)"
         id="path73" /><path
         d="m 2585,288 v 31.5 m 0,2181 V 2469"
         style="fill:none;stroke:#000000;stroke-width:2.5;stroke-linecap:butt;stroke-linejoin:miter;stroke-miterlimit:3.8;stroke-dasharray:none;stroke-opacity:1"
         transform="matrix(0.13334,0,0,-0.133384,0,345.45733)"
         clip-path="url(#clipPath29)"
         id="path74" /><path
         d="M 2861.5,288 V 2500.5"
         style="fill:none;stroke:#e1e1e1;stroke-width:2.5;stroke-linecap:butt;stroke-linejoin:miter;stroke-miterlimit:3.8;stroke-dasharray:none;stroke-opacity:1"
         transform="matrix(0.13334,0,0,-0.133384,0,345.45733)"
         clip-path="url(#clipPath30)"
         id="path75" /><path
         d="m 2861.5,288 v 31.5 m 0,2181 V 2469"
         style="fill:none;stroke:#000000;stroke-width:2.5;stroke-linecap:butt;stroke-linejoin:miter;stroke-miterlimit:3.8;stroke-dasharray:none;stroke-opacity:1"
         transform="matrix(0.13334,0,0,-0.133384,0,345.45733)"
         clip-path="url(#clipPath31)"
         id="path76" /><path
         d="M 3138,288 V 2500.5"
         style="fill:none;stroke:#e1e1e1;stroke-width:2.5;stroke-linecap:butt;stroke-linejoin:miter;stroke-miterlimit:3.8;stroke-dasharray:none;stroke-opacity:1"
         transform="matrix(0.13334,0,0,-0.133384,0,345.45733)"
         clip-path="url(#clipPath32)"
         id="path77" /><path
         d="m 3138,288 v 31.5 m 0,2181 V 2469"
         style="fill:none;stroke:#000000;stroke-width:2.5;stroke-linecap:butt;stroke-linejoin:miter;stroke-miterlimit:3.8;stroke-dasharray:none;stroke-opacity:1"
         transform="matrix(0.13334,0,0,-0.133384,0,345.45733)"
         clip-path="url(#clipPath33)"
         id="path78" /><path
         d="M 3414.5,288 V 2500.5"
         style="fill:none;stroke:#e1e1e1;stroke-width:2.5;stroke-linecap:butt;stroke-linejoin:miter;stroke-miterlimit:3.8;stroke-dasharray:none;stroke-opacity:1"
         transform="matrix(0.13334,0,0,-0.133384,0,345.45733)"
         clip-path="url(#clipPath34)"
         id="path79" /><path
         d="m 3414.5,288 v 31.5 m 0,2181 V 2469"
         style="fill:none;stroke:#000000;stroke-width:2.5;stroke-linecap:butt;stroke-linejoin:miter;stroke-miterlimit:3.8;stroke-dasharray:none;stroke-opacity:1"
         transform="matrix(0.13334,0,0,-0.133384,0,345.45733)"
         clip-path="url(#clipPath35)"
         id="path80" /><path
         d="M 1202,2500.5 V 288 h 2212.5 v 2212.5 z"
         style="fill:none;stroke:#000000;stroke-width:2.5;stroke-linecap:butt;stroke-linejoin:miter;stroke-miterlimit:3.8;stroke-dasharray:none;stroke-opacity:1"
         transform="matrix(0.13334,0,0,-0.133384,0,345.45733)"
         clip-path="url(#clipPath36)"
         id="path81" /><path
         d="m 1202,288 276.5,276.5 276.5,276.5 276.5,276.5 277,277 276.5,276.5 276.5,276.5 276.5,276.5"
         style="fill:none;stroke:#000000;stroke-width:5;stroke-linecap:butt;stroke-linejoin:miter;stroke-miterlimit:3.8;stroke-dasharray:none;stroke-opacity:1"
         transform="matrix(0.13334,0,0,-0.133384,0,345.45733)"
         clip-path="url(#clipPath37)"
         id="path82" /><path
         d="M 1202,2500.5 V 288 h 2212.5 v 2212.5 z"
         style="fill:none;stroke:#000000;stroke-width:2.5;stroke-linecap:butt;stroke-linejoin:miter;stroke-miterlimit:3.8;stroke-dasharray:none;stroke-opacity:1"
         transform="matrix(0.13334,0,0,-0.133384,0,345.45733)"
         clip-path="url(#clipPath46)"
         id="path91" /></g><text
       xml:space="preserve"
       style="font-size:3.175px;line-height:1.15;font-family:'CMU Serif';-inkscape-font-specification:'CMU Serif';text-align:center;letter-spacing:0px;word-spacing:0px;text-anchor:middle;fill:#ffffff;fill-rule:evenodd;stroke:#ffffff;stroke-width:0.282001"
       x="193.08145"
       y="116.85366"
       id="text92-6"><tspan
         sodipodi:role="line"
         style="font-size:3.175px;fill:#000000;stroke:none;stroke-width:0.282"
         x="193.08145"
         y="116.85366"
         id="tspan93-1">Missing code</tspan></text><path
       style="fill:#000000;fill-rule:evenodd;stroke:#000000;stroke-width:0.282001;stroke-dasharray:0.846003, 0.846003"
       d="m 147.29459,144.97755 v -9.75802"
       id="path95" /><path
       style="fill:#000000;fill-rule:evenodd;stroke:#000000;stroke-width:0.282001;stroke-dasharray:none"
       d="M 137.02714,145.09855 H 147.2962"
       id="path96" /><path
       style="fill:#000000;fill-rule:evenodd;stroke:#000000;stroke-width:0.282001;stroke-dasharray:0.846003, 0.846003"
       d="m 137.16814,154.97754 v -9.7139"
       id="path98" /><path
       style="fill:#000000;fill-rule:evenodd;stroke:#000000;stroke-width:0.282001;stroke-dasharray:none"
       d="m 147.29298,135.48427 h 4.83491"
       id="path101" /><path
       style="fill:#000000;fill-rule:evenodd;stroke:#000000;stroke-width:0.282001;stroke-dasharray:0.846003, 0.846003"
       d="m 173.80417,125.58251 v -9.75802"
       id="path102" /><path
       style="fill:#000000;fill-rule:evenodd;stroke:#000000;stroke-width:0.282001;stroke-dasharray:none"
       d="m 152.17198,125.70351 h 21.73221"
       id="path103" /><path
       style="fill:#000000;fill-rule:evenodd;stroke:#000000;stroke-width:0.282001;stroke-dasharray:0.846003, 0.846003"
       d="m 152.04938,135.58251 v -9.75802"
       id="path104" /><path
       style="fill:#000000;fill-rule:evenodd;stroke:#000000;stroke-width:0.282001;stroke-dasharray:0.846003, 0.846003"
       d="M 186.3314,106.04884 V 96.290823"
       id="path107" /><path
       style="fill:#000000;fill-rule:evenodd;stroke:#000000;stroke-width:0.282001;stroke-dasharray:none"
       d="m 173.80417,106.16984 h 12.52884"
       id="path108" /><path
       style="fill:#000000;fill-rule:evenodd;stroke:#000000;stroke-width:0.282001;stroke-dasharray:0.846003, 0.846003"
       d="m 173.80417,116.04884 v -9.75802"
       id="path109" /><path
       style="fill:#000000;fill-rule:evenodd;stroke:#000000;stroke-width:0.282001;stroke-dasharray:none"
       d="m 186.32979,96.555562 h 9.75801"
       id="path110" /><path
       style="fill:#000000;fill-rule:evenodd;stroke:#000000;stroke-width:0.282001;stroke-dasharray:none"
       d="m 196.08458,86.653814 h 9.75801"
       id="path112" /><path
       style="fill:#000000;fill-rule:evenodd;stroke:#000000;stroke-width:0.282001;stroke-dasharray:0.846003, 0.846003"
       d="M 196.08619,96.653797 V 86.895783"
       id="path113" /><path
       id="path1-1"
       d="m 22.11878,155.36185 c 0,-0.21084 -0.008,-0.48369 -0.11989,-0.71933 -0.14056,-0.29766 -0.38034,-0.37208 -0.56224,-0.37208 -0.19017,0 -0.42995,0.0744 -0.57051,0.37621 -0.10335,0.21911 -0.11575,0.47542 -0.11575,0.7152 0,0.20671 0.004,0.51263 0.14056,0.76481 0.14882,0.26872 0.39687,0.31833 0.54156,0.31833 0.20671,0 0.43822,-0.0909 0.57051,-0.38034 0.0951,-0.21084 0.11576,-0.45062 0.11576,-0.7028 z m -0.68213,1.00459 c -0.0951,0 -0.32246,-0.0455 -0.38448,-0.40101 -0.0331,-0.19017 -0.0331,-0.45888 -0.0331,-0.64078 0,-0.21498 0,-0.46303 0.0413,-0.64079 0.062,-0.28112 0.26459,-0.33487 0.37207,-0.33487 0.11989,0 0.31833,0.062 0.38034,0.35554 0.0331,0.17363 0.0331,0.42168 0.0331,0.62012 0,0.1943 0,0.46302 -0.0331,0.64905 -0.0661,0.35967 -0.29765,0.39274 -0.3762,0.39274 z m -1.2237,-80.191485 h -1.77354 v 0.09922 h 0.0744 c 0.24391,0 0.24805,0.03305 0.24805,0.148828 v 1.653646 c 0,0.115756 -0.004,0.148828 -0.24805,0.148828 h -0.0744 v 0.09922 c 0.14056,-0.0083 0.339,-0.0083 0.4837,-0.0083 0.12815,0 0.41341,0 0.52503,0.0083 v -0.09922 h -0.0992 c -0.28939,0 -0.30179,-0.03721 -0.30179,-0.15296 V 77.2953 h 0.28525 c 0.30593,0 0.339,0.103355 0.339,0.372071 h 0.0909 v -0.839227 h -0.0909 c 0,0.268719 -0.0331,0.372073 -0.339,0.372073 H 19.04715 V 76.40233 c 0,-0.107485 0.004,-0.128157 0.15296,-0.128157 h 0.40101 c 0.48369,0 0.56224,0.173633 0.61185,0.611849 h 0.0909 z m 0.94775,0.826823 c -0.25632,-0.06201 -0.33487,-0.264584 -0.33487,-0.405146 0,-0.210836 0.1695,-0.413409 0.43409,-0.413409 0.40927,0 0.57464,0.305924 0.61598,0.62425 0.0124,0.05788 0.0124,0.07442 0.0537,0.07442 0.0413,0 0.0413,-0.02066 0.0413,-0.08682 v -0.611846 c 0,-0.06201 0,-0.08682 -0.0372,-0.08682 -0.0207,0 -0.0248,0 -0.0455,0.04134 -0.0413,0.05374 -0.0124,0.01241 -0.11575,0.177769 -0.0538,-0.06201 -0.21911,-0.219107 -0.51677,-0.219107 -0.36794,0 -0.63252,0.285252 -0.63252,0.607713 0,0.248047 0.14883,0.401008 0.16123,0.417547 0.1447,0.136422 0.20257,0.152961 0.57878,0.239776 0.25631,0.06201 0.28112,0.07028 0.38861,0.177768 0,0 0.10748,0.119888 0.10748,0.305925 0,0.214974 -0.15296,0.450617 -0.44235,0.450617 -0.24391,0 -0.68213,-0.09922 -0.70693,-0.62425 -0.004,-0.04548 -0.004,-0.06615 -0.0455,-0.06615 -0.0413,0 -0.0413,0.02479 -0.0413,0.09095 v 0.607716 c 0,0.06615 0,0.09095 0.0372,0.09095 0.0207,0 0.0248,-0.0041 0.0455,-0.04134 0.0413,-0.05788 0.0124,-0.01654 0.11576,-0.181899 0.1943,0.190167 0.44648,0.22324 0.59945,0.22324 0.38447,0 0.64078,-0.318326 0.64078,-0.657323 0,-0.177768 -0.0661,-0.318326 -0.14056,-0.413414 -0.13642,-0.17363 -0.27698,-0.206703 -0.48369,-0.256313 z m 2.05052,81.534042 c 0,-0.21084 -0.008,-0.48369 -0.11989,-0.71934 -0.14056,-0.29765 -0.38034,-0.37207 -0.56224,-0.37207 -0.19017,0 -0.42995,0.0744 -0.57051,0.37621 -0.10335,0.21911 -0.11575,0.47542 -0.11575,0.7152 0,0.20671 0.004,0.51263 0.14056,0.76481 0.14882,0.26872 0.39687,0.31833 0.54156,0.31833 0.20671,0 0.43822,-0.0909 0.57051,-0.38034 0.0951,-0.21084 0.11576,-0.45062 0.11576,-0.7028 z m -0.68213,1.00459 c -0.0951,0 -0.32246,-0.0455 -0.38447,-0.40101 -0.0331,-0.19017 -0.0331,-0.45889 -0.0331,-0.64079 0,-0.21497 0,-0.46302 0.0413,-0.64079 0.062,-0.28112 0.26459,-0.33486 0.37207,-0.33486 0.11989,0 0.31833,0.062 0.38034,0.35553 0.0331,0.17364 0.0331,0.42168 0.0331,0.62012 0,0.19431 0,0.46302 -0.0331,0.64906 -0.0661,0.35966 -0.29765,0.39274 -0.3762,0.39274 z m 2.30787,-1.00459 c 0,-0.21084 -0.008,-0.48369 -0.11989,-0.71934 -0.14056,-0.29765 -0.38034,-0.37207 -0.56224,-0.37207 -0.19017,0 -0.42995,0.0744 -0.57051,0.37621 -0.10335,0.21911 -0.11575,0.47542 -0.11575,0.7152 0,0.20671 0.004,0.51263 0.14056,0.76481 0.14882,0.26872 0.39687,0.31833 0.54156,0.31833 0.20671,0 0.43822,-0.0909 0.57051,-0.38034 0.0951,-0.21084 0.11576,-0.45062 0.11576,-0.7028 z m -0.68213,1.00459 c -0.0951,0 -0.32246,-0.0455 -0.38447,-0.40101 -0.0331,-0.19017 -0.0331,-0.45889 -0.0331,-0.64079 0,-0.21497 0,-0.46302 0.0413,-0.64079 0.062,-0.28112 0.26459,-0.33486 0.37207,-0.33486 0.11989,0 0.31833,0.062 0.38034,0.35553 0.0331,0.17364 0.0331,0.42168 0.0331,0.62012 0,0.19431 0,0.46302 -0.0331,0.64906 -0.0661,0.35966 -0.29765,0.39274 -0.3762,0.39274 z m 2.30787,-1.00459 c 0,-0.21084 -0.008,-0.48369 -0.11989,-0.71934 -0.14056,-0.29765 -0.38034,-0.37207 -0.56224,-0.37207 -0.19017,0 -0.42995,0.0744 -0.57051,0.37621 -0.10335,0.21911 -0.11575,0.47542 -0.11575,0.7152 0,0.20671 0.004,0.51263 0.14056,0.76481 0.14883,0.26872 0.39687,0.31833 0.54156,0.31833 0.20671,0 0.43822,-0.0909 0.57051,-0.38034 0.0951,-0.21084 0.11576,-0.45062 0.11576,-0.7028 z m -0.68213,1.00459 c -0.0951,0 -0.32246,-0.0455 -0.38447,-0.40101 -0.0331,-0.19017 -0.0331,-0.45889 -0.0331,-0.64079 0,-0.21497 0,-0.46302 0.0413,-0.64079 0.062,-0.28112 0.26459,-0.33486 0.37207,-0.33486 0.1199,0 0.31833,0.062 0.38034,0.35553 0.0331,0.17364 0.0331,0.42168 0.0331,0.62012 0,0.19431 0,0.46302 -0.0331,0.64906 -0.0661,0.35966 -0.29765,0.39274 -0.3762,0.39274 z m 7.18509,-1.00459 c 0,-0.21084 -0.008,-0.48369 -0.11989,-0.71934 -0.14056,-0.29765 -0.38034,-0.37207 -0.56224,-0.37207 -0.19017,0 -0.42995,0.0744 -0.57051,0.37621 -0.10335,0.21911 -0.11575,0.47542 -0.11575,0.7152 0,0.20671 0.004,0.51263 0.14056,0.76481 0.14883,0.26872 0.39687,0.31833 0.54157,0.31833 0.2067,0 0.43821,-0.0909 0.57051,-0.38034 0.0951,-0.21084 0.11575,-0.45062 0.11575,-0.7028 z m -0.68213,1.00459 c -0.0951,0 -0.32246,-0.0455 -0.38447,-0.40101 -0.0331,-0.19017 -0.0331,-0.45889 -0.0331,-0.64079 0,-0.21497 0,-0.46302 0.0413,-0.64079 0.062,-0.28112 0.26458,-0.33486 0.37207,-0.33486 0.11989,0 0.31832,0.062 0.38034,0.35553 0.0331,0.17364 0.0331,0.42168 0.0331,0.62012 0,0.19431 0,0.46302 -0.0331,0.64906 -0.0661,0.35966 -0.29766,0.39274 -0.37621,0.39274 z m 2.30787,-1.00459 c 0,-0.21084 -0.008,-0.48369 -0.11989,-0.71934 -0.14056,-0.29765 -0.38034,-0.37207 -0.56224,-0.37207 -0.19017,0 -0.42995,0.0744 -0.57051,0.37621 -0.10335,0.21911 -0.11575,0.47542 -0.11575,0.7152 0,0.20671 0.004,0.51263 0.14056,0.76481 0.14883,0.26872 0.39687,0.31833 0.54157,0.31833 0.2067,0 0.43821,-0.0909 0.57051,-0.38034 0.0951,-0.21084 0.11575,-0.45062 0.11575,-0.7028 z m -0.68213,1.00459 c -0.0951,0 -0.32246,-0.0455 -0.38447,-0.40101 -0.0331,-0.19017 -0.0331,-0.45889 -0.0331,-0.64079 0,-0.21497 0,-0.46302 0.0413,-0.64079 0.062,-0.28112 0.26458,-0.33486 0.37207,-0.33486 0.11989,0 0.31832,0.062 0.38034,0.35553 0.0331,0.17364 0.0331,0.42168 0.0331,0.62012 0,0.19431 0,0.46302 -0.0331,0.64906 -0.0661,0.35966 -0.29766,0.39274 -0.37621,0.39274 z m 1.77354,-2.01331 c 0,-0.0785 -0.004,-0.0827 -0.0827,-0.0827 -0.19844,0.19844 -0.48783,0.19844 -0.58705,0.19844 v 0.0992 c 0.062,0 0.25218,0 0.42581,-0.0827 v 1.63711 c 0,0.11575 -0.0124,0.15296 -0.30592,0.15296 h -0.0992 v 0.0992 c 0.11162,-0.008 0.39274,-0.008 0.52503,-0.008 0.12816,0 0.41342,0 0.52504,0.008 v -0.0992 h -0.0992 c -0.29352,0 -0.30179,-0.0372 -0.30179,-0.15296 z m 7.03626,1.00872 c 0,-0.21084 -0.008,-0.48369 -0.11989,-0.71934 -0.14056,-0.29765 -0.38034,-0.37207 -0.56224,-0.37207 -0.19017,0 -0.42995,0.0744 -0.57051,0.37621 -0.10335,0.21911 -0.11575,0.47542 -0.11575,0.7152 0,0.20671 0.004,0.51263 0.14056,0.76481 0.14883,0.26872 0.39687,0.31833 0.54157,0.31833 0.2067,0 0.43821,-0.0909 0.57051,-0.38034 0.0951,-0.21084 0.11575,-0.45062 0.11575,-0.7028 z m -0.68213,1.00459 c -0.0951,0 -0.32246,-0.0455 -0.38447,-0.40101 -0.0331,-0.19017 -0.0331,-0.45889 -0.0331,-0.64079 0,-0.21497 0,-0.46302 0.0413,-0.64079 0.062,-0.28112 0.26458,-0.33486 0.37207,-0.33486 0.11989,0 0.31832,0.062 0.38034,0.35553 0.0331,0.17364 0.0331,0.42168 0.0331,0.62012 0,0.19431 0,0.46302 -0.0331,0.64906 -0.0661,0.35966 -0.29766,0.39274 -0.37621,0.39274 z m 1.77457,-2.01331 c 0,-0.0785 -0.004,-0.0827 -0.0827,-0.0827 -0.19844,0.19844 -0.48783,0.19844 -0.58705,0.19844 v 0.0992 c 0.062,0 0.25218,0 0.42582,-0.0827 v 1.63711 c 0,0.11575 -0.0124,0.15296 -0.30593,0.15296 h -0.0992 v 0.0992 c 0.11162,-0.008 0.39274,-0.008 0.52504,-0.008 0.12815,0 0.41341,0 0.52503,0.008 v -0.0992 h -0.0992 c -0.29352,0 -0.30179,-0.0372 -0.30179,-0.15296 z m 2.15904,1.00872 c 0,-0.21084 -0.008,-0.48369 -0.11989,-0.71934 -0.14056,-0.29765 -0.38034,-0.37207 -0.56224,-0.37207 -0.19017,0 -0.42995,0.0744 -0.57051,0.37621 -0.10335,0.21911 -0.11575,0.47542 -0.11575,0.7152 0,0.20671 0.004,0.51263 0.14056,0.76481 0.14883,0.26872 0.39687,0.31833 0.54157,0.31833 0.2067,0 0.43821,-0.0909 0.57051,-0.38034 0.0951,-0.21084 0.11575,-0.45062 0.11575,-0.7028 z m -0.68213,1.00459 c -0.0951,0 -0.32246,-0.0455 -0.38447,-0.40101 -0.0331,-0.19017 -0.0331,-0.45889 -0.0331,-0.64079 0,-0.21497 0,-0.46302 0.0413,-0.64079 0.062,-0.28112 0.26458,-0.33486 0.37207,-0.33486 0.11989,0 0.31832,0.062 0.38034,0.35553 0.0331,0.17364 0.0331,0.42168 0.0331,0.62012 0,0.19431 0,0.46302 -0.0331,0.64906 -0.0661,0.35966 -0.29766,0.39274 -0.37621,0.39274 z m 7.18509,-1.00459 c 0,-0.21084 -0.008,-0.48369 -0.11989,-0.71934 -0.14056,-0.29765 -0.38033,-0.37207 -0.56224,-0.37207 -0.19017,0 -0.42994,0.0744 -0.5705,0.37621 -0.10336,0.21911 -0.11576,0.47542 -0.11576,0.7152 0,0.20671 0.004,0.51263 0.14056,0.76481 0.14883,0.26872 0.39688,0.31833 0.54157,0.31833 0.2067,0 0.43821,-0.0909 0.57051,-0.38034 0.0951,-0.21084 0.11575,-0.45062 0.11575,-0.7028 z m -0.68213,1.00459 c -0.0951,0 -0.32246,-0.0455 -0.38447,-0.40101 -0.0331,-0.19017 -0.0331,-0.45889 -0.0331,-0.64079 0,-0.21497 0,-0.46302 0.0413,-0.64079 0.062,-0.28112 0.26458,-0.33486 0.37207,-0.33486 0.11989,0 0.31833,0.062 0.38034,0.35553 0.0331,0.17364 0.0331,0.42168 0.0331,0.62012 0,0.19431 0,0.46302 -0.0331,0.64906 -0.0661,0.35966 -0.29766,0.39274 -0.37621,0.39274 z m 1.77457,-2.01331 c 0,-0.0785 -0.004,-0.0827 -0.0827,-0.0827 -0.19844,0.19844 -0.48783,0.19844 -0.58704,0.19844 v 0.0992 c 0.062,0 0.25218,0 0.42581,-0.0827 v 1.63711 c 0,0.11575 -0.0124,0.15296 -0.30593,0.15296 h -0.0992 v 0.0992 c 0.11162,-0.008 0.39274,-0.008 0.52503,-0.008 0.12816,0 0.41341,0 0.52503,0.008 v -0.0992 h -0.0992 c -0.29352,0 -0.30179,-0.0372 -0.30179,-0.15296 z m 1.62574,0 c 0,-0.0785 -0.004,-0.0827 -0.0827,-0.0827 -0.19844,0.19844 -0.48783,0.19844 -0.58704,0.19844 v 0.0992 c 0.062,0 0.25218,0 0.42581,-0.0827 v 1.63711 c 0,0.11575 -0.0124,0.15296 -0.30592,0.15296 h -0.0992 v 0.0992 c 0.11162,-0.008 0.39274,-0.008 0.52503,-0.008 0.12816,0 0.41341,0 0.52503,0.008 v -0.0992 h -0.0992 c -0.29352,0 -0.30179,-0.0372 -0.30179,-0.15296 z m 6.51847,0 c 0,-0.0785 -0.004,-0.0827 -0.0827,-0.0827 -0.19844,0.19844 -0.48783,0.19844 -0.58705,0.19844 v 0.0992 c 0.062,0 0.25218,0 0.42581,-0.0827 v 1.63711 c 0,0.11575 -0.0124,0.15296 -0.30592,0.15296 h -0.0992 v 0.0992 c 0.11162,-0.008 0.39274,-0.008 0.52503,-0.008 0.12816,0 0.41342,0 0.52504,0.008 v -0.0992 h -0.0992 c -0.29353,0 -0.30179,-0.0372 -0.30179,-0.15296 z m 2.15904,1.00872 c 0,-0.21084 -0.008,-0.48369 -0.11989,-0.71934 -0.14056,-0.29765 -0.38034,-0.37207 -0.56224,-0.37207 -0.19017,0 -0.42995,0.0744 -0.57051,0.37621 -0.10335,0.21911 -0.11576,0.47542 -0.11576,0.7152 0,0.20671 0.004,0.51263 0.14056,0.76481 0.14884,0.26872 0.39688,0.31833 0.54157,0.31833 0.20671,0 0.43822,-0.0909 0.57052,-0.38034 0.0951,-0.21084 0.11575,-0.45062 0.11575,-0.7028 z m -0.68213,1.00459 c -0.0951,0 -0.32246,-0.0455 -0.38447,-0.40101 -0.0331,-0.19017 -0.0331,-0.45889 -0.0331,-0.64079 0,-0.21497 0,-0.46302 0.0413,-0.64079 0.062,-0.28112 0.26459,-0.33486 0.37207,-0.33486 0.11989,0 0.31833,0.062 0.38034,0.35553 0.0331,0.17364 0.0331,0.42168 0.0331,0.62012 0,0.19431 0,0.46302 -0.0331,0.64906 -0.0661,0.35966 -0.29766,0.39274 -0.3762,0.39274 z m 2.30787,-1.00459 c 0,-0.21084 -0.008,-0.48369 -0.11989,-0.71934 -0.14056,-0.29765 -0.38034,-0.37207 -0.56224,-0.37207 -0.19017,0 -0.42995,0.0744 -0.57051,0.37621 -0.10335,0.21911 -0.11576,0.47542 -0.11576,0.7152 0,0.20671 0.004,0.51263 0.14057,0.76481 0.14883,0.26872 0.39687,0.31833 0.54157,0.31833 0.2067,0 0.43821,-0.0909 0.5705,-0.38034 0.0951,-0.21084 0.11576,-0.45062 0.11576,-0.7028 z m -0.68213,1.00459 c -0.0951,0 -0.32246,-0.0455 -0.38447,-0.40101 -0.0331,-0.19017 -0.0331,-0.45889 -0.0331,-0.64079 0,-0.21497 0,-0.46302 0.0413,-0.64079 0.062,-0.28112 0.26459,-0.33486 0.37207,-0.33486 0.11989,0 0.31833,0.062 0.38034,0.35553 0.0331,0.17364 0.0331,0.42168 0.0331,0.62012 0,0.19431 0,0.46302 -0.0331,0.64906 -0.0661,0.35966 -0.29765,0.39274 -0.3762,0.39274 z m 6.65179,-2.01331 c 0,-0.0785 -0.004,-0.0827 -0.0827,-0.0827 -0.19844,0.19844 -0.48783,0.19844 -0.58704,0.19844 v 0.0992 c 0.062,0 0.25218,0 0.42581,-0.0827 v 1.63711 c 0,0.11575 -0.0124,0.15296 -0.30593,0.15296 h -0.0992 v 0.0992 c 0.11163,-0.008 0.39274,-0.008 0.52504,-0.008 0.12815,0 0.41341,0 0.52503,0.008 v -0.0992 h -0.0992 c -0.29352,0 -0.30179,-0.0372 -0.30179,-0.15296 z m 2.15904,1.00872 c 0,-0.21084 -0.008,-0.48369 -0.11989,-0.71934 -0.14056,-0.29765 -0.38034,-0.37207 -0.56224,-0.37207 -0.19017,0 -0.42994,0.0744 -0.57051,0.37621 -0.10335,0.21911 -0.11575,0.47542 -0.11575,0.7152 0,0.20671 0.004,0.51263 0.14056,0.76481 0.14883,0.26872 0.39687,0.31833 0.54157,0.31833 0.2067,0 0.43821,-0.0909 0.57051,-0.38034 0.0951,-0.21084 0.11575,-0.45062 0.11575,-0.7028 z m -0.68213,1.00459 c -0.0951,0 -0.32246,-0.0455 -0.38447,-0.40101 -0.0331,-0.19017 -0.0331,-0.45889 -0.0331,-0.64079 0,-0.21497 0,-0.46302 0.0413,-0.64079 0.062,-0.28112 0.26459,-0.33486 0.37208,-0.33486 0.11989,0 0.31832,0.062 0.38033,0.35553 0.0331,0.17364 0.0331,0.42168 0.0331,0.62012 0,0.19431 0,0.46302 -0.0331,0.64906 -0.0661,0.35966 -0.29765,0.39274 -0.3762,0.39274 z m 1.77457,-2.01331 c 0,-0.0785 -0.004,-0.0827 -0.0827,-0.0827 -0.19844,0.19844 -0.48783,0.19844 -0.58705,0.19844 v 0.0992 c 0.062,0 0.25219,0 0.42582,-0.0827 v 1.63711 c 0,0.11575 -0.0124,0.15296 -0.30593,0.15296 h -0.0992 v 0.0992 c 0.11161,-0.008 0.39274,-0.008 0.52503,-0.008 0.12816,0 0.41341,0 0.52503,0.008 v -0.0992 h -0.0992 c -0.29352,0 -0.30179,-0.0372 -0.30179,-0.15296 z m 6.50296,0 c 0,-0.0785 -0.004,-0.0827 -0.0827,-0.0827 -0.19844,0.19844 -0.48782,0.19844 -0.58704,0.19844 v 0.0992 c 0.062,0 0.25218,0 0.42581,-0.0827 v 1.63711 c 0,0.11575 -0.0124,0.15296 -0.30593,0.15296 h -0.0992 v 0.0992 c 0.11162,-0.008 0.39274,-0.008 0.52503,-0.008 0.12816,0 0.41341,0 0.52503,0.008 v -0.0992 h -0.0992 c -0.29352,0 -0.30179,-0.0372 -0.30179,-0.15296 z m 1.62574,0 c 0,-0.0785 -0.004,-0.0827 -0.0827,-0.0827 -0.19844,0.19844 -0.48782,0.19844 -0.58704,0.19844 v 0.0992 c 0.062,0 0.25218,0 0.42581,-0.0827 v 1.63711 c 0,0.11575 -0.0124,0.15296 -0.30592,0.15296 h -0.0992 v 0.0992 c 0.11162,-0.008 0.39274,-0.008 0.52503,-0.008 0.12816,0 0.41341,0 0.52503,0.008 v -0.0992 h -0.0992 c -0.29352,0 -0.30179,-0.0372 -0.30179,-0.15296 z m 2.15801,1.00872 c 0,-0.21084 -0.008,-0.48369 -0.11989,-0.71934 -0.14056,-0.29765 -0.38034,-0.37207 -0.56224,-0.37207 -0.19017,0 -0.42994,0.0744 -0.57051,0.37621 -0.10335,0.21911 -0.11575,0.47542 -0.11575,0.7152 0,0.20671 0.004,0.51263 0.14056,0.76481 0.14883,0.26872 0.39687,0.31833 0.54157,0.31833 0.2067,0 0.43821,-0.0909 0.57051,-0.38034 0.0951,-0.21084 0.11575,-0.45062 0.11575,-0.7028 z m -0.68213,1.00459 c -0.0951,0 -0.32246,-0.0455 -0.38447,-0.40101 -0.0331,-0.19017 -0.0331,-0.45889 -0.0331,-0.64079 0,-0.21497 0,-0.46302 0.0413,-0.64079 0.062,-0.28112 0.26459,-0.33486 0.37208,-0.33486 0.11988,0 0.31832,0.062 0.38033,0.35553 0.0331,0.17364 0.0331,0.42168 0.0331,0.62012 0,0.19431 0,0.46302 -0.0331,0.64906 -0.0661,0.35966 -0.29765,0.39274 -0.3762,0.39274 z m 6.65283,-2.01331 c 0,-0.0785 -0.004,-0.0827 -0.0827,-0.0827 -0.19844,0.19844 -0.48782,0.19844 -0.58704,0.19844 v 0.0992 c 0.062,0 0.25218,0 0.42581,-0.0827 v 1.63711 c 0,0.11575 -0.0124,0.15296 -0.30592,0.15296 h -0.0992 v 0.0992 c 0.11162,-0.008 0.39274,-0.008 0.52503,-0.008 0.12816,0 0.41342,0 0.52503,0.008 v -0.0992 h -0.0992 c -0.29352,0 -0.30178,-0.0372 -0.30178,-0.15296 z m 1.6247,0 c 0,-0.0785 -0.004,-0.0827 -0.0827,-0.0827 -0.19844,0.19844 -0.48782,0.19844 -0.58704,0.19844 v 0.0992 c 0.062,0 0.25218,0 0.42581,-0.0827 v 1.63711 c 0,0.11575 -0.0124,0.15296 -0.30593,0.15296 h -0.0992 v 0.0992 c 0.11162,-0.008 0.39274,-0.008 0.52503,-0.008 0.12816,0 0.41341,0 0.52503,0.008 v -0.0992 h -0.0992 c -0.29352,0 -0.30179,-0.0372 -0.30179,-0.15296 z m 1.62574,0 c 0,-0.0785 -0.004,-0.0827 -0.0827,-0.0827 -0.19844,0.19844 -0.48783,0.19844 -0.58705,0.19844 v 0.0992 c 0.062,0 0.25219,0 0.42582,-0.0827 v 1.63711 c 0,0.11575 -0.0124,0.15296 -0.30592,0.15296 h -0.0992 v 0.0992 c 0.11162,-0.008 0.39274,-0.008 0.52503,-0.008 0.12816,0 0.41341,0 0.52503,0.008 v -0.0992 h -0.0992 c -0.29352,0 -0.30179,-0.0372 -0.30179,-0.15296 z"
       style="fill:#000000;fill-opacity:1;fill-rule:nonzero;stroke:none;stroke-width:0.352777"
       aria-label="0&#10;1/8&#10;1/4&#10;3/8&#10;1/2&#10;5/8&#10;3/4&#10;7/8&#10;FS&#10;000001010011100101110111"
       sodipodi:nodetypes="scscscscsccscscsccccccssssccsccsscsccccscsssccccsscssssccsscccsscssssccsscccscscscscsccscscscccscscscscsccscscscccscscscscsccscscscccscscscscsccscscscccscscscscsccscscscccsccccssccsccsssscscscscsccscscscccsccccssccsccsssscscscscsccscscscccscscscscsccscscscccsccccssccsccssssccccssccsccssssccccssccsccsssscscscscsccscscscccscscscscsccscscscccsccccssccsccsssscscscscsccscscscccsccccssccsccssssccccssccsccssssccccssccsccsssscscscscsccscscscccsccccssccsccssssccccssccsccssssccccssccsccsss" /><path
       d="M 1202,288 H 3414.5"
       style="fill:none;stroke:#e1e1e1;stroke-width:2.5;stroke-linecap:butt;stroke-linejoin:miter;stroke-miterlimit:3.8;stroke-dasharray:none;stroke-opacity:1"
       transform="matrix(0.03527954,0,0,-0.03529118,-18.24982,165.7644)"
       clip-path="url(#clipPath2-3)"
       id="path47-6" /><path
       d="m 1202,288 h 31.5 m 2181,0 H 3383"
       style="fill:none;stroke:#000000;stroke-width:2.5;stroke-linecap:butt;stroke-linejoin:miter;stroke-miterlimit:3.8;stroke-dasharray:none;stroke-opacity:1"
       transform="matrix(0.03527954,0,0,-0.03529118,-18.24982,165.7644)"
       clip-path="url(#clipPath3-6)"
       id="path48-0" /><path
       d="M 1202,564.5 H 3414.5"
       style="fill:none;stroke:#e1e1e1;stroke-width:2.5;stroke-linecap:butt;stroke-linejoin:miter;stroke-miterlimit:3.8;stroke-dasharray:none;stroke-opacity:1"
       transform="matrix(0.03527954,0,0,-0.03529118,-18.24982,165.7644)"
       clip-path="url(#clipPath4-7)"
       id="path49-4" /><path
       d="m 1202,564.5 h 31.5 m 2181,0 H 3383"
       style="fill:none;stroke:#000000;stroke-width:2.5;stroke-linecap:butt;stroke-linejoin:miter;stroke-miterlimit:3.8;stroke-dasharray:none;stroke-opacity:1"
       transform="matrix(0.03527954,0,0,-0.03529118,-18.24982,165.7644)"
       clip-path="url(#clipPath5-0)"
       id="path50-2" /><path
       d="M 1202,841 H 3414.5"
       style="fill:none;stroke:#e1e1e1;stroke-width:2.5;stroke-linecap:butt;stroke-linejoin:miter;stroke-miterlimit:3.8;stroke-dasharray:none;stroke-opacity:1"
       transform="matrix(0.03527954,0,0,-0.03529118,-18.24982,165.7644)"
       clip-path="url(#clipPath6-5)"
       id="path51-7" /><path
       d="m 1202,841 h 31.5 m 2181,0 H 3383"
       style="fill:none;stroke:#000000;stroke-width:2.5;stroke-linecap:butt;stroke-linejoin:miter;stroke-miterlimit:3.8;stroke-dasharray:none;stroke-opacity:1"
       transform="matrix(0.03527954,0,0,-0.03529118,-18.24982,165.7644)"
       clip-path="url(#clipPath7-7)"
       id="path52-2" /><path
       d="M 1202,1117.5 H 3414.5"
       style="fill:none;stroke:#e1e1e1;stroke-width:2.5;stroke-linecap:butt;stroke-linejoin:miter;stroke-miterlimit:3.8;stroke-dasharray:none;stroke-opacity:1"
       transform="matrix(0.03527954,0,0,-0.03529118,-18.24982,165.7644)"
       clip-path="url(#clipPath8-8)"
       id="path53-5" /><path
       d="m 1202,1117.5 h 31.5 m 2181,0 H 3383"
       style="fill:none;stroke:#000000;stroke-width:2.5;stroke-linecap:butt;stroke-linejoin:miter;stroke-miterlimit:3.8;stroke-dasharray:none;stroke-opacity:1"
       transform="matrix(0.03527954,0,0,-0.03529118,-18.24982,165.7644)"
       clip-path="url(#clipPath9-7)"
       id="path54-9" /><path
       d="M 1202,1394.5 H 3414.5"
       style="fill:none;stroke:#e1e1e1;stroke-width:2.5;stroke-linecap:butt;stroke-linejoin:miter;stroke-miterlimit:3.8;stroke-dasharray:none;stroke-opacity:1"
       transform="matrix(0.03527954,0,0,-0.03529118,-18.24982,165.7644)"
       clip-path="url(#clipPath10-5)"
       id="path55-5" /><path
       d="m 1202,1394.5 h 31.5 m 2181,0 H 3383"
       style="fill:none;stroke:#000000;stroke-width:2.5;stroke-linecap:butt;stroke-linejoin:miter;stroke-miterlimit:3.8;stroke-dasharray:none;stroke-opacity:1"
       transform="matrix(0.03527954,0,0,-0.03529118,-18.24982,165.7644)"
       clip-path="url(#clipPath11-7)"
       id="path56-4" /><path
       d="M 1202,1671 H 3414.5"
       style="fill:none;stroke:#e1e1e1;stroke-width:2.5;stroke-linecap:butt;stroke-linejoin:miter;stroke-miterlimit:3.8;stroke-dasharray:none;stroke-opacity:1"
       transform="matrix(0.03527954,0,0,-0.03529118,-18.24982,165.7644)"
       clip-path="url(#clipPath12-3)"
       id="path57-4" /><path
       d="m 1202,1671 h 31.5 m 2181,0 H 3383"
       style="fill:none;stroke:#000000;stroke-width:2.5;stroke-linecap:butt;stroke-linejoin:miter;stroke-miterlimit:3.8;stroke-dasharray:none;stroke-opacity:1"
       transform="matrix(0.03527954,0,0,-0.03529118,-18.24982,165.7644)"
       clip-path="url(#clipPath13-5)"
       id="path58-2" /><path
       d="M 1202,1947.5 H 3414.5"
       style="fill:none;stroke:#e1e1e1;stroke-width:2.5;stroke-linecap:butt;stroke-linejoin:miter;stroke-miterlimit:3.8;stroke-dasharray:none;stroke-opacity:1"
       transform="matrix(0.03527954,0,0,-0.03529118,-18.24982,165.7644)"
       clip-path="url(#clipPath14-7)"
       id="path59-5" /><path
       d="m 1202,1947.5 h 31.5 m 2181,0 H 3383"
       style="fill:none;stroke:#000000;stroke-width:2.5;stroke-linecap:butt;stroke-linejoin:miter;stroke-miterlimit:3.8;stroke-dasharray:none;stroke-opacity:1"
       transform="matrix(0.03527954,0,0,-0.03529118,-18.24982,165.7644)"
       clip-path="url(#clipPath15-7)"
       id="path60-7" /><path
       d="M 1202,2224 H 3414.5"
       style="fill:none;stroke:#e1e1e1;stroke-width:2.5;stroke-linecap:butt;stroke-linejoin:miter;stroke-miterlimit:3.8;stroke-dasharray:none;stroke-opacity:1"
       transform="matrix(0.03527954,0,0,-0.03529118,-18.24982,165.7644)"
       clip-path="url(#clipPath16-6)"
       id="path61-5" /><path
       d="m 1202,2224 h 31.5 m 2181,0 H 3383"
       style="fill:none;stroke:#000000;stroke-width:2.5;stroke-linecap:butt;stroke-linejoin:miter;stroke-miterlimit:3.8;stroke-dasharray:none;stroke-opacity:1"
       transform="matrix(0.03527954,0,0,-0.03529118,-18.24982,165.7644)"
       clip-path="url(#clipPath17-5)"
       id="path62-6" /><path
       d="M 1202,2500.5 H 3414.5"
       style="fill:none;stroke:#e1e1e1;stroke-width:2.5;stroke-linecap:butt;stroke-linejoin:miter;stroke-miterlimit:3.8;stroke-dasharray:none;stroke-opacity:1"
       transform="matrix(0.03527954,0,0,-0.03529118,-18.24982,165.7644)"
       clip-path="url(#clipPath18-8)"
       id="path63-0" /><path
       d="m 1202,2500.5 h 31.5 m 2181,0 H 3383"
       style="fill:none;stroke:#000000;stroke-width:2.5;stroke-linecap:butt;stroke-linejoin:miter;stroke-miterlimit:3.8;stroke-dasharray:none;stroke-opacity:1"
       transform="matrix(0.03527954,0,0,-0.03529118,-18.24982,165.7644)"
       clip-path="url(#clipPath19-0)"
       id="path64-2" /><path
       d="M 1202,288 V 2500.5"
       style="fill:none;stroke:#e1e1e1;stroke-width:2.5;stroke-linecap:butt;stroke-linejoin:miter;stroke-miterlimit:3.8;stroke-dasharray:none;stroke-opacity:1"
       transform="matrix(0.03527954,0,0,-0.03529118,-18.24982,165.7644)"
       clip-path="url(#clipPath20-6)"
       id="path65-3" /><path
       d="m 1202,288 v 31.5 m 0,2181 V 2469"
       style="fill:none;stroke:#000000;stroke-width:2.5;stroke-linecap:butt;stroke-linejoin:miter;stroke-miterlimit:3.8;stroke-dasharray:none;stroke-opacity:1"
       transform="matrix(0.03527954,0,0,-0.03529118,-18.24982,165.7644)"
       clip-path="url(#clipPath21-4)"
       id="path66-1" /><path
       d="M 1478.5,288 V 2500.5"
       style="fill:none;stroke:#e1e1e1;stroke-width:2.5;stroke-linecap:butt;stroke-linejoin:miter;stroke-miterlimit:3.8;stroke-dasharray:none;stroke-opacity:1"
       transform="matrix(0.03527954,0,0,-0.03529118,-18.24982,165.7644)"
       clip-path="url(#clipPath22-9)"
       id="path67-0" /><path
       d="m 1478.5,288 v 31.5 m 0,2181 V 2469"
       style="fill:none;stroke:#000000;stroke-width:2.5;stroke-linecap:butt;stroke-linejoin:miter;stroke-miterlimit:3.8;stroke-dasharray:none;stroke-opacity:1"
       transform="matrix(0.03527954,0,0,-0.03529118,-18.24982,165.7644)"
       clip-path="url(#clipPath23-3)"
       id="path68-5" /><path
       d="M 1755,288 V 2500.5"
       style="fill:none;stroke:#e1e1e1;stroke-width:2.5;stroke-linecap:butt;stroke-linejoin:miter;stroke-miterlimit:3.8;stroke-dasharray:none;stroke-opacity:1"
       transform="matrix(0.03527954,0,0,-0.03529118,-18.24982,165.7644)"
       clip-path="url(#clipPath24-5)"
       id="path69-8" /><path
       d="m 1755,288 v 31.5 m 0,2181 V 2469"
       style="fill:none;stroke:#000000;stroke-width:2.5;stroke-linecap:butt;stroke-linejoin:miter;stroke-miterlimit:3.8;stroke-dasharray:none;stroke-opacity:1"
       transform="matrix(0.03527954,0,0,-0.03529118,-18.24982,165.7644)"
       clip-path="url(#clipPath25-7)"
       id="path70-0" /><path
       d="M 2031.5,288 V 2500.5"
       style="fill:none;stroke:#e1e1e1;stroke-width:2.5;stroke-linecap:butt;stroke-linejoin:miter;stroke-miterlimit:3.8;stroke-dasharray:none;stroke-opacity:1"
       transform="matrix(0.03527954,0,0,-0.03529118,-18.24982,165.7644)"
       clip-path="url(#clipPath26-1)"
       id="path71-5" /><path
       d="m 2031.5,288 v 31.5 m 0,2181 V 2469"
       style="fill:none;stroke:#000000;stroke-width:2.5;stroke-linecap:butt;stroke-linejoin:miter;stroke-miterlimit:3.8;stroke-dasharray:none;stroke-opacity:1"
       transform="matrix(0.03527954,0,0,-0.03529118,-18.24982,165.7644)"
       clip-path="url(#clipPath27-4)"
       id="path72-0" /><path
       d="M 2308.5,288 V 2500.5"
       style="fill:none;stroke:#e1e1e1;stroke-width:2.5;stroke-linecap:butt;stroke-linejoin:miter;stroke-miterlimit:3.8;stroke-dasharray:none;stroke-opacity:1"
       transform="matrix(0.03527954,0,0,-0.03529118,-18.24982,165.7644)"
       clip-path="url(#clipPath28-0)"
       id="path73-6" /><path
       d="m 2308.5,288 v 31.5 m 0,2181 V 2469"
       style="fill:none;stroke:#000000;stroke-width:2.5;stroke-linecap:butt;stroke-linejoin:miter;stroke-miterlimit:3.8;stroke-dasharray:none;stroke-opacity:1"
       transform="matrix(0.03527954,0,0,-0.03529118,-18.24982,165.7644)"
       clip-path="url(#clipPath29-7)"
       id="path74-4" /><path
       d="M 2585,288 V 2500.5"
       style="fill:none;stroke:#e1e1e1;stroke-width:2.5;stroke-linecap:butt;stroke-linejoin:miter;stroke-miterlimit:3.8;stroke-dasharray:none;stroke-opacity:1"
       transform="matrix(0.03527954,0,0,-0.03529118,-18.24982,165.7644)"
       clip-path="url(#clipPath30-2)"
       id="path75-7" /><path
       d="m 2585,288 v 31.5 m 0,2181 V 2469"
       style="fill:none;stroke:#000000;stroke-width:2.5;stroke-linecap:butt;stroke-linejoin:miter;stroke-miterlimit:3.8;stroke-dasharray:none;stroke-opacity:1"
       transform="matrix(0.03527954,0,0,-0.03529118,-18.24982,165.7644)"
       clip-path="url(#clipPath31-7)"
       id="path76-2" /><path
       d="M 2861.5,288 V 2500.5"
       style="fill:none;stroke:#e1e1e1;stroke-width:2.5;stroke-linecap:butt;stroke-linejoin:miter;stroke-miterlimit:3.8;stroke-dasharray:none;stroke-opacity:1"
       transform="matrix(0.03527954,0,0,-0.03529118,-18.24982,165.7644)"
       clip-path="url(#clipPath32-1)"
       id="path77-7" /><path
       d="m 2861.5,288 v 31.5 m 0,2181 V 2469"
       style="fill:none;stroke:#000000;stroke-width:2.5;stroke-linecap:butt;stroke-linejoin:miter;stroke-miterlimit:3.8;stroke-dasharray:none;stroke-opacity:1"
       transform="matrix(0.03527954,0,0,-0.03529118,-18.24982,165.7644)"
       clip-path="url(#clipPath33-2)"
       id="path78-4" /><path
       d="M 3138,288 V 2500.5"
       style="fill:none;stroke:#e1e1e1;stroke-width:2.5;stroke-linecap:butt;stroke-linejoin:miter;stroke-miterlimit:3.8;stroke-dasharray:none;stroke-opacity:1"
       transform="matrix(0.03527954,0,0,-0.03529118,-18.24982,165.7644)"
       clip-path="url(#clipPath34-3)"
       id="path79-6" /><path
       d="m 3138,288 v 31.5 m 0,2181 V 2469"
       style="fill:none;stroke:#000000;stroke-width:2.5;stroke-linecap:butt;stroke-linejoin:miter;stroke-miterlimit:3.8;stroke-dasharray:none;stroke-opacity:1"
       transform="matrix(0.03527954,0,0,-0.03529118,-18.24982,165.7644)"
       clip-path="url(#clipPath35-7)"
       id="path80-3" /><path
       d="M 1202,2500.5 V 288 h 2212.5 v 2212.5 z"
       style="fill:none;stroke:#000000;stroke-width:2.5;stroke-linecap:butt;stroke-linejoin:miter;stroke-miterlimit:3.8;stroke-dasharray:none;stroke-opacity:1"
       transform="matrix(0.03527954,0,0,-0.03529118,-18.24982,165.7644)"
       clip-path="url(#clipPath36-7)"
       id="path81-6" /><path
       d="m 1233.5,288 c 0,17.395 -14.11,31.5 -31.5,31.5 -17.39,0 -31.5,-14.105 -31.5,-31.5 0,-17.395 14.11,-31.5 31.5,-31.5 17.39,0 31.5,14.105 31.5,31.5"
       style="fill:#000000;fill-opacity:1;fill-rule:nonzero;stroke:none"
       transform="matrix(0.03527954,0,0,-0.03529118,-18.24982,165.7644)"
       clip-path="url(#clipPath38-3)"
       id="path83-6" /><path
       d="m 1510,564.5 c 0,17.395 -14.11,31.5 -31.5,31.5 -17.39,0 -31.5,-14.105 -31.5,-31.5 0,-17.395 14.11,-31.5 31.5,-31.5 17.39,0 31.5,14.105 31.5,31.5"
       style="fill:#000000;fill-opacity:1;fill-rule:nonzero;stroke:none"
       transform="matrix(0.03527954,0,0,-0.03529118,-18.24982,165.7644)"
       clip-path="url(#clipPath39-5)"
       id="path84-1" /><path
       d="m 1786.5,841 c 0,17.395 -14.11,31.5 -31.5,31.5 -17.39,0 -31.5,-14.105 -31.5,-31.5 0,-17.395 14.11,-31.5 31.5,-31.5 17.39,0 31.5,14.105 31.5,31.5"
       style="fill:#000000;fill-opacity:1;fill-rule:nonzero;stroke:none"
       transform="matrix(0.03527954,0,0,-0.03529118,-18.24982,160.7644)"
       clip-path="url(#clipPath40-3)"
       id="path85-9" /><path
       d="m 2063,1117.5 c 0,17.39 -14.11,31.5 -31.5,31.5 -17.39,0 -31.5,-14.11 -31.5,-31.5 0,-17.39 14.11,-31.5 31.5,-31.5 17.39,0 31.5,14.11 31.5,31.5"
       style="fill:#000000;fill-opacity:1;fill-rule:nonzero;stroke:none"
       transform="matrix(0.03527954,0,0,-0.03529118,-18.24982,159.7644)"
       clip-path="url(#clipPath41-2)"
       id="path86-6" /><path
       d="m 2340,1394.5 c 0,17.39 -14.11,31.5 -31.5,31.5 -17.39,0 -31.5,-14.11 -31.5,-31.5 0,-17.39 14.11,-31.5 31.5,-31.5 17.39,0 31.5,14.11 31.5,31.5"
       style="fill:#000000;fill-opacity:1;fill-rule:nonzero;stroke:none"
       transform="matrix(0.03527954,0,0,-0.03529118,-18.24982,173.7644)"
       clip-path="url(#clipPath42-7)"
       id="path87-9" /><path
       d="m 2616.5,1671 c 0,17.39 -14.11,31.5 -31.5,31.5 -17.39,0 -31.5,-14.11 -31.5,-31.5 0,-17.39 14.11,-31.5 31.5,-31.5 17.39,0 31.5,14.11 31.5,31.5"
       style="fill:#000000;fill-opacity:1;fill-rule:nonzero;stroke:none"
       transform="matrix(0.03527954,0,0,-0.03529118,-18.24982,172.7644)"
       clip-path="url(#clipPath43-7)"
       id="path88-9" /><path
       d="m 2893,1947.5 c 0,17.39 -14.11,31.5 -31.5,31.5 -17.39,0 -31.5,-14.11 -31.5,-31.5 0,-17.39 14.11,-31.5 31.5,-31.5 17.39,0 31.5,14.11 31.5,31.5"
       style="fill:#000000;fill-opacity:1;fill-rule:nonzero;stroke:none"
       transform="matrix(0.03527954,0,0,-0.03529118,-18.24982,165.7644)"
       clip-path="url(#clipPath44-2)"
       id="path89-9" /><path
       d="m 3169.5,2224 c 0,17.39 -14.11,31.5 -31.5,31.5 -17.39,0 -31.5,-14.11 -31.5,-31.5 0,-17.39 14.11,-31.5 31.5,-31.5 17.39,0 31.5,14.11 31.5,31.5"
       style="fill:#000000;fill-opacity:1;fill-rule:nonzero;stroke:none"
       transform="matrix(0.03527954,0,0,-0.03529118,-18.24982,165.7644)"
       clip-path="url(#clipPath45-5)"
       id="path90-0" /><path
       d="M 1202,2500.5 V 288 h 2212.5 v 2212.5 z"
       style="fill:none;stroke:#000000;stroke-width:2.5;stroke-linecap:butt;stroke-linejoin:miter;stroke-miterlimit:3.8;stroke-dasharray:none;stroke-opacity:1"
       transform="matrix(0.03527954,0,0,-0.03529118,-18.24982,165.7644)"
       clip-path="url(#clipPath46-8)"
       id="path91-5" /><text
       xml:space="preserve"
       style="font-size:3.175px;line-height:1.15;font-family:'CMU Serif';-inkscape-font-specification:'CMU Serif';text-align:center;letter-spacing:0px;word-spacing:0px;text-anchor:middle;fill:#ffffff;fill-rule:evenodd;stroke:#ffffff;stroke-width:0.282001"
       x="62.683918"
       y="163.47693"
       id="text3"><tspan
         sodipodi:role="line"
         id="tspan3"
         style="font-size:3.175px;fill:#000000;stroke:none;stroke-width:0.282"
         x="62.683918"
         y="163.47693">Digital Input</tspan></text><text
       xml:space="preserve"
       style="font-size:3.175px;line-height:1.15;font-family:'CMU Serif';-inkscape-font-specification:'CMU Serif';text-align:center;letter-spacing:0px;word-spacing:0px;text-anchor:middle;fill:#ffffff;fill-rule:evenodd;stroke:#ffffff;stroke-width:0.282001"
       x="15.723252"
       y="116.0965"
       id="text3-8"><tspan
         sodipodi:role="line"
         id="tspan3-2"
         style="font-size:3.175px;fill:#000000;stroke:none;stroke-width:0.282"
         x="15.723252"
         y="116.0965">Analog</tspan><tspan
         sodipodi:role="line"
         style="font-size:3.175px;fill:#000000;stroke:none;stroke-width:0.282"
         x="15.723252"
         y="119.74775"
         id="tspan4">Output</tspan></text><text
       xml:space="preserve"
       style="font-size:3.175px;line-height:1.15;font-family:'CMU Serif';-inkscape-font-specification:'CMU Serif';text-align:center;letter-spacing:0px;word-spacing:0px;text-anchor:middle;fill:#ffffff;fill-rule:evenodd;stroke:#ffffff;stroke-width:0.282001"
       x="171.19489"
       y="159.47693"
       id="text94"><tspan
         sodipodi:role="line"
         id="tspan94"
         style="font-size:3.175px;fill:#000000;stroke:none;stroke-width:0.282"
         x="171.19489"
         y="159.47693">Analog Input</tspan></text><text
       xml:space="preserve"
       style="font-size:3.175px;line-height:1.15;font-family:'CMU Serif';-inkscape-font-specification:'CMU Serif';text-align:center;letter-spacing:0px;word-spacing:0px;text-anchor:middle;fill:#ffffff;fill-rule:evenodd;stroke:#ffffff;stroke-width:0.282001"
       x="118.03528"
       y="115.43858"
       id="text94-6"><tspan
         sodipodi:role="line"
         id="tspan94-1"
         style="font-size:3.175px;fill:#000000;stroke:none;stroke-width:0.282"
         x="118.03528"
         y="115.43858">Digital</tspan><tspan
         sodipodi:role="line"
         style="font-size:3.175px;fill:#000000;stroke:none;stroke-width:0.282"
         x="118.03528"
         y="119.08984"
         id="tspan95">Output</tspan></text><text
       xml:space="preserve"
       style="font-size:4.93889px;line-height:1.15;font-family:'CMU Serif';-inkscape-font-specification:'CMU Serif';text-align:center;letter-spacing:0px;word-spacing:0px;text-anchor:middle;fill:#ffffff;fill-rule:evenodd;stroke:#ffffff;stroke-width:0.282001"
       x="171.19647"
       y="74.694542"
       id="text96"><tspan
         sodipodi:role="line"
         style="font-size:4.93889px;fill:#000000;stroke:none;stroke-width:0.282"
         x="171.19647"
         y="74.694542"
         id="tspan96">ADC</tspan></text><path
       style="fill:none;fill-rule:evenodd;stroke:#000000;stroke-width:0.282001;stroke-dasharray:0.84600297,0.84600297;stroke-dashoffset:0"
       d="m 24.156187,155.60054 9.758011,-9.75801 9.751574,-14.75801 9.754793,-10.75801 9.772433,4.22434 9.754793,-10.75801 9.754793,-16.758014 9.75479,-9.758011"
       id="path92" /><text
       xml:space="preserve"
       style="font-size:3.175px;line-height:1.15;font-family:'CMU Serif';-inkscape-font-specification:'CMU Serif';text-align:center;letter-spacing:0px;word-spacing:0px;text-anchor:middle;fill:#ffffff;fill-rule:evenodd;stroke:#ffffff;stroke-width:0.282001"
       x="80.386497"
       y="122.91725"
       id="text92"><tspan
         sodipodi:role="line"
         style="font-size:3.175px;fill:#000000;stroke:none;stroke-width:0.282"
         x="80.386497"
         y="122.91725"
         id="tspan93">Nonmonotonic</tspan></text><path
       style="fill:none;fill-rule:evenodd;stroke:#000000;stroke-width:0.282001;stroke-dasharray:0.846003, 0.846003;stroke-dashoffset:0"
       d="m 133.21806,115.92786 h 50.37989"
       id="path97" /></g></svg>
