<?xml version="1.0" encoding="UTF-8" standalone="no"?>
<!-- Created with Inkscape (http://www.inkscape.org/) -->

<svg
   width="44.66684mm"
   height="31.837101mm"
   viewBox="0 0 44.66684 31.837101"
   version="1.1"
   id="svg1"
   inkscape:version="1.3.2 (091e20e, 2023-11-25, custom)"
   sodipodi:docname="caracterizacion_block.svg"
   inkscape:export-filename="caracterizacion_block.png"
   inkscape:export-xdpi="957.37366"
   inkscape:export-ydpi="957.37366"
   xmlns:inkscape="http://www.inkscape.org/namespaces/inkscape"
   xmlns:sodipodi="http://sodipodi.sourceforge.net/DTD/sodipodi-0.dtd"
   xmlns="http://www.w3.org/2000/svg"
   xmlns:svg="http://www.w3.org/2000/svg">
  <sodipodi:namedview
     id="namedview1"
     pagecolor="#ffffff"
     bordercolor="#000000"
     borderopacity="0.25"
     inkscape:showpageshadow="2"
     inkscape:pageopacity="0.0"
     inkscape:pagecheckerboard="0"
     inkscape:deskcolor="#d1d1d1"
     inkscape:document-units="mm"
     showgrid="true"
     inkscape:zoom="2.5650675"
     inkscape:cx="32.747676"
     inkscape:cy="82.453969"
     inkscape:window-width="1920"
     inkscape:window-height="1017"
     inkscape:window-x="1358"
     inkscape:window-y="-8"
     inkscape:window-maximized="1"
     inkscape:current-layer="layer1">
    <inkscape:grid
       id="grid1"
       units="mm"
       originx="-93.133334"
       originy="-24.870833"
       spacingx="0.99999998"
       spacingy="1"
       empcolor="#0099e5"
       empopacity="0.30196078"
       color="#0099e5"
       opacity="0.14901961"
       empspacing="5"
       dotted="false"
       gridanglex="30"
       gridanglez="30"
       visible="true" />
  </sodipodi:namedview>
  <defs
     id="defs1" />
  <g
     inkscape:label="Layer 1"
     inkscape:groupmode="layer"
     id="layer1"
     transform="translate(-93.133332,-24.870833)">
    <text
       xml:space="preserve"
       style="font-style:normal;font-variant:normal;font-weight:normal;font-stretch:normal;font-size:1.94863px;line-height:1.15;font-family:'CMU Serif';-inkscape-font-specification:'CMU Serif';text-align:center;letter-spacing:0px;word-spacing:0px;text-anchor:middle;fill:#000000;fill-opacity:0.998148;stroke:none;stroke-width:0.141"
       x="104.23875"
       y="46.066292"
       id="text272"
       transform="scale(1.1487632,0.87050142)"><tspan
         sodipodi:role="line"
         id="tspan272"
         style="font-size:1.94863px;letter-spacing:0px;fill:#000000;stroke:none;stroke-width:0.141"
         x="104.23875"
         y="46.066292" /></text>
    <g
       id="g2">
      <rect
         style="fill:none;stroke:#000000;stroke-width:0.281;stroke-dasharray:none"
         id="rect237"
         width="38.785492"
         height="31.556101"
         x="96.074005"
         y="25.011333" />
      <g
         id="g241"
         transform="translate(-81.193515,-161.22756)">
        <g
           transform="matrix(0.352778,0,0,0.352778,179.02615,214.34071)"
           id="g238"
           style="fill:#000000;fill-opacity:1"><path
   d="m 4.28125,-3.375 c 0,-0.078125 0,-0.140625 -0.078125,-0.140625 -0.046875,0 -0.0625,0.015625 -0.09375,0.0625 l -0.296875,0.375 c -0.296875,-0.25 -0.6875,-0.4375 -1.171875,-0.4375 -1.203125,0 -2.15625,0.828125 -2.15625,1.8125 0,0.984375 0.953125,1.8125 2.15625,1.8125 0.96875,0 1.640625,-0.609375 1.640625,-1.28125 0,-0.078125 -0.015625,-0.09375 -0.09375,-0.09375 -0.0625,0 -0.109375,0 -0.109375,0.078125 C 4.03125,-0.421875 3.3125,-0.109375 2.734375,-0.109375 2.03125,-0.109375 1.0625,-0.5 1.0625,-1.703125 c 0,-1.1875 0.9375,-1.59375 1.65625,-1.59375 0.453125,0 1.1875,0.234375 1.34375,1.171875 0.015625,0.0625 0.078125,0.0625 0.109375,0.0625 0.109375,0 0.109375,-0.046875 0.109375,-0.140625 z m 0,0"
   id="path237" />

      </g>
        <g
           transform="matrix(0.352778,0,0,0.352778,180.71031,214.34071)"
           id="g239"
           style="fill:#000000;fill-opacity:1"><path
   d="M 3.734375,-1.34375 H 3.53125 c -0.078125,0.578125 -0.203125,1.125 -1.171875,1.125 h -0.625 C 1.5,-0.21875 1.5,-0.25 1.5,-0.40625 v -2.5625 C 1.5,-3.125 1.5,-3.1875 1.96875,-3.1875 H 2.1875 v -0.21875 c -0.28125,0.015625 -0.640625,0.015625 -0.9375,0.015625 -0.296875,0 -0.578125,0 -0.84375,-0.015625 V -3.1875 H 0.5625 c 0.40625,0 0.40625,0.046875 0.40625,0.203125 v 2.5625 c 0,0.15625 0,0.203125 -0.40625,0.203125 H 0.40625 V 0 h 3.171875 z m 0,0"
   id="path238" />

      </g>
        <g
           transform="matrix(0.352778,0,0,0.352778,182.16975,214.34071)"
           id="g240"
           style="fill:#000000;fill-opacity:1"><path
   d="M 2.625,-2.0625 3.765625,-2.921875 C 3.90625,-3.03125 4.1875,-3.1875 4.578125,-3.1875 V -3.40625 C 4.375,-3.390625 4.28125,-3.390625 4.0625,-3.390625 c -0.203125,0 -0.609375,-0.015625 -0.734375,-0.015625 V -3.1875 C 3.375,-3.1875 3.5,-3.171875 3.5,-3.0625 c 0,0.046875 -0.03125,0.109375 -0.109375,0.15625 L 1.5,-1.46875 v -1.515625 c 0,-0.15625 0,-0.203125 0.40625,-0.203125 h 0.140625 v -0.21875 c -0.21875,0.015625 -0.53125,0.015625 -0.8125,0.015625 -0.28125,0 -0.59375,0 -0.828125,-0.015625 V -3.1875 H 0.5625 c 0.40625,0 0.40625,0.046875 0.40625,0.203125 v 2.5625 c 0,0.15625 0,0.203125 -0.40625,0.203125 H 0.40625 V 0 c 0.234375,-0.015625 0.546875,-0.015625 0.828125,-0.015625 0.28125,0 0.59375,0 0.8125,0.015625 V -0.21875 H 1.90625 C 1.5,-0.21875 1.5,-0.265625 1.5,-0.421875 v -0.78125 L 2.25,-1.78125 3.375,-0.5 c 0.03125,0.03125 0.078125,0.109375 0.078125,0.15625 0,0.125 -0.15625,0.125 -0.25,0.125 V 0 C 3.390625,0 3.765625,-0.015625 4,-0.015625 c 0.234375,0 0.40625,0 0.65625,0.015625 v -0.21875 c -0.375,0 -0.453125,-0.03125 -0.625,-0.234375 z m 0,0"
   id="path239" />

      </g>
      </g>
      <g
         id="g245"
         transform="translate(-81.193515,-161.86814)">
        <g
           transform="matrix(0.352778,0,0,0.352778,179.0482,209.98129)"
           id="g242"
           style="fill:#000000;fill-opacity:1"><path
   d="M 2.96875,-1.703125 C 3.296875,-1.78125 3.90625,-2.03125 3.90625,-2.484375 3.90625,-3 3.140625,-3.40625 2.3125,-3.40625 H 0.421875 v 0.21875 h 0.15625 c 0.40625,0 0.40625,0.046875 0.40625,0.203125 v 2.5625 c 0,0.15625 0,0.203125 -0.40625,0.203125 H 0.421875 V 0 c 0.234375,-0.015625 0.53125,-0.015625 0.8125,-0.015625 0.265625,0 0.5625,0 0.796875,0.015625 V -0.21875 H 1.890625 c -0.40625,0 -0.40625,-0.046875 -0.40625,-0.203125 V -1.625 H 2.25 c 0.265625,0 0.5,0.078125 0.65625,0.203125 0.1875,0.15625 0.1875,0.265625 0.1875,0.5625 0,0.390625 0,0.578125 0.265625,0.78125 0.1875,0.140625 0.484375,0.1875 0.703125,0.1875 0.484375,0 0.609375,-0.40625 0.609375,-0.578125 0,-0.09375 -0.046875,-0.09375 -0.109375,-0.09375 -0.078125,0 -0.09375,0.03125 -0.09375,0.09375 C 4.4375,-0.1875 4.25,-0.0625 4.09375,-0.0625 3.75,-0.0625 3.703125,-0.4375 3.65625,-0.75 3.65625,-0.890625 3.625,-1.09375 3.609375,-1.15625 3.53125,-1.453125 3.28125,-1.625 2.96875,-1.703125 Z M 2.25,-1.78125 H 1.484375 V -3 c 0,-0.140625 0.015625,-0.171875 0.15625,-0.1875 H 2 c 0.5625,0 1.328125,0 1.328125,0.703125 C 3.328125,-1.90625 2.75,-1.78125 2.25,-1.78125 Z m 0,0"
   id="path241" />

      </g>
        <g
           transform="matrix(0.352778,0,0,0.352778,180.75176,209.98129)"
           id="g243"
           style="fill:#000000;fill-opacity:1"><path
   d="m 3.078125,-3.375 c 0,-0.078125 0,-0.140625 -0.078125,-0.140625 -0.03125,0 -0.0625,0 -0.109375,0.0625 l -0.1875,0.296875 c -0.234375,-0.21875 -0.546875,-0.359375 -1,-0.359375 -0.71875,0 -1.21875,0.4375 -1.21875,0.9375 0,0.28125 0.15625,0.5 0.296875,0.625 0.265625,0.21875 0.515625,0.265625 0.734375,0.3125 0.09375,0.015625 0.75,0.15625 0.796875,0.15625 0.328125,0.078125 0.640625,0.328125 0.640625,0.671875 0,0.34375 -0.359375,0.703125 -0.9375,0.703125 -0.21875,0 -0.640625,-0.03125 -0.953125,-0.234375 -0.234375,-0.15625 -0.359375,-0.375 -0.375,-0.671875 0,-0.078125 0,-0.109375 -0.09375,-0.109375 -0.109375,0 -0.109375,0.03125 -0.109375,0.140625 v 0.953125 c 0,0.09375 0,0.140625 0.078125,0.140625 0.046875,0 0.0625,-0.015625 0.09375,-0.0625 0.015625,-0.03125 0.1875,-0.265625 0.1875,-0.28125 0.375,0.28125 0.84375,0.34375 1.171875,0.34375 0.75,0 1.234375,-0.5 1.234375,-1.015625 C 3.25,-1.28125 3.015625,-1.5 2.9375,-1.578125 2.703125,-1.8125 2.421875,-1.859375 2.015625,-1.9375 1.734375,-2 1.453125,-2.046875 1.40625,-2.0625 1.203125,-2.109375 0.78125,-2.28125 0.78125,-2.671875 0.78125,-3 1.15625,-3.3125 1.703125,-3.3125 c 0.890625,0 1.109375,0.59375 1.15625,0.953125 0.015625,0.078125 0.03125,0.09375 0.109375,0.09375 0.109375,0 0.109375,-0.046875 0.109375,-0.140625 z m 0,0"
   id="path242" />

      </g>
        <g
           transform="matrix(0.352778,0,0,0.352778,182.06974,209.98129)"
           id="g244"
           style="fill:#000000;fill-opacity:1"><path
   d="m 4.296875,-3.359375 h -3.8125 l -0.125,1.1875 h 0.21875 c 0.078125,-0.90625 0.265625,-0.96875 1.078125,-0.96875 0.109375,0 0.28125,0 0.3125,0 0.140625,0.015625 0.15625,0.03125 0.15625,0.1875 v 2.53125 c 0,0.15625 0,0.203125 -0.53125,0.203125 h -0.25 V 0 c 0.25,-0.015625 0.765625,-0.015625 1.046875,-0.015625 0.265625,0 0.796875,0 1.046875,0.015625 v -0.21875 h -0.25 c -0.53125,0 -0.53125,-0.046875 -0.53125,-0.203125 v -2.53125 c 0,-0.140625 0,-0.171875 0.140625,-0.1875 0.046875,0 0.203125,0 0.3125,0 0.8125,0 1,0.046875 1.09375,0.96875 H 4.40625 Z m 0,0"
   id="path243" />

      </g>
      </g>
      <path
         style="fill:none;stroke:#000000;stroke-width:0.141;stroke-linecap:butt;stroke-linejoin:miter;stroke-miterlimit:10;stroke-dasharray:none;stroke-opacity:1"
         d="m 96.127037,51.601883 0.798459,0.91078 -0.798459,0.91004"
         id="path245" />
      <path
         style="fill:none;stroke:#000000;stroke-width:0.140582;stroke-linecap:butt;stroke-linejoin:miter;stroke-miterlimit:10;stroke-opacity:1"
         d="m 93.274337,52.512303 h 2.80018"
         id="path248"
         sodipodi:nodetypes="cc" />
      <path
         style="fill:none;stroke:#000000;stroke-width:0.140582;stroke-linecap:butt;stroke-linejoin:miter;stroke-miterlimit:10;stroke-opacity:1"
         d="m 135,31.512303 h 2.80017"
         id="path249"
         sodipodi:nodetypes="cc" />
      <path
         style="fill:none;stroke:#000000;stroke-width:0.140582;stroke-linecap:butt;stroke-linejoin:miter;stroke-miterlimit:10;stroke-opacity:1"
         d="m 93.274337,28.512303 h 2.80018"
         id="path257"
         sodipodi:nodetypes="cc" />
      <path
         style="fill:none;stroke:#000000;stroke-width:0.140582;stroke-linecap:butt;stroke-linejoin:miter;stroke-miterlimit:10;stroke-opacity:1"
         d="m 135,27.512303 h 2.80017"
         id="path258"
         sodipodi:nodetypes="cc" />
      <path
         style="fill:none;stroke:#000000;stroke-width:0.140582;stroke-linecap:butt;stroke-linejoin:miter;stroke-miterlimit:10;stroke-opacity:1"
         d="m 135,35.512303 h 2.80017"
         id="path259"
         sodipodi:nodetypes="cc" />
      <path
         style="fill:none;stroke:#000000;stroke-width:0.140582;stroke-linecap:butt;stroke-linejoin:miter;stroke-miterlimit:10;stroke-opacity:1"
         d="m 135,39.521423 h 2.80017"
         id="path260"
         sodipodi:nodetypes="cc" />
      <path
         style="fill:none;stroke:#000000;stroke-width:0.140582;stroke-linecap:butt;stroke-linejoin:miter;stroke-miterlimit:10;stroke-opacity:1"
         d="m 135,52.512303 h 2.80017"
         id="path261"
         sodipodi:nodetypes="cc" />
      <path
         style="fill:none;stroke:#000000;stroke-width:0.140582;stroke-linecap:butt;stroke-linejoin:miter;stroke-miterlimit:10;stroke-opacity:1"
         d="m 93.274337,47.512303 h 2.80018"
         id="path262"
         sodipodi:nodetypes="cc" />
      <path
         style="fill:none;stroke:#000000;stroke-width:0.140582;stroke-linecap:butt;stroke-linejoin:miter;stroke-miterlimit:10;stroke-opacity:1"
         d="m 93.133332,32.512303 h 2.80018"
         id="path263"
         sodipodi:nodetypes="cc" />
      <text
         xml:space="preserve"
         style="font-style:normal;font-variant:normal;font-weight:normal;font-stretch:normal;font-size:1.94863px;line-height:1.15;font-family:'CMU Serif';-inkscape-font-specification:'CMU Serif';text-align:center;letter-spacing:0px;word-spacing:0px;text-anchor:middle;fill:#000000;fill-opacity:0.998148;stroke:none;stroke-width:0.141"
         x="87.639992"
         y="38.014503"
         id="text263"
         transform="scale(1.1487632,0.87050142)"><tspan
           sodipodi:role="line"
           id="tspan263"
           style="font-size:1.94863px;letter-spacing:0px;fill:#000000;stroke:none;stroke-width:0.141"
           x="87.639992"
           y="38.014503">MISO</tspan></text>
      <text
         xml:space="preserve"
         style="font-style:normal;font-variant:normal;font-weight:normal;font-stretch:normal;font-size:1.94863px;line-height:1.15;font-family:'CMU Serif';-inkscape-font-specification:'CMU Serif';text-align:center;letter-spacing:0px;word-spacing:0px;text-anchor:middle;fill:#000000;fill-opacity:0.998148;stroke:none;stroke-width:0.141"
         x="88.435425"
         y="33.419456"
         id="text265"
         transform="scale(1.1487632,0.87050142)"><tspan
           sodipodi:role="line"
           id="tspan265"
           style="font-size:1.94863px;letter-spacing:0px;fill:#000000;stroke:none;stroke-width:0.141"
           x="88.435425"
           y="33.419456">START</tspan></text>
      <path
         style="fill:none;stroke:#000000;stroke-width:0.140582;stroke-linecap:butt;stroke-linejoin:miter;stroke-miterlimit:10;stroke-opacity:1"
         d="m 135,42.521423 h 2.80017"
         id="path272"
         sodipodi:nodetypes="cc" />
      <path
         style="fill:none;stroke:#000000;stroke-width:0.140582;stroke-linecap:butt;stroke-linejoin:miter;stroke-miterlimit:10;stroke-opacity:1"
         d="m 135,45.521423 h 2.80017"
         id="path273"
         sodipodi:nodetypes="cc" />
      <path
         style="fill:none;stroke:#000000;stroke-width:0.140582;stroke-linecap:butt;stroke-linejoin:miter;stroke-miterlimit:10;stroke-opacity:1"
         d="m 135,48.521423 h 2.80017"
         id="path274"
         sodipodi:nodetypes="cc" />
      <text
         xml:space="preserve"
         style="font-style:normal;font-variant:normal;font-weight:normal;font-stretch:normal;font-size:2.88598px;line-height:1.15;font-family:'CMU Serif';-inkscape-font-specification:'CMU Serif';text-align:center;letter-spacing:0px;word-spacing:0px;text-anchor:middle;fill:#000000;fill-opacity:0.998148;stroke:none;stroke-width:0.141"
         x="115.41391"
         y="43.775097"
         id="text288"><tspan
           sodipodi:role="line"
           style="font-size:2.88598px;letter-spacing:0px;fill:#000000;stroke:none;stroke-width:0.141"
           x="115.41391"
           y="43.775097"
           id="tspan288">Caracterizacion</tspan></text>
      <g
         id="g1"
         transform="translate(10.03268)">
        <text
           xml:space="preserve"
           style="font-style:normal;font-variant:normal;font-weight:normal;font-stretch:normal;font-size:1.94863px;line-height:1.15;font-family:'CMU Serif';-inkscape-font-specification:'CMU Serif';text-align:center;letter-spacing:0px;word-spacing:0px;text-anchor:middle;fill:#000000;fill-opacity:0.998148;stroke:none;stroke-width:0.141"
           x="106.06262"
           y="60.989761"
           id="text262"
           transform="scale(1.1487632,0.87050142)"><tspan
             sodipodi:role="line"
             id="tspan262"
             style="font-size:1.94863px;letter-spacing:0px;fill:#000000;stroke:none;stroke-width:0.141"
             x="106.06262"
             y="60.989761">EOS</tspan></text>
        <text
           xml:space="preserve"
           style="font-style:normal;font-variant:normal;font-weight:normal;font-stretch:normal;font-size:1.94863px;line-height:1.15;font-family:'CMU Serif';-inkscape-font-specification:'CMU Serif';text-align:center;letter-spacing:0px;word-spacing:0px;text-anchor:middle;fill:#000000;fill-opacity:0.998148;stroke:none;stroke-width:0.141"
           x="103.03644"
           y="32.281147"
           id="text269"
           transform="scale(1.1487632,0.87050142)"><tspan
             sodipodi:role="line"
             id="tspan269"
             style="font-size:1.94863px;letter-spacing:0px;fill:#000000;stroke:none;stroke-width:0.141"
             x="103.03644"
             y="32.281147">MOSI DAC</tspan></text>
        <text
           xml:space="preserve"
           style="font-style:normal;font-variant:normal;font-weight:normal;font-stretch:normal;font-size:1.94863px;line-height:1.15;font-family:'CMU Serif';-inkscape-font-specification:'CMU Serif';text-align:center;letter-spacing:0px;word-spacing:0px;text-anchor:middle;fill:#000000;fill-opacity:0.998148;stroke:none;stroke-width:0.141"
           x="105.18155"
           y="36.865734"
           id="text270"
           transform="scale(1.1487632,0.87050142)"><tspan
             sodipodi:role="line"
             id="tspan270"
             style="font-size:1.94863px;letter-spacing:0px;fill:#000000;stroke:none;stroke-width:0.141"
             x="105.18155"
             y="36.865734">DCLK</tspan></text>
        <text
           xml:space="preserve"
           style="font-style:normal;font-variant:normal;font-weight:normal;font-stretch:normal;font-size:1.94863px;line-height:1.15;font-family:'CMU Serif';-inkscape-font-specification:'CMU Serif';text-align:center;letter-spacing:0px;word-spacing:0px;text-anchor:middle;fill:#000000;fill-opacity:0.998148;stroke:none;stroke-width:0.141"
           x="104.33378"
           y="41.471252"
           id="text271"
           transform="scale(1.1487632,0.87050142)"><tspan
             sodipodi:role="line"
             id="tspan271"
             style="font-size:1.94863px;letter-spacing:0px;fill:#000000;stroke:none;stroke-width:0.141"
             x="104.33378"
             y="41.471252">CS DAC</tspan></text>
        <text
           xml:space="preserve"
           style="font-style:normal;font-variant:normal;font-weight:normal;font-stretch:normal;font-size:1.94863px;line-height:1.15;font-family:'CMU Serif';-inkscape-font-specification:'CMU Serif';text-align:center;letter-spacing:0px;word-spacing:0px;text-anchor:middle;fill:#000000;fill-opacity:0.998148;stroke:none;stroke-width:0.141"
           x="105.99316"
           y="49.512608"
           id="text273"
           transform="scale(1.1487632,0.87050142)"><tspan
             sodipodi:role="line"
             id="tspan273"
             style="font-size:1.94863px;letter-spacing:0px;fill:#000000;stroke:none;stroke-width:0.141"
             x="105.99316"
             y="49.512608">SCK</tspan></text>
        <text
           xml:space="preserve"
           style="font-style:normal;font-variant:normal;font-weight:normal;font-stretch:normal;font-size:1.94863px;line-height:1.15;font-family:'CMU Serif';-inkscape-font-specification:'CMU Serif';text-align:center;letter-spacing:0px;word-spacing:0px;text-anchor:middle;fill:#000000;fill-opacity:0.998148;stroke:none;stroke-width:0.141"
           x="104.27955"
           y="52.96936"
           id="text274"
           transform="scale(1.1487632,0.87050142)"><tspan
             sodipodi:role="line"
             id="tspan274"
             style="font-size:1.94863px;letter-spacing:0px;fill:#000000;stroke:none;stroke-width:0.141"
             x="104.27955"
             y="52.96936">CS ADC</tspan></text>
        <text
           xml:space="preserve"
           style="font-style:normal;font-variant:normal;font-weight:normal;font-stretch:normal;font-size:1.94863px;line-height:1.15;font-family:'CMU Serif';-inkscape-font-specification:'CMU Serif';text-align:center;letter-spacing:0px;word-spacing:0px;text-anchor:middle;fill:#000000;fill-opacity:0.998148;stroke:none;stroke-width:0.141"
           x="103.31713"
           y="56.405186"
           id="text275"
           transform="scale(1.1487632,0.87050142)"><tspan
             sodipodi:role="line"
             id="tspan275"
             style="font-size:1.94863px;letter-spacing:0px;fill:#000000;stroke:none;stroke-width:0.141"
             x="103.31713"
             y="56.405186">TX DONE</tspan></text>
        <text
           xml:space="preserve"
           style="font-style:normal;font-variant:normal;font-weight:normal;font-stretch:normal;font-size:1.94863px;line-height:1.15;font-family:'CMU Serif';-inkscape-font-specification:'CMU Serif';text-align:center;letter-spacing:0px;word-spacing:0px;text-anchor:middle;fill:#000000;fill-opacity:0.998148;stroke:none;stroke-width:0.141"
           x="102.9822"
           y="46.076782"
           id="text1"
           transform="scale(1.1487632,0.87050142)"><tspan
             sodipodi:role="line"
             id="tspan1"
             style="font-size:1.94863px;letter-spacing:0px;fill:#000000;stroke:none;stroke-width:0.141"
             x="102.9822"
             y="46.076782">MOSI ADC</tspan></text>
      </g>
    </g>
  </g>
</svg>
