<?xml version="1.0" encoding="UTF-8" standalone="no"?>
<!-- Created with Inkscape (http://www.inkscape.org/) -->

<svg
   width="88.000412mm"
   height="660.0014mm"
   viewBox="0 0 88.000412 660.0014"
   version="1.1"
   id="svg1"
   xml:space="preserve"
   inkscape:version="1.3.2 (091e20e, 2023-11-25, custom)"
   sodipodi:docname="inaoe_sidebar.svg"
   xmlns:inkscape="http://www.inkscape.org/namespaces/inkscape"
   xmlns:sodipodi="http://sodipodi.sourceforge.net/DTD/sodipodi-0.dtd"
   xmlns="http://www.w3.org/2000/svg"
   xmlns:svg="http://www.w3.org/2000/svg"><sodipodi:namedview
     id="namedview1"
     pagecolor="#ffffff"
     bordercolor="#000000"
     borderopacity="0.25"
     inkscape:showpageshadow="2"
     inkscape:pageopacity="0.0"
     inkscape:pagecheckerboard="0"
     inkscape:deskcolor="#d1d1d1"
     inkscape:document-units="mm"
     inkscape:zoom="0.2447271"
     inkscape:cx="0"
     inkscape:cy="1571.1378"
     inkscape:window-width="1920"
     inkscape:window-height="991"
     inkscape:window-x="-9"
     inkscape:window-y="-9"
     inkscape:window-maximized="1"
     inkscape:current-layer="g1"><inkscape:page
       x="4.9379573e-06"
       y="7.68059e-06"
       width="87.99971"
       height="660.0014"
       id="page2"
       margin="0"
       bleed="0" /></sodipodi:namedview><defs
     id="defs1" /><g
     inkscape:label="Layer 1"
     inkscape:groupmode="layer"
     id="layer1"
     transform="translate(-220.00001)" /><g
     id="g1"
     inkscape:groupmode="layer"
     inkscape:label="1"
     transform="matrix(0.26458332,0,0,0.26458334,4.9379573e-6,0)"><g
       id="group-R5"><path
         id="path2"
         d="M 0,18708.7 H 2494.48 V 0 H 0 v 18708.7"
         style="fill:#2c4185;fill-opacity:1;fill-rule:nonzero;stroke:none"
         transform="matrix(0.13333333,0,0,-0.13333333,0,2494.4933)" /><path
         id="path3"
         d="M 765.332,15533.9 H 538.57 c -0.011,0 0.012,0 0.012,0 0,15.2 0.481,30.4 1.426,45.4 0.008,0.1 0.14,0 0.234,0 h 226.223 c 0.043,0 0.105,0 0.105,0 -0.808,-15 -1.218,-30.2 -1.218,-45.4 0,0 -0.012,0 -0.02,0 v 0"
         style="fill:#ffffff;fill-opacity:1;fill-rule:nonzero;stroke:none"
         transform="matrix(0.13333333,0,0,-0.13333333,0,2494.4933)" /><path
         id="path4"
         d="M 1006.3,15533.9 H 892.91 c 0,15.2 0.399,30.3 1.188,45.4 0.023,0.5 -1.434,0 -0.493,0 h 114.545 c 1.26,0 -0.69,0.7 -0.73,0 -0.75,-15.1 -1.12,-30.2 -1.12,-45.4 0,0 0.02,0 0,0 v 0"
         style="fill:#ffffff;fill-opacity:1;fill-rule:nonzero;stroke:none"
         transform="matrix(0.13333333,0,0,-0.13333333,0,2494.4933)" /><path
         id="path5"
         d="m 1955.91,15533.9 h -850.4 c 0,15.2 0.35,30.3 1.05,45.4 0.02,0.4 -1.24,0 -0.43,0 h 849.28 c 1.81,0 -1,1 -0.93,0 0.94,-15 1.42,-30.2 1.42,-45.4 0,0 0.02,0 0.01,0 v 0"
         style="fill:#ffffff;fill-opacity:1;fill-rule:nonzero;stroke:none"
         transform="matrix(0.13333333,0,0,-0.13333333,0,2494.4933)" /><path
         id="path6"
         d="M 769.457,15616.9 H 543.398 v 0.1 c 1.782,15.2 4.051,30.4 6.786,45.3 0.027,0.1 0.183,0 0.3,0 h 224.918 c 0.223,0 -0.117,0.2 -0.136,0 -2.344,-14.9 -4.282,-30.1 -5.805,-45.4 h -0.004"
         style="fill:#ffffff;fill-opacity:1;fill-rule:nonzero;stroke:none"
         transform="matrix(0.13333333,0,0,-0.13333333,0,2494.4933)" /><path
         id="path7"
         d="M 1010.09,15616.9 H 896.918 l -0.012,0.1 c 1.473,15.2 3.352,30.3 5.617,45.3 0.004,0.1 0.028,0 0.043,0 h 113.264 c 0.65,0 -0.36,0.4 -0.41,0 -2.15,-15 -3.93,-30.1 -5.33,-45.4 v 0"
         style="fill:#ffffff;fill-opacity:1;fill-rule:nonzero;stroke:none"
         transform="matrix(0.13333333,0,0,-0.13333333,0,2494.4933)" /><path
         id="path8"
         d="m 1951.09,15616.9 h -842.04 c 0,0 -0.01,0 -0.01,0 1.3,15.2 2.95,30.4 4.95,45.4 0.02,0.2 -0.54,0 -0.18,0 l 831.43,0.1 c 2.09,0 -1.16,1.1 -0.95,-0.1 2.74,-14.9 5.01,-30.1 6.8,-45.3 v -0.1"
         style="fill:#ffffff;fill-opacity:1;fill-rule:nonzero;stroke:none"
         transform="matrix(0.13333333,0,0,-0.13333333,0,2494.4933)" /><path
         id="path9"
         d="M 782.055,15700 H 558.156 c 3.68,15.3 7.856,30.4 12.512,45.4 0.035,0.1 0.187,0 0.301,0 H 792 c 0.297,0 0.824,0.4 0.719,0 -3.965,-15 -7.524,-30.1 -10.653,-45.4 -0.003,0 -0.007,0 -0.011,0 v 0"
         style="fill:#ffffff;fill-opacity:1;fill-rule:nonzero;stroke:none"
         transform="matrix(0.13333333,0,0,-0.13333333,0,2494.4933)" /><path
         id="path10"
         d="M 1021.62,15700 H 909.086 c 3.008,15.3 6.426,30.4 10.238,45.4 0.031,0.1 -0.371,0 -0.113,0 h 113.239 c 1.72,0 -0.94,0.9 -1.16,0 -3.6,-15 -6.83,-30.1 -9.67,-45.4 v 0"
         style="fill:#ffffff;fill-opacity:1;fill-rule:nonzero;stroke:none"
         transform="matrix(0.13333333,0,0,-0.13333333,0,2494.4933)" /><path
         id="path11"
         d="m 1936.32,15700 h -816.58 c -0.01,0 0.01,0 0.01,0 2.64,15.3 5.64,30.4 8.99,45.4 0.04,0.2 0.27,0 0.44,0 h 794.47 c 0.05,0 0.13,0.1 0.15,0 4.66,-14.9 8.84,-30 12.53,-45.4 h -0.01"
         style="fill:#ffffff;fill-opacity:1;fill-rule:nonzero;stroke:none"
         transform="matrix(0.13333333,0,0,-0.13333333,0,2494.4933)" /><path
         id="path12"
         d="M 803.672,15783.1 H 583.625 v 0 c 5.777,15.3 12.074,30.5 18.871,45.3 0.082,0.2 0.305,0 0.481,0 h 215.836 c 0.285,0 0.816,0.4 0.671,0.1 -5.695,-15 -10.972,-30.1 -15.816,-45.4 -0.008,-0.1 0.023,0 0.004,0 v 0"
         style="fill:#ffffff;fill-opacity:1;fill-rule:nonzero;stroke:none"
         transform="matrix(0.13333333,0,0,-0.13333333,0,2494.4933)" /><path
         id="path13"
         d="M 1041.18,15783.1 H 929.824 v 0 c 4.641,15.3 9.692,30.4 15.141,45.4 0.078,0.2 -0.551,0 -0.149,0 h 110.654 c 0.03,0 -0.01,0 -0.01,0 -5.14,-15 -9.9,-30.2 -14.27,-45.4 0,-0.1 -0.01,0 -0.01,0 v 0"
         style="fill:#ffffff;fill-opacity:1;fill-rule:nonzero;stroke:none"
         transform="matrix(0.13333333,0,0,-0.13333333,0,2494.4933)" /><path
         id="path14"
         d="m 1910.85,15783.1 h -772.92 c -0.02,0 0.01,0 0.01,0 4.07,15.2 8.5,30.4 13.3,45.4 0.13,0.4 -1.04,0 -0.3,0 h 740.98 0.02 c 6.82,-14.9 13.13,-30 18.92,-45.4 h -0.01"
         style="fill:#ffffff;fill-opacity:1;fill-rule:nonzero;stroke:none"
         transform="matrix(0.13333333,0,0,-0.13333333,0,2494.4933)" /><path
         id="path15"
         d="M 834.863,15866.1 H 621.125 c -0.004,0 -0.016,0 -0.008,0 8.227,15.5 17.016,30.6 26.328,45.4 0.075,0.1 0.219,0 0.34,0 h 208.067 c 0.168,0 0.492,0.2 0.382,0 -7.55,-14.9 -14.679,-30.1 -21.367,-45.4 h -0.004"
         style="fill:#ffffff;fill-opacity:1;fill-rule:nonzero;stroke:none"
         transform="matrix(0.13333333,0,0,-0.13333333,0,2494.4933)" /><path
         id="path16"
         d="M 1069.28,15866.1 H 959.641 c -0.012,0 0.007,0 0.011,0 6.379,15.3 13.18,30.5 20.387,45.4 0.109,0.3 0.395,0 0.625,0 h 108.066 c 0.27,0 -0.14,0.2 -0.2,0 -6.81,-14.9 -13.22,-30.1 -19.23,-45.4 h -0.02"
         style="fill:#ffffff;fill-opacity:1;fill-rule:nonzero;stroke:none"
         transform="matrix(0.13333333,0,0,-0.13333333,0,2494.4933)" /><path
         id="path17"
         d="m 1873.36,15866.1 h -709.19 v 0 c 5.63,15.3 11.65,30.5 18.04,45.4 0.37,0.9 -2.12,0.1 -0.54,0.1 h 665.87 c 2.17,0 -1.27,1.1 -0.58,0 9.35,-14.8 18.16,-30 26.41,-45.5 h -0.01"
         style="fill:#ffffff;fill-opacity:1;fill-rule:nonzero;stroke:none"
         transform="matrix(0.13333333,0,0,-0.13333333,0,2494.4933)" /><path
         id="path18"
         d="m 876.406,15949.2 h -203.457 -0.004 c 11.317,15.6 23.254,30.7 35.782,45.4 0.125,0.1 0.332,0 0.515,0 h 195.156 c 0.672,0 -0.363,0.3 -0.57,0 -9.582,-14.9 -18.73,-30.1 -27.426,-45.4 -0.011,-0.1 0.02,0 0.004,0 v 0"
         style="fill:#ffffff;fill-opacity:1;fill-rule:nonzero;stroke:none"
         transform="matrix(0.13333333,0,0,-0.13333333,0,2494.4933)" /><path
         id="path19"
         d="M 1106.66,15949.2 H 999.246 c -0.016,0 0.008,0 0.012,0 8.282,15.3 16.992,30.5 26.132,45.4 0.01,0 0.05,0 0.08,0 h 106.74 c 0.96,0 -0.51,0.5 -0.78,0 -8.66,-14.9 -16.92,-30.1 -24.76,-45.4 0,0 -0.01,0 -0.01,0 v 0"
         style="fill:#ffffff;fill-opacity:1;fill-rule:nonzero;stroke:none"
         transform="matrix(0.13333333,0,0,-0.13333333,0,2494.4933)" /><path
         id="path20"
         d="m 1821.53,15949.2 h -622.22 v 0 c 7.42,15.4 15.24,30.5 23.48,45.4 0.14,0.3 -0.66,0 -0.15,0 l 562.86,0.1 c 0.05,0 0.11,0 0.15,0 12.57,-14.7 24.54,-29.8 35.89,-45.5 h -0.01"
         style="fill:#ffffff;fill-opacity:1;fill-rule:nonzero;stroke:none"
         transform="matrix(0.13333333,0,0,-0.13333333,0,2494.4933)" /><path
         id="path21"
         d="m 929.219,16032.2 h -185.832 0.004 c 15.718,15.9 32.187,31.1 49.343,45.4 0.832,0.7 -1.363,0 -0.273,0 l 170.75,0.1 c 0.062,0 0.18,0 0.129,0 -11.82,-14.9 -23.195,-30.1 -34.106,-45.5 -0.007,0 -0.011,0 -0.015,0 v 0"
         style="fill:#ffffff;fill-opacity:1;fill-rule:nonzero;stroke:none"
         transform="matrix(0.13333333,0,0,-0.13333333,0,2494.4933)" /><path
         id="path22"
         d="M 994.598,16115.3 H 841.926 c -0.012,0 0.004,0 0.008,0 23.777,16.6 48.625,31.8 74.41,45.4 0.094,0.1 0.203,0 0.304,0 h 119.602 c 0.01,0 0.03,0.1 0.01,0.1 -14.35,-14.9 -28.25,-30.1 -41.67,-45.5 -0.027,0 0.039,0 0.008,0 v 0"
         style="fill:#ffffff;fill-opacity:1;fill-rule:nonzero;stroke:none"
         transform="matrix(0.13333333,0,0,-0.13333333,0,2494.4933)" /><path
         id="path23"
         d="m 1154.44,16032.2 h -104.82 c -0.01,0 -0.02,0 -0.02,0 10.42,15.4 21.29,30.6 32.59,45.5 0.64,0.8 -1.9,0 -0.38,0 h 48.25 c 0.07,0 0.14,0 0.21,0 l 40.46,-21 h -0.01 c -5.55,-8.1 -10.98,-16.2 -16.28,-24.5 -0.01,0 0.01,0 0,0 v 0"
         style="fill:#ffffff;fill-opacity:1;fill-rule:nonzero;stroke:none"
         transform="matrix(0.13333333,0,0,-0.13333333,0,2494.4933)" /><path
         id="path24"
         d="m 1751.1,16032.2 h -506.35 c -0.01,0 0.01,0 0.01,0 9.55,15.5 19.56,30.7 30.01,45.5 0.09,0.1 0.23,0 0.36,0 l 426.94,0.1 c 1.97,0 -2,1.2 -0.49,0 17.22,-14.4 33.74,-29.6 49.51,-45.6 0,0 0.02,0 0.01,0 v 0"
         style="fill:#ffffff;fill-opacity:1;fill-rule:nonzero;stroke:none"
         transform="matrix(0.13333333,0,0,-0.13333333,0,2494.4933)" /><path
         id="path25"
         d="M 1652.56,16115.3 H 1206.2 l -89.33,45.5 c -0.24,0.1 -0.96,0 -0.49,0 h 462.03 c 1.89,0 -2.15,0.9 -0.48,0 25.86,-13.6 50.78,-28.9 74.62,-45.5 0.01,0 0.03,0 0.01,0 v 0"
         style="fill:#ffffff;fill-opacity:1;fill-rule:nonzero;stroke:none"
         transform="matrix(0.13333333,0,0,-0.13333333,0,2494.4933)" /><path
         id="path26"
         d="m 1247.24,16242.6 c -86.86,0 -170.06,-15.7 -246.96,-44.3 -0.01,0 -0.04,0 -0.02,0 h 493.96 c 0.02,0 0,0 -0.01,0 -76.9,28.6 -160.11,44.3 -246.97,44.3 v 0"
         style="fill:#ffffff;fill-opacity:1;fill-rule:nonzero;stroke:none"
         transform="matrix(0.13333333,0,0,-0.13333333,0,2494.4933)" /><path
         id="path27"
         d="m 2236.54,16412.8 113.38,-196.4 c 0.01,0 0.01,0 0,0 -13.19,-7.6 -26.53,-14.8 -39.99,-21.5 -0.1,0 -0.08,0.2 -0.12,0.2 l -113.11,196 c -0.02,0 -0.1,0 -0.06,0 13.38,6.8 26.68,14 39.89,21.7 0.01,0 0.01,0 0.01,0 v 0"
         style="fill:#ffffff;fill-opacity:1;fill-rule:nonzero;stroke:none"
         transform="matrix(0.13333333,0,0,-0.13333333,0,2494.4933)" /><path
         id="path28"
         d="m 2116.06,16621.4 56.69,-98.2 v 0 c -13.18,-7.6 -26.47,-14.8 -39.86,-21.6 -0.47,-0.2 0.71,-1.3 0.24,-0.4 l -57.27,99.2 c -0.63,1 -0.29,-1 0.35,-0.7 13.4,6.9 26.69,14.1 39.85,21.7 0.01,0 -0.01,0 0,0 v 0"
         style="fill:#ffffff;fill-opacity:1;fill-rule:nonzero;stroke:none"
         transform="matrix(0.13333333,0,0,-0.13333333,0,2494.4933)" /><path
         id="path29"
         d="m 1641.25,17443.8 425.2,-736.4 v 0 c -13.13,-7.6 -26.4,-14.9 -39.79,-21.8 -0.4,-0.2 0.61,-1.1 0.2,-0.4 l -424.63,735.5 c -0.91,1.6 -0.39,-1.4 0.46,-0.8 12.52,8.3 25.37,16.3 38.57,23.9 h -0.01"
         style="fill:#ffffff;fill-opacity:1;fill-rule:nonzero;stroke:none"
         transform="matrix(0.13333333,0,0,-0.13333333,0,2494.4933)" /><path
         id="path30"
         d="m 2162.55,16374.8 113.03,-195.8 v 0 c -14.12,-6.1 -28.35,-11.7 -42.67,-16.8 -0.13,0 -0.1,0.2 -0.15,0.3 l -112.47,194.8 c -0.11,0.1 -0.07,-0.2 0.06,-0.2 14.15,5.5 28.21,11.4 42.2,17.7 v 0"
         style="fill:#ffffff;fill-opacity:1;fill-rule:nonzero;stroke:none"
         transform="matrix(0.13333333,0,0,-0.13333333,0,2494.4933)" /><path
         id="path31"
         d="m 2042.24,16583.2 56.58,-98 v 0 c -13.94,-6.4 -27.98,-12.3 -42.1,-17.9 -0.03,0 0,0.1 -0.01,0.1 l -56.63,98.1 c -0.33,0.5 -0.15,-0.5 0.2,-0.4 14.08,5.7 28.07,11.7 41.95,18.1 h 0.01"
         style="fill:#ffffff;fill-opacity:1;fill-rule:nonzero;stroke:none"
         transform="matrix(0.13333333,0,0,-0.13333333,0,2494.4933)" /><path
         id="path32"
         d="m 1571.74,17398.1 421.02,-729.2 c 0,0 0.02,0 0.01,0 -13.82,-6.5 -27.75,-12.6 -41.78,-18.4 -0.19,-0.1 0.27,-0.5 0.09,-0.2 l -415.73,720.1 c -1.04,1.8 -0.43,-1.6 0.48,-0.9 11.59,9.9 23.56,19.4 35.9,28.6 h 0.01"
         style="fill:#ffffff;fill-opacity:1;fill-rule:nonzero;stroke:none"
         transform="matrix(0.13333333,0,0,-0.13333333,0,2494.4933)" /><path
         id="path33"
         d="m 2084.33,16344.2 111.94,-193.9 h 0.01 c -15.11,-4.5 -30.29,-8.4 -45.53,-11.9 -0.13,0 -0.11,0.2 -0.17,0.3 l -110.52,191.4 c -0.15,0.3 -0.76,0.5 -0.36,0.6 14.94,4.1 29.82,8.6 44.62,13.5 h 0.01"
         style="fill:#ffffff;fill-opacity:1;fill-rule:nonzero;stroke:none"
         transform="matrix(0.13333333,0,0,-0.13333333,0,2494.4933)" /><path
         id="path34"
         d="m 1964.54,16551.6 56.27,-97.4 v 0 c -14.73,-5 -29.53,-9.6 -44.41,-13.8 -0.13,-0.1 0.18,-0.4 0.05,-0.1 l -56.63,98 c -0.86,1.5 -0.32,-1.2 0.59,-1 14.79,4.4 29.5,9.2 44.13,14.3 v 0"
         style="fill:#ffffff;fill-opacity:1;fill-rule:nonzero;stroke:none"
         transform="matrix(0.13333333,0,0,-0.13333333,0,2494.4933)" /><path
         id="path35"
         d="m 1507.19,17343.8 408.29,-707.2 c 0.01,0 0,0 -0.01,0 -14.51,-5.3 -29.12,-10.3 -43.8,-14.9 -0.2,-0.1 -0.13,0.3 -0.21,0.4 l -397.27,688 c -0.03,0.1 -0.11,0.1 -0.07,0.1 10.6,11.6 21.63,22.7 33.07,33.6 v 0"
         style="fill:#ffffff;fill-opacity:1;fill-rule:nonzero;stroke:none"
         transform="matrix(0.13333333,0,0,-0.13333333,0,2494.4933)" /><path
         id="path36"
         d="m 2001.59,16321.4 110.02,-190.6 v 0 c -16.21,-2.7 -32.46,-4.8 -48.72,-6.3 -0.2,-0.1 -0.16,0.2 -0.24,0.4 l -107.94,186.9 c -0.14,0.2 -0.74,0.5 -0.34,0.6 15.8,2.5 31.55,5.5 47.23,9 0.02,0 -0.02,0 -0.01,0 v 0"
         style="fill:#ffffff;fill-opacity:1;fill-rule:nonzero;stroke:none"
         transform="matrix(0.13333333,0,0,-0.13333333,0,2494.4933)" /><path
         id="path37"
         d="m 1882.84,16527.1 55.67,-96.5 h 0.01 c -15.57,-3.6 -31.2,-6.8 -46.89,-9.6 -0.23,0 0.28,-0.4 0.08,-0.1 l -55.34,95.8 c -0.01,0.1 0,0 0.01,0 15.55,3.1 31.04,6.5 46.46,10.4 0.01,0 0,0 0,0 v 0"
         style="fill:#ffffff;fill-opacity:1;fill-rule:nonzero;stroke:none"
         transform="matrix(0.13333333,0,0,-0.13333333,0,2494.4933)" /><path
         id="path38"
         d="m 1448,17280.2 386.46,-669.3 c 0.01,-0.1 -0.01,0 -0.01,0 -15.26,-4.2 -30.59,-7.9 -45.96,-11.2 -0.42,-0.1 0.51,-0.9 0.14,-0.3 l -370.53,641.7 c -0.01,0 -0.02,0 -0.02,0 9.49,13.3 19.46,26.4 29.91,39.1 h 0.01"
         style="fill:#ffffff;fill-opacity:1;fill-rule:nonzero;stroke:none"
         transform="matrix(0.13333333,0,0,-0.13333333,0,2494.4933)" /><path
         id="path39"
         d="m 1914.06,16306.9 106.88,-185.1 c 0,0 0.01,0 0,-0.1 -17.51,-0.6 -35.02,-0.5 -52.46,0.2 -0.14,0 -0.11,0.1 -0.18,0.2 l -104.04,180.2 c -0.09,0.2 -0.44,0.3 -0.2,0.4 16.71,0.9 33.38,2.3 50,4.2 v 0"
         style="fill:#ffffff;fill-opacity:1;fill-rule:nonzero;stroke:none"
         transform="matrix(0.13333333,0,0,-0.13333333,0,2494.4933)" /><path
         id="path40"
         d="m 1796.86,16509.9 54.82,-95 c 0,0 0,0 -0.01,0 -16.46,-2.1 -32.97,-3.8 -49.52,-5 -0.25,0 -0.2,0.3 -0.31,0.5 l -54.04,93.6 c -0.14,0.2 -0.04,-0.2 0.1,-0.2 16.36,1.6 32.68,3.6 48.95,6.1 h 0.01"
         style="fill:#ffffff;fill-opacity:1;fill-rule:nonzero;stroke:none"
         transform="matrix(0.13333333,0,0,-0.13333333,0,2494.4933)" /><path
         id="path41"
         d="m 1394.82,17206.2 354.59,-614.2 v 0 c -16.09,-2.7 -32.21,-5.1 -48.36,-7 -0.92,-0.1 1.06,-1.9 0.27,-0.5 l -332.99,576.6 c -1.09,1.9 -0.32,-1.6 0.29,-0.5 8.15,15.5 16.88,30.7 26.2,45.6 0,0 0,0 0,0 v 0"
         style="fill:#ffffff;fill-opacity:1;fill-rule:nonzero;stroke:none"
         transform="matrix(0.13333333,0,0,-0.13333333,0,2494.4933)" /><path
         id="path42"
         d="m 1821.37,16301.3 101.72,-176.2 v 0 c -19.19,2 -38.27,4.8 -57.2,8.3 -0.19,0 -0.16,0.3 -0.25,0.4 l -97.6,169 c -0.34,0.6 -0.1,-0.4 0.28,-0.5 17.71,-0.8 35.4,-1.2 53.05,-1 0.03,0 -0.01,0 0,0 v 0"
         style="fill:#ffffff;fill-opacity:1;fill-rule:nonzero;stroke:none"
         transform="matrix(0.13333333,0,0,-0.13333333,0,2494.4933)" /><path
         id="path43"
         d="m 1706.24,16500.7 53.71,-93 c 0.01,0 -0.01,0 -0.01,0 -17.44,-0.5 -34.92,-0.5 -52.4,-0.1 -0.04,0 -0.03,0.1 -0.05,0.1 l -53.38,92.4 c -0.48,0.8 -0.14,-0.7 0.39,-0.7 17.26,0 34.51,0.4 51.74,1.3 0.01,0 0,0 0,0 v 0"
         style="fill:#ffffff;fill-opacity:1;fill-rule:nonzero;stroke:none"
         transform="matrix(0.13333333,0,0,-0.13333333,0,2494.4933)" /><path
         id="path44"
         d="m 1348.81,17119.8 311.11,-538.9 h -0.01 c -17.03,-1.2 -34.07,-2 -51.1,-2.3 -0.3,0 0.33,-0.6 0.08,-0.2 l -281.49,487.4 c -0.03,0.1 -0.1,0.1 -0.08,0.2 6.42,18.2 13.58,36.1 21.48,53.8 h 0.01"
         style="fill:#ffffff;fill-opacity:1;fill-rule:nonzero;stroke:none"
         transform="matrix(0.13333333,0,0,-0.13333333,0,2494.4933)" /><path
         id="path45"
         d="m 1723.03,16305.5 92.92,-160.9 h -0.01 c -21.62,5.7 -42.98,12.3 -63.99,20 -1.02,0.4 0.68,-1.2 0.13,-0.2 l -85.39,147.8 c -0.03,0.1 -0.14,0.2 -0.06,0.2 18.81,-2.8 37.61,-5.1 56.4,-6.9 v 0"
         style="fill:#ffffff;fill-opacity:1;fill-rule:nonzero;stroke:none"
         transform="matrix(0.13333333,0,0,-0.13333333,0,2494.4933)" /><path
         id="path46"
         d="m 1618.42,16320.6 76.33,-132.2 h -0.01 c -26.27,12.3 -51.84,26.2 -76.55,41.7 -0.09,0.1 -0.1,0.2 -0.15,0.3 l -59.82,103.5 c -0.01,0.1 -0.04,0.1 -0.02,0 20.05,-4.9 40.13,-9.4 60.23,-13.3 0.03,0 -0.03,0 -0.01,0 v 0"
         style="fill:#ffffff;fill-opacity:1;fill-rule:nonzero;stroke:none"
         transform="matrix(0.13333333,0,0,-0.13333333,0,2494.4933)" /><path
         id="path47"
         d="m 1610.42,16500.6 52.41,-90.8 c 0.01,0 0.02,0 0.01,0 -18.56,1.3 -37.12,3.1 -55.66,5.5 -1.06,0.1 0.95,-1.7 0.2,-0.4 l -24.14,41.8 c -0.03,0.1 -0.1,0.1 -0.1,0.2 l -2.08,45.5 h 0.01 c 9.78,-0.8 19.56,-1.4 29.35,-1.8 0.01,0 -0.01,0 0,0 v 0"
         style="fill:#ffffff;fill-opacity:1;fill-rule:nonzero;stroke:none"
         transform="matrix(0.13333333,0,0,-0.13333333,0,2494.4933)" /><path
         id="path48"
         d="m 1312.09,17017.3 253.18,-438.5 c 0,0 -0.01,0 -0.01,0 -18.18,0.5 -36.32,1.6 -54.4,3.2 -0.13,0 -0.11,0.2 -0.17,0.3 l -213.52,369.8 c -0.99,1.7 -0.1,-2.4 0.24,-0.5 3.86,22.1 8.76,44 14.68,65.7 0,0 0,0 0,0 v 0"
         style="fill:#ffffff;fill-opacity:1;fill-rule:nonzero;stroke:none"
         transform="matrix(0.13333333,0,0,-0.13333333,0,2494.4933)" /><path
         id="path49"
         d="m 1289.43,16890.4 223.18,-386.5 h 0.01 l 5.28,-100.1 c 0.01,-0.3 0.48,-0.9 0.24,-0.5 l -231.08,400.1 c -0.95,1.7 0.31,-2.3 0.24,-0.4 -1.09,29.3 -0.37,58.4 2.13,87.4 0.01,0 0,0 0,0 v 0"
         style="fill:#ffffff;fill-opacity:1;fill-rule:nonzero;stroke:none"
         transform="matrix(0.13333333,0,0,-0.13333333,0,2494.4933)" /><path
         id="path50"
         d="m 1381.87,16475.8 c 43.43,-75.3 98.56,-139.5 161.78,-191.8 0,0 0.02,0 0.01,0 l -246.99,427.8 c 0,0 0.01,0 0.01,0 13.69,-80.9 41.76,-160.8 85.19,-236 v 0"
         style="fill:#ffffff;fill-opacity:1;fill-rule:nonzero;stroke:none"
         transform="matrix(0.13333333,0,0,-0.13333333,0,2494.4933)" /><path
         id="path51"
         d="m 739.852,17247.4 113.378,196.4 c 0.008,0 -0.011,0 -0.003,0 13.195,-7.6 26.05,-15.6 38.562,-23.9 0.094,-0.1 -0.066,-0.1 -0.113,-0.2 l -113.113,-195.9 c -0.02,0 -0.004,-0.1 -0.047,-0.1 -12.575,8.2 -25.465,16.1 -38.676,23.7 -0.008,0 0.008,0 0.012,0 v 0"
         style="fill:#ffffff;fill-opacity:1;fill-rule:nonzero;stroke:none"
         transform="matrix(0.13333333,0,0,-0.13333333,0,2494.4933)" /><path
         id="path52"
         d="m 619.367,17038.8 56.692,98.1 0.004,0.1 c 13.183,-7.7 26.074,-15.6 38.679,-23.7 0.438,-0.3 0.723,1.2 0.25,0.4 l -57.269,-99.2 c -0.633,-1.1 0.976,0.2 0.367,0.6 -12.649,8.2 -25.555,16.1 -38.723,23.7 -0.004,0 -0.008,-0.1 0,0 v 0"
         style="fill:#ffffff;fill-opacity:1;fill-rule:nonzero;stroke:none"
         transform="matrix(0.13333333,0,0,-0.13333333,0,2494.4933)" /><path
         id="path53"
         d="m 144.563,16216.4 425.195,736.4 h 0.004 c 13.136,-7.5 26.054,-15.4 38.75,-23.5 0.375,-0.3 0.625,1 0.218,0.3 l -424.64,-735.5 c -0.906,-1.5 1.387,0.4 0.465,0.8 -13.457,6.7 -26.797,13.9 -39.989,21.5 -0.007,0 -0.007,0 -0.003,0 v 0"
         style="fill:#ffffff;fill-opacity:1;fill-rule:nonzero;stroke:none"
         transform="matrix(0.13333333,0,0,-0.13333333,0,2494.4933)" /><path
         id="path54"
         d="m 809.715,17202.3 113.031,195.8 h 0.004 c 12.332,-9.2 24.297,-18.7 35.879,-28.5 0.105,-0.1 -0.086,-0.2 -0.145,-0.3 l -112.453,-194.8 c -0.113,-0.2 0.188,0 0.078,0.1 -11.8,9.5 -23.929,18.8 -36.394,27.7 v 0"
         style="fill:#ffffff;fill-opacity:1;fill-rule:nonzero;stroke:none"
         transform="matrix(0.13333333,0,0,-0.13333333,0,2494.4933)" /><path
         id="path55"
         d="m 689.398,16993.9 56.59,98.1 H 746 c 12.469,-8.9 24.629,-18.1 36.484,-27.6 0.024,0 -0.027,0 -0.035,0 l -56.625,-98.1 c -0.328,-0.6 0.5,0.1 0.207,0.3 -11.933,9.4 -24.148,18.5 -36.633,27.3 v 0"
         style="fill:#ffffff;fill-opacity:1;fill-rule:nonzero;stroke:none"
         transform="matrix(0.13333333,0,0,-0.13333333,0,2494.4933)" /><path
         id="path56"
         d="m 218.902,16179 421.02,729.3 c 0,0 -0.016,0 -0.004,0 12.52,-8.8 24.797,-17.8 36.828,-27 0.168,-0.1 0.266,0.5 0.086,0.1 l -415.699,-720 c -1.043,-1.8 1.597,0.4 0.472,0.8 -14.335,5.1 -28.574,10.7 -42.699,16.8 h -0.004"
         style="fill:#ffffff;fill-opacity:1;fill-rule:nonzero;stroke:none"
         transform="matrix(0.13333333,0,0,-0.13333333,0,2494.4933)" /><path
         id="path57"
         d="m 875.348,17149.9 111.941,193.9 h 0.004 c 11.426,-10.8 22.437,-22 33.017,-33.5 0.09,-0.1 -0.08,-0.2 -0.14,-0.3 l -110.502,-191.4 c -0.148,-0.2 -0.063,-0.9 -0.355,-0.6 -10.981,10.9 -22.301,21.5 -33.977,31.9 -0.008,0 0.008,0 0.012,0 v 0"
         style="fill:#ffffff;fill-opacity:1;fill-rule:nonzero;stroke:none"
         transform="matrix(0.13333333,0,0,-0.13333333,0,2494.4933)" /><path
         id="path58"
         d="m 755.563,16942.4 56.265,97.5 h 0.008 c 11.711,-10.3 23.098,-20.8 34.164,-31.6 0.098,0 0.195,0.4 0.066,0.1 l -56.613,-98 c -0.859,-1.5 1.266,0.3 0.574,1 -11.191,10.6 -22.675,21 -34.461,31 h -0.003"
         style="fill:#ffffff;fill-opacity:1;fill-rule:nonzero;stroke:none"
         transform="matrix(0.13333333,0,0,-0.13333333,0,2494.4933)" /><path
         id="path59"
         d="m 298.215,16150.3 408.289,707.2 c 0.008,0 -0.004,-0.1 0,-0.1 11.875,-9.8 23.484,-20 34.816,-30.4 0.153,-0.2 -0.144,-0.3 -0.226,-0.4 l -397.203,-688.1 c -0.028,0 -0.02,-0.1 -0.082,-0.1 -15.262,3.4 -30.473,7.4 -45.602,11.9 h 0.008"
         style="fill:#ffffff;fill-opacity:1;fill-rule:nonzero;stroke:none"
         transform="matrix(0.13333333,0,0,-0.13333333,0,2494.4933)" /><path
         id="path60"
         d="m 936.465,17089.7 110.025,190.5 v 0 c 10.43,-12.7 20.39,-25.7 29.85,-39 0.11,-0.2 -0.15,-0.3 -0.24,-0.4 l -107.901,-186.9 c -0.144,-0.3 -0.07,-1 -0.332,-0.6 -10.101,12.4 -20.566,24.5 -31.402,36.4 -0.016,0 -0.012,-0.1 0,0 v 0"
         style="fill:#ffffff;fill-opacity:1;fill-rule:nonzero;stroke:none"
         transform="matrix(0.13333333,0,0,-0.13333333,0,2494.4933)" /><path
         id="path61"
         d="m 817.711,16884 55.68,96.4 h -0.008 c 10.926,-11.7 21.508,-23.6 31.75,-35.8 0.148,-0.2 0.273,0.5 0.074,0.1 l -55.324,-95.8 c -0.012,0 0.015,0 0.008,0 -10.411,12 -21.141,23.6 -32.192,35.1 -0.008,0 0.012,0 0.012,0 v 0"
         style="fill:#ffffff;fill-opacity:1;fill-rule:nonzero;stroke:none"
         transform="matrix(0.13333333,0,0,-0.13333333,0,2494.4933)" /><path
         id="path62"
         d="m 382.875,16130.8 386.461,669.4 c 0.008,0 -0.004,0 0,0 11.191,-11.2 22.086,-22.6 32.664,-34.3 0.285,-0.3 0.527,1 0.152,0.3 l -370.437,-641.7 -0.016,-0.1 c -16.297,1.6 -32.582,3.7 -48.824,6.4 v 0"
         style="fill:#ffffff;fill-opacity:1;fill-rule:nonzero;stroke:none"
         transform="matrix(0.13333333,0,0,-0.13333333,0,2494.4933)" /><path
         id="path63"
         d="m 992.797,17021.1 106.873,185.1 c 0,0 -0.01,0 0,0 9.29,-14.8 18,-30 26.13,-45.5 0.06,-0.1 -0.1,-0.1 -0.17,-0.3 l -104.01,-180.2 c -0.08,-0.1 -0.06,-0.5 -0.19,-0.3 -9.16,14 -18.7,27.8 -28.629,41.2 h -0.004"
         style="fill:#ffffff;fill-opacity:1;fill-rule:nonzero;stroke:none"
         transform="matrix(0.13333333,0,0,-0.13333333,0,2494.4933)" /><path
         id="path64"
         d="m 875.59,16818.1 54.816,95 c 0.008,0 -0.008,0 -0.004,0 10.078,-13.2 19.789,-26.7 29.133,-40.4 0.145,-0.2 -0.195,-0.4 -0.312,-0.6 l -54.024,-93.5 c -0.133,-0.3 0.18,0 0.098,0.1 -9.551,13.4 -19.457,26.5 -29.715,39.4 h 0.008"
         style="fill:#ffffff;fill-opacity:1;fill-rule:nonzero;stroke:none"
         transform="matrix(0.13333333,0,0,-0.13333333,0,2494.4933)" /><path
         id="path65"
         d="m 473.551,16121.8 354.594,614.1 v 0 c 10.457,-12.5 20.566,-25.3 30.316,-38.3 0.559,-0.7 1.066,1.8 0.277,0.5 l -332.883,-576.7 c -1.085,-1.9 1.59,0.5 0.29,0.5 -17.493,-0.7 -35.04,-0.8 -52.602,-0.2 -0.008,0.1 0.004,0.1 0.008,0.1 v 0"
         style="fill:#ffffff;fill-opacity:1;fill-rule:nonzero;stroke:none"
         transform="matrix(0.13333333,0,0,-0.13333333,0,2494.4933)" /><path
         id="path66"
         d="m 1043.95,16943.6 101.73,176.2 h 0.01 c 7.87,-17.6 15.01,-35.5 21.42,-53.7 0.06,-0.2 -0.17,-0.3 -0.26,-0.4 l -97.56,-169 c -0.34,-0.6 0.46,0.1 0.29,0.4 -8.13,15.8 -16.67,31.3 -25.63,46.5 -0.01,0 0,0 0,0 v 0"
         style="fill:#ffffff;fill-opacity:1;fill-rule:nonzero;stroke:none"
         transform="matrix(0.13333333,0,0,-0.13333333,0,2494.4933)" /><path
         id="path67"
         d="m 928.824,16744.2 53.711,93 c 0.008,0 -0.008,0 -0.004,0 9.16,-14.8 17.919,-29.9 26.269,-45.3 0.02,0 -0.02,-0.1 -0.04,-0.1 l -53.358,-92.4 c -0.476,-0.9 0.661,0.2 0.395,0.6 -8.594,15 -17.59,29.7 -26.984,44.2 -0.004,0 0.011,0 0.011,0 v 0"
         style="fill:#ffffff;fill-opacity:1;fill-rule:nonzero;stroke:none"
         transform="matrix(0.13333333,0,0,-0.13333333,0,2494.4933)" /><path
         id="path68"
         d="M 571.395,16125.1 882.504,16664 H 882.5 c 9.621,-14.1 18.836,-28.5 27.625,-43.1 0.156,-0.3 0.328,0.6 0.074,0.1 l -281.371,-487.4 c -0.027,-0.1 -0.015,-0.2 -0.074,-0.2 -18.984,-3.5 -38.121,-6.3 -57.363,-8.3 h 0.004"
         style="fill:#ffffff;fill-opacity:1;fill-rule:nonzero;stroke:none"
         transform="matrix(0.13333333,0,0,-0.13333333,0,2494.4933)" /><path
         id="path69"
         d="m 1089.48,16856.4 92.91,160.9 v 0 c 5.9,-21.6 10.79,-43.4 14.65,-65.4 0.19,-1.1 0.69,1.1 0.14,0.2 l -85.35,-147.9 c -0.03,-0.1 -0.04,-0.2 -0.07,-0.1 -6.99,17.7 -14.42,35.1 -22.3,52.2 l 0.02,0.1"
         style="fill:#ffffff;fill-opacity:1;fill-rule:nonzero;stroke:none"
         transform="matrix(0.13333333,0,0,-0.13333333,0,2494.4933)" /><path
         id="path70"
         d="m 1128.71,16758.2 76.34,132.2 c 0,0 0,0 0,0 2.49,-28.9 3.22,-58 2.14,-87.1 0,-0.2 -0.1,-0.2 -0.15,-0.3 l -59.78,-103.6 c -0.01,0 0.01,0 0,0 -5.7,19.8 -11.88,39.5 -18.55,58.8 -0.01,0.1 -0.01,0 0,0 v 0"
         style="fill:#ffffff;fill-opacity:1;fill-rule:nonzero;stroke:none"
         transform="matrix(0.13333333,0,0,-0.13333333,0,2494.4933)" /><path
         id="path71"
         d="m 976.863,16661.3 52.417,90.8 c 0,0 -0.01,0 0,0 8.14,-16.7 15.83,-33.7 23.08,-51 0.41,-0.9 0.94,1.7 0.18,0.4 l -24.12,-41.8 c -0.03,-0.1 -0.04,-0.2 -0.1,-0.2 l -38.386,-24.6 h -0.004 c -4.223,8.9 -8.578,17.7 -13.063,26.4 0,0 -0.012,0 -0.004,0 v 0"
         style="fill:#ffffff;fill-opacity:1;fill-rule:nonzero;stroke:none"
         transform="matrix(0.13333333,0,0,-0.13333333,0,2494.4933)" /><path
         id="path72"
         d="m 678.535,16144.6 253.176,438.5 c 0.004,0 -0.004,0 -0.004,0 8.629,-16 16.762,-32.3 24.379,-48.8 0.059,-0.1 -0.117,-0.2 -0.18,-0.3 l -213.422,-369.7 c -0.984,-1.7 2.102,1.1 0.25,0.4 -21.074,-7.7 -42.496,-14.4 -64.187,-20.1 -0.008,0 -0.016,0 -0.012,0 v 0"
         style="fill:#ffffff;fill-opacity:1;fill-rule:nonzero;stroke:none"
         transform="matrix(0.13333333,0,0,-0.13333333,0,2494.4933)" /><path
         id="path73"
         d="m 799.73,16188.4 223.18,386.5 v 0 l 84.04,54.7 c 0.24,0.1 0.49,0.8 0.26,0.4 l -230.952,-400.2 c -0.949,-1.6 1.84,1.5 0.234,0.4 -24.769,-15.5 -50.41,-29.5 -76.754,-41.8 -0.004,0 -0.011,0 -0.008,0 v 0"
         style="fill:#ffffff;fill-opacity:1;fill-rule:nonzero;stroke:none"
         transform="matrix(0.13333333,0,0,-0.13333333,0,2494.4933)" /><path
         id="path74"
         d="m 1112.62,16475.8 c 43.42,75.2 71.5,155.1 85.18,236 0,0 0.02,0 0.01,0 L 950.828,16284 c -0.008,0 0.004,0 0.012,0 63.21,52.3 118.35,116.5 161.78,191.8 v 0"
         style="fill:#ffffff;fill-opacity:1;fill-rule:nonzero;stroke:none"
         transform="matrix(0.13333333,0,0,-0.13333333,0,2494.4933)" /><path
         id="path75"
         d="m 538.582,15165.4 h 113.383 v 311.8 c -55.215,0 -113.383,-16 -113.383,-63.8 v -248"
         style="fill:#ffffff;fill-opacity:1;fill-rule:nonzero;stroke:none"
         transform="matrix(0.13333333,0,0,-0.13333333,0,2494.4933)" /><path
         id="path76"
         d="m 722.832,15477.2 v -311.8 h 99.215 v 240.9 c 29.035,0 56.691,-16 56.691,-42.5 v -198.4 h 99.215 v 198.4 c 0,65.4 -59.547,113.4 -127.558,113.4 H 722.832"
         style="fill:#ffffff;fill-opacity:1;fill-rule:nonzero;stroke:none"
         transform="matrix(0.13333333,0,0,-0.13333333,0,2494.4933)" /><path
         id="path77"
         d="m 1048.82,15165.4 h 99.21 v 198.4 c 0,29.6 28.35,50.8 56.69,42.5 v -240.9 h 99.21 v 311.8 h -127.55 c -68.02,0 -127.56,-48 -127.56,-113.4 v -198.4"
         style="fill:#ffffff;fill-opacity:1;fill-rule:nonzero;stroke:none"
         transform="matrix(0.13333333,0,0,-0.13333333,0,2494.4933)" /><path
         id="path78"
         d="m 1119.68,15335.5 h 113.39 v -70.9 h -113.39 v 70.9"
         style="fill:#ffffff;fill-opacity:1;fill-rule:nonzero;stroke:none"
         transform="matrix(0.13333333,0,0,-0.13333333,0,2494.4933)" /><path
         id="path79"
         d="m 1374.8,15477.2 h 141.73 c 62.62,0 113.39,-50.8 113.39,-113.4 v -85 h -99.21 v 85 c 0,26.5 -27.66,42.5 -56.7,42.5 v -99.2 h -99.21 v 170.1"
         style="fill:#ffffff;fill-opacity:1;fill-rule:nonzero;stroke:none"
         transform="matrix(0.13333333,0,0,-0.13333333,0,2494.4933)" /><path
         id="path80"
         d="m 1374.8,15321.3 v -42.5 c 0,-62.6 50.77,-113.4 113.39,-113.4 h 141.73 v 170.1 h -99.21 v -99.2 c -29.04,0 -56.7,16 -56.7,42.5 v 99.2 h -99.21 v -56.7"
         style="fill:#ffffff;fill-opacity:1;fill-rule:nonzero;stroke:none"
         transform="matrix(0.13333333,0,0,-0.13333333,0,2494.4933)" /><path
         id="path81"
         d="m 1700.79,15477.2 h 127.56 c 68.01,0 127.55,-48 127.55,-113.4 v -42.5 h -99.21 v 42.5 c 0,26.5 -27.66,42.5 -56.69,42.5 v -127.5 c 0,-26.5 27.65,-42.5 56.69,-42.5 v 42.5 h 99.21 v -113.4 h -127.55 c -65.66,0 -121.28,48.4 -130.4,113.4 l 2.84,198.4"
         style="fill:#ffffff;fill-opacity:1;fill-rule:nonzero;stroke:none"
         transform="matrix(0.13333333,0,0,-0.13333333,0,2494.4933)" /><path
         id="path82"
         d="m 1885.04,15321.3 h -113.39 v 28.3 h 113.39 v -28.3"
         style="fill:#ffffff;fill-opacity:1;fill-rule:nonzero;stroke:none"
         transform="matrix(0.13333333,0,0,-0.13333333,0,2494.4933)" /><path
         id="path83"
         d="m 850.395,11707.1 h 793.685 v 2182.7 c -386.51,0 -793.685,-112 -793.685,-446.5 v -1736.2"
         style="fill:#ffffff;fill-opacity:1;fill-rule:nonzero;stroke:none"
         transform="matrix(0.13333333,0,0,-0.13333333,0,2494.4933)" /><path
         id="path84"
         d="M 354.316,11352.8 V 9170.11 h 694.504 v 1686.59 c 203.25,0 396.84,-112 396.84,-297.6 V 9170.11 h 694.5 v 1388.99 c 0,457.5 -416.8,793.7 -892.91,793.7 H 354.316"
         style="fill:#ffffff;fill-opacity:1;fill-rule:nonzero;stroke:none"
         transform="matrix(0.13333333,0,0,-0.13333333,0,2494.4933)" /><path
         id="path85"
         d="M 354.336,6633.1 H 1048.8 v 1389 c 0,206.7 198.44,355.5 396.88,297.6 V 6633.1 h 694.47 v 2182.69 h -892.91 c -476.099,0 -892.904,-336.19 -892.904,-793.69 v -1389"
         style="fill:#ffffff;fill-opacity:1;fill-rule:nonzero;stroke:none"
         transform="matrix(0.13333333,0,0,-0.13333333,0,2494.4933)" /><path
         id="path86"
         d="M 850.398,7823.7 H 1644.09 V 7327.6 H 850.398 v 496.1"
         style="fill:#ffffff;fill-opacity:1;fill-rule:nonzero;stroke:none"
         transform="matrix(0.13333333,0,0,-0.13333333,0,2494.4933)" /><path
         id="path87"
         d="m 354.32,6278.8 h 992.13 c 438.36,0 793.72,-355.4 793.72,-793.7 v -595.3 h -694.5 v 595.3 c 0,185.5 -193.6,297.6 -396.85,297.6 v -694.5 h -694.5 v 1190.6"
         style="fill:#ffffff;fill-opacity:1;fill-rule:nonzero;stroke:none"
         transform="matrix(0.13333333,0,0,-0.13333333,0,2494.4933)" /><path
         id="path88"
         d="m 354.32,5187.4 v -297.6 c 0,-438.3 355.36,-793.7 793.72,-793.7 h 992.13 v 1190.6 h -694.5 v -694.5 c -203.25,0 -396.85,112 -396.85,297.6 v 694.5 h -694.5 v -396.9"
         style="fill:#ffffff;fill-opacity:1;fill-rule:nonzero;stroke:none"
         transform="matrix(0.13333333,0,0,-0.13333333,0,2494.4933)" /><path
         id="path89"
         d="m 354.34,3741.8 h 892.91 c 476.1,0 892.9,-336.2 892.9,-793.7 v -297.7 h -694.5 v 297.7 c 0,185.5 -193.59,297.6 -396.84,297.6 v -892.9 c 0,-185.6 193.59,-297.6 396.84,-297.6 v 297.6 h 694.5 v -793.7 h -892.9 c -459.598,0 -848.957,338.6 -912.773,793.7 l 19.863,1389"
         style="fill:#ffffff;fill-opacity:1;fill-rule:nonzero;stroke:none"
         transform="matrix(0.13333333,0,0,-0.13333333,0,2494.4933)" /><path
         id="path90"
         d="M 1644.09,2650.4 H 850.402 v 198.5 h 793.688 v -198.5"
         style="fill:#ffffff;fill-opacity:1;fill-rule:nonzero;stroke:none"
         transform="matrix(0.13333333,0,0,-0.13333333,0,2494.4933)" /></g></g></svg>
