<?xml version="1.0" encoding="UTF-8" standalone="no"?>
<!-- Created with Inkscape (http://www.inkscape.org/) -->

<svg
   width="77.801613mm"
   height="80.3769mm"
   viewBox="0 0 77.801613 80.3769"
   version="1.1"
   id="svg1"
   xml:space="preserve"
   inkscape:version="1.3.2 (091e20e, 2023-11-25, custom)"
   sodipodi:docname="inaoe_logo.svg"
   xmlns:inkscape="http://www.inkscape.org/namespaces/inkscape"
   xmlns:sodipodi="http://sodipodi.sourceforge.net/DTD/sodipodi-0.dtd"
   xmlns="http://www.w3.org/2000/svg"
   xmlns:svg="http://www.w3.org/2000/svg"><sodipodi:namedview
     id="namedview1"
     pagecolor="#ffffff"
     bordercolor="#000000"
     borderopacity="0.25"
     inkscape:showpageshadow="2"
     inkscape:pageopacity="0.0"
     inkscape:pagecheckerboard="0"
     inkscape:deskcolor="#d1d1d1"
     inkscape:document-units="mm"
     inkscape:zoom="0.69219276"
     inkscape:cx="147.3578"
     inkscape:cy="152.41419"
     inkscape:window-width="1450"
     inkscape:window-height="981"
     inkscape:window-x="223"
     inkscape:window-y="0"
     inkscape:window-maximized="0"
     inkscape:current-layer="g1"><inkscape:page
       x="-1.6380367e-05"
       y="-0.0011542197"
       width="77.800484"
       height="80.378044"
       id="page2"
       margin="0"
       bleed="0" /></sodipodi:namedview><defs
     id="defs1" /><g
     inkscape:label="Layer 1"
     inkscape:groupmode="layer"
     id="layer1"
     transform="translate(-220.00001)" /><g
     id="g1"
     inkscape:groupmode="layer"
     inkscape:label="1"
     transform="matrix(0.26458333,0,0,0.26458334,4.9379573e-6,0)"><g
       id="group-R5"><path
         id="path2"
         d="M 620.773,368.5 H 394.012 c -0.016,0 0.008,-0.012 0.008,0 0,15.238 0.484,30.359 1.429,45.352 0.008,0.117 0.141,0.007 0.235,0.007 h 226.222 c 0.039,0 0.106,0.051 0.102,0 -0.805,-14.988 -1.215,-30.109 -1.215,-45.359 0,-0.012 -0.012,0 -0.02,0 v 0"
         style="fill:#2c4185;fill-opacity:1;fill-rule:nonzero;stroke:none"
         transform="matrix(0.13333333,0,0,-0.13333333,0,303.78667)" /><path
         id="path3"
         d="m 861.742,368.5 h -113.39 c 0,15.219 0.398,30.34 1.183,45.352 0.028,0.519 -1.43,0.007 -0.492,0.007 H 863.59 c 1.258,0 -0.688,0.731 -0.727,0.012 -0.75,-15.043 -1.129,-30.172 -1.129,-45.371 0,-0.012 0.024,0 0.008,0 v 0"
         style="fill:#2c4185;fill-opacity:1;fill-rule:nonzero;stroke:none"
         transform="matrix(0.13333333,0,0,-0.13333333,0,303.78667)" /><path
         id="path4"
         d="M 1811.35,368.5 H 960.949 c 0,15.172 0.352,30.289 1.051,45.352 0.02,0.449 -1.238,0.007 -0.426,0.007 h 849.276 c 1.81,0 -1,1.02 -0.93,-0.007 0.94,-14.993 1.42,-30.114 1.42,-45.352 0,0 0.02,0 0.01,0 v 0"
         style="fill:#2c4185;fill-opacity:1;fill-rule:nonzero;stroke:none"
         transform="matrix(0.13333333,0,0,-0.13333333,0,303.78667)" /><path
         id="path5"
         d="M 624.898,451.559 H 398.836 c 1.781,15.269 4.051,30.39 6.789,45.351 0.023,0.129 0.184,0 0.301,0 l 224.918,0.012 c 0.222,0 -0.117,0.148 -0.141,0.008 -2.344,-14.981 -4.281,-30.102 -5.805,-45.371 v 0"
         style="fill:#2c4185;fill-opacity:1;fill-rule:nonzero;stroke:none"
         transform="matrix(0.13333333,0,0,-0.13333333,0,303.78667)" /><path
         id="path6"
         d="M 865.527,451.559 H 752.355 l -0.011,0.011 c 1.476,15.239 3.351,30.371 5.617,45.371 0.008,0.02 0.031,-0.019 0.047,-0.019 l 113.258,0.008 c 0.656,0 -0.36,0.371 -0.411,0 -2.148,-15.02 -3.925,-30.149 -5.324,-45.371 h -0.004"
         style="fill:#2c4185;fill-opacity:1;fill-rule:nonzero;stroke:none"
         transform="matrix(0.13333333,0,0,-0.13333333,0,303.78667)" /><path
         id="path7"
         d="M 1806.53,451.559 H 964.488 c -0.004,0 -0.008,-0.02 -0.008,-0.008 1.297,15.199 2.95,30.328 4.946,45.379 0.027,0.211 -0.531,0 -0.172,0 l 831.426,0.019 c 2.09,0 -1.16,1.172 -0.95,-0.008 2.74,-14.972 5.01,-30.101 6.8,-45.382 v 0"
         style="fill:#2c4185;fill-opacity:1;fill-rule:nonzero;stroke:none"
         transform="matrix(0.13333333,0,0,-0.13333333,0,303.78667)" /><path
         id="path8"
         d="M 637.492,534.609 H 413.598 c 3.675,15.321 7.851,30.442 12.507,45.352 0.04,0.117 0.188,0.008 0.305,0.008 l 221.031,0.011 c 0.297,0 0.825,0.411 0.715,0.008 -3.965,-14.968 -7.519,-30.097 -10.648,-45.379 -0.004,-0.007 -0.012,0 -0.016,0 v 0"
         style="fill:#2c4185;fill-opacity:1;fill-rule:nonzero;stroke:none"
         transform="matrix(0.13333333,0,0,-0.13333333,0,303.78667)" /><path
         id="path9"
         d="M 877.059,534.609 H 764.527 l -0.004,0.012 c 3.012,15.258 6.43,30.379 10.243,45.359 0.031,0.129 -0.371,0.008 -0.118,0.008 L 887.887,580 c 1.718,0 -0.934,0.91 -1.157,-0.012 -3.601,-15 -6.828,-30.129 -9.667,-45.367 l -0.004,-0.012"
         style="fill:#2c4185;fill-opacity:1;fill-rule:nonzero;stroke:none"
         transform="matrix(0.13333333,0,0,-0.13333333,0,303.78667)" /><path
         id="path10"
         d="M 1791.76,534.609 H 975.18 c -0.012,0 0.008,0 0.008,0.012 2.64,15.231 5.636,30.367 8.988,45.391 0.047,0.199 0.277,-0.012 0.441,-0.012 l 794.473,0.039 c 0.05,0 0.13,0.051 0.15,-0.008 4.66,-14.929 8.84,-30.082 12.53,-45.422 h -0.01"
         style="fill:#2c4185;fill-opacity:1;fill-rule:nonzero;stroke:none"
         transform="matrix(0.13333333,0,0,-0.13333333,0,303.78667)" /><path
         id="path11"
         d="M 659.109,617.672 H 439.063 c 5.781,15.379 12.078,30.508 18.875,45.359 0.082,0.18 0.3,0.008 0.476,0.008 l 215.84,0.012 c 0.285,0 0.816,0.39 0.672,0.008 -5.696,-14.957 -10.977,-30.09 -15.821,-45.399 -0.007,-0.019 0.028,0.012 0.004,0.012 v 0"
         style="fill:#2c4185;fill-opacity:1;fill-rule:nonzero;stroke:none"
         transform="matrix(0.13333333,0,0,-0.13333333,0,303.78667)" /><path
         id="path12"
         d="M 896.617,617.672 H 785.266 v -0.012 c 4.636,15.289 9.687,30.43 15.136,45.399 0.082,0.222 -0.547,0 -0.148,0 l 110.66,0.011 c 0.024,0 -0.012,0.008 -0.016,0 -5.14,-14.992 -9.902,-30.129 -14.269,-45.41 -0.004,-0.012 -0.008,0.012 -0.012,0.012 v 0"
         style="fill:#2c4185;fill-opacity:1;fill-rule:nonzero;stroke:none"
         transform="matrix(0.13333333,0,0,-0.13333333,0,303.78667)" /><path
         id="path13"
         d="M 1766.29,617.672 H 993.371 c -0.019,0 0.012,0 0.016,0 4.062,15.269 8.493,30.406 13.293,45.398 0.13,0.399 -1.04,0 -0.3,0 l 740.98,0.059 h 0.02 c 6.82,-14.891 13.13,-30.051 18.92,-45.457 h -0.01"
         style="fill:#2c4185;fill-opacity:1;fill-rule:nonzero;stroke:none"
         transform="matrix(0.13333333,0,0,-0.13333333,0,303.78667)" /><path
         id="path14"
         d="M 690.305,700.719 H 476.566 c -0.003,0 -0.015,-0.008 -0.011,0 8.23,15.472 17.015,30.609 26.332,45.383 0.074,0.109 0.218,0 0.34,0 l 208.062,0.019 c 0.172,0 0.496,0.219 0.387,0 -7.555,-14.93 -14.684,-30.07 -21.367,-45.391 l -0.004,-0.011"
         style="fill:#2c4185;fill-opacity:1;fill-rule:nonzero;stroke:none"
         transform="matrix(0.13333333,0,0,-0.13333333,0,303.78667)" /><path
         id="path15"
         d="M 924.723,700.719 H 815.082 c -0.012,0 0.008,-0.008 0.008,0 6.383,15.32 13.18,30.461 20.387,45.41 0.113,0.23 0.398,0 0.628,0 l 108.067,0.012 c 0.266,0 -0.145,0.129 -0.203,0 -6.805,-14.961 -13.219,-30.102 -19.231,-45.422 h -0.015"
         style="fill:#2c4185;fill-opacity:1;fill-rule:nonzero;stroke:none"
         transform="matrix(0.13333333,0,0,-0.13333333,0,303.78667)" /><path
         id="path16"
         d="m 1728.8,700.719 h -709.19 v 0 c 5.63,15.332 11.65,30.472 18.04,45.429 0.37,0.852 -2.12,0 -0.54,0 l 665.87,0.063 c 2.17,0 -1.27,1.098 -0.58,0 9.35,-14.801 18.16,-29.981 26.41,-45.492 h -0.01"
         style="fill:#2c4185;fill-opacity:1;fill-rule:nonzero;stroke:none"
         transform="matrix(0.13333333,0,0,-0.13333333,0,303.78667)" /><path
         id="path17"
         d="M 731.848,783.781 H 528.387 c 11.316,15.617 23.254,30.77 35.777,45.391 0.129,0.148 0.332,0 0.516,0 l 195.156,0.019 c 0.676,0 -0.359,0.329 -0.566,0.008 -9.582,-14.918 -18.731,-30.07 -27.426,-45.429 -0.012,-0.02 0.015,0.011 0.004,0.011 v 0"
         style="fill:#2c4185;fill-opacity:1;fill-rule:nonzero;stroke:none"
         transform="matrix(0.13333333,0,0,-0.13333333,0,303.78667)" /><path
         id="path18"
         d="M 962.102,783.781 H 854.684 c -0.016,0 0.011,0 0.015,0 8.281,15.36 16.996,30.5 26.125,45.418 0.02,0.031 0.059,0 0.09,0 l 106.738,0.02 c 0.953,0 -0.511,0.461 -0.781,0 -8.664,-14.918 -16.922,-30.078 -24.758,-45.449 -0.004,-0.008 -0.008,0.011 -0.011,0.011 v 0"
         style="fill:#2c4185;fill-opacity:1;fill-rule:nonzero;stroke:none"
         transform="matrix(0.13333333,0,0,-0.13333333,0,303.78667)" /><path
         id="path19"
         d="m 1676.97,783.781 h -622.22 v 0 c 7.42,15.391 15.24,30.539 23.48,45.449 0.14,0.258 -0.66,0 -0.15,0 l 562.86,0.059 c 0.05,0 0.11,0.051 0.15,0.012 12.57,-14.672 24.54,-29.852 35.89,-45.52 h -0.01"
         style="fill:#2c4185;fill-opacity:1;fill-rule:nonzero;stroke:none"
         transform="matrix(0.13333333,0,0,-0.13333333,0,303.78667)" /><path
         id="path20"
         d="m 784.656,866.828 h -185.832 0.008 c 15.719,15.902 32.184,31.051 49.34,45.402 0.836,0.7 -1.359,0.008 -0.274,0.008 l 170.754,0.032 c 0.063,0 0.176,0.05 0.125,-0.008 -11.816,-14.891 -23.191,-30.043 -34.105,-45.442 -0.004,0 -0.008,0.008 -0.016,0.008 v 0"
         style="fill:#2c4185;fill-opacity:1;fill-rule:nonzero;stroke:none"
         transform="matrix(0.13333333,0,0,-0.13333333,0,303.78667)" /><path
         id="path21"
         d="M 850.035,949.891 H 697.363 c -0.008,0 0.008,0 0.012,0 23.777,16.609 48.621,31.789 74.41,45.437 0.094,0.043 0.199,0 0.305,0 l 119.601,0.024 c 0.008,0 0.028,0.019 0.012,0.007 -14.348,-14.871 -28.25,-30.031 -41.672,-45.48 -0.027,-0.027 0.035,0.012 0.004,0.012 v 0"
         style="fill:#2c4185;fill-opacity:1;fill-rule:nonzero;stroke:none"
         transform="matrix(0.13333333,0,0,-0.13333333,0,303.78667)" /><path
         id="path22"
         d="M 1009.88,866.828 H 905.059 c -0.008,0 -0.024,-0.008 -0.016,0 10.418,15.41 21.285,30.57 32.586,45.461 0.641,0.852 -1.902,-0.008 -0.383,-0.008 l 48.258,0.008 c 0.066,0 0.141,0.031 0.203,0 l 40.463,-20.961 -0.01,-0.008 c -5.55,-8.082 -10.98,-16.25 -16.28,-24.492 -0.01,0 0.01,0 0,0 v 0"
         style="fill:#2c4185;fill-opacity:1;fill-rule:nonzero;stroke:none"
         transform="matrix(0.13333333,0,0,-0.13333333,0,303.78667)" /><path
         id="path23"
         d="m 1606.54,866.828 h -506.35 c -0.01,0 0.01,0 0.01,0.012 9.55,15.469 19.56,30.64 30.01,45.469 0.09,0.121 0.23,0 0.36,0 l 426.94,0.062 c 1.97,0 -2,1.27 -0.49,0.008 17.22,-14.399 33.74,-29.598 49.51,-45.539 0,-0.012 0.02,-0.012 0.01,-0.012 v 0"
         style="fill:#2c4185;fill-opacity:1;fill-rule:nonzero;stroke:none"
         transform="matrix(0.13333333,0,0,-0.13333333,0,303.78667)" /><path
         id="path24"
         d="m 1508,949.891 h -446.35 l -0.01,-0.012 -89.327,45.48 c -0.247,0.121 -0.969,0 -0.497,0 l 462.034,0.082 c 1.89,0 -2.15,0.879 -0.48,-0.011 25.86,-13.66 50.78,-28.891 74.62,-45.539 0.01,0 0.03,0 0.01,0 v 0"
         style="fill:#2c4185;fill-opacity:1;fill-rule:nonzero;stroke:none"
         transform="matrix(0.13333333,0,0,-0.13333333,0,303.78667)" /><path
         id="path25"
         d="m 1102.68,1077.16 c -86.86,0 -170.063,-15.62 -246.961,-44.22 -0.012,0 -0.039,0 -0.024,0 h 493.965 c 0.02,0 0,0 -0.01,0 -76.9,28.6 -160.11,44.22 -246.97,44.22 v 0"
         style="fill:#2c4185;fill-opacity:1;fill-rule:nonzero;stroke:none"
         transform="matrix(0.13333333,0,0,-0.13333333,0,303.78667)" /><path
         id="path26"
         d="m 2091.98,1247.35 113.38,-196.38 c 0.01,-0.01 0.01,0.01 0,0.01 -13.19,-7.62 -26.53,-14.77 -39.99,-21.44 -0.1,-0.05 -0.08,0.12 -0.12,0.2 l -113.11,195.91 c -0.02,0.04 -0.11,0.07 -0.06,0.09 13.38,6.8 26.68,14 39.89,21.63 0.01,0 0.01,-0.01 0.01,-0.02 v 0"
         style="fill:#2c4185;fill-opacity:1;fill-rule:nonzero;stroke:none"
         transform="matrix(0.13333333,0,0,-0.13333333,0,303.78667)" /><path
         id="path27"
         d="m 1971.5,1456.04 56.69,-98.2 v 0 c -13.18,-7.61 -26.47,-14.83 -39.86,-21.65 -0.47,-0.24 0.71,-1.24 0.24,-0.43 l -57.27,99.2 c -0.63,1.09 -0.29,-0.96 0.35,-0.64 13.4,6.88 26.69,14.11 39.85,21.71 0.01,0.01 -0.01,0.02 0,0.01 v 0"
         style="fill:#2c4185;fill-opacity:1;fill-rule:nonzero;stroke:none"
         transform="matrix(0.13333333,0,0,-0.13333333,0,303.78667)" /><path
         id="path28"
         d="m 1496.69,2278.42 425.2,-736.46 v -0.01 c -13.13,-7.58 -26.4,-14.84 -39.79,-21.76 -0.4,-0.21 0.61,-1.08 0.2,-0.37 l -424.64,735.49 c -0.9,1.57 -0.38,-1.37 0.47,-0.81 12.52,8.32 25.37,16.3 38.57,23.92 h -0.01"
         style="fill:#2c4185;fill-opacity:1;fill-rule:nonzero;stroke:none"
         transform="matrix(0.13333333,0,0,-0.13333333,0,303.78667)" /><path
         id="path29"
         d="m 2017.99,1209.4 113.03,-195.78 v 0 c -14.12,-6.09 -28.35,-11.69 -42.67,-16.8 -0.13,-0.039 -0.1,0.16 -0.15,0.258 l -112.47,194.782 c -0.11,0.19 -0.07,-0.17 0.06,-0.12 14.15,5.46 28.21,11.34 42.2,17.66 v 0"
         style="fill:#2c4185;fill-opacity:1;fill-rule:nonzero;stroke:none"
         transform="matrix(0.13333333,0,0,-0.13333333,0,303.78667)" /><path
         id="path30"
         d="m 1897.68,1417.79 56.58,-98.01 v -0.02 c -13.94,-6.34 -27.98,-12.28 -42.1,-17.82 -0.03,-0.01 0,0.03 -0.01,0.05 l -56.63,98.08 c -0.33,0.57 -0.15,-0.5 0.2,-0.36 14.08,5.65 28.07,11.68 41.95,18.08 h 0.01"
         style="fill:#2c4185;fill-opacity:1;fill-rule:nonzero;stroke:none"
         transform="matrix(0.13333333,0,0,-0.13333333,0,303.78667)" /><path
         id="path31"
         d="m 1427.18,2232.72 421.02,-729.23 c 0,0 0.02,0 0.01,0 -13.82,-6.48 -27.75,-12.62 -41.78,-18.41 -0.19,-0.08 0.27,-0.46 0.09,-0.15 l -415.73,720.03 c -1.04,1.81 -0.43,-1.59 0.48,-0.82 11.59,9.86 23.56,19.39 35.9,28.58 h 0.01"
         style="fill:#2c4185;fill-opacity:1;fill-rule:nonzero;stroke:none"
         transform="matrix(0.13333333,0,0,-0.13333333,0,303.78667)" /><path
         id="path32"
         d="m 1939.77,1178.78 111.94,-193.901 0.01,-0.008 c -15.11,-4.473 -30.29,-8.41 -45.53,-11.84 -0.13,-0.019 -0.11,0.16 -0.17,0.258 L 1895.5,1164.7 c -0.15,0.26 -0.76,0.51 -0.36,0.62 14.94,4.05 29.82,8.54 44.62,13.47 l 0.01,-0.01"
         style="fill:#2c4185;fill-opacity:1;fill-rule:nonzero;stroke:none"
         transform="matrix(0.13333333,0,0,-0.13333333,0,303.78667)" /><path
         id="path33"
         d="m 1819.98,1386.25 56.27,-97.46 v 0 c -14.73,-5.03 -29.53,-9.63 -44.41,-13.82 -0.13,-0.03 0.18,-0.32 0.05,-0.1 l -56.63,98.06 c -0.86,1.49 -0.32,-1.27 0.59,-1 14.79,4.38 29.5,9.16 44.13,14.32 v 0"
         style="fill:#2c4185;fill-opacity:1;fill-rule:nonzero;stroke:none"
         transform="matrix(0.13333333,0,0,-0.13333333,0,303.78667)" /><path
         id="path34"
         d="m 1362.63,2178.4 408.29,-707.18 c 0.01,-0.01 0,0.01 -0.01,0.01 -14.51,-5.34 -29.12,-10.31 -43.8,-14.92 -0.2,-0.06 -0.13,0.25 -0.21,0.39 l -397.27,688.01 c -0.03,0.05 -0.11,0.09 -0.07,0.14 10.6,11.5 21.63,22.7 33.07,33.56 v -0.01"
         style="fill:#2c4185;fill-opacity:1;fill-rule:nonzero;stroke:none"
         transform="matrix(0.13333333,0,0,-0.13333333,0,303.78667)" /><path
         id="path35"
         d="m 1857.03,1155.97 110.02,-190.572 v 0 c -16.21,-2.687 -32.46,-4.796 -48.72,-6.339 -0.2,-0.008 -0.16,0.261 -0.24,0.421 l -107.94,186.91 c -0.14,0.25 -0.74,0.51 -0.34,0.58 15.8,2.54 31.55,5.54 47.23,9 0.02,0 -0.02,0.02 -0.01,0 v 0"
         style="fill:#2c4185;fill-opacity:1;fill-rule:nonzero;stroke:none"
         transform="matrix(0.13333333,0,0,-0.13333333,0,303.78667)" /><path
         id="path36"
         d="m 1738.28,1361.66 55.67,-96.44 0.01,0.01 c -15.57,-3.64 -31.2,-6.83 -46.89,-9.59 -0.23,-0.04 0.28,-0.48 0.08,-0.13 l -55.34,95.83 c -0.01,0.02 0,-0.02 0.01,-0.02 15.55,3.04 31.04,6.49 46.46,10.35 0.01,0.01 -0.01,-0.01 0,-0.01 v 0"
         style="fill:#2c4185;fill-opacity:1;fill-rule:nonzero;stroke:none"
         transform="matrix(0.13333333,0,0,-0.13333333,0,303.78667)" /><path
         id="path37"
         d="m 1303.44,2114.82 386.46,-669.37 c 0.01,-0.02 -0.01,0.01 -0.01,0.01 -15.26,-4.12 -30.59,-7.85 -45.96,-11.19 -0.42,-0.09 0.51,-0.9 0.14,-0.26 l -370.53,641.68 c -0.01,0.01 -0.02,0.01 -0.02,0.02 9.49,13.34 19.46,26.39 29.91,39.11 h 0.01"
         style="fill:#2c4185;fill-opacity:1;fill-rule:nonzero;stroke:none"
         transform="matrix(0.13333333,0,0,-0.13333333,0,303.78667)" /><path
         id="path38"
         d="m 1769.5,1141.46 106.87,-185.108 c 0.01,0 0.02,0 0.01,0 -17.51,-0.622 -35.02,-0.571 -52.46,0.109 -0.14,0.008 -0.11,0.187 -0.18,0.289 l -104.04,180.18 c -0.09,0.15 -0.44,0.32 -0.2,0.33 16.71,0.93 33.38,2.32 50,4.2 v 0"
         style="fill:#2c4185;fill-opacity:1;fill-rule:nonzero;stroke:none"
         transform="matrix(0.13333333,0,0,-0.13333333,0,303.78667)" /><path
         id="path39"
         d="m 1652.3,1344.47 54.82,-94.95 c 0,-0.01 0,0.01 -0.01,0.01 -16.46,-2.14 -32.97,-3.82 -49.52,-5.05 -0.25,-0.02 -0.2,0.34 -0.31,0.54 l -54.04,93.58 c -0.14,0.23 -0.04,-0.19 0.1,-0.17 16.35,1.58 32.68,3.6 48.95,6.05 l 0.01,-0.01"
         style="fill:#2c4185;fill-opacity:1;fill-rule:nonzero;stroke:none"
         transform="matrix(0.13333333,0,0,-0.13333333,0,303.78667)" /><path
         id="path40"
         d="m 1250.26,2040.82 354.59,-614.18 v 0 c -16.09,-2.78 -32.21,-5.15 -48.36,-7.08 -0.92,-0.11 1.06,-1.85 0.27,-0.47 l -332.99,576.62 c -1.09,1.89 -0.32,-1.65 0.29,-0.49 8.15,15.49 16.88,30.71 26.2,45.61 0,0.01 0,-0.01 0,-0.01 v 0"
         style="fill:#2c4185;fill-opacity:1;fill-rule:nonzero;stroke:none"
         transform="matrix(0.13333333,0,0,-0.13333333,0,303.78667)" /><path
         id="path41"
         d="m 1676.81,1135.91 101.72,-176.199 v -0.012 c -19.19,1.992 -38.27,4.762 -57.2,8.289 -0.19,0.043 -0.16,0.293 -0.25,0.453 l -97.6,168.999 c -0.34,0.58 -0.11,-0.48 0.28,-0.5 17.71,-0.83 35.4,-1.19 53.05,-1.04 0.03,0.01 -0.01,0.02 0,0.01 v 0"
         style="fill:#2c4185;fill-opacity:1;fill-rule:nonzero;stroke:none"
         transform="matrix(0.13333333,0,0,-0.13333333,0,303.78667)" /><path
         id="path42"
         d="m 1561.68,1335.31 53.71,-93.02 c 0.01,-0.02 -0.01,0.01 -0.01,0.01 -17.44,-0.51 -34.92,-0.53 -52.4,-0.09 -0.04,0 -0.03,0.05 -0.05,0.08 l -53.38,92.43 c -0.48,0.83 -0.14,-0.68 0.39,-0.68 17.25,-0.04 34.51,0.39 51.74,1.28 0.01,0.01 0,0 0,-0.01 v 0"
         style="fill:#2c4185;fill-opacity:1;fill-rule:nonzero;stroke:none"
         transform="matrix(0.13333333,0,0,-0.13333333,0,303.78667)" /><path
         id="path43"
         d="m 1204.25,1954.41 311.11,-538.86 h -0.01 c -17.03,-1.27 -34.07,-2.07 -51.1,-2.39 -0.3,-0.01 0.33,-0.57 0.08,-0.13 l -281.49,487.42 c -0.03,0.04 -0.1,0.07 -0.08,0.13 6.42,18.21 13.58,36.17 21.48,53.83 h 0.01"
         style="fill:#2c4185;fill-opacity:1;fill-rule:nonzero;stroke:none"
         transform="matrix(0.13333333,0,0,-0.13333333,0,303.78667)" /><path
         id="path44"
         d="m 1578.47,1140.11 92.92,-160.93 h -0.01 c -21.62,5.672 -42.98,12.351 -63.99,20.031 -1.02,0.379 0.68,-1.18 0.13,-0.242 l -85.39,147.871 c -0.03,0.05 -0.14,0.12 -0.06,0.11 18.81,-2.79 37.61,-5.07 56.4,-6.82 v -0.02"
         style="fill:#2c4185;fill-opacity:1;fill-rule:nonzero;stroke:none"
         transform="matrix(0.13333333,0,0,-0.13333333,0,303.78667)" /><path
         id="path45"
         d="m 1473.86,1155.21 76.33,-132.22 h -0.01 c -26.27,12.29 -51.84,26.22 -76.55,41.73 -0.09,0.05 -0.1,0.17 -0.15,0.26 l -59.82,103.57 c -0.01,0.01 -0.04,0.01 -0.02,0.01 20.05,-5 40.13,-9.46 60.23,-13.36 0.03,0 -0.03,0.03 -0.01,0.01 v 0"
         style="fill:#2c4185;fill-opacity:1;fill-rule:nonzero;stroke:none"
         transform="matrix(0.13333333,0,0,-0.13333333,0,303.78667)" /><path
         id="path46"
         d="m 1465.86,1335.16 52.41,-90.78 c 0.01,0 0.02,-0.01 0.01,-0.01 -18.56,1.32 -37.12,3.15 -55.66,5.49 -1.06,0.13 0.95,-1.64 0.2,-0.33 l -24.14,41.79 c -0.03,0.06 -0.1,0.11 -0.1,0.18 l -2.08,45.52 h 0.01 c 9.78,-0.77 19.56,-1.39 29.35,-1.86 0.01,0 -0.01,0.02 0,0 v 0"
         style="fill:#2c4185;fill-opacity:1;fill-rule:nonzero;stroke:none"
         transform="matrix(0.13333333,0,0,-0.13333333,0,303.78667)" /><path
         id="path47"
         d="m 1167.53,1851.89 253.18,-438.51 c 0,-0.02 -0.01,0 -0.01,0 -18.18,0.53 -36.32,1.62 -54.4,3.25 -0.13,0.02 -0.11,0.21 -0.17,0.32 l -213.52,369.71 c -0.99,1.71 -0.1,-2.37 0.24,-0.43 3.86,22.11 8.76,44.02 14.68,65.65 0,0 0,0.01 0,0.01 v 0"
         style="fill:#2c4185;fill-opacity:1;fill-rule:nonzero;stroke:none"
         transform="matrix(0.13333333,0,0,-0.13333333,0,303.78667)" /><path
         id="path48"
         d="m 1144.87,1725.02 223.18,-386.55 0.01,-0.01 5.28,-100.09 c 0.01,-0.28 0.48,-0.84 0.24,-0.44 l -231.08,400.1 c -0.95,1.64 0.31,-2.31 0.24,-0.41 -1.09,29.23 -0.37,58.42 2.13,87.39 0.01,0.01 0,0.03 0,0.01 v 0"
         style="fill:#2c4185;fill-opacity:1;fill-rule:nonzero;stroke:none"
         transform="matrix(0.13333333,0,0,-0.13333333,0,303.78667)" /><path
         id="path49"
         d="m 1237.31,1310.37 c 43.43,-75.22 98.56,-139.47 161.78,-191.77 0,-0.01 0.02,-0.03 0.01,-0.02 l -246.99,427.79 c 0,0.02 0.01,-0.01 0.01,-0.01 13.69,-80.9 41.76,-160.77 85.19,-235.99 v 0"
         style="fill:#2c4185;fill-opacity:1;fill-rule:nonzero;stroke:none"
         transform="matrix(0.13333333,0,0,-0.13333333,0,303.78667)" /><path
         id="path50"
         d="m 595.289,2082.04 113.383,196.39 c 0.008,0.01 -0.012,-0.01 -0.004,-0.01 13.191,-7.62 26.047,-15.6 38.562,-23.92 0.094,-0.06 -0.07,-0.12 -0.117,-0.2 L 634.004,2058.38 c -0.02,-0.03 -0.004,-0.11 -0.051,-0.09 -12.574,8.19 -25.465,16.11 -38.672,23.74 -0.011,0 0.004,0.01 0.008,0.01 v 0"
         style="fill:#2c4185;fill-opacity:1;fill-rule:nonzero;stroke:none"
         transform="matrix(0.13333333,0,0,-0.13333333,0,303.78667)" /><path
         id="path51"
         d="m 474.805,1873.36 56.691,98.19 0.004,0.01 c 13.188,-7.61 26.078,-15.52 38.68,-23.7 0.437,-0.29 0.722,1.23 0.254,0.42 l -57.274,-99.2 c -0.629,-1.09 0.981,0.23 0.371,0.62 -12.648,8.17 -25.558,16.06 -38.722,23.66 -0.008,0.01 -0.012,-0.02 -0.004,0 v 0"
         style="fill:#2c4185;fill-opacity:1;fill-rule:nonzero;stroke:none"
         transform="matrix(0.13333333,0,0,-0.13333333,0,303.78667)" /><path
         id="path52"
         d="M 0.00390625,1050.97 425.199,1787.43 l 0.004,0.01 c 13.137,-7.58 26.055,-15.45 38.746,-23.58 0.379,-0.25 0.625,1.07 0.223,0.36 L 39.5313,1028.73 c -0.9063,-1.57 1.3828,0.35 0.4648,0.81 -13.4609,6.67 -26.7969,13.82 -39.99219375,21.44 -0.00390625,0 -0.0078125,-0.02 0,-0.01 v 0"
         style="fill:#2c4185;fill-opacity:1;fill-rule:nonzero;stroke:none"
         transform="matrix(0.13333333,0,0,-0.13333333,0,303.78667)" /><path
         id="path53"
         d="m 665.156,2036.95 113.028,195.77 h 0.007 c 12.332,-9.18 24.293,-18.71 35.879,-28.56 0.106,-0.09 -0.09,-0.16 -0.144,-0.26 L 701.469,2009.11 c -0.11,-0.19 0.187,0.03 0.082,0.12 -11.801,9.52 -23.93,18.76 -36.395,27.71 v 0.01"
         style="fill:#2c4185;fill-opacity:1;fill-rule:nonzero;stroke:none"
         transform="matrix(0.13333333,0,0,-0.13333333,0,303.78667)" /><path
         id="path54"
         d="m 544.84,1828.55 56.586,98.01 0.015,0.01 c 12.465,-8.91 24.625,-18.09 36.485,-27.55 0.019,-0.02 -0.028,-0.02 -0.035,-0.04 l -56.625,-98.08 c -0.332,-0.57 0.5,0.12 0.207,0.35 -11.938,9.37 -24.149,18.48 -36.633,27.3 v 0"
         style="fill:#2c4185;fill-opacity:1;fill-rule:nonzero;stroke:none"
         transform="matrix(0.13333333,0,0,-0.13333333,0,303.78667)" /><path
         id="path55"
         d="m 74.3398,1013.62 421.0192,729.23 c 0.004,0 -0.011,0.02 0,0.01 12.52,-8.73 24.797,-17.72 36.829,-26.97 0.164,-0.13 0.261,0.46 0.082,0.15 L 116.574,995.988 c -1.043,-1.808 1.598,0.422 0.473,0.821 -14.336,5.111 -28.5782,10.711 -42.7032,16.811 h -0.004"
         style="fill:#2c4185;fill-opacity:1;fill-rule:nonzero;stroke:none"
         transform="matrix(0.13333333,0,0,-0.13333333,0,303.78667)" /><path
         id="path56"
         d="m 730.785,1984.51 111.945,193.89 0.004,0.01 c 11.426,-10.84 22.434,-22.02 33.02,-33.51 0.086,-0.09 -0.082,-0.17 -0.141,-0.27 L 765.109,1953.21 c -0.148,-0.26 -0.062,-0.92 -0.355,-0.62 -10.981,10.91 -22.305,21.55 -33.977,31.91 -0.007,0 0.008,0 0.008,0.01 v 0"
         style="fill:#2c4185;fill-opacity:1;fill-rule:nonzero;stroke:none"
         transform="matrix(0.13333333,0,0,-0.13333333,0,303.78667)" /><path
         id="path57"
         d="m 611.004,1777.04 56.266,97.45 h 0.007 c 11.707,-10.24 23.098,-20.76 34.164,-31.54 0.094,-0.1 0.196,0.31 0.067,0.09 l -56.613,-98.07 c -0.86,-1.49 1.261,0.35 0.574,1 -11.192,10.62 -22.68,20.98 -34.461,31.06 l -0.004,0.01"
         style="fill:#2c4185;fill-opacity:1;fill-rule:nonzero;stroke:none"
         transform="matrix(0.13333333,0,0,-0.13333333,0,303.78667)" /><path
         id="path58"
         d="m 153.652,984.879 408.289,707.181 c 0.008,0.01 0,-0.01 0,-0.01 11.879,-9.9 23.489,-20.07 34.821,-30.48 0.148,-0.14 -0.149,-0.23 -0.231,-0.37 L 199.328,973.141 c -0.027,-0.051 -0.015,-0.141 -0.078,-0.121 -15.266,3.429 -30.473,7.378 -45.602,11.851 l 0.004,0.008"
         style="fill:#2c4185;fill-opacity:1;fill-rule:nonzero;stroke:none"
         transform="matrix(0.13333333,0,0,-0.13333333,0,303.78667)" /><path
         id="path59"
         d="m 791.906,1924.26 110.024,190.56 v 0 c 10.433,-12.69 20.386,-25.71 29.847,-39.02 0.118,-0.16 -0.144,-0.26 -0.234,-0.42 L 823.637,1888.45 c -0.141,-0.24 -0.071,-0.9 -0.328,-0.58 -10.106,12.41 -20.571,24.54 -31.407,36.4 -0.011,0.01 -0.007,-0.03 0.004,-0.01 v 0"
         style="fill:#2c4185;fill-opacity:1;fill-rule:nonzero;stroke:none"
         transform="matrix(0.13333333,0,0,-0.13333333,0,303.78667)" /><path
         id="path60"
         d="m 673.152,1718.57 55.676,96.44 h -0.004 c 10.926,-11.67 21.508,-23.61 31.746,-35.81 0.153,-0.18 0.278,0.48 0.075,0.13 l -55.321,-95.84 c -0.011,-0.02 0.012,0.01 0.004,0.01 -10.406,11.95 -21.137,23.64 -32.187,35.07 -0.012,0 0.007,0 0.011,0 v 0"
         style="fill:#2c4185;fill-opacity:1;fill-rule:nonzero;stroke:none"
         transform="matrix(0.13333333,0,0,-0.13333333,0,303.78667)" /><path
         id="path61"
         d="m 238.313,965.41 386.46,669.37 c 0.012,0.02 -0.003,-0.01 0,-0.01 11.196,-11.16 22.086,-22.57 32.668,-34.22 0.286,-0.31 0.528,0.9 0.153,0.26 l -370.442,-641.732 -0.015,-0.027 c -16.293,1.551 -32.578,3.66 -48.824,6.347 v 0.012"
         style="fill:#2c4185;fill-opacity:1;fill-rule:nonzero;stroke:none"
         transform="matrix(0.13333333,0,0,-0.13333333,0,303.78667)" /><path
         id="path62"
         d="m 848.234,1855.72 106.871,185.1 c 0.004,0 -0.003,0.02 0,0.01 9.29,-14.86 18.004,-30.04 26.137,-45.49 0.063,-0.12 -0.105,-0.19 -0.168,-0.3 l -104.015,-180.2 c -0.082,-0.14 -0.055,-0.54 -0.192,-0.33 -9.156,14.01 -18.695,27.75 -28.629,41.2 l -0.004,0.01"
         style="fill:#2c4185;fill-opacity:1;fill-rule:nonzero;stroke:none"
         transform="matrix(0.13333333,0,0,-0.13333333,0,303.78667)" /><path
         id="path63"
         d="m 731.027,1652.71 54.821,94.95 c 0.007,0.01 -0.012,0 -0.004,-0.01 10.078,-13.19 19.789,-26.65 29.129,-40.36 0.144,-0.22 -0.196,-0.34 -0.309,-0.54 l -54.027,-93.6 c -0.133,-0.23 0.179,0.06 0.097,0.18 -9.546,13.37 -19.453,26.49 -29.714,39.36 l 0.007,0.02"
         style="fill:#2c4185;fill-opacity:1;fill-rule:nonzero;stroke:none"
         transform="matrix(0.13333333,0,0,-0.13333333,0,303.78667)" /><path
         id="path64"
         d="m 328.988,956.352 354.598,614.178 v -0.01 c 10.457,-12.53 20.566,-25.31 30.316,-38.33 0.555,-0.74 1.067,1.84 0.274,0.47 L 381.297,955.969 c -1.086,-1.891 1.59,0.551 0.285,0.5 -17.492,-0.688 -35.035,-0.739 -52.598,-0.117 -0.011,0 0.004,0 0.004,0 v 0"
         style="fill:#2c4185;fill-opacity:1;fill-rule:nonzero;stroke:none"
         transform="matrix(0.13333333,0,0,-0.13333333,0,303.78667)" /><path
         id="path65"
         d="m 899.395,1778.21 101.725,176.2 h 0.01 c 7.87,-17.61 15.01,-35.52 21.42,-53.68 0.06,-0.18 -0.17,-0.28 -0.26,-0.44 l -97.56,-169.02 c -0.339,-0.59 0.465,0.14 0.29,0.48 -8.133,15.76 -16.672,31.26 -25.629,46.47 -0.012,0.02 -0.004,-0.02 0.004,-0.01 v 0"
         style="fill:#2c4185;fill-opacity:1;fill-rule:nonzero;stroke:none"
         transform="matrix(0.13333333,0,0,-0.13333333,0,303.78667)" /><path
         id="path66"
         d="m 784.266,1578.81 53.707,93.02 c 0.007,0.02 -0.004,-0.01 0,-0.01 9.16,-14.85 17.914,-29.97 26.269,-45.34 0.016,-0.03 -0.023,-0.05 -0.039,-0.08 l -53.359,-92.44 c -0.477,-0.83 0.66,0.21 0.39,0.68 -8.589,14.96 -17.586,29.68 -26.98,44.16 -0.004,0.01 0.012,0 0.012,0.01 v 0"
         style="fill:#2c4185;fill-opacity:1;fill-rule:nonzero;stroke:none"
         transform="matrix(0.13333333,0,0,-0.13333333,0,303.78667)" /><path
         id="path67"
         d="m 426.832,959.711 311.109,538.859 v 0 c 9.622,-14.12 18.832,-28.48 27.625,-43.06 0.153,-0.26 0.329,0.57 0.075,0.13 L 484.27,968.16 c -0.028,-0.051 -0.02,-0.129 -0.079,-0.14 -18.98,-3.551 -38.117,-6.321 -57.359,-8.321 v 0.012"
         style="fill:#2c4185;fill-opacity:1;fill-rule:nonzero;stroke:none"
         transform="matrix(0.13333333,0,0,-0.13333333,0,303.78667)" /><path
         id="path68"
         d="m 944.914,1690.95 92.916,160.94 v -0.01 c 5.9,-21.56 10.79,-43.4 14.65,-65.43 0.19,-1.07 0.69,1.18 0.14,0.23 l -85.354,-147.89 c -0.032,-0.05 -0.039,-0.18 -0.071,-0.1 -6.984,17.68 -14.414,35.1 -22.293,52.25 l 0.012,0.01"
         style="fill:#2c4185;fill-opacity:1;fill-rule:nonzero;stroke:none"
         transform="matrix(0.13333333,0,0,-0.13333333,0,303.78667)" /><path
         id="path69"
         d="m 984.152,1592.8 76.338,132.22 c 0,0.01 0,0 0,-0.01 2.49,-28.9 3.22,-58.01 2.14,-87.16 0,-0.1 -0.1,-0.17 -0.15,-0.26 L 1002.7,1534 c -0.01,-0.01 0.01,-0.04 0,-0.02 -5.696,19.86 -11.876,39.48 -18.548,58.83 -0.011,0.04 -0.011,-0.03 0,-0.01 v 0"
         style="fill:#2c4185;fill-opacity:1;fill-rule:nonzero;stroke:none"
         transform="matrix(0.13333333,0,0,-0.13333333,0,303.78667)" /><path
         id="path70"
         d="m 832.305,1495.9 52.41,90.78 c 0.004,0 0,0.02 0.004,0.01 8.14,-16.73 15.832,-33.72 23.082,-50.94 0.414,-0.99 0.941,1.64 0.183,0.33 l -24.121,-41.79 c -0.035,-0.07 -0.043,-0.15 -0.101,-0.18 l -38.387,-24.56 -0.008,0.01 c -4.222,8.85 -8.574,17.63 -13.058,26.34 -0.004,0.01 -0.012,-0.01 -0.004,0 v 0"
         style="fill:#2c4185;fill-opacity:1;fill-rule:nonzero;stroke:none"
         transform="matrix(0.13333333,0,0,-0.13333333,0,303.78667)" /><path
         id="path71"
         d="m 533.977,979.18 253.171,438.51 c 0.008,0.01 0,-0.01 0,-0.01 8.629,-16.01 16.758,-32.26 24.379,-48.73 0.059,-0.13 -0.117,-0.2 -0.183,-0.31 L 597.926,998.859 c -0.985,-1.699 2.101,1.102 0.25,0.43 -21.074,-7.711 -42.496,-14.418 -64.192,-20.109 -0.004,0 -0.015,-0.008 -0.007,0 v 0"
         style="fill:#2c4185;fill-opacity:1;fill-rule:nonzero;stroke:none"
         transform="matrix(0.13333333,0,0,-0.13333333,0,303.78667)" /><path
         id="path72"
         d="m 655.172,1022.98 223.176,386.56 v 0.01 l 84.047,54.62 c 0.234,0.15 0.488,0.84 0.25,0.43 l -230.95,-400.17 c -0.945,-1.64 1.84,1.42 0.239,0.41 -24.77,-15.56 -50.411,-29.53 -76.754,-41.85 -0.004,0 -0.016,-0.02 -0.008,-0.01 v 0"
         style="fill:#2c4185;fill-opacity:1;fill-rule:nonzero;stroke:none"
         transform="matrix(0.13333333,0,0,-0.13333333,0,303.78667)" /><path
         id="path73"
         d="m 968.055,1310.37 c 43.425,75.22 71.505,155.09 85.185,235.99 0,0 0.02,0.03 0.01,0.01 L 806.27,1118.58 c -0.012,-0.01 0,0.01 0.007,0.02 63.215,52.3 118.352,116.55 161.778,191.77 v 0"
         style="fill:#2c4185;fill-opacity:1;fill-rule:nonzero;stroke:none"
         transform="matrix(0.13333333,0,0,-0.13333333,0,303.78667)" /><path
         id="path74"
         d="m 394.02,0 h 113.386 v 311.809 c -55.218,0 -113.386,-16.008 -113.386,-63.778 V 0"
         style="fill:#2c4185;fill-opacity:1;fill-rule:nonzero;stroke:none"
         transform="matrix(0.13333333,0,0,-0.13333333,0,303.78667)" /><path
         id="path75"
         d="M 578.27,311.809 V 0 h 99.214 v 240.941 c 29.036,0 56.692,-16.011 56.692,-42.519 V 0 h 99.215 v 198.422 c 0,65.367 -59.543,113.387 -127.555,113.387 H 578.27"
         style="fill:#2c4185;fill-opacity:1;fill-rule:nonzero;stroke:none"
         transform="matrix(0.13333333,0,0,-0.13333333,0,303.78667)" /><path
         id="path76"
         d="m 904.258,0 h 99.212 v 198.422 c 0,29.527 28.35,50.789 56.69,42.519 V 0 h 99.21 v 311.809 h -127.55 c -68.019,0 -127.562,-48.02 -127.562,-113.387 L 904.258,0"
         style="fill:#2c4185;fill-opacity:1;fill-rule:nonzero;stroke:none"
         transform="matrix(0.13333333,0,0,-0.13333333,0,303.78667)" /><path
         id="path77"
         d="M 975.125,170.078 H 1088.51 V 99.2109 H 975.125 v 70.8671"
         style="fill:#2c4185;fill-opacity:1;fill-rule:nonzero;stroke:none"
         transform="matrix(0.13333333,0,0,-0.13333333,0,303.78667)" /><path
         id="path78"
         d="m 1230.24,311.809 h 141.73 c 62.62,0 113.39,-50.77 113.39,-113.387 v -85.043 h -99.21 v 85.043 c 0,26.508 -27.66,42.519 -56.7,42.519 V 141.73 h -99.21 v 170.079"
         style="fill:#2c4185;fill-opacity:1;fill-rule:nonzero;stroke:none"
         transform="matrix(0.13333333,0,0,-0.13333333,0,303.78667)" /><path
         id="path79"
         d="M 1230.24,155.898 V 113.379 C 1230.24,50.7617 1281.01,0 1343.63,0 h 141.73 v 170.078 h -99.21 V 70.8594 c -29.04,0 -56.7,16.0117 -56.7,42.5196 v 99.211 h -99.21 v -56.692"
         style="fill:#2c4185;fill-opacity:1;fill-rule:nonzero;stroke:none"
         transform="matrix(0.13333333,0,0,-0.13333333,0,303.78667)" /><path
         id="path80"
         d="m 1556.23,311.809 h 127.55 c 68.02,0 127.56,-48.02 127.56,-113.387 v -42.524 h -99.21 v 42.524 c 0,26.508 -27.66,42.519 -56.69,42.519 V 113.379 c 0,-26.5079 27.65,-42.5196 56.69,-42.5196 v 42.5196 h 99.21 V 0 h -127.56 c -65.65,0 -121.27,48.3594 -130.39,113.379 l 2.84,198.43"
         style="fill:#2c4185;fill-opacity:1;fill-rule:nonzero;stroke:none"
         transform="matrix(0.13333333,0,0,-0.13333333,0,303.78667)" /><path
         id="path81"
         d="m 1740.48,155.898 h -113.39 v 28.352 h 113.39 v -28.352"
         style="fill:#2c4185;fill-opacity:1;fill-rule:nonzero;stroke:none"
         transform="matrix(0.13333333,0,0,-0.13333333,0,303.78667)" /></g></g></svg>
