<?xml version="1.0" encoding="UTF-8" standalone="no"?>
<!-- Created with Inkscape (http://www.inkscape.org/) -->

<svg
   width="35.38813mm"
   height="28.656725mm"
   viewBox="0 0 35.38813 28.656725"
   version="1.1"
   id="svg1"
   inkscape:version="1.3.2 (091e20e, 2023-11-25, custom)"
   sodipodi:docname="pwm_block.svg"
   inkscape:export-filename="pwm_block.png"
   inkscape:export-xdpi="1063.6248"
   inkscape:export-ydpi="1063.6248"
   xmlns:inkscape="http://www.inkscape.org/namespaces/inkscape"
   xmlns:sodipodi="http://sodipodi.sourceforge.net/DTD/sodipodi-0.dtd"
   xmlns="http://www.w3.org/2000/svg"
   xmlns:svg="http://www.w3.org/2000/svg">
  <sodipodi:namedview
     id="namedview1"
     pagecolor="#ffffff"
     bordercolor="#000000"
     borderopacity="0.25"
     inkscape:showpageshadow="2"
     inkscape:pageopacity="0.0"
     inkscape:pagecheckerboard="0"
     inkscape:deskcolor="#d1d1d1"
     inkscape:document-units="mm"
     showgrid="true"
     inkscape:zoom="3.6275533"
     inkscape:cx="61.749609"
     inkscape:cy="86.421886"
     inkscape:window-width="1920"
     inkscape:window-height="1017"
     inkscape:window-x="1358"
     inkscape:window-y="-8"
     inkscape:window-maximized="1"
     inkscape:current-layer="layer1">
    <inkscape:grid
       id="grid1"
       units="mm"
       originx="-87.047915"
       originy="-69.320836"
       spacingx="0.99999998"
       spacingy="1"
       empcolor="#0099e5"
       empopacity="0.30196078"
       color="#0099e5"
       opacity="0.14901961"
       empspacing="5"
       dotted="false"
       gridanglex="30"
       gridanglez="30"
       visible="true" />
  </sodipodi:namedview>
  <defs
     id="defs1" />
  <g
     inkscape:label="Layer 1"
     inkscape:groupmode="layer"
     id="layer1"
     transform="translate(-87.047915,-69.320837)">
    <rect
       style="fill:none;stroke:#000000;stroke-width:0.281;stroke-dasharray:none"
       id="rect1"
       width="29.719"
       height="28.375725"
       x="89.847588"
       y="69.461334" />
    <g
       fill="#000000"
       fill-opacity="1"
       id="g15"
       transform="matrix(0.352778,0,0,0.352778,38.432895,47.606559)">
    <g
   transform="translate(148.712,134.765)"
   id="g7"><path
   d="m 4.28125,-3.375 c 0,-0.078125 0,-0.140625 -0.078125,-0.140625 -0.046875,0 -0.0625,0.015625 -0.09375,0.0625 l -0.296875,0.375 c -0.296875,-0.25 -0.6875,-0.4375 -1.171875,-0.4375 -1.203125,0 -2.15625,0.828125 -2.15625,1.8125 0,0.984375 0.953125,1.8125 2.15625,1.8125 0.96875,0 1.640625,-0.609375 1.640625,-1.28125 0,-0.078125 -0.015625,-0.09375 -0.09375,-0.09375 -0.0625,0 -0.109375,0 -0.109375,0.078125 C 4.03125,-0.421875 3.3125,-0.109375 2.734375,-0.109375 2.03125,-0.109375 1.0625,-0.5 1.0625,-1.703125 c 0,-1.1875 0.9375,-1.59375 1.65625,-1.59375 0.453125,0 1.1875,0.234375 1.34375,1.171875 0.015625,0.0625 0.078125,0.0625 0.109375,0.0625 0.109375,0 0.109375,-0.046875 0.109375,-0.140625 z m 0,0"
   id="path1" />

      </g>
<g
   transform="translate(153.486,134.765)"
   id="g13"><path
   d="M 3.734375,-1.34375 H 3.53125 c -0.078125,0.578125 -0.203125,1.125 -1.171875,1.125 h -0.625 C 1.5,-0.21875 1.5,-0.25 1.5,-0.40625 v -2.5625 C 1.5,-3.125 1.5,-3.1875 1.96875,-3.1875 H 2.1875 v -0.21875 c -0.28125,0.015625 -0.640625,0.015625 -0.9375,0.015625 -0.296875,0 -0.578125,0 -0.84375,-0.015625 V -3.1875 H 0.5625 c 0.40625,0 0.40625,0.046875 0.40625,0.203125 v 2.5625 c 0,0.15625 0,0.203125 -0.40625,0.203125 H 0.40625 V 0 h 3.171875 z m 0,0"
   id="path13" />

      </g>
<g
   transform="translate(157.623,134.765)"
   id="g14"><path
   d="M 2.625,-2.0625 3.765625,-2.921875 C 3.90625,-3.03125 4.1875,-3.1875 4.578125,-3.1875 V -3.40625 C 4.375,-3.390625 4.28125,-3.390625 4.0625,-3.390625 c -0.203125,0 -0.609375,-0.015625 -0.734375,-0.015625 V -3.1875 C 3.375,-3.1875 3.5,-3.171875 3.5,-3.0625 c 0,0.046875 -0.03125,0.109375 -0.109375,0.15625 L 1.5,-1.46875 v -1.515625 c 0,-0.15625 0,-0.203125 0.40625,-0.203125 h 0.140625 v -0.21875 c -0.21875,0.015625 -0.53125,0.015625 -0.8125,0.015625 -0.28125,0 -0.59375,0 -0.828125,-0.015625 V -3.1875 H 0.5625 c 0.40625,0 0.40625,0.046875 0.40625,0.203125 v 2.5625 c 0,0.15625 0,0.203125 -0.40625,0.203125 H 0.40625 V 0 c 0.234375,-0.015625 0.546875,-0.015625 0.828125,-0.015625 0.28125,0 0.59375,0 0.8125,0.015625 V -0.21875 H 1.90625 C 1.5,-0.21875 1.5,-0.265625 1.5,-0.421875 v -0.78125 L 2.25,-1.78125 3.375,-0.5 c 0.03125,0.03125 0.078125,0.109375 0.078125,0.15625 0,0.125 -0.15625,0.125 -0.25,0.125 V 0 C 3.390625,0 3.765625,-0.015625 4,-0.015625 c 0.234375,0 0.40625,0 0.65625,0.015625 v -0.21875 c -0.375,0 -0.453125,-0.03125 -0.625,-0.234375 z m 0,0"
   id="path14" />

      </g>
</g>
    <g
       fill="#000000"
       fill-opacity="1"
       id="g19"
       transform="matrix(0.352778,0,0,0.352778,38.454943,39.029679)">
    <g
   transform="translate(148.712,146.72)"
   id="g16"><path
   d="M 2.96875,-1.703125 C 3.296875,-1.78125 3.90625,-2.03125 3.90625,-2.484375 3.90625,-3 3.140625,-3.40625 2.3125,-3.40625 H 0.421875 v 0.21875 h 0.15625 c 0.40625,0 0.40625,0.046875 0.40625,0.203125 v 2.5625 c 0,0.15625 0,0.203125 -0.40625,0.203125 H 0.421875 V 0 c 0.234375,-0.015625 0.53125,-0.015625 0.8125,-0.015625 0.265625,0 0.5625,0 0.796875,0.015625 V -0.21875 H 1.890625 c -0.40625,0 -0.40625,-0.046875 -0.40625,-0.203125 V -1.625 H 2.25 c 0.265625,0 0.5,0.078125 0.65625,0.203125 0.1875,0.15625 0.1875,0.265625 0.1875,0.5625 0,0.390625 0,0.578125 0.265625,0.78125 0.1875,0.140625 0.484375,0.1875 0.703125,0.1875 0.484375,0 0.609375,-0.40625 0.609375,-0.578125 0,-0.09375 -0.046875,-0.09375 -0.109375,-0.09375 -0.078125,0 -0.09375,0.03125 -0.09375,0.09375 C 4.4375,-0.1875 4.25,-0.0625 4.09375,-0.0625 3.75,-0.0625 3.703125,-0.4375 3.65625,-0.75 3.65625,-0.890625 3.625,-1.09375 3.609375,-1.15625 3.53125,-1.453125 3.28125,-1.625 2.96875,-1.703125 Z M 2.25,-1.78125 H 1.484375 V -3 c 0,-0.140625 0.015625,-0.171875 0.15625,-0.1875 H 2 c 0.5625,0 1.328125,0 1.328125,0.703125 C 3.328125,-1.90625 2.75,-1.78125 2.25,-1.78125 Z m 0,0"
   id="path15" />

      </g>
<g
   transform="translate(153.541,146.72)"
   id="g17"><path
   d="m 3.078125,-3.375 c 0,-0.078125 0,-0.140625 -0.078125,-0.140625 -0.03125,0 -0.0625,0 -0.109375,0.0625 l -0.1875,0.296875 c -0.234375,-0.21875 -0.546875,-0.359375 -1,-0.359375 -0.71875,0 -1.21875,0.4375 -1.21875,0.9375 0,0.28125 0.15625,0.5 0.296875,0.625 0.265625,0.21875 0.515625,0.265625 0.734375,0.3125 0.09375,0.015625 0.75,0.15625 0.796875,0.15625 0.328125,0.078125 0.640625,0.328125 0.640625,0.671875 0,0.34375 -0.359375,0.703125 -0.9375,0.703125 -0.21875,0 -0.640625,-0.03125 -0.953125,-0.234375 -0.234375,-0.15625 -0.359375,-0.375 -0.375,-0.671875 0,-0.078125 0,-0.109375 -0.09375,-0.109375 -0.109375,0 -0.109375,0.03125 -0.109375,0.140625 v 0.953125 c 0,0.09375 0,0.140625 0.078125,0.140625 0.046875,0 0.0625,-0.015625 0.09375,-0.0625 0.015625,-0.03125 0.1875,-0.265625 0.1875,-0.28125 0.375,0.28125 0.84375,0.34375 1.171875,0.34375 0.75,0 1.234375,-0.5 1.234375,-1.015625 C 3.25,-1.28125 3.015625,-1.5 2.9375,-1.578125 2.703125,-1.8125 2.421875,-1.859375 2.015625,-1.9375 1.734375,-2 1.453125,-2.046875 1.40625,-2.0625 1.203125,-2.109375 0.78125,-2.28125 0.78125,-2.671875 0.78125,-3 1.15625,-3.3125 1.703125,-3.3125 c 0.890625,0 1.109375,0.59375 1.15625,0.953125 0.015625,0.078125 0.03125,0.09375 0.109375,0.09375 0.109375,0 0.109375,-0.046875 0.109375,-0.140625 z m 0,0"
   id="path16" />

      </g>
<g
   transform="translate(157.277,146.72)"
   id="g18"><path
   d="m 4.296875,-3.359375 h -3.8125 l -0.125,1.1875 h 0.21875 c 0.078125,-0.90625 0.265625,-0.96875 1.078125,-0.96875 0.109375,0 0.28125,0 0.3125,0 0.140625,0.015625 0.15625,0.03125 0.15625,0.1875 v 2.53125 c 0,0.15625 0,0.203125 -0.53125,0.203125 h -0.25 V 0 c 0.25,-0.015625 0.765625,-0.015625 1.046875,-0.015625 0.265625,0 0.796875,0 1.046875,0.015625 v -0.21875 h -0.25 c -0.53125,0 -0.53125,-0.046875 -0.53125,-0.203125 v -2.53125 c 0,-0.140625 0,-0.171875 0.140625,-0.1875 0.046875,0 0.203125,0 0.3125,0 0.8125,0 1,0.046875 1.09375,0.96875 H 4.40625 Z m 0,0"
   id="path17" />

      </g>
</g>
    <path
       style="fill:none;stroke:#000000;stroke-width:0.141;stroke-linecap:butt;stroke-linejoin:miter;stroke-miterlimit:10;stroke-dasharray:none;stroke-opacity:1"
       d="m 89.847595,93.637429 0.79846,0.91079 -0.79846,0.91003"
       id="path19" />
    <path
       style="fill:none;stroke:#000000;stroke-width:0.140582;stroke-linecap:butt;stroke-linejoin:miter;stroke-miterlimit:10;stroke-opacity:1"
       d="m 87.047915,74.469599 h 2.80018"
       id="path21"
       sodipodi:nodetypes="cc" />
    <path
       style="fill:none;stroke:#000000;stroke-width:0.140582;stroke-linecap:butt;stroke-linejoin:miter;stroke-miterlimit:10;stroke-opacity:1"
       d="m 87.047915,90.188439 h 2.80018"
       id="path22"
       sodipodi:nodetypes="cc" />
    <path
       style="fill:none;stroke:#000000;stroke-width:0.140582;stroke-linecap:butt;stroke-linejoin:miter;stroke-miterlimit:10;stroke-opacity:1"
       d="m 87.047915,94.547859 h 2.80018"
       id="path23"
       sodipodi:nodetypes="cc" />
    <path
       style="fill:none;stroke:#000000;stroke-width:0.140582;stroke-linecap:butt;stroke-linejoin:miter;stroke-miterlimit:10;stroke-opacity:1"
       d="m 119.63586,76.829019 h 2.80019"
       id="path87"
       sodipodi:nodetypes="cc" />
    <text
       xml:space="preserve"
       style="font-style:normal;font-variant:normal;font-weight:normal;font-stretch:normal;font-size:1.94863px;line-height:1.15;font-family:'CMU Serif';-inkscape-font-specification:'CMU Serif';text-align:center;letter-spacing:0px;word-spacing:0px;text-anchor:middle;fill:#000000;fill-opacity:0.998148;stroke:none;stroke-width:0.141"
       x="81.286018"
       y="86.213493"
       id="text93"
       transform="scale(1.1487632,0.87050142)"><tspan
         sodipodi:role="line"
         id="tspan93"
         style="font-size:1.94863px;letter-spacing:0px;fill:#000000;stroke:none;stroke-width:0.141"
         x="81.286018"
         y="86.213493">OPC</tspan></text>
    <text
       xml:space="preserve"
       style="font-style:normal;font-variant:normal;font-weight:normal;font-stretch:normal;font-size:1.94863px;line-height:1.15;font-family:'CMU Serif';-inkscape-font-specification:'CMU Serif';text-align:center;letter-spacing:0px;word-spacing:0px;text-anchor:middle;fill:#000000;fill-opacity:0.998148;stroke:none;stroke-width:0.141"
       x="100.2828"
       y="88.934349"
       id="text94"
       transform="scale(1.1487632,0.87050142)"><tspan
         sodipodi:role="line"
         id="tspan94"
         style="font-size:1.94863px;letter-spacing:0px;fill:#000000;stroke:none;stroke-width:0.141"
         x="100.2828"
         y="88.934349">LED</tspan></text>
    <text
       xml:space="preserve"
       style="font-style:normal;font-variant:normal;font-weight:normal;font-stretch:normal;font-size:4.23333px;line-height:1.15;font-family:'CMU Serif';-inkscape-font-specification:'CMU Serif';text-align:center;letter-spacing:0px;word-spacing:0px;text-anchor:middle;fill:#000000;fill-opacity:0.998148;stroke:none;stroke-width:0.141"
       x="104.71019"
       y="85.048592"
       id="text96"><tspan
         sodipodi:role="line"
         style="font-size:4.23333px;letter-spacing:0px;fill:#000000;stroke:none;stroke-width:0.141"
         x="104.71019"
         y="85.048592"
         id="tspan98">PWM</tspan></text>
  </g>
</svg>
